<svg width="900" height="500" viewBox="0 0 900 500" fill="none" xmlns="http://www.w3.org/2000/svg">
<line x1="127.049" y1="309.899" x2="377.642" y2="454.579" stroke="black" stroke-width="3"/>
<g clip-path="url(#clip0_1693_5273)">
<rect x="220.41" y="339.552" width="98" height="45" rx="15" transform="rotate(30 220.41 339.552)" fill="#FAFAF1"/>
<path d="M222.242 379.293C224.207 375.889 227.019 374.499 231.823 374.398L236.077 374.29C239.024 374.225 240.672 373.652 241.812 371.677C243.177 369.313 242.547 367.044 239.845 365.484C237.169 363.939 234.796 364.509 233.296 367.107L233.101 367.445L230.503 365.945L230.653 365.685C232.933 361.736 236.975 360.675 241.262 363.15C245.263 365.46 246.731 369.217 244.466 373.14C242.996 375.686 240.616 377.049 235.856 377.072L233.315 377.094C229.59 377.126 227.996 377.488 227.015 378.827L238.005 385.172L236.61 387.588L222.242 379.293ZM257.567 390.646L260.809 392.172L259.579 394.302L256.652 392.231L253.652 397.427L251.184 396.002L254.184 390.806L244.017 385.317L245.112 383.42L261.145 375.149L265.172 377.474L257.567 390.646ZM255.099 389.221L261.699 377.79L261.621 377.745L247.985 384.803L255.099 389.221ZM265.317 404.162L273.477 390.028L268.359 387.073L269.454 385.177L269.714 385.327C271.324 386.257 272.711 386.676 273.958 386.496C275.015 386.344 275.952 385.742 276.865 384.641L277.097 384.359L279.513 385.754L267.993 405.707L265.317 404.162Z" fill="black"/>
</g>
<line x1="127.182" y1="249.728" x2="443.419" y2="67.1478" stroke="black" stroke-width="3"/>
<g clip-path="url(#clip1_1693_5273)">
<rect x="224.373" y="169.365" width="104" height="45" rx="15" transform="rotate(-30 224.373 169.365)" fill="#FAFAF1"/>
<path d="M266.842 184.013C262.633 186.443 258.775 185.76 256.061 181.958L258.602 180.18C260.507 182.82 262.835 183.312 265.641 181.692C268.733 179.907 269.18 177.502 267.92 175.319C266.525 172.903 264.145 172.441 261.313 174.076L259.442 175.156L258.167 172.948L260.012 171.883C262.402 170.503 263.018 168.45 261.878 166.475C260.633 164.319 258.392 164.157 256.028 165.522C253.3 167.097 252.789 169.332 253.802 171.866L251.105 173.076C249.447 169.184 250.581 165.688 254.738 163.288C258.895 160.888 262.526 161.598 264.341 164.741C265.556 166.846 265.446 168.815 263.64 170.966L263.67 171.018C266.81 170.037 269.085 171.217 270.555 173.763C272.745 177.556 271.155 181.523 266.842 184.013ZM286.957 162.873L289.898 160.829L291.128 162.959L287.872 164.458L290.872 169.654L288.403 171.079L285.403 165.883L275.566 171.944L274.471 170.047L275.325 152.026L279.352 149.701L286.957 162.873ZM284.488 164.298L277.888 152.867L277.81 152.912L277.105 168.25L284.488 164.298ZM298.993 147.783C302.865 145.548 306.97 146.538 309.31 150.591C311.62 154.592 310.597 158.82 306.206 161.355C303.894 162.69 301.558 162.965 299.057 162.053C296.776 161.223 295.12 159.615 293.14 156.185C289.585 150.028 288.271 144.032 294.455 140.462C297.884 138.482 301.174 138.661 303.492 140.995L301.093 142.899C299.878 141.695 298.064 141.253 295.648 142.648C292.452 144.493 291.807 147.637 295.094 153.568C295.206 151.183 296.655 149.133 298.993 147.783ZM304.942 159.106C307.592 157.576 308.377 154.975 306.787 152.221C305.167 149.415 302.473 148.65 299.823 150.18C297.511 151.515 296.275 153.995 297.252 157.068C298.439 158.703 299.35 159.321 300.445 159.658C302.145 160.201 303.669 159.841 304.942 159.106Z" fill="black"/>
</g>
<path d="M539.108 156.933C540.818 157.923 541.867 159.743 541.867 161.723C542.987 169.873 542.837 178.533 541.867 187.533L537.897 190.363L454.027 239.093C452.797 239.803 451.997 240.163 451.188 240.153C450.368 240.153 449.568 239.793 448.348 239.093L382.658 201.163L378.688 198.333V172.523C378.688 170.543 379.738 168.723 381.448 167.733L382.648 167.033C382.648 167.033 408.227 149.593 426.487 139.803C444.747 130.013 465.608 118.423 465.608 118.423C467.928 117.073 470.788 117.073 473.108 118.423C473.108 118.423 492.778 128.293 503.018 134.273C513.248 140.243 539.108 156.933 539.108 156.933Z" fill="#B8AB8A" stroke="#1F1F1F" stroke-width="1.5" stroke-miterlimit="10"/>
<path d="M450.328 238.214C451.838 229.394 450.978 220.364 450.978 212.054L450.328 238.214Z" fill="#B8AB8A"/>
<path d="M450.328 238.214C451.838 229.394 450.978 220.364 450.978 212.054" stroke="#1F1F1F" stroke-width="1.5" stroke-miterlimit="10"/>
<path d="M379.809 177.584C402.719 192.844 424.409 203.984 449.639 216.744L379.809 177.584Z" fill="#B8AB8A"/>
<path d="M379.809 177.584C402.719 192.844 424.409 203.984 449.639 216.744" stroke="#1F1F1F" stroke-width="1.5" stroke-miterlimit="10"/>
<path d="M548.238 130.073C545.568 132.743 545.138 134.233 544.468 138.103C541.728 152.233 542.388 169.483 544.468 188.053L548.438 190.883L632.308 239.613C633.538 240.323 634.338 240.683 635.148 240.673C635.968 240.673 636.768 240.313 637.988 239.613L657.908 228.103L661.878 225.273C662.978 209.493 663.358 193.873 661.878 178.683C661.878 170.223 660.468 169.583 656.218 166.893L574.938 119.293C572.618 117.943 570.308 118.283 567.438 118.653C561.118 120.373 554.028 124.693 548.228 130.073H548.238Z" fill="#B8AB8A" stroke="#1F1F1F" stroke-width="1.5" stroke-miterlimit="10"/>
<path d="M635.038 186.363C633.708 194.833 635.158 228.193 635.218 237.703L635.038 186.363Z" fill="#B8AB8A"/>
<path d="M635.038 186.363C633.708 194.833 635.158 228.193 635.218 237.703" stroke="#1F1F1F" stroke-width="1.5" stroke-miterlimit="10"/>
<path d="M658.417 170.373C653.197 171.063 641.467 178.083 635.357 182.953L658.417 170.373Z" fill="#B8AB8A"/>
<path d="M658.417 170.373C653.197 171.063 641.467 178.083 635.357 182.953" stroke="#1F1F1F" stroke-width="1.5" stroke-miterlimit="10"/>
<path d="M648.928 178.923C648.928 178.923 651.078 184.813 651.078 207.723V230.153" fill="#B8AB8A"/>
<path d="M648.928 178.923C648.928 178.923 651.078 184.813 651.078 207.723V230.153" stroke="#1F1F1F" stroke-width="1.5" stroke-miterlimit="10"/>
<path d="M566.218 145.023C568.888 147.693 569.318 149.183 569.988 153.053C572.728 167.183 572.068 184.433 569.988 203.003L566.018 205.834L482.148 254.563C480.918 255.273 480.118 255.633 479.308 255.623C478.488 255.623 477.688 255.263 476.468 254.563L456.548 243.054L452.578 240.223C451.478 224.443 451.098 208.823 452.578 193.633C452.578 185.173 453.988 184.533 458.238 181.843L539.518 134.243C541.838 132.893 544.148 133.233 547.018 133.603C553.338 135.323 560.428 139.643 566.228 145.023H566.218Z" fill="#B8AB8A" stroke="#1F1F1F" stroke-width="1.5" stroke-miterlimit="10"/>
<path d="M479.416 201.304C480.746 209.774 479.296 243.134 479.236 252.644L479.416 201.304Z" fill="#B8AB8A"/>
<path d="M479.416 201.304C480.746 209.774 479.296 243.134 479.236 252.644" stroke="#1F1F1F" stroke-width="1.5" stroke-miterlimit="10"/>
<path d="M456.037 185.314C461.257 186.004 472.987 193.024 479.097 197.894L456.037 185.314Z" fill="#B8AB8A"/>
<path d="M456.037 185.314C461.257 186.004 472.987 193.024 479.097 197.894" stroke="#1F1F1F" stroke-width="1.5" stroke-miterlimit="10"/>
<path d="M465.527 193.863C465.527 193.863 463.377 199.753 463.377 222.663C463.377 226.943 463.377 245.093 463.377 245.093" fill="#B8AB8A"/>
<path d="M465.527 193.863C465.527 193.863 463.377 199.753 463.377 222.663C463.377 226.943 463.377 245.093 463.377 245.093" stroke="#1F1F1F" stroke-width="1.5" stroke-miterlimit="10"/>
<path d="M658.677 225.593L659.877 226.293C661.587 227.283 662.637 229.103 662.637 231.083C663.937 239.773 663.887 248.373 662.637 256.893L658.667 259.723L574.797 308.453C573.567 309.163 572.767 309.523 571.957 309.513C571.137 309.513 570.337 309.153 569.117 308.453L485.257 259.993L481.287 257.163V231.353C481.287 229.373 482.337 227.553 484.047 226.563C484.047 226.563 502.997 215.513 524.147 203.123C526.757 201.593 529.407 200.043 532.047 198.493C556.137 184.373 568.217 177.253 568.217 177.253C570.537 175.903 573.397 175.903 575.717 177.253C575.717 177.253 589.247 183.463 614.277 197.163C639.297 210.863 658.677 225.593 658.677 225.593Z" fill="#B8AB8A" stroke="#1F1F1F" stroke-width="1.5" stroke-miterlimit="10"/>
<path d="M483.627 236.163C506.537 251.423 545.187 272.503 570.417 285.263L483.627 236.163Z" fill="#B8AB8A"/>
<path d="M483.627 236.163C506.537 251.423 545.187 272.503 570.417 285.263" stroke="#1F1F1F" stroke-width="1.5" stroke-miterlimit="10"/>
<path d="M571.637 306.973C573.147 298.153 572.287 289.933 572.287 281.623L571.637 306.973Z" fill="#B8AB8A"/>
<path d="M571.637 306.973C573.147 298.153 572.287 289.933 572.287 281.623" stroke="#1F1F1F" stroke-width="1.5" stroke-miterlimit="10"/>
<path d="M445.798 209.693L446.998 210.393C448.708 211.383 449.758 213.203 449.758 215.183C451.058 223.873 451.008 232.473 449.758 240.993L445.788 243.823L361.918 292.553C360.688 293.263 359.888 293.623 359.078 293.613C358.258 293.613 357.458 293.253 356.238 292.553L272.378 244.093L268.408 241.263V215.453C268.408 213.473 269.458 211.653 271.168 210.663C271.168 210.663 290.118 199.613 311.268 187.223C313.878 185.693 316.528 184.143 319.168 182.593C343.258 168.473 355.338 161.353 355.338 161.353C357.658 160.003 360.518 160.003 362.838 161.353C362.838 161.353 376.368 167.563 401.398 181.263C426.428 194.963 445.798 209.693 445.798 209.693Z" fill="#B8AB8A" stroke="#1F1F1F" stroke-width="1.5" stroke-miterlimit="10"/>
<path d="M270.748 220.264C293.658 235.524 332.308 256.604 357.538 269.364L270.748 220.264Z" fill="#B8AB8A"/>
<path d="M270.748 220.264C293.658 235.524 332.308 256.604 357.538 269.364" stroke="#1F1F1F" stroke-width="1.5" stroke-miterlimit="10"/>
<path d="M358.758 291.074C360.268 282.254 359.408 274.034 359.408 265.724L358.758 291.074Z" fill="#B8AB8A"/>
<path d="M358.758 291.074C360.268 282.254 359.408 274.034 359.408 265.724" stroke="#1F1F1F" stroke-width="1.5" stroke-miterlimit="10"/>
<path d="M353.199 225.243C363.859 218.333 374.719 212.103 385.829 206.793L385.939 206.773C387.879 205.973 391.269 207.463 392.919 211.463C394.569 215.463 393.849 220.443 391.909 221.243C382.479 228.333 371.399 234.383 359.159 239.713C357.219 240.513 353.519 237.923 351.879 233.923C350.229 229.923 351.259 226.043 353.189 225.243H353.199Z" fill="#B8AB8A" stroke="#1F1F1F" stroke-width="1.5" stroke-miterlimit="10"/>
<path d="M359.508 238.932C360.768 238.042 361.338 235.023 359.688 231.023C358.038 227.023 356.108 225.713 354.408 225.562" stroke="#1F1F1F" stroke-width="1.5" stroke-miterlimit="10"/>
<path d="M392.429 214.684C383.199 220.964 372.639 226.884 360.959 232.494" stroke="#1F1F1F" stroke-width="1.5" stroke-miterlimit="10"/>
<path d="M422.268 208.993C426.608 195.483 426.998 199.113 427.658 190.763C427.658 188.173 428.168 184.373 423.998 187.463C412.618 188.713 388.358 202.193 378.848 210.473C374.448 211.043 375.668 213.543 375.148 214.643C373.008 218.743 364.858 218.263 359.088 241.353C358.748 243.483 359.478 245.223 360.118 246.813C360.788 248.743 363.048 249.583 364.818 248.563C366.898 248.003 368.478 246.053 370.448 245.443C387.198 240.243 412.648 224.703 414.218 220.923C414.848 219.243 420.048 215.133 422.268 208.993Z" fill="#B8AB8A" stroke="#1F1F1F" stroke-width="1.5" stroke-miterlimit="10"/>
<path d="M363.648 246.123C364.368 242.413 376.718 232.493 382.008 220.403C382.698 218.813 382.198 216.953 380.848 215.863" stroke="#1F1F1F" stroke-width="1.5" stroke-miterlimit="10"/>
<path d="M389.709 215.863C389.709 215.863 409.099 211.203 421.749 197.253L389.709 215.863Z" fill="#B8AB8A"/>
<path d="M389.709 215.863C389.709 215.863 409.099 211.203 421.749 197.253" stroke="#1F1F1F" stroke-width="1.5" stroke-miterlimit="10"/>
<path d="M473.119 198.464C475.789 201.134 476.219 202.624 476.889 206.494C479.629 220.624 478.969 237.874 476.889 256.444L472.919 259.274L389.049 308.004C387.819 308.714 387.019 309.074 386.209 309.064C385.389 309.064 384.589 308.704 383.369 308.004L363.449 296.494L359.479 293.664C358.379 277.884 357.999 262.264 359.479 247.074C359.479 238.614 360.889 237.974 365.139 235.284L446.419 187.684C448.739 186.334 451.049 186.674 453.919 187.044C460.239 188.764 467.329 193.084 473.129 198.464H473.119Z" fill="#B8AB8A" stroke="#1F1F1F" stroke-width="1.5" stroke-miterlimit="10"/>
<path d="M386.319 254.754C387.649 263.224 386.199 296.584 386.139 306.094L386.319 254.754Z" fill="#B8AB8A"/>
<path d="M386.319 254.754C387.649 263.224 386.199 296.584 386.139 306.094" stroke="#1F1F1F" stroke-width="1.5" stroke-miterlimit="10"/>
<path d="M362.938 238.754C368.157 239.444 379.887 246.464 385.997 251.334L362.938 238.754Z" fill="#B8AB8A"/>
<path d="M362.938 238.754C368.157 239.444 379.887 246.464 385.997 251.334" stroke="#1F1F1F" stroke-width="1.5" stroke-miterlimit="10"/>
<path d="M372.427 247.315C372.427 247.315 370.277 253.205 370.277 276.115C370.277 280.395 370.277 298.545 370.277 298.545" fill="#B8AB8A"/>
<path d="M372.427 247.315C372.427 247.315 370.277 253.205 370.277 276.115C370.277 280.395 370.277 298.545 370.277 298.545" stroke="#1F1F1F" stroke-width="1.5" stroke-miterlimit="10"/>
<path d="M549.639 269.034C551.349 270.024 552.399 271.844 552.399 273.824C553.519 281.974 553.369 290.634 552.399 299.634L548.429 302.464L464.559 351.194C463.329 351.904 462.529 352.264 461.719 352.254C460.899 352.254 460.099 351.894 458.879 351.194L393.189 313.264L389.219 310.434V284.624C389.219 282.644 390.269 280.824 391.979 279.834L393.179 279.134C393.179 279.134 418.759 261.694 437.019 251.904C455.279 242.114 476.139 230.524 476.139 230.524C478.459 229.174 481.319 229.174 483.639 230.524C483.639 230.524 503.309 240.394 513.549 246.374C523.779 252.344 549.639 269.034 549.639 269.034Z" fill="#B8AB8A" stroke="#1F1F1F" stroke-width="1.5" stroke-miterlimit="10"/>
<path d="M460.857 350.315C462.367 341.495 461.507 332.465 461.507 324.155L460.857 350.315Z" fill="#B8AB8A"/>
<path d="M460.857 350.315C462.367 341.495 461.507 332.465 461.507 324.155" stroke="#1F1F1F" stroke-width="1.5" stroke-miterlimit="10"/>
<path d="M390.338 289.674C413.248 304.934 434.938 316.074 460.168 328.834L390.338 289.674Z" fill="#B8AB8A"/>
<path d="M390.338 289.674C413.248 304.934 434.938 316.074 460.168 328.834" stroke="#1F1F1F" stroke-width="1.5" stroke-miterlimit="10"/>
<path d="M467.94 245.484C467.68 244.134 466.85 243.164 466.39 239.804C465.94 236.554 463.4 228.474 462.35 224.964C462.02 223.874 460.94 221.064 460.52 219.034C459.85 217.104 459.3 216.074 457.53 217.094C456.8 217.594 455.74 219.394 455 219.894C443.41 227.814 430.97 235.444 417.77 241.604C415.97 242.444 412.91 241.264 411.13 242.124C409.78 242.904 410.98 246.344 411.49 247.814C412.78 250.424 417.06 262.214 416.85 270.634C417.26 273.394 419.82 276.714 421.59 275.694C426.39 272.894 426.81 271.614 430.29 269.734C443.37 262.664 456.21 256.114 465.8 248.344C467.15 247.564 468.45 246.944 467.94 245.474V245.484Z" fill="#B8AB8A" stroke="#1F1F1F" stroke-width="1.5" stroke-miterlimit="10"/>
<path d="M432.368 261.314C443.028 254.404 453.888 248.174 464.998 242.864L465.108 242.844C467.048 242.044 470.438 243.534 472.088 247.534C473.738 251.534 473.018 256.514 471.078 257.314C461.648 264.404 450.568 270.454 438.328 275.784C436.388 276.584 432.688 273.994 431.048 269.994C429.408 265.994 430.428 262.114 432.358 261.314H432.368Z" fill="#B8AB8A" stroke="#1F1F1F" stroke-width="1.5" stroke-miterlimit="10"/>
<path d="M438.678 275.005C439.938 274.115 440.508 271.095 438.858 267.095C437.208 263.095 435.278 261.785 433.578 261.635" stroke="#1F1F1F" stroke-width="1.5" stroke-miterlimit="10"/>
<path d="M471.597 250.754C462.367 257.034 451.807 262.954 440.127 268.564" stroke="#1F1F1F" stroke-width="1.5" stroke-miterlimit="10"/>
<path d="M446.379 262.454C446.559 262.634 447.399 265.104 447.399 265.104L444.999 266.214L443.959 263.594L446.379 262.454Z" fill="#B8AB8A" stroke="#1F1F1F" stroke-width="1.5" stroke-miterlimit="10"/>
<path d="M241.078 300.044L239.878 300.744C238.168 301.734 237.118 303.554 237.118 305.534C235.818 314.224 235.868 322.824 237.118 331.344L241.088 334.174L324.958 382.904C326.188 383.614 326.988 383.974 327.798 383.964C328.618 383.964 329.418 383.604 330.638 382.904L414.498 334.444L418.468 331.614V305.804C418.468 303.824 417.418 302.004 415.708 301.014C415.708 301.014 396.758 289.964 375.608 277.574C372.998 276.044 370.348 274.494 367.708 272.944C343.618 258.824 331.538 251.704 331.538 251.704C329.218 250.354 326.358 250.354 324.038 251.704C324.038 251.704 310.508 257.914 285.478 271.614C260.458 285.314 241.078 300.044 241.078 300.044Z" fill="#B8AB8A" stroke="#1F1F1F" stroke-width="1.5" stroke-miterlimit="10"/>
<path d="M416.128 310.624C393.218 325.884 354.568 346.964 329.338 359.724L416.128 310.624Z" fill="#B8AB8A"/>
<path d="M416.128 310.624C393.218 325.884 354.568 346.964 329.338 359.724" stroke="#1F1F1F" stroke-width="1.5" stroke-miterlimit="10"/>
<path d="M328.118 381.434C326.608 372.614 327.468 364.394 327.468 356.084L328.118 381.434Z" fill="#B8AB8A"/>
<path d="M328.118 381.434C326.608 372.614 327.468 364.394 327.468 356.084" stroke="#1F1F1F" stroke-width="1.5" stroke-miterlimit="10"/>
<path d="M633.799 212.983C624.949 193.303 630.929 150.213 624.529 126.503C624.059 124.743 625.409 122.343 625.359 120.523C625.789 117.303 623.169 114.483 619.919 114.673C594.529 126.063 551.739 130.873 522.959 122.153C520.479 122.303 518.459 124.183 518.129 126.643C517.599 143.433 517.319 160.523 519.089 178.843C520.189 190.253 511.979 203.213 509.539 214.843C509.109 218.063 511.729 220.883 514.979 220.693C544.749 221.813 602.539 223.873 626.039 218.723C628.519 218.573 634.679 214.953 633.799 212.983Z" fill="#B8AB8A" stroke="#1F1F1F" stroke-width="1.5" stroke-miterlimit="10"/>
<defs>
<clipPath id="clip0_1693_5273">
<rect x="220.41" y="339.552" width="98" height="45" rx="15" transform="rotate(30 220.41 339.552)" fill="white"/>
</clipPath>
<clipPath id="clip1_1693_5273">
<rect x="224.373" y="169.365" width="104" height="45" rx="15" transform="rotate(-30 224.373 169.365)" fill="white"/>
</clipPath>
</defs>
</svg>
