<svg width="900" height="400" viewBox="0 0 900 400" fill="none" xmlns="http://www.w3.org/2000/svg">
<line x1="275.731" y1="227.844" x2="456.891" y2="332.437" stroke="black" stroke-width="3"/>
<g clip-path="url(#clip0_1696_14300)">
<rect x="334.377" y="237.455" width="98" height="45" rx="15" transform="rotate(30 334.377 237.455)" fill="#FAFAF1"/>
<path d="M336.21 277.195C338.175 273.792 340.987 272.401 345.791 272.3L350.045 272.192C352.992 272.127 354.64 271.554 355.78 269.58C357.145 267.215 356.515 264.946 353.813 263.386C351.137 261.841 348.764 262.411 347.264 265.009L347.069 265.347L344.471 263.847L344.621 263.587C346.901 259.638 350.943 258.577 355.23 261.052C359.231 263.362 360.699 267.12 358.434 271.043C356.964 273.589 354.583 274.951 349.824 274.975L347.282 274.997C343.558 275.029 341.963 275.39 340.982 276.729L351.972 283.074L350.577 285.49L336.21 277.195ZM359.774 290.8L367.934 276.666L362.816 273.711L363.911 271.815L364.17 271.965C365.781 272.895 367.167 273.314 368.415 273.133C369.472 272.982 370.409 272.379 371.322 271.278L371.554 270.997L373.97 272.392L362.45 292.345L359.774 290.8ZM376.505 301.014C371.517 298.134 370.892 293.097 374.867 286.212C378.842 279.327 383.502 277.375 388.49 280.255C393.453 283.12 394.093 288.132 390.118 295.017C386.143 301.902 381.468 303.879 376.505 301.014ZM377.81 298.754C381.422 300.839 384.564 298.635 387.519 293.517C390.474 288.398 390.812 284.575 387.2 282.49C383.589 280.405 380.446 282.608 377.491 287.727C374.536 292.845 374.199 296.669 377.81 298.754Z" fill="black"/>
</g>
<line x1="241.003" y1="145.625" x2="378.575" y2="66.1974" stroke="black" stroke-width="3"/>
<g clip-path="url(#clip1_1696_14300)">
<rect x="259.885" y="111.829" width="91" height="45" rx="15" transform="rotate(-30 259.885 111.829)" fill="#FAFAF1"/>
<path d="M299.081 127.882L290.921 113.748L285.803 116.703L284.708 114.806L284.968 114.656C286.579 113.726 287.635 112.736 288.102 111.565C288.5 110.574 288.446 109.461 287.949 108.12L287.821 107.778L290.237 106.383L301.757 126.337L299.081 127.882ZM312.909 119.898L304.749 105.765L299.631 108.72L298.536 106.823L298.796 106.673C300.406 105.743 301.462 104.752 301.93 103.582C302.327 102.59 302.274 101.478 301.777 100.137L301.649 99.7949L304.065 98.3999L315.585 118.353L312.909 119.898ZM330.001 110.549C326.13 112.784 322.165 112.337 319.729 109.137L322.292 107.276C324.106 109.519 326.592 109.504 328.8 108.229C331.684 106.564 332.193 103.845 330.588 101.066C329.028 98.3635 326.512 97.4258 323.498 99.1658C321.758 100.171 320.959 101.428 320.453 103.072L317.567 104.253L313.658 92.8615L324.726 86.4715L326.166 88.9657L317.15 94.1707L319.202 100.365L319.284 100.387C319.936 98.9361 320.913 97.7485 322.706 96.7135C327.175 94.1335 331.16 95.8162 333.26 99.4536C335.405 103.169 334.886 107.729 330.001 110.549Z" fill="black"/>
</g>
<path d="M386.176 102.262C383.506 104.932 383.076 106.422 382.406 110.292C379.666 124.422 380.326 141.672 382.406 160.242L386.376 163.072L470.246 211.802C471.476 212.512 472.276 212.872 473.086 212.862C473.906 212.862 474.706 212.502 475.926 211.802L495.846 200.292L499.816 197.462C500.916 181.682 501.296 166.062 499.816 150.872C499.816 142.412 498.406 141.772 494.156 139.082L412.876 91.482C410.556 90.132 408.246 90.472 405.376 90.842C399.056 92.562 391.966 96.882 386.166 102.262H386.176Z" fill="#B8AB8A" stroke="#1F1F1F" stroke-width="1.5" stroke-miterlimit="10"/>
<path d="M472.976 158.553C471.646 167.023 473.096 200.383 473.156 209.893L472.976 158.553Z" fill="#B8AB8A"/>
<path d="M472.976 158.553C471.646 167.023 473.096 200.383 473.156 209.893" stroke="#1F1F1F" stroke-width="1.5" stroke-miterlimit="10"/>
<path d="M496.356 142.553C491.136 143.243 479.406 150.263 473.296 155.133L496.356 142.553Z" fill="#B8AB8A"/>
<path d="M496.356 142.553C491.136 143.243 479.406 150.263 473.296 155.133" stroke="#1F1F1F" stroke-width="1.5" stroke-miterlimit="10"/>
<path d="M486.866 151.104C486.866 151.104 489.016 156.994 489.016 179.904V202.334" fill="#B8AB8A"/>
<path d="M486.866 151.104C486.866 151.104 489.016 156.994 489.016 179.904V202.334" stroke="#1F1F1F" stroke-width="1.5" stroke-miterlimit="10"/>
<path d="M309.655 172.822C307.945 173.812 306.895 175.632 306.895 177.612C305.775 185.762 305.925 194.422 306.895 203.422L310.865 206.252L394.735 254.982C395.965 255.692 396.765 256.052 397.575 256.042C398.395 256.042 399.195 255.682 400.415 254.982L466.105 217.052L470.075 214.222V188.412C470.075 186.432 469.025 184.612 467.315 183.622L466.115 182.922C466.115 182.922 440.535 165.482 422.275 155.692C404.015 145.902 383.155 134.312 383.155 134.312C380.835 132.962 377.975 132.962 375.655 134.312C375.655 134.312 355.985 144.182 345.745 150.162C335.515 156.132 309.655 172.822 309.655 172.822Z" fill="#B8AB8A" stroke="#1F1F1F" stroke-width="1.5" stroke-miterlimit="10"/>
<path d="M398.435 254.112C396.925 245.292 397.785 236.262 397.785 227.952L398.435 254.112Z" fill="#B8AB8A"/>
<path d="M398.435 254.112C396.925 245.292 397.785 236.262 397.785 227.952" stroke="#1F1F1F" stroke-width="1.5" stroke-miterlimit="10"/>
<path d="M468.945 193.471C446.035 208.731 424.345 219.871 399.115 232.631L468.945 193.471Z" fill="#B8AB8A"/>
<path d="M468.945 193.471C446.035 208.731 424.345 219.871 399.115 232.631" stroke="#1F1F1F" stroke-width="1.5" stroke-miterlimit="10"/>
<path d="M393.355 148.792C393.615 147.442 394.665 145.962 394.905 144.622C395.495 141.392 397.895 133.292 398.945 129.782C399.275 128.692 400.355 125.882 400.775 123.852C401.445 121.922 401.995 120.892 403.765 121.912C404.495 122.412 405.555 124.212 406.295 124.712C417.885 132.632 430.325 140.262 443.525 146.422C445.325 147.262 448.385 146.082 450.165 146.942C451.515 147.722 450.315 151.162 449.805 152.632C448.515 155.242 444.235 167.032 444.445 175.452C443.775 177.382 441.475 181.532 439.705 180.512C434.905 177.712 433.775 175.182 430.625 173.682C417.185 167.322 405.085 159.412 395.495 151.652C394.145 150.872 392.845 150.252 393.355 148.782V148.792Z" fill="#B8AB8A" stroke="#1F1F1F" stroke-width="1.5" stroke-miterlimit="10"/>
<path d="M401.696 155.372C399.706 146.732 404.466 134.662 409.686 130.172" stroke="#1F1F1F" stroke-width="1.5" stroke-miterlimit="10"/>
<path d="M398.966 153.603C396.976 144.963 401.735 132.893 406.955 128.403" stroke="#1F1F1F" stroke-width="1.5" stroke-miterlimit="10"/>
<path d="M402.865 135.213C403.045 135.393 405.045 136.243 405.045 136.243L406.305 133.883L404.085 132.883L402.875 135.213H402.865Z" fill="#1F1F1F" stroke="#1F1F1F" stroke-width="1.5" stroke-miterlimit="10"/>
<path d="M479.275 155.701C476.605 158.371 476.175 159.861 475.505 163.731C472.765 177.861 473.425 195.111 475.505 213.681L479.475 216.511L563.345 265.241C564.575 265.951 565.375 266.311 566.185 266.301C567.005 266.301 567.805 265.941 569.025 265.241L588.945 253.731L592.915 250.901C594.015 235.121 594.395 219.501 592.915 204.311C592.915 195.851 591.505 195.211 587.255 192.521L505.975 144.921C503.655 143.571 501.345 143.911 498.475 144.281C492.155 146.001 485.065 150.321 479.265 155.701H479.275Z" fill="#B8AB8A" stroke="#1F1F1F" stroke-width="1.5" stroke-miterlimit="10"/>
<path d="M566.075 211.993C564.745 220.463 566.195 253.823 566.255 263.333L566.075 211.993Z" fill="#B8AB8A"/>
<path d="M566.075 211.993C564.745 220.463 566.195 253.823 566.255 263.333" stroke="#1F1F1F" stroke-width="1.5" stroke-miterlimit="10"/>
<path d="M589.456 196.003C584.236 196.693 572.506 203.713 566.396 208.583L589.456 196.003Z" fill="#B8AB8A"/>
<path d="M589.456 196.003C584.236 196.693 572.506 203.713 566.396 208.583" stroke="#1F1F1F" stroke-width="1.5" stroke-miterlimit="10"/>
<path d="M579.966 204.553C579.966 204.553 582.116 210.443 582.116 233.353V255.783" fill="#B8AB8A"/>
<path d="M579.966 204.553C579.966 204.553 582.116 210.443 582.116 233.353V255.783" stroke="#1F1F1F" stroke-width="1.5" stroke-miterlimit="10"/>
<path d="M402.755 226.271C401.045 227.261 399.995 229.081 399.995 231.061C398.875 239.211 399.025 247.871 399.995 256.871L403.965 259.701L487.835 308.431C489.065 309.141 489.865 309.501 490.675 309.491C491.495 309.491 492.295 309.131 493.515 308.431L559.205 270.501L563.175 267.671V241.861C563.175 239.881 562.125 238.061 560.415 237.071L559.215 236.371C559.215 236.371 533.635 218.931 515.375 209.141C497.115 199.351 476.255 187.761 476.255 187.761C473.935 186.411 471.075 186.411 468.755 187.761C468.755 187.761 449.085 197.631 438.845 203.611C428.615 209.581 402.755 226.271 402.755 226.271Z" fill="#B8AB8A" stroke="#1F1F1F" stroke-width="1.5" stroke-miterlimit="10"/>
<path d="M491.535 307.551C490.025 298.731 490.884 289.701 490.884 281.391L491.535 307.551Z" fill="#B8AB8A"/>
<path d="M491.535 307.551C490.025 298.731 490.884 289.701 490.884 281.391" stroke="#1F1F1F" stroke-width="1.5" stroke-miterlimit="10"/>
<path d="M562.045 246.911C539.135 262.171 517.445 273.311 492.215 286.071L562.045 246.911Z" fill="#B8AB8A"/>
<path d="M562.045 246.911C539.135 262.171 517.445 273.311 492.215 286.071" stroke="#1F1F1F" stroke-width="1.5" stroke-miterlimit="10"/>
<path d="M486.405 204.262C486.665 202.912 487.405 201.672 487.725 200.362C491.655 184.552 498.905 168.202 501.135 164.242C501.985 162.742 503.215 160.232 504.015 158.662C504.535 157.642 504.725 155.342 505.275 154.342C505.945 152.412 507.365 149.692 508.935 151.042C522.705 160.592 538.025 168.202 553.695 175.752C555.045 176.532 555.655 178.162 555.145 179.632C554.705 180.592 553.725 182.372 553.325 183.362C551.185 188.672 548.885 193.962 546.575 200.182C543.285 209.062 540.835 217.322 537.835 226.472C537.295 228.132 537.445 230.342 536.805 231.932C536.135 233.862 533.875 234.702 532.105 233.682C530.025 233.122 528.365 231.392 526.475 230.562C510.735 223.722 500.055 216.792 490.135 208.132C488.785 207.352 485.895 205.722 486.405 204.252V204.262Z" fill="#B8AB8A" stroke="#1F1F1F" stroke-width="1.5" stroke-miterlimit="10"/>
<path d="M553.556 180.832C547.766 189.742 535.306 227.702 536.086 231.692" stroke="#1F1F1F" stroke-width="1.5" stroke-miterlimit="10"/>
<defs>
<clipPath id="clip0_1696_14300">
<rect x="334.377" y="237.455" width="98" height="45" rx="15" transform="rotate(30 334.377 237.455)" fill="white"/>
</clipPath>
<clipPath id="clip1_1696_14300">
<rect x="259.885" y="111.829" width="91" height="45" rx="15" transform="rotate(-30 259.885 111.829)" fill="white"/>
</clipPath>
</defs>
</svg>
