<svg width="900" height="500" viewBox="0 0 900 500" fill="none" xmlns="http://www.w3.org/2000/svg">
<g clip-path="url(#clip0_1696_10435)">
<path d="M261.162 60.7342C263.832 63.4042 264.263 64.8942 264.933 68.7642C267.673 82.8942 267.013 100.144 264.933 118.714L260.963 121.544L177.092 170.274C175.862 170.984 175.062 171.344 174.252 171.334C173.432 171.334 172.632 170.974 171.412 170.274L151.492 158.764L147.522 155.934C146.422 140.154 146.042 124.534 147.522 109.344C147.522 100.884 148.932 100.244 153.182 97.5542L234.463 49.9542C236.783 48.6042 239.092 48.9442 241.963 49.3142C248.283 51.0342 255.372 55.3542 261.172 60.7342H261.162Z" fill="#B8AB8A" stroke="#1F1F1F" stroke-width="1.5" stroke-miterlimit="10"/>
<path d="M174.361 117.024C175.691 125.494 174.241 158.854 174.181 168.364L174.361 117.024Z" fill="#B8AB8A"/>
<path d="M174.361 117.024C175.691 125.494 174.241 158.854 174.181 168.364" stroke="#1F1F1F" stroke-width="1.5" stroke-miterlimit="10"/>
<path d="M150.981 101.034C156.201 101.724 167.931 108.744 174.041 113.614L150.981 101.034Z" fill="#B8AB8A"/>
<path d="M150.981 101.034C156.201 101.724 167.931 108.744 174.041 113.614" stroke="#1F1F1F" stroke-width="1.5" stroke-miterlimit="10"/>
<path d="M160.471 109.584C160.471 109.584 158.321 115.474 158.321 138.384C158.321 142.664 158.321 160.814 158.321 160.814" fill="#B8AB8A"/>
<path d="M160.471 109.584C160.471 109.584 158.321 115.474 158.321 138.384C158.321 142.664 158.321 160.814 158.321 160.814" stroke="#1F1F1F" stroke-width="1.5" stroke-miterlimit="10"/>
<path d="M243.183 75.6844C240.513 78.3544 240.083 79.8444 239.413 83.7144C236.673 97.8444 237.333 115.094 239.413 133.664L243.383 136.494L327.253 185.224C328.483 185.934 329.283 186.294 330.093 186.284C330.913 186.284 331.713 185.924 332.933 185.224L352.853 173.714L356.823 170.884C357.923 155.104 358.303 139.484 356.823 124.294C356.823 115.834 355.413 115.194 351.163 112.504L269.883 64.9044C267.563 63.5544 265.253 63.8944 262.383 64.2644C256.063 65.9844 248.973 70.3044 243.173 75.6844H243.183Z" fill="#B8AB8A" stroke="#1F1F1F" stroke-width="1.5" stroke-miterlimit="10"/>
<path d="M329.984 131.965C328.654 140.435 330.104 173.795 330.164 183.305L329.984 131.965Z" fill="#B8AB8A"/>
<path d="M329.984 131.965C328.654 140.435 330.104 173.795 330.164 183.305" stroke="#1F1F1F" stroke-width="1.5" stroke-miterlimit="10"/>
<path d="M353.363 115.974C348.143 116.664 336.413 123.684 330.303 128.554L353.363 115.974Z" fill="#B8AB8A"/>
<path d="M353.363 115.974C348.143 116.664 336.413 123.684 330.303 128.554" stroke="#1F1F1F" stroke-width="1.5" stroke-miterlimit="10"/>
<path d="M343.873 124.524C343.873 124.524 346.023 130.414 346.023 153.324V175.754" fill="#B8AB8A"/>
<path d="M343.873 124.524C343.873 124.524 346.023 130.414 346.023 153.324V175.754" stroke="#1F1F1F" stroke-width="1.5" stroke-miterlimit="10"/>
<path d="M150.722 156.254L149.522 156.954C147.812 157.944 146.762 159.764 146.762 161.744C145.462 170.434 145.512 179.034 146.762 187.554L150.732 190.384L234.602 239.114C235.832 239.824 236.632 240.184 237.442 240.174C238.262 240.174 239.062 239.814 240.282 239.114L324.142 190.654L328.112 187.824V162.014C328.112 160.034 327.062 158.214 325.352 157.224C325.352 157.224 306.402 146.174 285.252 133.784C282.642 132.254 279.992 130.704 277.352 129.154C253.262 115.034 241.182 107.914 241.182 107.914C238.862 106.564 236.002 106.564 233.682 107.914C233.682 107.914 220.152 114.124 195.122 127.824C170.102 141.524 150.722 156.254 150.722 156.254Z" fill="#B8AB8A" stroke="#1F1F1F" stroke-width="1.5" stroke-miterlimit="10"/>
<path d="M325.771 166.824C302.861 182.084 264.211 203.164 238.981 215.924L325.771 166.824Z" fill="#B8AB8A"/>
<path d="M325.771 166.824C302.861 182.084 264.211 203.164 238.981 215.924" stroke="#1F1F1F" stroke-width="1.5" stroke-miterlimit="10"/>
<path d="M237.762 237.634C236.252 228.814 237.112 220.594 237.112 212.284L237.762 237.634Z" fill="#B8AB8A"/>
<path d="M237.762 237.634C236.252 228.814 237.112 220.594 237.112 212.284" stroke="#1F1F1F" stroke-width="1.5" stroke-miterlimit="10"/>
<path d="M520.581 235.854C517.911 238.524 517.481 240.014 516.811 243.884C514.071 258.014 514.731 275.264 516.811 293.834L520.781 296.664L604.651 345.394C605.881 346.104 606.681 346.464 607.491 346.454C608.311 346.454 609.111 346.094 610.331 345.394L630.251 333.884L634.221 331.054C635.321 315.274 635.701 299.654 634.221 284.464C634.221 276.004 632.811 275.364 628.561 272.674L547.281 225.074C544.961 223.724 542.651 224.064 539.781 224.434C533.461 226.154 526.371 230.474 520.571 235.854H520.581Z" fill="#B8AB8A" stroke="#1F1F1F" stroke-width="1.5" stroke-miterlimit="10"/>
<path d="M607.382 292.135C606.052 300.605 607.502 333.965 607.562 343.475L607.382 292.135Z" fill="#B8AB8A"/>
<path d="M607.382 292.135C606.052 300.605 607.502 333.965 607.562 343.475" stroke="#1F1F1F" stroke-width="1.5" stroke-miterlimit="10"/>
<path d="M630.762 276.144C625.542 276.834 613.812 283.854 607.702 288.724L630.762 276.144Z" fill="#B8AB8A"/>
<path d="M630.762 276.144C625.542 276.834 613.812 283.854 607.702 288.724" stroke="#1F1F1F" stroke-width="1.5" stroke-miterlimit="10"/>
<path d="M621.271 284.695C621.271 284.695 623.422 290.585 623.422 313.495V335.925" fill="#B8AB8A"/>
<path d="M621.271 284.695C621.271 284.695 623.422 290.585 623.422 313.495V335.925" stroke="#1F1F1F" stroke-width="1.5" stroke-miterlimit="10"/>
<path d="M335.263 128.965C332.593 131.635 332.163 133.125 331.493 136.995C328.753 151.125 329.413 168.375 331.493 186.945L335.463 189.775L419.333 238.505C420.563 239.215 421.363 239.575 422.173 239.565C422.993 239.565 423.793 239.205 425.013 238.505L444.933 226.995L448.903 224.165C450.003 208.385 450.383 192.765 448.903 177.575C448.903 169.115 447.493 168.475 443.243 165.785L361.963 118.185C359.643 116.835 357.333 117.175 354.463 117.545C348.143 119.265 341.053 123.585 335.253 128.965H335.263Z" fill="#B8AB8A" stroke="#1F1F1F" stroke-width="1.5" stroke-miterlimit="10"/>
<path d="M422.062 185.244C420.732 193.714 422.182 227.074 422.242 236.584L422.062 185.244Z" fill="#B8AB8A"/>
<path d="M422.062 185.244C420.732 193.714 422.182 227.074 422.242 236.584" stroke="#1F1F1F" stroke-width="1.5" stroke-miterlimit="10"/>
<path d="M445.442 169.255C440.222 169.945 428.492 176.965 422.382 181.835L445.442 169.255Z" fill="#B8AB8A"/>
<path d="M445.442 169.255C440.222 169.945 428.492 176.965 422.382 181.835" stroke="#1F1F1F" stroke-width="1.5" stroke-miterlimit="10"/>
<path d="M435.951 177.805C435.951 177.805 438.101 183.695 438.101 206.605V229.035" fill="#B8AB8A"/>
<path d="M435.951 177.805C435.951 177.805 438.101 183.695 438.101 206.605V229.035" stroke="#1F1F1F" stroke-width="1.5" stroke-miterlimit="10"/>
<path d="M242.802 209.534L241.602 210.234C239.892 211.224 238.842 213.044 238.842 215.024C237.542 223.714 237.592 232.314 238.842 240.834L242.812 243.664L326.682 292.394C327.912 293.104 328.712 293.464 329.522 293.454C330.342 293.454 331.142 293.094 332.362 292.394L416.222 243.934L420.192 241.104V215.294C420.192 213.314 419.142 211.494 417.432 210.504C417.432 210.504 398.482 199.454 377.332 187.064C374.722 185.534 372.072 183.984 369.432 182.434C345.342 168.314 333.262 161.194 333.262 161.194C330.942 159.844 328.082 159.844 325.762 161.194C325.762 161.194 312.232 167.404 287.202 181.104C262.182 194.804 242.802 209.534 242.802 209.534Z" fill="#B8AB8A" stroke="#1F1F1F" stroke-width="1.5" stroke-miterlimit="10"/>
<path d="M417.852 220.104C394.942 235.364 356.292 256.444 331.062 269.204L417.852 220.104Z" fill="#B8AB8A"/>
<path d="M417.852 220.104C394.942 235.364 356.292 256.444 331.062 269.204" stroke="#1F1F1F" stroke-width="1.5" stroke-miterlimit="10"/>
<path d="M329.842 290.914C328.332 282.094 329.192 273.874 329.192 265.564L329.842 290.914Z" fill="#B8AB8A"/>
<path d="M329.842 290.914C328.332 282.094 329.192 273.874 329.192 265.564" stroke="#1F1F1F" stroke-width="1.5" stroke-miterlimit="10"/>
<path d="M428.363 182.404C425.693 185.074 425.263 186.564 424.593 190.434C421.853 204.564 422.513 221.814 424.593 240.384L428.563 243.214L512.433 291.944C513.663 292.654 514.463 293.014 515.273 293.004C516.093 293.004 516.893 292.644 518.113 291.944L538.033 280.434L542.003 277.604C543.103 261.824 543.483 246.204 542.003 231.014C542.003 222.554 540.593 221.914 536.343 219.224L455.063 171.624C452.743 170.274 450.433 170.614 447.563 170.984C441.243 172.704 434.153 177.024 428.353 182.404H428.363Z" fill="#B8AB8A" stroke="#1F1F1F" stroke-width="1.5" stroke-miterlimit="10"/>
<path d="M515.163 238.694C513.833 247.164 515.283 280.524 515.343 290.034L515.163 238.694Z" fill="#B8AB8A"/>
<path d="M515.163 238.694C513.833 247.164 515.283 280.524 515.343 290.034" stroke="#1F1F1F" stroke-width="1.5" stroke-miterlimit="10"/>
<path d="M538.543 222.694C533.323 223.384 521.593 230.404 515.483 235.274L538.543 222.694Z" fill="#B8AB8A"/>
<path d="M538.543 222.694C533.323 223.384 521.593 230.404 515.483 235.274" stroke="#1F1F1F" stroke-width="1.5" stroke-miterlimit="10"/>
<path d="M529.054 231.255C529.054 231.255 531.204 237.145 531.204 260.055V282.485" fill="#B8AB8A"/>
<path d="M529.054 231.255C529.054 231.255 531.204 237.145 531.204 260.055V282.485" stroke="#1F1F1F" stroke-width="1.5" stroke-miterlimit="10"/>
<path d="M334.882 262.814L333.682 263.514C331.972 264.504 330.922 266.324 330.922 268.304C329.622 276.994 329.672 285.594 330.922 294.114L334.892 296.944L418.762 345.674C419.992 346.384 420.792 346.744 421.602 346.734C422.422 346.734 423.222 346.374 424.442 345.674L508.302 297.214L512.272 294.384V268.574C512.272 266.594 511.222 264.774 509.512 263.784C509.512 263.784 490.562 252.734 469.412 240.344C466.802 238.814 464.152 237.264 461.512 235.714C437.422 221.594 425.342 214.474 425.342 214.474C423.022 213.124 420.162 213.124 417.842 214.474C417.842 214.474 404.312 220.684 379.282 234.384C354.262 248.084 334.882 262.814 334.882 262.814Z" fill="#B8AB8A" stroke="#1F1F1F" stroke-width="1.5" stroke-miterlimit="10"/>
<path d="M509.934 273.385C487.024 288.645 448.374 309.725 423.144 322.485L509.934 273.385Z" fill="#B8AB8A"/>
<path d="M509.934 273.385C487.024 288.645 448.374 309.725 423.144 322.485" stroke="#1F1F1F" stroke-width="1.5" stroke-miterlimit="10"/>
<path d="M421.923 344.194C420.413 335.374 421.273 327.154 421.273 318.844L421.923 344.194Z" fill="#B8AB8A"/>
<path d="M421.923 344.194C420.413 335.374 421.273 327.154 421.273 318.844" stroke="#1F1F1F" stroke-width="1.5" stroke-miterlimit="10"/>
<path d="M521.538 236.365C518.868 239.035 518.438 240.525 517.768 244.395C515.028 258.525 515.688 275.775 517.768 294.345L521.738 297.175L605.608 345.905C606.838 346.615 607.638 346.975 608.448 346.965C609.268 346.965 610.068 346.605 611.288 345.905L631.208 334.395L635.178 331.565C636.278 315.785 636.658 300.165 635.178 284.975C635.178 276.515 633.768 275.875 629.518 273.185L548.238 225.585C545.918 224.235 543.608 224.575 540.738 224.945C534.418 226.665 527.328 230.985 521.528 236.365H521.538Z" fill="#B8AB8A" stroke="#1F1F1F" stroke-width="1.5" stroke-miterlimit="10"/>
<path d="M608.338 292.655C607.008 301.125 608.458 334.485 608.518 343.995L608.338 292.655Z" fill="#B8AB8A"/>
<path d="M608.338 292.655C607.008 301.125 608.458 334.485 608.518 343.995" stroke="#1F1F1F" stroke-width="1.5" stroke-miterlimit="10"/>
<path d="M631.718 276.655C626.498 277.345 614.768 284.365 608.658 289.235L631.718 276.655Z" fill="#B8AB8A"/>
<path d="M631.718 276.655C626.498 277.345 614.768 284.365 608.658 289.235" stroke="#1F1F1F" stroke-width="1.5" stroke-miterlimit="10"/>
<path d="M622.229 285.216C622.229 285.216 624.379 291.106 624.379 314.016V336.446" fill="#B8AB8A"/>
<path d="M622.229 285.216C622.229 285.216 624.379 291.106 624.379 314.016V336.446" stroke="#1F1F1F" stroke-width="1.5" stroke-miterlimit="10"/>
<path d="M428.058 316.775L426.858 317.475C425.148 318.465 424.098 320.285 424.098 322.265C422.798 330.955 422.848 339.555 424.098 348.075L428.068 350.905L511.938 399.635C513.168 400.345 513.968 400.705 514.778 400.695C515.598 400.695 516.398 400.335 517.618 399.635L601.478 351.175L605.448 348.345V322.535C605.448 320.555 604.398 318.735 602.688 317.745C602.688 317.745 583.738 306.695 562.588 294.305C559.978 292.775 557.328 291.225 554.688 289.675C530.598 275.555 518.518 268.435 518.518 268.435C516.198 267.085 513.338 267.085 511.018 268.435C511.018 268.435 497.488 274.645 472.458 288.345C447.438 302.045 428.058 316.775 428.058 316.775Z" fill="#B8AB8A" stroke="#1F1F1F" stroke-width="1.5" stroke-miterlimit="10"/>
<path d="M603.108 327.345C580.198 342.605 541.548 363.685 516.318 376.445L603.108 327.345Z" fill="#B8AB8A"/>
<path d="M603.108 327.345C580.198 342.605 541.548 363.685 516.318 376.445" stroke="#1F1F1F" stroke-width="1.5" stroke-miterlimit="10"/>
<path d="M515.098 398.155C513.588 389.335 514.448 381.115 514.448 372.805L515.098 398.155Z" fill="#B8AB8A"/>
<path d="M515.098 398.155C513.588 389.335 514.448 381.115 514.448 372.805" stroke="#1F1F1F" stroke-width="1.5" stroke-miterlimit="10"/>
<path d="M613.759 289.815C611.089 292.485 610.659 293.975 609.989 297.845C607.249 311.975 607.909 329.225 609.989 347.795L613.959 350.625L697.829 399.355C699.059 400.065 699.859 400.425 700.669 400.415C701.489 400.415 702.289 400.055 703.509 399.355L723.429 387.845L727.399 385.015C728.499 369.235 728.879 353.615 727.399 338.425C727.399 329.965 725.989 329.325 721.739 326.635L640.459 279.035C638.139 277.685 635.829 278.025 632.959 278.395C626.639 280.115 619.549 284.435 613.749 289.815H613.759Z" fill="#B8AB8A" stroke="#1F1F1F" stroke-width="1.5" stroke-miterlimit="10"/>
<path d="M700.56 346.095C699.23 354.565 700.68 387.925 700.74 397.435L700.56 346.095Z" fill="#B8AB8A"/>
<path d="M700.56 346.095C699.23 354.565 700.68 387.925 700.74 397.435" stroke="#1F1F1F" stroke-width="1.5" stroke-miterlimit="10"/>
<path d="M723.94 330.105C718.72 330.795 706.99 337.815 700.88 342.685L723.94 330.105Z" fill="#B8AB8A"/>
<path d="M723.94 330.105C718.72 330.795 706.99 337.815 700.88 342.685" stroke="#1F1F1F" stroke-width="1.5" stroke-miterlimit="10"/>
<path d="M714.45 338.656C714.45 338.656 716.6 344.546 716.6 367.456V389.886" fill="#B8AB8A"/>
<path d="M714.45 338.656C714.45 338.656 716.6 344.546 716.6 367.456V389.886" stroke="#1F1F1F" stroke-width="1.5" stroke-miterlimit="10"/>
<path d="M520.278 370.216L519.078 370.916C517.368 371.906 516.318 373.726 516.318 375.706C515.018 384.396 515.068 392.996 516.318 401.516L520.288 404.346L604.158 453.076C605.388 453.786 606.188 454.146 606.998 454.136C607.818 454.136 608.618 453.776 609.838 453.076L693.698 404.616L697.668 401.786V375.976C697.668 373.996 696.618 372.176 694.908 371.186C694.908 371.186 675.958 360.136 654.808 347.746C652.198 346.216 649.548 344.666 646.908 343.116C622.818 328.996 610.738 321.876 610.738 321.876C608.418 320.526 605.558 320.526 603.238 321.876C603.238 321.876 589.708 328.086 564.678 341.786C539.658 355.486 520.278 370.216 520.278 370.216Z" fill="#B8AB8A" stroke="#1F1F1F" stroke-width="1.5" stroke-miterlimit="10"/>
<path d="M695.327 380.785C672.417 396.045 633.767 417.125 608.537 429.885L695.327 380.785Z" fill="#B8AB8A"/>
<path d="M695.327 380.785C672.417 396.045 633.767 417.125 608.537 429.885" stroke="#1F1F1F" stroke-width="1.5" stroke-miterlimit="10"/>
<path d="M607.317 451.595C605.807 442.775 606.667 434.555 606.667 426.245L607.317 451.595Z" fill="#B8AB8A"/>
<path d="M607.317 451.595C605.807 442.775 606.667 434.555 606.667 426.245" stroke="#1F1F1F" stroke-width="1.5" stroke-miterlimit="10"/>
<path d="M748.609 342.645C751.279 345.315 751.709 346.805 752.379 350.675C755.119 364.805 754.459 382.055 752.379 400.625L748.409 403.455L664.539 452.185C663.309 452.895 662.509 453.255 661.699 453.245C660.879 453.245 660.079 452.885 658.859 452.185L638.939 440.675L634.969 437.845C633.869 422.065 633.489 406.445 634.969 391.255C634.969 382.795 636.379 382.155 640.629 379.465L721.909 331.865C724.229 330.515 726.539 330.855 729.409 331.225C735.729 332.945 742.819 337.265 748.619 342.645H748.609Z" fill="#B8AB8A" stroke="#1F1F1F" stroke-width="1.5" stroke-miterlimit="10"/>
<path d="M661.808 398.936C663.138 407.406 661.688 440.766 661.628 450.276L661.808 398.936Z" fill="#B8AB8A"/>
<path d="M661.808 398.936C663.138 407.406 661.688 440.766 661.628 450.276" stroke="#1F1F1F" stroke-width="1.5" stroke-miterlimit="10"/>
<path d="M638.428 382.945C643.648 383.635 655.378 390.655 661.488 395.525L638.428 382.945Z" fill="#B8AB8A"/>
<path d="M638.428 382.945C643.648 383.635 655.378 390.655 661.488 395.525" stroke="#1F1F1F" stroke-width="1.5" stroke-miterlimit="10"/>
<path d="M647.918 391.496C647.918 391.496 645.768 397.386 645.768 420.296C645.768 424.576 645.768 442.726 645.768 442.726" fill="#B8AB8A"/>
<path d="M647.918 391.496C647.918 391.496 645.768 397.386 645.768 420.296C645.768 424.576 645.768 442.726 645.768 442.726" stroke="#1F1F1F" stroke-width="1.5" stroke-miterlimit="10"/>
<path d="M625.679 335.085C627.359 333.715 629.399 332.915 631.079 331.595C651.349 315.675 671.339 302.745 692.199 292.595C693.769 291.835 695.589 290.115 697.159 289.385C699.839 287.675 702.819 288.565 703.349 291.245C704.539 302.395 717.979 314.175 720.139 325.135C722.389 336.525 712.699 342.425 715.909 353.615C716.309 355.665 717.699 365.965 715.649 367.275C703.869 368.625 679.989 359.965 663.539 369.285C655.839 373.645 648.899 374.125 638.629 380.535C628.139 387.075 630.389 398.095 618.749 403.695C616.069 405.405 614.929 405.365 614.399 402.685C614.969 398.895 614.399 397.305 614.399 393.815C614.399 369.945 616.329 353.855 622.849 340.855C622.449 338.805 623.629 336.385 625.679 335.075V335.085Z" fill="#B8AB8A" stroke="#1F1F1F" stroke-width="1.5" stroke-miterlimit="10"/>
<path d="M709.489 364.275C709.489 364.275 686.099 357.735 659.919 364.695C654.279 366.195 642.099 374.365 636.149 379.115C623.279 389.405 618.759 403.705 618.759 403.705" stroke="#1F1F1F" stroke-width="1.5" stroke-miterlimit="10"/>
<path d="M340.373 178.106C340.633 176.756 341.373 175.516 341.693 174.206C345.623 158.396 352.873 142.046 355.103 138.086C355.953 136.586 357.183 134.076 357.983 132.506C358.503 131.486 358.693 129.186 359.243 128.186C359.913 126.256 361.333 123.536 362.903 124.886C376.673 134.436 391.993 142.046 407.663 149.596C409.013 150.376 409.623 152.006 409.113 153.476C408.673 154.436 407.693 156.216 407.293 157.206C405.153 162.516 402.853 167.806 400.543 174.026C397.253 182.906 394.803 191.166 391.803 200.316C391.263 201.976 391.413 204.186 390.773 205.776C390.103 207.706 387.843 208.546 386.073 207.526C383.993 206.966 382.333 205.236 380.443 204.406C364.703 197.566 354.023 190.636 344.103 181.976C342.753 181.196 339.863 179.566 340.373 178.096V178.106Z" fill="#B8AB8A" stroke="#1F1F1F" stroke-width="1.5" stroke-miterlimit="10"/>
<path d="M407.524 154.677C401.734 163.587 389.274 201.547 390.054 205.537" stroke="#1F1F1F" stroke-width="1.5" stroke-miterlimit="10"/>
<path d="M377.082 188.877C366.422 181.967 355.562 175.737 344.452 170.427L344.342 170.407C342.402 169.607 339.012 171.097 337.362 175.097C335.712 179.097 336.432 184.077 338.372 184.877C347.802 191.967 358.882 198.017 371.122 203.347C373.062 204.147 376.762 201.557 378.402 197.557C380.052 193.557 379.022 189.677 377.092 188.877H377.082Z" fill="#B8AB8A" stroke="#1F1F1F" stroke-width="1.5" stroke-miterlimit="10"/>
<path d="M370.772 202.567C369.512 201.677 368.942 198.657 370.592 194.657C372.242 190.657 374.172 189.347 375.872 189.197" stroke="#1F1F1F" stroke-width="1.5" stroke-miterlimit="10"/>
<path d="M337.853 178.316C347.083 184.596 357.643 190.516 369.323 196.126" stroke="#1F1F1F" stroke-width="1.5" stroke-miterlimit="10"/>
<path d="M363.072 190.016C362.892 190.196 362.052 192.666 362.052 192.666L364.452 193.776L365.492 191.156L363.072 190.016Z" fill="#B8AB8A" stroke="#1F1F1F" stroke-width="1.5" stroke-miterlimit="10"/>
<path d="M432.451 229.337C432.711 227.987 433.451 226.747 433.771 225.437C437.701 209.627 444.951 193.277 447.181 189.317C448.031 187.817 449.261 185.307 450.061 183.737C450.581 182.717 450.771 180.417 451.321 179.417C451.991 177.487 453.411 174.767 454.981 176.117C468.751 185.667 484.071 193.277 499.741 200.827C501.091 201.607 501.701 203.237 501.191 204.707C500.751 205.667 499.771 207.447 499.371 208.437C497.231 213.747 494.931 219.037 492.621 225.257C489.331 234.137 486.881 242.397 483.881 251.547C483.341 253.207 483.491 255.417 482.851 257.007C482.181 258.937 479.921 259.777 478.151 258.757C476.071 258.197 474.411 256.467 472.521 255.637C456.781 248.797 446.101 241.867 436.181 233.207C434.831 232.427 431.941 230.797 432.451 229.327V229.337Z" fill="#B8AB8A" stroke="#1F1F1F" stroke-width="1.5" stroke-miterlimit="10"/>
<path d="M499.601 205.907C493.811 214.817 481.351 252.777 482.131 256.767" stroke="#1F1F1F" stroke-width="1.5" stroke-miterlimit="10"/>
<path d="M469.161 240.107C458.501 233.197 447.641 226.967 436.531 221.657L436.421 221.637C434.481 220.837 431.091 222.327 429.441 226.327C427.791 230.327 428.511 235.307 430.451 236.107C439.881 243.197 450.961 249.247 463.201 254.577C465.141 255.377 468.841 252.787 470.481 248.787C472.131 244.787 471.101 240.907 469.171 240.107H469.161Z" fill="#B8AB8A" stroke="#1F1F1F" stroke-width="1.5" stroke-miterlimit="10"/>
<path d="M462.851 253.797C461.591 252.907 461.021 249.887 462.671 245.887C464.321 241.887 466.251 240.577 467.951 240.427" stroke="#1F1F1F" stroke-width="1.5" stroke-miterlimit="10"/>
<path d="M301.993 144.183C293.143 124.503 299.123 81.4132 292.723 57.7032C292.253 55.9432 293.603 53.5432 293.553 51.7232C293.983 48.5032 291.363 45.6832 288.113 45.8732C262.723 57.2632 219.933 62.0732 191.153 53.3532C188.673 53.5032 186.653 55.3832 186.323 57.8432C185.793 74.6332 185.513 91.7232 187.283 110.043C188.383 121.453 180.173 134.413 177.733 146.043C177.303 149.263 179.923 152.083 183.173 151.893C212.943 153.013 270.733 155.073 294.233 149.923C296.713 149.773 302.873 146.153 301.993 144.183Z" fill="#B8AB8A" stroke="#1F1F1F" stroke-width="1.5" stroke-miterlimit="10"/>
<line x1="78.0146" y1="195.813" x2="594.68" y2="494.11" stroke="black" stroke-width="3"/>
<g clip-path="url(#clip1_1696_10435)">
<rect x="300.505" y="300.019" width="107.024" height="45" rx="15" transform="rotate(30 300.505 300.019)" fill="#FAFAF1"/>
<path d="M311.412 345.519C307.541 343.284 305.946 339.627 307.499 335.916L310.392 337.205C309.357 339.898 310.613 342.044 312.821 343.319C315.705 344.984 318.314 344.065 319.919 341.285C321.479 338.583 321.033 335.935 318.019 334.195C316.278 333.19 314.79 333.128 313.114 333.511L310.648 331.602L318.559 322.521L329.626 328.911L328.186 331.405L319.171 326.2L314.833 331.074L314.855 331.156C316.437 330.996 317.954 331.248 319.747 332.283C324.215 334.863 324.751 339.156 322.651 342.793C320.506 346.508 316.297 348.339 311.412 345.519ZM330.986 356.855C326.907 354.5 324.715 350.497 327.085 346.392C328.48 343.976 331.171 342.794 333.933 343.591L333.963 343.539C332.319 341.586 332.024 339.337 333.194 337.31C335.114 333.985 338.963 333.678 343.016 336.018C347.069 338.358 348.754 341.86 346.834 345.185C345.694 347.16 343.584 348.055 341.081 347.649L341.051 347.701C343.018 349.875 343.575 352.449 342.075 355.047C339.705 359.152 335.039 359.195 330.986 356.855ZM338.051 344.618C340.649 346.118 343.017 345.857 344.187 343.83C345.357 341.804 344.339 339.726 341.741 338.226C339.143 336.726 336.887 336.914 335.717 338.94C334.547 340.967 335.453 343.118 338.051 344.618ZM332.276 354.62C335.342 356.39 338.097 355.937 339.507 353.495C340.857 351.157 339.872 348.544 336.806 346.774C333.74 345.004 331.134 345.439 329.739 347.855C328.329 350.297 329.21 352.85 332.276 354.62ZM344.79 364.27C349.832 357.758 355.965 353.436 362.312 351.142L351.322 344.797L352.777 342.277L367.222 350.617L366.097 352.566C358.434 354.619 352.341 359.172 347.518 365.845L344.79 364.27Z" fill="black"/>
</g>
<line x1="39.8906" y1="121.536" x2="207.841" y2="24.5697" stroke="black" stroke-width="3"/>
<g clip-path="url(#clip2_1696_10435)">
<rect x="71.4902" y="80.3478" width="98" height="45" rx="15" transform="rotate(-30 71.4902 80.3478)" fill="#FAFAF1"/>
<path d="M110.876 96.2909L102.716 82.1574L97.598 85.1124L96.503 83.2158L96.7628 83.0658C98.3736 82.1358 99.4297 81.145 99.8971 79.9745C100.295 78.983 100.241 77.8706 99.7441 76.5295L99.616 76.1877L102.032 74.7927L113.552 94.7459L110.876 96.2909ZM128.032 86.8713C123.823 89.3013 119.965 88.6189 117.25 84.8169L119.791 83.0381C121.697 85.679 124.025 86.171 126.83 84.551C129.922 82.766 130.369 80.3601 129.109 78.1778C127.714 75.7616 125.334 75.2996 122.502 76.9346L120.632 78.0146L119.357 75.8062L121.201 74.7412C123.592 73.3612 124.208 71.3081 123.068 69.3336C121.823 67.1772 119.582 67.016 117.218 68.381C114.49 69.956 113.979 72.1909 114.991 74.7242L112.295 75.9344C110.636 72.0421 111.771 68.5467 115.928 66.1467C120.085 63.7467 123.716 64.4561 125.531 67.5998C126.746 69.7042 126.635 71.6732 124.829 73.8246L124.859 73.8765C127.999 72.8951 130.274 74.0757 131.744 76.6218C133.934 80.415 132.344 84.3813 128.032 86.8713ZM140.672 61.9064C144.543 59.6714 148.648 60.6616 150.988 64.7146C153.298 68.7156 152.275 72.9436 147.884 75.4786C145.572 76.8136 143.236 77.0882 140.735 76.1765C138.454 75.3457 136.799 73.7381 134.819 70.3087C131.264 64.1512 129.95 58.155 136.133 54.585C139.563 52.605 142.853 52.7838 145.17 55.1178L142.771 57.0225C141.556 55.8185 139.742 55.3764 137.326 56.7714C134.131 58.6164 133.486 61.7598 136.772 67.6915C136.884 65.3058 138.334 63.2564 140.672 61.9064ZM146.62 73.2292C149.27 71.6992 150.055 69.0984 148.465 66.3445C146.845 63.5386 144.151 62.7728 141.501 64.3028C139.189 65.6378 137.953 68.1179 138.931 71.1908C140.118 72.8266 141.028 73.4439 142.124 73.7814C143.823 74.3245 145.347 73.9642 146.62 73.2292Z" fill="black"/>
</g>
</g>
<defs>
<clipPath id="clip0_1696_10435">
<rect width="900" height="500" fill="white"/>
</clipPath>
<clipPath id="clip1_1696_10435">
<rect x="300.505" y="300.019" width="107.024" height="45" rx="15" transform="rotate(30 300.505 300.019)" fill="white"/>
</clipPath>
<clipPath id="clip2_1696_10435">
<rect x="71.4902" y="80.3478" width="98" height="45" rx="15" transform="rotate(-30 71.4902 80.3478)" fill="white"/>
</clipPath>
</defs>
</svg>
