<svg width="900" height="600" viewBox="0 0 900 600" fill="none" xmlns="http://www.w3.org/2000/svg">
<path d="M557.864 97.0208C560.534 99.6908 560.964 101.181 561.634 105.051C564.374 119.181 563.714 136.431 561.634 155.001L557.664 157.831L473.794 206.561C472.564 207.271 471.764 207.631 470.954 207.621C470.134 207.621 469.334 207.261 468.114 206.561L448.194 195.051L444.224 192.221C443.124 176.441 442.744 160.821 444.224 145.631C444.224 137.171 445.634 136.531 449.884 133.841L531.164 86.2408C533.484 84.8908 535.794 85.2308 538.664 85.6008C544.984 87.3208 552.074 91.6408 557.874 97.0208H557.864Z" fill="#B8AB8A" stroke="#1F1F1F" stroke-width="1.5" stroke-miterlimit="10"/>
<path d="M471.064 153.301C472.394 161.771 470.944 195.131 470.884 204.641L471.064 153.301Z" fill="#B8AB8A"/>
<path d="M471.064 153.301C472.394 161.771 470.944 195.131 470.884 204.641" stroke="#1F1F1F" stroke-width="1.5" stroke-miterlimit="10"/>
<path d="M447.684 137.311C452.904 138.001 464.634 145.021 470.744 149.891L447.684 137.311Z" fill="#B8AB8A"/>
<path d="M447.684 137.311C452.904 138.001 464.634 145.021 470.744 149.891" stroke="#1F1F1F" stroke-width="1.5" stroke-miterlimit="10"/>
<path d="M457.173 145.86C457.173 145.86 455.023 151.75 455.023 174.66C455.023 178.94 455.023 197.09 455.023 197.09" fill="#B8AB8A"/>
<path d="M457.173 145.86C457.173 145.86 455.023 151.75 455.023 174.66C455.023 178.94 455.023 197.09 455.023 197.09" stroke="#1F1F1F" stroke-width="1.5" stroke-miterlimit="10"/>
<path d="M539.885 111.961C537.215 114.631 536.785 116.121 536.115 119.991C533.375 134.121 534.035 151.371 536.115 169.941L540.085 172.771L623.955 221.501C625.185 222.211 625.985 222.571 626.795 222.561C627.615 222.561 628.415 222.201 629.635 221.501L649.555 209.991L653.525 207.161C654.625 191.381 655.005 175.761 653.525 160.571C653.525 152.111 652.115 151.471 647.865 148.781L566.585 101.181C564.265 99.8312 561.955 100.171 559.085 100.541C552.765 102.261 545.675 106.581 539.875 111.961H539.885Z" fill="#B8AB8A" stroke="#1F1F1F" stroke-width="1.5" stroke-miterlimit="10"/>
<path d="M626.685 168.251C625.355 176.721 626.805 210.081 626.865 219.591L626.685 168.251Z" fill="#B8AB8A"/>
<path d="M626.685 168.251C625.355 176.721 626.805 210.081 626.865 219.591" stroke="#1F1F1F" stroke-width="1.5" stroke-miterlimit="10"/>
<path d="M650.065 152.251C644.845 152.941 633.115 159.961 627.005 164.831L650.065 152.251Z" fill="#B8AB8A"/>
<path d="M650.065 152.251C644.845 152.941 633.115 159.961 627.005 164.831" stroke="#1F1F1F" stroke-width="1.5" stroke-miterlimit="10"/>
<path d="M640.575 160.812C640.575 160.812 642.725 166.702 642.725 189.612V212.042" fill="#B8AB8A"/>
<path d="M640.575 160.812C640.575 160.812 642.725 166.702 642.725 189.612V212.042" stroke="#1F1F1F" stroke-width="1.5" stroke-miterlimit="10"/>
<path d="M632.984 165.402C630.314 168.072 629.884 169.562 629.214 173.432C626.474 187.562 627.134 204.812 629.214 223.382L633.184 226.212L717.054 274.942C718.284 275.652 719.084 276.012 719.894 276.002C720.714 276.002 721.514 275.642 722.734 274.942L742.654 263.432L746.624 260.602C747.724 244.822 748.104 229.202 746.624 214.012C746.624 205.552 745.214 204.912 740.964 202.222L659.684 154.622C657.364 153.272 655.054 153.612 652.184 153.982C645.864 155.702 638.774 160.022 632.974 165.402H632.984Z" fill="#B8AB8A" stroke="#1F1F1F" stroke-width="1.5" stroke-miterlimit="10"/>
<path d="M719.784 221.69C718.454 230.16 719.904 263.52 719.964 273.03L719.784 221.69Z" fill="#B8AB8A"/>
<path d="M719.784 221.69C718.454 230.16 719.904 263.52 719.964 273.03" stroke="#1F1F1F" stroke-width="1.5" stroke-miterlimit="10"/>
<path d="M743.164 205.701C737.944 206.391 726.214 213.411 720.104 218.281L743.164 205.701Z" fill="#B8AB8A"/>
<path d="M743.164 205.701C737.944 206.391 726.214 213.411 720.104 218.281" stroke="#1F1F1F" stroke-width="1.5" stroke-miterlimit="10"/>
<path d="M733.674 214.251C733.674 214.251 735.824 220.141 735.824 243.051V265.481" fill="#B8AB8A"/>
<path d="M733.674 214.251C733.674 214.251 735.824 220.141 735.824 243.051V265.481" stroke="#1F1F1F" stroke-width="1.5" stroke-miterlimit="10"/>
<path d="M447.424 192.531L446.224 193.231C444.514 194.221 443.464 196.041 443.464 198.021C442.164 206.711 442.214 215.311 443.464 223.831L447.434 226.661L531.304 275.391C532.534 276.101 533.334 276.461 534.144 276.451C534.964 276.451 535.764 276.091 536.984 275.391L620.844 226.931L624.814 224.101V198.291C624.814 196.311 623.764 194.491 622.054 193.501C622.054 193.501 603.104 182.451 581.954 170.061C579.344 168.531 576.694 166.981 574.054 165.431C549.964 151.311 537.884 144.191 537.884 144.191C535.564 142.841 532.704 142.841 530.384 144.191C530.384 144.191 516.854 150.401 491.824 164.101C466.804 177.801 447.424 192.531 447.424 192.531Z" fill="#B8AB8A" stroke="#1F1F1F" stroke-width="1.5" stroke-miterlimit="10"/>
<path d="M622.474 203.111C599.564 218.371 560.914 239.451 535.684 252.211L622.474 203.111Z" fill="#B8AB8A"/>
<path d="M622.474 203.111C599.564 218.371 560.914 239.451 535.684 252.211" stroke="#1F1F1F" stroke-width="1.5" stroke-miterlimit="10"/>
<path d="M534.464 273.921C532.954 265.101 533.814 256.881 533.814 248.571L534.464 273.921Z" fill="#B8AB8A"/>
<path d="M534.464 273.921C532.954 265.101 533.814 256.881 533.814 248.571" stroke="#1F1F1F" stroke-width="1.5" stroke-miterlimit="10"/>
<path d="M539.504 245.811L538.304 246.511C536.594 247.501 535.544 249.32 535.544 251.3C534.244 259.99 534.294 268.59 535.544 277.11L539.514 279.941L623.384 328.671C624.614 329.381 625.414 329.741 626.224 329.731C627.044 329.731 627.844 329.371 629.064 328.671L712.924 280.21L716.894 277.381V251.571C716.894 249.591 715.844 247.771 714.134 246.781C714.134 246.781 695.184 235.731 674.034 223.341C671.424 221.811 668.774 220.26 666.134 218.71C642.044 204.59 629.964 197.471 629.964 197.471C627.644 196.121 624.784 196.121 622.464 197.471C622.464 197.471 608.934 203.681 583.904 217.381C558.884 231.081 539.504 245.811 539.504 245.811Z" fill="#B8AB8A" stroke="#1F1F1F" stroke-width="1.5" stroke-miterlimit="10"/>
<path d="M714.554 256.381C691.644 271.641 652.994 292.721 627.764 305.481L714.554 256.381Z" fill="#B8AB8A"/>
<path d="M714.554 256.381C691.644 271.641 652.994 292.721 627.764 305.481" stroke="#1F1F1F" stroke-width="1.5" stroke-miterlimit="10"/>
<path d="M626.544 327.191C625.034 318.371 625.894 310.151 625.894 301.841L626.544 327.191Z" fill="#B8AB8A"/>
<path d="M626.544 327.191C625.034 318.371 625.894 310.151 625.894 301.841" stroke="#1F1F1F" stroke-width="1.5" stroke-miterlimit="10"/>
<path d="M632.14 214.394C632.4 213.044 633.14 211.804 633.46 210.494C637.39 194.684 644.64 178.334 646.87 174.374C647.72 172.874 648.95 170.364 649.75 168.794C650.27 167.774 650.46 165.474 651.01 164.474C651.68 162.544 653.1 159.824 654.67 161.174C668.44 170.724 683.76 178.334 699.43 185.884C700.78 186.664 701.39 188.294 700.88 189.764C700.44 190.724 699.46 192.504 699.06 193.494C696.92 198.804 694.62 204.094 692.31 210.314C689.02 219.194 686.57 227.454 683.57 236.604C683.03 238.264 683.18 240.474 682.54 242.064C681.87 243.994 679.61 244.834 677.84 243.814C675.76 243.254 674.1 241.524 672.21 240.694C656.47 233.854 645.79 226.924 635.87 218.264C634.52 217.484 631.63 215.854 632.14 214.384V214.394Z" fill="#B8AB8A" stroke="#1F1F1F" stroke-width="1.5" stroke-miterlimit="10"/>
<path d="M699.289 190.974C693.499 199.884 681.039 237.844 681.819 241.834" stroke="#1F1F1F" stroke-width="1.5" stroke-miterlimit="10"/>
<path d="M668.859 225.174C658.199 218.264 647.339 212.034 636.229 206.724L636.119 206.704C634.179 205.904 630.789 207.394 629.139 211.394C627.489 215.394 628.209 220.374 630.149 221.174C639.579 228.264 650.659 234.314 662.899 239.644C664.839 240.444 668.539 237.854 670.179 233.854C671.829 229.854 670.799 225.974 668.869 225.174H668.859Z" fill="#B8AB8A" stroke="#1F1F1F" stroke-width="1.5" stroke-miterlimit="10"/>
<path d="M662.55 238.864C661.29 237.974 660.72 234.954 662.37 230.954C664.02 226.954 665.95 225.644 667.65 225.494" stroke="#1F1F1F" stroke-width="1.5" stroke-miterlimit="10"/>
<path d="M629.629 214.614C638.859 220.894 649.419 226.814 661.099 232.424" stroke="#1F1F1F" stroke-width="1.5" stroke-miterlimit="10"/>
<path d="M654.839 226.313C654.659 226.493 653.819 228.963 653.819 228.963L656.219 230.073L657.259 227.453L654.839 226.313Z" fill="#B8AB8A" stroke="#1F1F1F" stroke-width="1.5" stroke-miterlimit="10"/>
<path d="M597.795 177.351C588.945 157.671 594.925 114.581 588.525 90.8706C588.055 89.1106 589.405 86.7106 589.355 84.8906C589.785 81.6706 587.165 78.8506 583.915 79.0406C558.525 90.4306 515.735 95.2406 486.955 86.5206C484.475 86.6706 482.455 88.5506 482.125 91.0106C481.595 107.801 481.315 124.891 483.085 143.211C484.185 154.621 475.975 167.581 473.535 179.211C473.105 182.431 475.725 185.251 478.975 185.061C508.745 186.181 566.535 188.241 590.035 183.091C592.515 182.941 598.675 179.321 597.795 177.351Z" fill="#B8AB8A" stroke="#1F1F1F" stroke-width="1.5" stroke-miterlimit="10"/>
<path d="M737.629 419.047L738.829 419.747C740.539 420.737 741.589 422.557 741.589 424.537C742.889 433.227 742.839 441.827 741.589 450.347L737.619 453.177L653.749 501.907C652.519 502.617 651.719 502.977 650.909 502.967C650.089 502.967 649.289 502.607 648.069 501.907L564.209 453.447L560.239 450.617V424.807C560.239 422.827 561.289 421.007 562.999 420.017C562.999 420.017 581.949 408.967 603.099 396.577C605.709 395.047 608.359 393.497 610.999 391.947C635.089 377.827 647.169 370.707 647.169 370.707C649.489 369.357 652.349 369.357 654.669 370.707C654.669 370.707 668.199 376.917 693.229 390.617C718.249 404.317 737.629 419.047 737.629 419.047Z" fill="#B8AB8A" stroke="#1F1F1F" stroke-width="1.5" stroke-miterlimit="10"/>
<path d="M562.569 429.626C585.479 444.886 624.129 465.966 649.359 478.726L562.569 429.626Z" fill="#B8AB8A"/>
<path d="M562.569 429.626C585.479 444.886 624.129 465.966 649.359 478.726" stroke="#1F1F1F" stroke-width="1.5" stroke-miterlimit="10"/>
<path d="M650.579 500.436C652.089 491.616 651.229 483.396 651.229 475.086L650.579 500.436Z" fill="#B8AB8A"/>
<path d="M650.579 500.436C652.089 491.616 651.229 483.396 651.229 475.086" stroke="#1F1F1F" stroke-width="1.5" stroke-miterlimit="10"/>
<path d="M652.719 430.41C663.379 423.5 674.239 417.27 685.349 411.96L685.459 411.94C687.399 411.14 690.789 412.63 692.439 416.63C694.089 420.63 693.369 425.61 691.429 426.41C681.999 433.5 670.919 439.55 658.679 444.88C656.739 445.68 653.039 443.09 651.399 439.09C649.759 435.09 650.779 431.21 652.709 430.41H652.719Z" fill="#B8AB8A" stroke="#1F1F1F" stroke-width="1.5" stroke-miterlimit="10"/>
<path d="M659.029 444.11C660.289 443.22 660.859 440.2 659.209 436.2C657.559 432.2 655.629 430.89 653.929 430.74" stroke="#1F1F1F" stroke-width="1.5" stroke-miterlimit="10"/>
<path d="M691.948 419.86C682.718 426.14 672.159 432.06 660.479 437.67" stroke="#1F1F1F" stroke-width="1.5" stroke-miterlimit="10"/>
<path d="M721.8 414.169C726.14 400.659 726.53 404.289 727.19 395.939C727.19 393.349 727.7 389.549 723.53 392.639C712.15 393.889 687.89 407.369 678.38 415.649C673.98 416.219 675.2 418.719 674.68 419.819C672.54 423.919 664.39 423.439 658.62 446.529C658.28 448.659 659.01 450.399 659.65 451.989C660.32 453.919 662.58 454.759 664.35 453.739C666.43 453.179 668.01 451.229 669.98 450.619C686.73 445.419 712.18 429.879 713.75 426.099C714.38 424.419 719.58 420.309 721.8 414.169Z" fill="#B8AB8A" stroke="#1F1F1F" stroke-width="1.5" stroke-miterlimit="10"/>
<path d="M663.17 451.299C663.89 447.589 676.24 437.669 681.53 425.579C682.22 423.989 681.72 422.129 680.37 421.039" stroke="#1F1F1F" stroke-width="1.5" stroke-miterlimit="10"/>
<path d="M689.229 421.03C689.229 421.03 708.618 416.37 721.268 402.42L689.229 421.03Z" fill="#B8AB8A"/>
<path d="M689.229 421.03C689.229 421.03 708.618 416.37 721.268 402.42" stroke="#1F1F1F" stroke-width="1.5" stroke-miterlimit="10"/>
<path d="M767.479 410.367C770.149 413.037 770.579 414.527 771.249 418.397C773.989 432.527 773.329 449.777 771.249 468.347L767.279 471.177L683.409 519.907C682.179 520.617 681.379 520.977 680.569 520.967C679.749 520.967 678.949 520.607 677.729 519.907L657.809 508.397L653.839 505.567C652.739 489.787 652.359 474.167 653.839 458.977C653.839 450.517 655.249 449.877 659.499 447.187L740.779 399.587C743.099 398.237 745.409 398.577 748.279 398.947C754.599 400.667 761.689 404.987 767.489 410.367H767.479Z" fill="#B8AB8A" stroke="#1F1F1F" stroke-width="1.5" stroke-miterlimit="10"/>
<path d="M680.679 466.657C682.009 475.127 680.559 508.487 680.499 517.997L680.679 466.657Z" fill="#B8AB8A"/>
<path d="M680.679 466.657C682.009 475.127 680.559 508.487 680.499 517.997" stroke="#1F1F1F" stroke-width="1.5" stroke-miterlimit="10"/>
<path d="M657.299 450.657C662.519 451.347 674.249 458.367 680.359 463.237L657.299 450.657Z" fill="#B8AB8A"/>
<path d="M657.299 450.657C662.519 451.347 674.249 458.367 680.359 463.237" stroke="#1F1F1F" stroke-width="1.5" stroke-miterlimit="10"/>
<path d="M666.789 459.218C666.789 459.218 664.639 465.108 664.639 488.018V510.448" fill="#B8AB8A"/>
<path d="M666.789 459.218C666.789 459.218 664.639 465.108 664.639 488.018V510.448" stroke="#1F1F1F" stroke-width="1.5" stroke-miterlimit="10"/>
<path d="M241.547 276.864C244.217 279.534 244.647 281.024 245.317 284.894C248.057 299.024 247.397 316.274 245.317 334.844L241.347 337.674L157.477 386.404C156.247 387.114 155.447 387.474 154.637 387.464C153.817 387.464 153.017 387.104 151.797 386.404L131.877 374.894L127.907 372.064C126.807 356.284 126.427 340.664 127.907 325.474C127.907 317.014 129.317 316.374 133.567 313.684L214.847 266.084C217.167 264.734 219.477 265.074 222.347 265.444C228.667 267.164 235.757 271.484 241.557 276.864H241.547Z" fill="#B8AB8A" stroke="#1F1F1F" stroke-width="1.5" stroke-miterlimit="10"/>
<path d="M154.348 333.139C155.678 341.609 154.228 374.969 154.168 384.479L154.348 333.139Z" fill="#B8AB8A"/>
<path d="M154.348 333.139C155.678 341.609 154.228 374.969 154.168 384.479" stroke="#1F1F1F" stroke-width="1.5" stroke-miterlimit="10"/>
<path d="M130.968 317.15C136.188 317.84 147.918 324.86 154.028 329.73L130.968 317.15Z" fill="#B8AB8A"/>
<path d="M130.968 317.15C136.188 317.84 147.918 324.86 154.028 329.73" stroke="#1F1F1F" stroke-width="1.5" stroke-miterlimit="10"/>
<path d="M140.458 325.7C140.458 325.7 138.308 331.59 138.308 354.5V376.93" fill="#B8AB8A"/>
<path d="M140.458 325.7C140.458 325.7 138.308 331.59 138.308 354.5V376.93" stroke="#1F1F1F" stroke-width="1.5" stroke-miterlimit="10"/>
<path d="M190.743 339.808L189.543 340.508C187.833 341.498 186.783 343.318 186.783 345.298C185.483 353.988 185.533 362.588 186.783 371.108L190.753 373.938L274.623 422.668C275.853 423.378 276.653 423.738 277.463 423.728C278.283 423.728 279.083 423.368 280.303 422.668L364.163 374.208L368.133 371.378V345.568C368.133 343.588 367.083 341.768 365.373 340.778C365.373 340.778 346.423 329.728 325.273 317.338C322.663 315.808 320.013 314.258 317.373 312.708C293.283 298.588 281.203 291.468 281.203 291.468C278.883 290.118 276.023 290.118 273.703 291.468C273.703 291.468 260.173 297.678 235.143 311.378C210.123 325.078 190.743 339.808 190.743 339.808Z" fill="#B8AB8A" stroke="#1F1F1F" stroke-width="1.5" stroke-miterlimit="10"/>
<path d="M365.803 350.388C342.893 365.648 304.243 386.728 279.013 399.488L365.803 350.388Z" fill="#B8AB8A"/>
<path d="M365.803 350.388C342.893 365.648 304.243 386.728 279.013 399.488" stroke="#1F1F1F" stroke-width="1.5" stroke-miterlimit="10"/>
<path d="M277.792 421.198C276.282 412.378 277.142 404.158 277.142 395.848L277.792 421.198Z" fill="#B8AB8A"/>
<path d="M277.792 421.198C276.282 412.378 277.142 404.158 277.142 395.848" stroke="#1F1F1F" stroke-width="1.5" stroke-miterlimit="10"/>
<path d="M160.893 331.175C158.223 333.845 157.793 335.335 157.123 339.205C154.383 353.335 155.043 370.585 157.123 389.155L161.093 391.985L244.963 440.715C246.193 441.425 246.993 441.785 247.803 441.775C248.623 441.775 249.423 441.415 250.643 440.715L270.563 429.205L274.533 426.375C275.633 410.595 276.013 394.975 274.533 379.785C274.533 371.325 273.123 370.685 268.873 367.995L187.593 320.395C185.273 319.045 182.963 319.385 180.093 319.755C173.773 321.475 166.683 325.795 160.883 331.175H160.893Z" fill="#B8AB8A" stroke="#1F1F1F" stroke-width="1.5" stroke-miterlimit="10"/>
<path d="M247.692 387.464C246.362 395.934 247.812 429.294 247.872 438.804L247.692 387.464Z" fill="#B8AB8A"/>
<path d="M247.692 387.464C246.362 395.934 247.812 429.294 247.872 438.804" stroke="#1F1F1F" stroke-width="1.5" stroke-miterlimit="10"/>
<path d="M271.073 371.464C265.853 372.154 254.123 379.174 248.013 384.044L271.073 371.464Z" fill="#B8AB8A"/>
<path d="M271.073 371.464C265.853 372.154 254.123 379.174 248.013 384.044" stroke="#1F1F1F" stroke-width="1.5" stroke-miterlimit="10"/>
<path d="M261.582 380.024C261.582 380.024 263.732 385.914 263.732 408.824V431.254" fill="#B8AB8A"/>
<path d="M261.582 380.024C261.582 380.024 263.732 385.914 263.732 408.824V431.254" stroke="#1F1F1F" stroke-width="1.5" stroke-miterlimit="10"/>
<path d="M267.684 314.987C265.817 313.939 263.655 313.502 261.794 312.502C239.339 300.443 217.533 291.233 195.186 284.859C193.504 284.383 191.452 283.019 189.775 282.572C186.854 281.36 183.947 282.716 183.738 285.399C183.894 296.394 171.732 310.028 170.883 321C169.996 332.403 180.522 336.512 178.639 347.88C178.485 349.932 178.335 360.137 180.569 361.066C192.655 360.422 215.763 348.079 233.546 354.38C241.87 357.326 248.952 356.641 260.126 361.148C271.54 365.743 270.607 376.788 283.07 380.283C285.99 381.495 287.139 381.267 287.348 378.584C286.309 375.008 286.692 373.374 286.266 369.994C283.353 346.878 279.436 331.616 271.252 320.106C271.407 318.055 269.917 315.907 267.683 314.978L267.684 314.987Z" fill="#B8AB8A" stroke="#1F1F1F" stroke-width="1.5" stroke-miterlimit="10"/>
<path d="M187.649 358.212C187.649 358.212 210.248 348.228 237.264 350.579C243.085 351.085 256.248 356.85 262.771 360.385C276.88 368.046 283.124 380.859 283.124 380.859" stroke="#1F1F1F" stroke-width="1.5" stroke-miterlimit="10"/>
<path d="M283.37 393.134L282.17 393.834C280.46 394.824 279.41 396.644 279.41 398.624C278.11 407.314 278.16 415.914 279.41 424.434L283.38 427.264L367.25 475.994C368.48 476.704 369.28 477.064 370.09 477.054C370.91 477.054 371.71 476.694 372.93 475.994L456.79 427.534L460.76 424.704V398.894C460.76 396.914 459.71 395.094 458 394.104C458 394.104 439.05 383.054 417.9 370.664C415.29 369.134 412.64 367.584 410 366.034C385.91 351.914 373.83 344.794 373.83 344.794C371.51 343.444 368.65 343.444 366.33 344.794C366.33 344.794 352.8 351.004 327.77 364.704C302.75 378.404 283.37 393.134 283.37 393.134Z" fill="#B8AB8A" stroke="#1F1F1F" stroke-width="1.5" stroke-miterlimit="10"/>
<path d="M458.42 403.704C435.51 418.964 396.86 440.044 371.63 452.804L458.42 403.704Z" fill="#B8AB8A"/>
<path d="M458.42 403.704C435.51 418.964 396.86 440.044 371.63 452.804" stroke="#1F1F1F" stroke-width="1.5" stroke-miterlimit="10"/>
<path d="M370.41 474.514C368.9 465.694 369.76 457.474 369.76 449.164L370.41 474.514Z" fill="#B8AB8A"/>
<path d="M370.41 474.514C368.9 465.694 369.76 457.474 369.76 449.164" stroke="#1F1F1F" stroke-width="1.5" stroke-miterlimit="10"/>
<path d="M253.52 384.454C250.85 387.124 250.42 388.614 249.75 392.484C247.01 406.614 247.67 423.864 249.75 442.434L253.72 445.264L337.59 493.994C338.82 494.704 339.62 495.064 340.43 495.054C341.25 495.054 342.05 494.694 343.27 493.994L363.19 482.484L367.16 479.654C368.26 463.874 368.64 448.254 367.16 433.064C367.16 424.604 365.75 423.964 361.5 421.274L280.22 373.674C277.9 372.324 275.59 372.664 272.72 373.034C266.4 374.754 259.31 379.074 253.51 384.454H253.52Z" fill="#B8AB8A" stroke="#1F1F1F" stroke-width="1.5" stroke-miterlimit="10"/>
<path d="M340.32 440.743C338.99 449.213 340.44 482.573 340.5 492.083L340.32 440.743Z" fill="#B8AB8A"/>
<path d="M340.32 440.743C338.99 449.213 340.44 482.573 340.5 492.083" stroke="#1F1F1F" stroke-width="1.5" stroke-miterlimit="10"/>
<path d="M363.701 424.743C358.481 425.433 346.751 432.453 340.641 437.323L363.701 424.743Z" fill="#B8AB8A"/>
<path d="M363.701 424.743C358.481 425.433 346.751 432.453 340.641 437.323" stroke="#1F1F1F" stroke-width="1.5" stroke-miterlimit="10"/>
<path d="M354.21 433.303C354.21 433.303 356.36 439.193 356.36 462.103V484.533" fill="#B8AB8A"/>
<path d="M354.21 433.303C354.21 433.303 356.36 439.193 356.36 462.103V484.533" stroke="#1F1F1F" stroke-width="1.5" stroke-miterlimit="10"/>
<line x1="377.2" y1="224.682" x2="603.87" y2="355.55" stroke="black" stroke-width="3"/>
<g clip-path="url(#clip0_1696_11075)">
<rect x="458.601" y="247.43" width="98" height="45" rx="15" transform="rotate(30 458.601 247.43)" fill="#FAFAF1"/>
<path d="M460.434 287.17C462.399 283.767 465.21 282.376 470.015 282.275L474.268 282.167C477.216 282.102 478.863 281.529 480.003 279.555C481.368 277.191 480.738 274.922 478.036 273.362C475.36 271.817 472.987 272.387 471.487 274.985L471.292 275.322L468.694 273.822L468.844 273.563C471.124 269.613 475.166 268.552 479.453 271.027C483.454 273.337 484.922 277.095 482.657 281.018C481.187 283.564 478.807 284.926 474.048 284.95L471.506 284.972C467.781 285.004 466.187 285.365 465.206 286.704L476.196 293.049L474.801 295.465L460.434 287.17ZM495.759 298.524L499 300.049L497.77 302.18L494.844 300.109L491.844 305.305L489.376 303.88L492.376 298.684L482.208 293.195L483.303 291.298L499.337 283.027L503.364 285.352L495.759 298.524ZM493.291 297.099L499.891 285.667L499.813 285.622L486.177 292.68L493.291 297.099ZM503.508 312.04L511.668 297.906L506.55 294.951L507.645 293.054L507.905 293.204C509.516 294.134 510.902 294.554 512.149 294.373C513.207 294.222 514.143 293.619 515.056 292.518L515.288 292.236L517.704 293.631L506.184 313.585L503.508 312.04Z" fill="black"/>
</g>
<line x1="524.088" y1="475.133" x2="658.643" y2="552.818" stroke="black" stroke-width="3"/>
<g clip-path="url(#clip1_1696_11075)">
<rect x="559.431" y="471.29" width="98" height="45" rx="15" transform="rotate(30 559.431 471.29)" fill="#FAFAF1"/>
<path d="M565.317 513.37L573.477 499.237L568.358 496.282L569.453 494.385L569.713 494.535C571.324 495.465 572.71 495.884 573.958 495.704C575.015 495.552 575.952 494.95 576.864 493.849L577.096 493.567L579.513 494.962L567.993 514.915L565.317 513.37ZM582.052 523.517C577.843 521.087 576.505 517.405 578.44 513.153L581.251 514.464C579.917 517.435 580.655 519.697 583.461 521.317C586.553 523.102 588.86 522.286 590.12 520.104C591.515 517.688 590.725 515.396 587.893 513.761L586.022 512.681L587.297 510.472L589.142 511.537C591.532 512.917 593.618 512.424 594.758 510.45C596.003 508.293 595.022 506.272 592.658 504.907C589.93 503.332 587.739 504.007 586.051 506.15L583.655 504.42C586.197 501.038 589.791 500.273 593.948 502.673C598.105 505.073 599.306 508.572 597.491 511.716C596.276 513.82 594.516 514.709 591.75 514.221L591.72 514.273C594.14 516.501 594.255 519.062 592.785 521.608C590.595 525.401 586.365 526.007 582.052 523.517ZM609.992 521.982C613.863 524.217 615.059 528.267 612.719 532.32C610.409 536.321 606.235 537.549 601.845 535.014C599.532 533.679 598.127 531.793 597.666 529.172C597.245 526.781 597.809 524.543 599.789 521.114C603.344 514.957 607.88 510.82 614.064 514.39C617.493 516.37 618.983 519.309 618.121 522.483L615.272 521.358C615.707 519.704 615.183 517.912 612.767 516.517C609.571 514.672 606.526 515.685 603.032 521.497C605.155 520.401 607.654 520.632 609.992 521.982ZM603.161 532.795C605.811 534.325 608.455 533.704 610.045 530.95C611.665 528.144 610.982 525.428 608.332 523.898C606.019 522.563 603.254 522.733 601.081 525.116C600.258 526.962 600.179 528.059 600.434 529.177C600.814 530.92 601.888 532.06 603.161 532.795Z" fill="black"/>
</g>
<line x1="335.891" y1="148.536" x2="503.841" y2="51.5697" stroke="black" stroke-width="3"/>
<g clip-path="url(#clip2_1696_11075)">
<rect x="367.49" y="107.348" width="98" height="45" rx="15" transform="rotate(-30 367.49 107.348)" fill="#FAFAF1"/>
<path d="M406.876 123.291L398.716 109.157L393.598 112.112L392.503 110.216L392.763 110.066C394.374 109.136 395.43 108.145 395.897 106.975C396.295 105.983 396.241 104.871 395.744 103.529L395.616 103.188L398.032 101.793L409.552 121.746L406.876 123.291ZM424.032 113.871C419.823 116.301 415.965 115.619 413.25 111.817L415.791 110.038C417.697 112.679 420.025 113.171 422.83 111.551C425.922 109.766 426.369 107.36 425.109 105.178C423.714 102.762 421.334 102.3 418.502 103.935L416.632 105.015L415.357 102.806L417.201 101.741C419.592 100.361 420.208 98.3081 419.068 96.3336C417.823 94.1772 415.582 94.016 413.218 95.381C410.49 96.956 409.979 99.1909 410.991 101.724L408.295 102.934C406.636 99.0421 407.771 95.5467 411.928 93.1467C416.085 90.7467 419.716 91.4561 421.531 94.5998C422.746 96.7042 422.635 98.6732 420.829 100.825L420.859 100.877C423.999 99.8951 426.274 101.076 427.744 103.622C429.934 107.415 428.344 111.381 424.032 113.871ZM436.672 88.9064C440.543 86.6714 444.648 87.6616 446.988 91.7146C449.298 95.7156 448.275 99.9436 443.884 102.479C441.572 103.814 439.236 104.088 436.735 103.176C434.454 102.346 432.799 100.738 430.819 97.3087C427.264 91.1512 425.95 85.155 432.133 81.585C435.563 79.605 438.853 79.7838 441.17 82.1178L438.771 84.0225C437.556 82.8185 435.742 82.3764 433.326 83.7714C430.131 85.6164 429.486 88.7598 432.772 94.6915C432.884 92.3058 434.334 90.2564 436.672 88.9064ZM442.62 100.229C445.27 98.6992 446.055 96.0984 444.465 93.3445C442.845 90.5386 440.151 89.7728 437.501 91.3028C435.189 92.6378 433.953 95.1179 434.931 98.1908C436.118 99.8266 437.028 100.444 438.124 100.781C439.823 101.325 441.347 100.964 442.62 100.229Z" fill="black"/>
</g>
<line x1="704.101" y1="551.124" x2="801.321" y2="494.994" stroke="black" stroke-width="3"/>
<g clip-path="url(#clip3_1696_11075)">
<rect x="699.801" y="529.417" width="98" height="45" rx="15" transform="rotate(-30 699.801 529.417)" fill="#FAFAF1"/>
<path d="M739.187 545.36L731.027 531.227L725.909 534.182L724.814 532.285L725.073 532.135C726.684 531.205 727.74 530.214 728.208 529.044C728.605 528.052 728.552 526.94 728.055 525.599L727.927 525.257L730.343 523.862L741.863 543.815L739.187 545.36ZM756.398 535.977C751.41 538.857 746.735 536.88 742.76 529.995C738.785 523.11 739.425 518.099 744.413 515.219C749.375 512.354 754.035 514.305 758.01 521.19C761.985 528.075 761.36 533.112 756.398 535.977ZM755.093 533.717C758.704 531.632 758.367 527.808 755.412 522.69C752.457 517.572 749.314 515.368 745.703 517.453C742.092 519.538 742.429 523.362 745.384 528.48C748.339 533.598 751.482 535.802 755.093 533.717ZM775.79 524.747C771.919 526.982 767.954 526.534 765.517 523.334L768.08 521.473C769.895 523.716 772.381 523.701 774.589 522.426C777.473 520.761 777.982 518.043 776.377 515.263C774.817 512.561 772.301 511.623 769.287 513.363C767.546 514.368 766.748 515.626 766.242 517.269L763.356 518.45L759.447 507.059L770.514 500.669L771.954 503.163L762.939 508.368L764.991 514.562L765.073 514.584C765.725 513.133 766.702 511.946 768.495 510.911C772.963 508.331 776.949 510.014 779.049 513.651C781.194 517.366 780.674 521.927 775.79 524.747Z" fill="black"/>
</g>
<defs>
<clipPath id="clip0_1696_11075">
<rect x="458.601" y="247.43" width="98" height="45" rx="15" transform="rotate(30 458.601 247.43)" fill="white"/>
</clipPath>
<clipPath id="clip1_1696_11075">
<rect x="559.431" y="471.29" width="98" height="45" rx="15" transform="rotate(30 559.431 471.29)" fill="white"/>
</clipPath>
<clipPath id="clip2_1696_11075">
<rect x="367.49" y="107.348" width="98" height="45" rx="15" transform="rotate(-30 367.49 107.348)" fill="white"/>
</clipPath>
<clipPath id="clip3_1696_11075">
<rect x="699.801" y="529.417" width="98" height="45" rx="15" transform="rotate(-30 699.801 529.417)" fill="white"/>
</clipPath>
</defs>
</svg>
