<svg width="900" height="400" viewBox="0 0 900 400" fill="none" xmlns="http://www.w3.org/2000/svg">
<line x1="270.182" y1="273.956" x2="367.402" y2="330.086" stroke="black" stroke-width="3"/>
<g clip-path="url(#clip0_1696_12222)">
<rect x="286.83" y="259.378" width="98" height="45" rx="15" transform="rotate(30 286.83 259.378)" fill="#FAFAF1"/>
<path d="M292.715 301.459L300.875 287.325L295.757 284.37L296.852 282.474L297.112 282.624C298.722 283.554 300.109 283.973 301.356 283.792C302.413 283.641 303.35 283.038 304.263 281.937L304.495 281.656L306.911 283.051L295.391 303.004L292.715 301.459ZM309.446 311.673C304.458 308.793 303.833 303.755 307.808 296.871C311.783 289.986 316.443 288.034 321.431 290.914C326.394 293.779 327.034 298.791 323.059 305.676C319.084 312.56 314.409 314.538 309.446 311.673ZM310.751 309.413C314.363 311.498 317.506 309.294 320.461 304.176C323.416 299.057 323.753 295.234 320.141 293.149C316.53 291.064 313.387 293.267 310.432 298.386C307.477 303.504 307.14 307.328 310.751 309.413ZM328.868 322.852C324.997 320.617 323.402 316.959 324.956 313.249L327.849 314.538C326.813 317.231 328.069 319.376 330.277 320.651C333.161 322.316 335.77 321.398 337.375 318.618C338.935 315.916 338.489 313.268 335.475 311.528C333.735 310.523 332.247 310.46 330.57 310.844L328.104 308.935L336.015 299.854L347.083 306.244L345.643 308.738L336.627 303.533L332.289 308.407L332.311 308.489C333.893 308.328 335.41 308.581 337.203 309.616C341.672 312.196 342.207 316.488 340.107 320.126C337.962 323.841 333.753 325.672 328.868 322.852Z" fill="black"/>
</g>
<line x1="217.78" y1="218.186" x2="471.362" y2="71.7812" stroke="black" stroke-width="3"/>
<g clip-path="url(#clip1_1696_12222)">
<rect x="284.711" y="155.295" width="104" height="45" rx="15" transform="rotate(-30 284.711 155.295)" fill="#FAFAF1"/>
<path d="M319.799 173.719C317.834 170.315 318.036 167.185 320.351 162.973L322.384 159.236C323.802 156.651 324.129 154.938 322.989 152.963C321.624 150.599 319.344 150.01 316.642 151.57C313.966 153.115 313.273 155.455 314.773 158.053L314.968 158.391L312.37 159.891L312.22 159.631C309.94 155.682 311.042 151.651 315.329 149.176C319.33 146.866 323.318 147.473 325.583 151.396C327.053 153.942 327.043 156.685 324.684 160.818L323.432 163.03C321.597 166.272 321.113 167.834 321.782 169.352L332.772 163.007L334.167 165.424L319.799 173.719ZM339.31 162.454C337.345 159.051 337.547 155.92 339.862 151.709L341.895 147.971C343.313 145.386 343.64 143.673 342.5 141.699C341.135 139.334 338.855 138.745 336.153 140.305C333.477 141.85 332.784 144.19 334.284 146.788L334.479 147.126L331.881 148.626L331.731 148.366C329.451 144.417 330.553 140.386 334.84 137.911C338.841 135.601 342.829 136.208 345.094 140.132C346.564 142.678 346.554 145.42 344.194 149.554L342.943 151.766C341.108 155.008 340.624 156.569 341.293 158.088L352.283 151.743L353.678 154.159L339.31 162.454ZM366.258 147.45C361.27 150.33 356.595 148.353 352.62 141.468C348.645 134.583 349.285 129.571 354.273 126.691C359.235 123.826 363.895 125.778 367.87 132.663C371.845 139.548 371.22 144.585 366.258 147.45ZM364.953 145.19C368.564 143.105 368.227 139.281 365.272 134.163C362.317 129.045 359.174 126.841 355.563 128.926C351.952 131.011 352.289 134.835 355.244 139.953C358.199 145.071 361.342 147.275 364.953 145.19Z" fill="black"/>
</g>
<path d="M479.051 101.945C476.381 104.615 475.951 106.105 475.281 109.975C472.541 124.105 473.201 141.355 475.281 159.925L479.251 162.755L563.121 211.485C564.351 212.195 565.151 212.555 565.961 212.545C566.781 212.545 567.581 212.185 568.801 211.485L588.721 199.975L592.691 197.145C593.791 181.365 594.171 165.745 592.691 150.555C592.691 142.095 591.281 141.455 587.031 138.765L505.751 91.1646C503.431 89.8146 501.121 90.1546 498.251 90.5246C491.931 92.2446 484.841 96.5646 479.041 101.945H479.051Z" fill="#B8AB8A" stroke="#1F1F1F" stroke-width="1.5" stroke-miterlimit="10"/>
<path d="M565.851 158.233C564.521 166.703 565.971 200.063 566.031 209.573L565.851 158.233Z" fill="#B8AB8A"/>
<path d="M565.851 158.233C564.521 166.703 565.971 200.063 566.031 209.573" stroke="#1F1F1F" stroke-width="1.5" stroke-miterlimit="10"/>
<path d="M589.232 142.244C584.012 142.934 572.282 149.954 566.172 154.824L589.232 142.244Z" fill="#B8AB8A"/>
<path d="M589.232 142.244C584.012 142.934 572.282 149.954 566.172 154.824" stroke="#1F1F1F" stroke-width="1.5" stroke-miterlimit="10"/>
<path d="M579.74 150.794C579.74 150.794 581.89 156.684 581.89 179.594V202.024" fill="#B8AB8A"/>
<path d="M579.74 150.794C579.74 150.794 581.89 156.684 581.89 179.594V202.024" stroke="#1F1F1F" stroke-width="1.5" stroke-miterlimit="10"/>
<path d="M385.651 183.145L384.451 183.845C382.741 184.835 381.691 186.655 381.691 188.635C380.391 197.325 380.441 205.925 381.691 214.445L385.661 217.275L469.531 266.005C470.761 266.715 471.561 267.075 472.371 267.065C473.191 267.065 473.991 266.705 475.211 266.005L559.071 217.545L563.041 214.715V188.905C563.041 186.925 561.991 185.105 560.281 184.115C560.281 184.115 541.331 173.065 520.181 160.675C517.571 159.145 514.921 157.595 512.281 156.045C488.191 141.925 476.111 134.805 476.111 134.805C473.791 133.455 470.931 133.455 468.611 134.805C468.611 134.805 455.081 141.015 430.051 154.715C405.031 168.415 385.651 183.145 385.651 183.145Z" fill="#B8AB8A" stroke="#1F1F1F" stroke-width="1.5" stroke-miterlimit="10"/>
<path d="M560.7 193.713C537.79 208.973 499.14 230.053 473.91 242.813L560.7 193.713Z" fill="#B8AB8A"/>
<path d="M560.7 193.713C537.79 208.973 499.14 230.053 473.91 242.813" stroke="#1F1F1F" stroke-width="1.5" stroke-miterlimit="10"/>
<path d="M472.691 264.523C471.181 255.703 472.041 247.483 472.041 239.173L472.691 264.523Z" fill="#B8AB8A"/>
<path d="M472.691 264.523C471.181 255.703 472.041 247.483 472.041 239.173" stroke="#1F1F1F" stroke-width="1.5" stroke-miterlimit="10"/>
<path d="M309.881 226.584C308.171 227.574 307.121 229.394 307.121 231.374C306.001 239.524 306.151 248.184 307.121 257.184L311.091 260.014L394.961 308.744C396.191 309.454 396.991 309.814 397.801 309.804C398.621 309.804 399.421 309.444 400.641 308.744L466.331 270.814L470.301 267.984V242.174C470.301 240.194 469.251 238.374 467.541 237.384L466.341 236.684C466.341 236.684 440.761 219.244 422.501 209.454C404.241 199.664 383.381 188.074 383.381 188.074C381.061 186.724 378.201 186.724 375.881 188.074C375.881 188.074 356.211 197.944 345.971 203.924C335.741 209.894 309.881 226.584 309.881 226.584Z" fill="#B8AB8A" stroke="#1F1F1F" stroke-width="1.5" stroke-miterlimit="10"/>
<path d="M398.661 307.864C397.151 299.044 398.011 290.014 398.011 281.704L398.661 307.864Z" fill="#B8AB8A"/>
<path d="M398.661 307.864C397.151 299.044 398.011 290.014 398.011 281.704" stroke="#1F1F1F" stroke-width="1.5" stroke-miterlimit="10"/>
<path d="M469.172 247.223C446.262 262.483 424.572 273.623 399.342 286.383L469.172 247.223Z" fill="#B8AB8A"/>
<path d="M469.172 247.223C446.262 262.483 424.572 273.623 399.342 286.383" stroke="#1F1F1F" stroke-width="1.5" stroke-miterlimit="10"/>
<path d="M486.181 150.505C486.441 149.155 487.181 147.915 487.501 146.605C491.431 130.795 498.681 114.445 500.911 110.485C501.761 108.985 502.991 106.475 503.791 104.905C504.311 103.885 504.501 101.585 505.051 100.585C505.721 98.655 507.141 95.935 508.711 97.285C522.481 106.835 537.801 114.445 553.471 121.995C554.821 122.775 555.431 124.405 554.921 125.875C554.481 126.835 553.501 128.615 553.101 129.605C550.961 134.915 548.661 140.205 546.351 146.425C543.061 155.305 540.611 163.565 537.611 172.715C537.071 174.375 537.221 176.585 536.581 178.175C535.911 180.105 533.651 180.945 531.881 179.925C529.801 179.365 528.141 177.635 526.251 176.805C510.511 169.965 499.831 163.035 489.911 154.375C488.561 153.595 485.671 151.965 486.181 150.495V150.505Z" fill="#B8AB8A" stroke="#1F1F1F" stroke-width="1.5" stroke-miterlimit="10"/>
<path d="M553.331 127.075C547.541 135.985 535.081 173.945 535.861 177.935" stroke="#1F1F1F" stroke-width="1.5" stroke-miterlimit="10"/>
<path d="M472.141 158.925C472.401 157.575 473.451 156.095 473.691 154.755C474.281 151.525 476.681 143.425 477.731 139.915C478.061 138.825 479.141 136.015 479.561 133.985C480.231 132.055 480.781 131.025 482.551 132.045C483.281 132.545 484.341 134.345 485.081 134.845C496.671 142.765 509.111 150.395 522.311 156.555C524.111 157.395 527.171 156.215 528.951 157.075C530.301 157.855 529.101 161.295 528.591 162.765C527.301 165.375 523.021 177.165 523.231 185.585C522.561 187.515 520.261 191.665 518.491 190.645C513.691 187.845 512.561 185.315 509.411 183.815C495.971 177.455 483.871 169.545 474.281 161.785C472.931 161.005 471.631 160.385 472.141 158.915V158.925Z" fill="#B8AB8A" stroke="#1F1F1F" stroke-width="1.5" stroke-miterlimit="10"/>
<path d="M480.48 165.504C478.49 156.864 483.25 144.794 488.47 140.304" stroke="#1F1F1F" stroke-width="1.5" stroke-miterlimit="10"/>
<path d="M477.752 163.734C475.762 155.094 480.522 143.024 485.742 138.534" stroke="#1F1F1F" stroke-width="1.5" stroke-miterlimit="10"/>
<path d="M481.641 145.344C481.821 145.524 483.821 146.374 483.821 146.374L485.081 144.014L482.861 143.014L481.651 145.344H481.641Z" fill="#1F1F1F" stroke="#1F1F1F" stroke-width="1.5" stroke-miterlimit="10"/>
<defs>
<clipPath id="clip0_1696_12222">
<rect x="286.83" y="259.378" width="98" height="45" rx="15" transform="rotate(30 286.83 259.378)" fill="white"/>
</clipPath>
<clipPath id="clip1_1696_12222">
<rect x="284.711" y="155.295" width="104" height="45" rx="15" transform="rotate(-30 284.711 155.295)" fill="white"/>
</clipPath>
</defs>
</svg>
