<svg width="900" height="400" viewBox="0 0 900 400" fill="none" xmlns="http://www.w3.org/2000/svg">
<path d="M416.878 100.919C419.548 103.589 419.978 105.079 420.648 108.949C423.388 123.079 422.728 140.329 420.648 158.899L416.678 161.729L332.808 210.459C331.578 211.169 330.778 211.529 329.968 211.519C329.148 211.519 328.348 211.159 327.128 210.459L307.208 198.949L303.238 196.119C302.138 180.339 301.758 164.719 303.238 149.529C303.238 141.069 304.648 140.429 308.898 137.739L390.178 90.1392C392.498 88.7892 394.808 89.1292 397.678 89.4992C403.998 91.2192 411.088 95.5392 416.888 100.919H416.878Z" fill="#B8AB8A" stroke="#1F1F1F" stroke-width="1.5" stroke-miterlimit="10"/>
<path d="M330.078 157.209C331.408 165.679 329.958 199.039 329.898 208.549L330.078 157.209Z" fill="#B8AB8A"/>
<path d="M330.078 157.209C331.408 165.679 329.958 199.039 329.898 208.549" stroke="#1F1F1F" stroke-width="1.5" stroke-miterlimit="10"/>
<path d="M306.699 141.209C311.919 141.899 323.649 148.919 329.759 153.789L306.699 141.209Z" fill="#B8AB8A"/>
<path d="M306.699 141.209C311.919 141.899 323.649 148.919 329.759 153.789" stroke="#1F1F1F" stroke-width="1.5" stroke-miterlimit="10"/>
<path d="M316.189 149.768C316.189 149.768 314.039 155.658 314.039 178.568C314.039 182.848 314.039 200.998 314.039 200.998" fill="#B8AB8A"/>
<path d="M316.189 149.768C316.189 149.768 314.039 155.658 314.039 178.568C314.039 182.848 314.039 200.998 314.039 200.998" stroke="#1F1F1F" stroke-width="1.5" stroke-miterlimit="10"/>
<path d="M400.159 114.909C396.519 117.769 395.709 119.179 395.039 123.049C392.299 137.179 392.959 155.599 395.039 174.169L399.009 176.999L464.759 214.809C465.989 215.519 466.789 215.879 467.599 215.869C468.419 215.869 469.219 215.509 470.439 214.809L490.359 203.299L494.329 200.469C495.429 184.689 495.809 169.069 494.329 153.879C494.329 145.419 492.919 144.779 488.669 142.089L424.539 105.209C422.219 103.859 418.729 104.399 416.249 105.289C410.659 107.409 405.269 110.509 400.159 114.899V114.909Z" fill="#B8AB8A" stroke="#1F1F1F" stroke-width="1.5" stroke-miterlimit="10"/>
<path d="M467.48 160.538C466.15 169.008 467.6 202.368 467.66 211.878L467.48 160.538Z" fill="#B8AB8A"/>
<path d="M467.48 160.538C466.15 169.008 467.6 202.368 467.66 211.878" stroke="#1F1F1F" stroke-width="1.5" stroke-miterlimit="10"/>
<path d="M481.369 153.098C481.369 153.098 483.519 161.248 483.519 181.898V204.328" fill="#B8AB8A"/>
<path d="M481.369 153.098C481.369 153.098 483.519 161.248 483.519 181.898V204.328" stroke="#1F1F1F" stroke-width="1.5" stroke-miterlimit="10"/>
<path d="M491.419 145.289C486.199 145.979 474.469 152.999 468.359 157.869L491.419 145.289Z" fill="#B8AB8A"/>
<path d="M491.419 145.289C486.199 145.979 474.469 152.999 468.359 157.869" stroke="#1F1F1F" stroke-width="1.5" stroke-miterlimit="10"/>
<path d="M322.099 187.139C320.389 188.129 319.339 189.949 319.339 191.929C318.149 199.949 318.289 208.619 319.339 217.739L323.309 220.569L388.999 258.499C390.229 259.209 391.029 259.569 391.839 259.559C392.659 259.559 393.459 259.199 394.679 258.499L460.369 220.569L464.339 217.739V191.929C464.339 189.949 463.289 188.129 461.579 187.139L460.379 186.439C460.379 186.439 442.529 174.959 426.999 165.829C411.469 156.699 395.589 148.629 395.589 148.629C393.269 147.279 390.409 147.279 388.089 148.629C388.089 148.629 373.439 156.189 359.269 163.799C345.099 171.399 322.099 187.139 322.099 187.139Z" fill="#B8AB8A" stroke="#1F1F1F" stroke-width="1.5" stroke-miterlimit="10"/>
<path d="M463.219 196.568C440.309 211.828 418.619 222.968 393.389 235.728L463.219 196.568Z" fill="#B8AB8A"/>
<path d="M463.219 196.568C440.309 211.828 418.619 222.968 393.389 235.728" stroke="#1F1F1F" stroke-width="1.5" stroke-miterlimit="10"/>
<path d="M391.849 255.818C390.339 246.998 391.199 239.808 391.199 231.498L391.849 255.818Z" fill="#B8AB8A"/>
<path d="M391.849 255.818C390.339 246.998 391.199 239.808 391.199 231.498" stroke="#1F1F1F" stroke-width="1.5" stroke-miterlimit="10"/>
<path d="M474.088 157.659C470.448 160.519 469.638 161.929 468.968 165.799C466.228 179.929 466.888 198.349 468.968 216.919L472.938 219.749L538.688 257.559C539.918 258.269 540.718 258.629 541.528 258.619C542.348 258.619 543.148 258.259 544.368 257.559L564.288 246.049L568.258 243.219C569.358 227.439 569.738 211.819 568.258 196.629C568.258 188.169 566.848 187.529 562.598 184.839L498.468 147.959C496.148 146.609 492.658 147.149 490.178 148.039C484.588 150.159 479.198 153.259 474.088 157.649V157.659Z" fill="#B8AB8A" stroke="#1F1F1F" stroke-width="1.5" stroke-miterlimit="10"/>
<path d="M541.407 203.299C540.077 211.769 541.527 245.129 541.587 254.639L541.407 203.299Z" fill="#B8AB8A"/>
<path d="M541.407 203.299C540.077 211.769 541.527 245.129 541.587 254.639" stroke="#1F1F1F" stroke-width="1.5" stroke-miterlimit="10"/>
<path d="M555.297 195.859C555.297 195.859 557.447 204.009 557.447 224.659V247.089" fill="#B8AB8A"/>
<path d="M555.297 195.859C555.297 195.859 557.447 204.009 557.447 224.659V247.089" stroke="#1F1F1F" stroke-width="1.5" stroke-miterlimit="10"/>
<path d="M565.349 188.048C560.129 188.738 548.399 195.758 542.289 200.628L565.349 188.048Z" fill="#B8AB8A"/>
<path d="M565.349 188.048C560.129 188.738 548.399 195.758 542.289 200.628" stroke="#1F1F1F" stroke-width="1.5" stroke-miterlimit="10"/>
<path d="M396.029 229.899C394.319 230.889 393.269 232.709 393.269 234.689C392.079 242.709 392.219 251.379 393.269 260.499L397.239 263.329L462.929 301.259C464.159 301.969 464.959 302.329 465.769 302.319C466.589 302.319 467.389 301.959 468.609 301.259L534.299 263.329L538.269 260.499V234.689C538.269 232.709 537.219 230.889 535.509 229.899L534.309 229.199C534.309 229.199 516.459 217.719 500.929 208.589C485.399 199.459 469.519 191.389 469.519 191.389C467.199 190.039 464.339 190.039 462.019 191.389C462.019 191.389 447.369 198.949 433.199 206.559C419.029 214.159 396.029 229.899 396.029 229.899Z" fill="#B8AB8A" stroke="#1F1F1F" stroke-width="1.5" stroke-miterlimit="10"/>
<path d="M537.148 239.319C514.238 254.579 492.548 265.719 467.318 278.479L537.148 239.319Z" fill="#B8AB8A"/>
<path d="M537.148 239.319C514.238 254.579 492.548 265.719 467.318 278.479" stroke="#1F1F1F" stroke-width="1.5" stroke-miterlimit="10"/>
<path d="M465.779 298.569C464.269 289.749 465.129 282.559 465.129 274.249L465.779 298.569Z" fill="#B8AB8A"/>
<path d="M465.779 298.569C464.269 289.749 465.129 282.559 465.129 274.249" stroke="#1F1F1F" stroke-width="1.5" stroke-miterlimit="10"/>
<path d="M470.749 201.969C471.009 200.619 471.749 199.379 472.069 198.069C475.999 182.259 483.249 165.909 485.479 161.949C486.329 160.449 487.559 157.939 488.359 156.369C488.879 155.349 489.069 153.049 489.619 152.049C490.289 150.119 491.709 147.399 493.279 148.749C507.049 158.299 522.369 165.909 538.039 173.459C539.389 174.239 539.999 175.869 539.489 177.339C539.049 178.299 538.069 180.079 537.669 181.069C535.529 186.379 533.229 191.669 530.919 197.889C527.629 206.769 525.179 215.029 522.179 224.179C521.639 225.839 521.789 228.049 521.149 229.639C520.479 231.569 518.219 232.409 516.449 231.389C514.369 230.829 512.709 229.099 510.819 228.269C495.079 221.429 484.399 214.499 474.479 205.839C473.129 205.059 470.239 203.429 470.749 201.959V201.969Z" fill="#B8AB8A" stroke="#1F1F1F" stroke-width="1.5" stroke-miterlimit="10"/>
<path d="M537.909 178.539C532.119 187.449 519.659 225.409 520.439 229.399" stroke="#1F1F1F" stroke-width="1.5" stroke-miterlimit="10"/>
<path d="M392.809 156.179C393.069 154.829 394.119 153.349 394.359 152.009C394.949 148.779 397.349 140.679 398.399 137.169C398.729 136.079 399.809 133.269 400.229 131.239C400.899 129.309 401.449 128.279 403.219 129.299C403.949 129.799 405.009 131.599 405.749 132.099C417.339 140.019 429.779 147.649 442.979 153.809C444.779 154.649 447.839 153.469 449.619 154.329C450.969 155.109 449.769 158.549 449.259 160.019C447.969 162.629 443.689 174.419 443.899 182.839C443.229 184.769 440.929 188.919 439.159 187.899C434.359 185.099 433.229 182.569 430.079 181.069C416.639 174.709 404.539 166.799 394.949 159.039C393.599 158.259 392.299 157.639 392.809 156.169V156.179Z" fill="#B8AB8A" stroke="#1F1F1F" stroke-width="1.5" stroke-miterlimit="10"/>
<path d="M401.148 162.749C399.158 154.109 403.918 142.039 409.138 137.549" stroke="#1F1F1F" stroke-width="1.5" stroke-miterlimit="10"/>
<path d="M398.42 160.979C396.43 152.339 401.19 140.269 406.41 135.779" stroke="#1F1F1F" stroke-width="1.5" stroke-miterlimit="10"/>
<path d="M402.309 142.589C402.489 142.769 404.489 143.619 404.489 143.619L405.749 141.259L403.529 140.259L402.319 142.589H402.309Z" fill="#1F1F1F" stroke="#1F1F1F" stroke-width="1.5" stroke-miterlimit="10"/>
<path d="M592.148 200.23C594.818 202.9 595.248 204.39 595.918 208.26C598.658 222.39 597.998 239.64 595.918 258.21L591.948 261.04L508.078 309.77C506.848 310.48 506.048 310.84 505.238 310.83C504.418 310.83 503.618 310.47 502.398 309.77L482.478 298.26L478.508 295.43C477.408 279.65 477.028 264.03 478.508 248.84C478.508 240.38 479.918 239.74 484.168 237.05L565.448 189.45C567.768 188.1 570.078 188.44 572.948 188.81C579.268 190.53 586.358 194.85 592.158 200.23H592.148Z" fill="#B8AB8A" stroke="#1F1F1F" stroke-width="1.5" stroke-miterlimit="10"/>
<path d="M505.348 256.51C506.678 264.98 505.228 298.34 505.168 307.85L505.348 256.51Z" fill="#B8AB8A"/>
<path d="M505.348 256.51C506.678 264.98 505.228 298.34 505.168 307.85" stroke="#1F1F1F" stroke-width="1.5" stroke-miterlimit="10"/>
<path d="M481.969 240.52C487.189 241.21 498.919 248.23 505.029 253.1L481.969 240.52Z" fill="#B8AB8A"/>
<path d="M481.969 240.52C487.189 241.21 498.919 248.23 505.029 253.1" stroke="#1F1F1F" stroke-width="1.5" stroke-miterlimit="10"/>
<path d="M491.459 249.069C491.459 249.069 489.309 254.959 489.309 277.869C489.309 282.149 489.309 300.299 489.309 300.299" stroke="#1F1F1F" stroke-width="1.5" stroke-miterlimit="10"/>
<line x1="250.354" y1="220.025" x2="459.709" y2="340.897" stroke="black" stroke-width="3"/>
<g clip-path="url(#clip0_1696_13695)">
<rect x="320.498" y="236.274" width="104" height="45" rx="15" transform="rotate(30 320.498 236.274)" fill="#FAFAF1"/>
<path d="M322.087 275.874C324.052 272.47 326.864 271.08 331.669 270.979L335.922 270.871C338.87 270.806 340.517 270.233 341.657 268.258C343.022 265.894 342.392 263.625 339.69 262.065C337.014 260.52 334.641 261.09 333.141 263.688L332.946 264.026L330.348 262.526L330.498 262.266C332.778 258.317 336.82 257.256 341.107 259.731C345.108 262.041 346.576 265.798 344.311 269.721C342.841 272.268 340.461 273.63 335.702 273.653L333.16 273.676C329.435 273.707 327.841 274.069 326.86 275.408L337.85 281.753L336.455 284.169L322.087 275.874ZM348.559 291.642C344.35 289.212 343.012 285.53 344.947 281.278L347.758 282.589C346.424 285.56 347.162 287.822 349.968 289.442C353.06 291.227 355.367 290.411 356.627 288.229C358.022 285.813 357.232 283.521 354.4 281.886L352.529 280.806L353.804 278.597L355.649 279.662C358.039 281.042 360.125 280.549 361.265 278.575C362.51 276.418 361.529 274.397 359.165 273.032C356.437 271.457 354.246 272.132 352.558 274.275L350.162 272.545C352.704 269.163 356.298 268.398 360.455 270.798C364.612 273.198 365.813 276.697 363.998 279.841C362.783 281.945 361.023 282.834 358.257 282.346L358.227 282.398C360.647 284.626 360.762 287.187 359.292 289.733C357.102 293.526 352.872 294.132 348.559 291.642ZM368.066 302.974C363.078 300.094 362.453 295.056 366.428 288.172C370.403 281.287 375.063 279.335 380.051 282.215C385.013 285.08 385.653 290.092 381.678 296.977C377.703 303.861 373.028 305.839 368.066 302.974ZM369.371 300.714C372.982 302.799 376.125 300.595 379.08 295.477C382.035 290.358 382.372 286.535 378.761 284.45C375.15 282.365 372.007 284.568 369.052 289.687C366.097 294.805 365.76 298.629 369.371 300.714Z" fill="black"/>
</g>
<line x1="208.684" y1="153.423" x2="356.232" y2="68.2355" stroke="black" stroke-width="3"/>
<g clip-path="url(#clip1_1696_13695)">
<rect x="233.411" y="116.882" width="91" height="45" rx="15" transform="rotate(-30 233.411 116.882)" fill="#FAFAF1"/>
<path d="M272.608 132.935L264.448 118.801L259.329 121.756L258.234 119.86L258.494 119.71C260.105 118.78 261.161 117.789 261.629 116.618C262.026 115.627 261.973 114.515 261.476 113.173L261.347 112.832L263.764 111.437L275.284 131.39L272.608 132.935ZM286.435 124.951L278.275 110.818L273.157 113.773L272.062 111.876L272.322 111.726C273.933 110.796 274.989 109.806 275.456 108.635C275.854 107.643 275.8 106.531 275.303 105.19L275.175 104.848L277.591 103.453L289.111 123.406L286.435 124.951ZM303.528 115.603C299.657 117.838 295.692 117.39 293.255 114.19L295.818 112.329C297.633 114.572 300.118 114.557 302.327 113.282C305.211 111.617 305.719 108.899 304.114 106.119C302.554 103.417 300.038 102.479 297.025 104.219C295.284 105.224 294.486 106.482 293.98 108.125L291.094 109.306L287.184 97.9148L298.252 91.5248L299.692 94.019L290.677 99.224L292.728 105.418L292.81 105.44C293.463 103.989 294.44 102.802 296.232 101.767C300.701 99.1868 304.686 100.87 306.786 104.507C308.931 108.222 308.412 112.783 303.528 115.603Z" fill="black"/>
</g>
<defs>
<clipPath id="clip0_1696_13695">
<rect x="320.498" y="236.274" width="104" height="45" rx="15" transform="rotate(30 320.498 236.274)" fill="white"/>
</clipPath>
<clipPath id="clip1_1696_13695">
<rect x="233.411" y="116.882" width="91" height="45" rx="15" transform="rotate(-30 233.411 116.882)" fill="white"/>
</clipPath>
</defs>
</svg>
