<svg width="900" height="400" viewBox="0 0 900 400" fill="none" xmlns="http://www.w3.org/2000/svg">
<path d="M348.287 75.3152C345.617 77.9852 345.187 79.4752 344.517 83.3452C341.777 97.4752 342.437 114.725 344.517 133.295L348.487 136.125L432.357 184.855C433.587 185.565 434.387 185.925 435.197 185.915C436.017 185.915 436.817 185.555 438.037 184.855L457.957 173.345L461.927 170.515C463.027 154.735 463.407 139.115 461.927 123.925C461.927 115.465 460.517 114.825 456.267 112.135L374.987 64.5352C372.667 63.1852 370.357 63.5252 367.487 63.8952C361.167 65.6152 354.077 69.9352 348.277 75.3152H348.287Z" fill="#B8AB8A" stroke="#1F1F1F" stroke-width="1.5" stroke-miterlimit="10"/>
<path d="M435.087 131.595C433.757 140.065 435.207 173.425 435.267 182.935L435.087 131.595Z" fill="#B8AB8A"/>
<path d="M435.087 131.595C433.757 140.065 435.207 173.425 435.267 182.935" stroke="#1F1F1F" stroke-width="1.5" stroke-miterlimit="10"/>
<path d="M458.468 115.605C453.248 116.295 441.518 123.315 435.408 128.185L458.468 115.605Z" fill="#B8AB8A"/>
<path d="M458.468 115.605C453.248 116.295 441.518 123.315 435.408 128.185" stroke="#1F1F1F" stroke-width="1.5" stroke-miterlimit="10"/>
<path d="M448.977 124.155C448.977 124.155 451.127 130.045 451.127 152.955V175.385" fill="#B8AB8A"/>
<path d="M448.977 124.155C448.977 124.155 451.127 130.045 451.127 152.955V175.385" stroke="#1F1F1F" stroke-width="1.5" stroke-miterlimit="10"/>
<path d="M255.817 155.885L254.617 156.585C252.907 157.575 251.857 159.395 251.857 161.375C250.557 170.065 250.607 178.665 251.857 187.185L255.827 190.015L339.697 238.745C340.927 239.455 341.727 239.815 342.537 239.805C343.357 239.805 344.157 239.445 345.377 238.745L429.237 190.285L433.207 187.455V161.645C433.207 159.665 432.157 157.845 430.447 156.855C430.447 156.855 411.497 145.805 390.347 133.415C387.737 131.885 385.087 130.335 382.447 128.785C358.357 114.665 346.277 107.545 346.277 107.545C343.957 106.195 341.097 106.195 338.777 107.545C338.777 107.545 325.247 113.755 300.217 127.455C275.197 141.155 255.817 155.885 255.817 155.885Z" fill="#B8AB8A" stroke="#1F1F1F" stroke-width="1.5" stroke-miterlimit="10"/>
<path d="M430.876 166.456C407.966 181.716 369.316 202.796 344.086 215.556L430.876 166.456Z" fill="#B8AB8A"/>
<path d="M430.876 166.456C407.966 181.716 369.316 202.796 344.086 215.556" stroke="#1F1F1F" stroke-width="1.5" stroke-miterlimit="10"/>
<path d="M342.867 237.266C341.357 228.446 342.217 220.226 342.217 211.916L342.867 237.266Z" fill="#B8AB8A"/>
<path d="M342.867 237.266C341.357 228.446 342.217 220.226 342.217 211.916" stroke="#1F1F1F" stroke-width="1.5" stroke-miterlimit="10"/>
<path d="M441.387 128.755C438.717 131.425 438.287 132.915 437.617 136.785C434.877 150.915 435.537 168.165 437.617 186.735L441.587 189.565L525.457 238.295C526.687 239.005 527.487 239.365 528.297 239.355C529.117 239.355 529.917 238.995 531.137 238.295L551.057 226.785L555.027 223.955C556.127 208.175 556.507 192.555 555.027 177.365C555.027 168.905 553.617 168.265 549.367 165.575L468.087 117.975C465.767 116.625 463.457 116.965 460.587 117.335C454.267 119.055 447.177 123.375 441.377 128.755H441.387Z" fill="#B8AB8A" stroke="#1F1F1F" stroke-width="1.5" stroke-miterlimit="10"/>
<path d="M528.187 185.044C526.857 193.514 528.307 226.874 528.367 236.384L528.187 185.044Z" fill="#B8AB8A"/>
<path d="M528.187 185.044C526.857 193.514 528.307 226.874 528.367 236.384" stroke="#1F1F1F" stroke-width="1.5" stroke-miterlimit="10"/>
<path d="M551.566 169.044C546.346 169.734 534.616 176.754 528.506 181.624L551.566 169.044Z" fill="#B8AB8A"/>
<path d="M551.566 169.044C546.346 169.734 534.616 176.754 528.506 181.624" stroke="#1F1F1F" stroke-width="1.5" stroke-miterlimit="10"/>
<path d="M542.076 177.604C542.076 177.604 544.226 183.494 544.226 206.404V228.834" fill="#B8AB8A"/>
<path d="M542.076 177.604C542.076 177.604 544.226 183.494 544.226 206.404V228.834" stroke="#1F1F1F" stroke-width="1.5" stroke-miterlimit="10"/>
<path d="M364.867 199.775C363.157 200.765 362.107 202.585 362.107 204.565C360.987 212.715 361.137 221.375 362.107 230.375L366.077 233.205L449.947 281.935C451.177 282.645 451.977 283.005 452.787 282.995C453.607 282.995 454.407 282.635 455.627 281.935L521.317 244.005L525.287 241.175V215.365C525.287 213.385 524.237 211.565 522.527 210.575L521.327 209.875C521.327 209.875 495.747 192.435 477.487 182.645C459.227 172.855 438.367 161.265 438.367 161.265C436.047 159.915 433.187 159.915 430.867 161.265C430.867 161.265 411.197 171.135 400.957 177.115C390.727 183.085 364.867 199.775 364.867 199.775Z" fill="#B8AB8A" stroke="#1F1F1F" stroke-width="1.5" stroke-miterlimit="10"/>
<path d="M453.646 281.055C452.136 272.235 452.996 263.205 452.996 254.895L453.646 281.055Z" fill="#B8AB8A"/>
<path d="M453.646 281.055C452.136 272.235 452.996 263.205 452.996 254.895" stroke="#1F1F1F" stroke-width="1.5" stroke-miterlimit="10"/>
<path d="M524.156 220.425C501.246 235.685 479.556 246.825 454.326 259.585L524.156 220.425Z" fill="#B8AB8A"/>
<path d="M524.156 220.425C501.246 235.685 479.556 246.825 454.326 259.585" stroke="#1F1F1F" stroke-width="1.5" stroke-miterlimit="10"/>
<path d="M534.486 182.655C531.816 185.325 531.386 186.815 530.716 190.685C527.976 204.815 528.636 222.065 530.716 240.635L534.686 243.465L618.556 292.195C619.786 292.905 620.586 293.265 621.396 293.255C622.216 293.255 623.016 292.895 624.236 292.195L644.156 280.685L648.126 277.855C649.226 262.075 649.606 246.455 648.126 231.265C648.126 222.805 646.716 222.165 642.466 219.475L561.186 171.875C558.866 170.525 556.556 170.865 553.686 171.235C547.366 172.955 540.276 177.275 534.476 182.655H534.486Z" fill="#B8AB8A" stroke="#1F1F1F" stroke-width="1.5" stroke-miterlimit="10"/>
<path d="M621.276 238.945C619.946 247.415 621.396 280.775 621.456 290.285L621.276 238.945Z" fill="#B8AB8A"/>
<path d="M621.276 238.945C619.946 247.415 621.396 280.775 621.456 290.285" stroke="#1F1F1F" stroke-width="1.5" stroke-miterlimit="10"/>
<path d="M644.667 222.945C639.447 223.635 627.717 230.655 621.607 235.525L644.667 222.945Z" fill="#B8AB8A"/>
<path d="M644.667 222.945C639.447 223.635 627.717 230.655 621.607 235.525" stroke="#1F1F1F" stroke-width="1.5" stroke-miterlimit="10"/>
<path d="M635.176 231.504C635.176 231.504 637.326 237.394 637.326 260.304V282.734" fill="#B8AB8A"/>
<path d="M635.176 231.504C635.176 231.504 637.326 237.394 637.326 260.304V282.734" stroke="#1F1F1F" stroke-width="1.5" stroke-miterlimit="10"/>
<path d="M457.967 253.214C456.257 254.204 455.207 256.024 455.207 258.004C454.087 266.154 454.237 274.814 455.207 283.814L459.177 286.644L543.047 335.374C544.277 336.084 545.077 336.444 545.887 336.434C546.707 336.434 547.507 336.074 548.727 335.374L614.417 297.444L618.387 294.614V268.804C618.387 266.824 617.337 265.004 615.627 264.014L614.427 263.314C614.427 263.314 588.847 245.874 570.587 236.084C552.327 226.294 531.467 214.704 531.467 214.704C529.147 213.354 526.287 213.354 523.967 214.704C523.967 214.704 504.297 224.574 494.057 230.554C483.827 236.524 457.967 253.214 457.967 253.214Z" fill="#B8AB8A" stroke="#1F1F1F" stroke-width="1.5" stroke-miterlimit="10"/>
<path d="M546.747 334.504C545.237 325.684 546.097 316.654 546.097 308.344L546.747 334.504Z" fill="#B8AB8A"/>
<path d="M546.747 334.504C545.237 325.684 546.097 316.654 546.097 308.344" stroke="#1F1F1F" stroke-width="1.5" stroke-miterlimit="10"/>
<path d="M617.258 273.864C594.348 289.124 572.658 300.264 547.428 313.024L617.258 273.864Z" fill="#B8AB8A"/>
<path d="M617.258 273.864C594.348 289.124 572.658 300.264 547.428 313.024" stroke="#1F1F1F" stroke-width="1.5" stroke-miterlimit="10"/>
<path d="M399.928 153.086C397.988 157.736 397.338 161.676 395.478 166.396C394.048 169.376 390.198 170.646 387.478 169.046C360.948 156.856 335.838 144.626 318.268 129.776C316.198 128.556 315.488 126.026 316.578 123.756C317.238 121.676 318.728 119.776 319.428 117.736C323.648 105.416 347.448 73.0357 347.448 73.0357C348.118 71.2557 351.038 72.2057 352.648 73.0857C375.258 90.1757 396.918 99.7457 419.038 109.376C422.058 111.036 423.678 114.246 423.158 117.686C422.928 119.176 422.238 122.986 422.518 124.346C424.638 134.786 422.738 139.556 425.518 150.086C426.058 153.136 423.438 156.176 420.068 156.396L399.938 153.076L399.928 153.086Z" fill="#B8AB8A" stroke="#1F1F1F" stroke-width="1.5" stroke-miterlimit="10"/>
<path d="M419.038 118.546C413.108 132.116 403.758 143.916 399.928 153.086L419.038 118.546Z" fill="#B8AB8A"/>
<path d="M419.038 118.546C413.108 132.116 403.758 143.916 399.928 153.086" stroke="#1F1F1F" stroke-width="1.5" stroke-miterlimit="10"/>
<line x1="176.654" y1="135.502" x2="344.605" y2="38.536" stroke="black" stroke-width="3"/>
<g clip-path="url(#clip0_1696_12723)">
<rect x="208.254" y="94.3142" width="98" height="45" rx="15" transform="rotate(-30 208.254 94.3142)" fill="#FAFAF1"/>
<path d="M247.64 110.257L239.48 96.1238L234.362 99.0788L233.267 97.1822L233.526 97.0322C235.137 96.1022 236.193 95.1115 236.661 93.941C237.058 92.9494 237.005 91.837 236.508 90.4959L236.38 90.1542L238.796 88.7592L250.316 108.712L247.64 110.257ZM264.795 100.838C260.586 103.268 256.728 102.585 254.014 98.7833L256.555 97.0045C258.46 99.6454 260.788 100.137 263.594 98.5174C266.686 96.7324 267.133 94.3266 265.873 92.1442C264.478 89.728 262.098 89.266 259.266 90.901L257.395 91.981L256.12 89.7726L257.965 88.7076C260.355 87.3276 260.971 85.2746 259.831 83.3C258.586 81.1436 256.346 80.9824 253.981 82.3474C251.253 83.9224 250.742 86.1574 251.755 88.6906L249.058 89.9008C247.4 86.0085 248.534 82.5131 252.691 80.1131C256.848 77.7131 260.479 78.4225 262.294 81.5662C263.509 83.6707 263.399 85.6396 261.593 87.791L261.623 87.8429C264.763 86.8615 267.038 88.0421 268.508 90.5882C270.698 94.3814 269.108 98.3477 264.795 100.838ZM277.436 75.8729C281.307 73.6379 285.412 74.628 287.752 78.681C290.062 82.682 289.039 86.91 284.648 89.445C282.336 90.78 280 91.0546 277.499 90.1429C275.218 89.3121 273.563 87.7045 271.583 84.2751C268.028 78.1176 266.713 72.1214 272.897 68.5514C276.326 66.5714 279.616 66.7502 281.934 69.0842L279.535 70.9889C278.32 69.785 276.506 69.3428 274.09 70.7378C270.894 72.5828 270.25 75.7263 273.536 81.6579C273.648 79.2722 275.097 77.2229 277.436 75.8729ZM283.384 87.1957C286.034 85.6657 286.819 83.0649 285.229 80.3109C283.609 77.505 280.915 76.7393 278.265 78.2693C275.953 79.6043 274.717 82.0843 275.695 85.1573C276.881 86.793 277.792 87.4104 278.888 87.7478C280.587 88.291 282.111 87.9307 283.384 87.1957Z" fill="black"/>
</g>
<line x1="213.08" y1="208.45" x2="502.758" y2="375.696" stroke="black" stroke-width="3"/>
<g clip-path="url(#clip1_1696_12723)">
<rect x="332.173" y="252.96" width="83.7084" height="45" rx="15" transform="rotate(30 332.173 252.96)" fill="#FAFAF1"/>
<path d="M334.778 293.631C330.569 291.201 329.231 287.519 331.166 283.267L333.977 284.578C332.643 287.549 333.381 289.811 336.187 291.431C339.279 293.216 341.586 292.4 342.846 290.217C344.241 287.801 343.451 285.509 340.619 283.874L338.748 282.794L340.023 280.586L341.868 281.651C344.258 283.031 346.344 282.538 347.484 280.563C348.729 278.407 347.748 276.386 345.384 275.021C342.656 273.446 340.465 274.121 338.777 276.264L336.381 274.534C338.923 271.152 342.517 270.386 346.674 272.786C350.831 275.186 352.032 278.686 350.217 281.829C349.002 283.934 347.242 284.823 344.476 284.334L344.446 284.386C346.866 286.615 346.981 289.175 345.511 291.721C343.321 295.515 339.091 296.121 334.778 293.631ZM351.381 302.732L359.541 288.598L354.423 285.643L355.518 283.747L355.778 283.897C357.389 284.827 358.775 285.246 360.022 285.065C361.08 284.914 362.016 284.311 362.929 283.21L363.161 282.929L365.577 284.324L354.057 304.277L351.381 302.732ZM368.024 312.86C364.153 310.625 362.558 306.967 364.111 303.257L367.004 304.546C365.969 307.239 367.224 309.385 369.433 310.66C372.316 312.325 374.925 311.406 376.53 308.626C378.09 305.924 377.644 303.276 374.631 301.536C372.89 300.531 371.402 300.469 369.726 300.852L367.26 298.943L375.17 289.862L386.238 296.252L384.798 298.746L375.783 293.541L371.444 298.415L371.466 298.497C373.049 298.337 374.566 298.589 376.358 299.624C380.827 302.204 381.362 306.497 379.262 310.134C377.117 313.849 372.908 315.68 368.024 312.86Z" fill="black"/>
</g>
<defs>
<clipPath id="clip0_1696_12723">
<rect x="208.254" y="94.3142" width="98" height="45" rx="15" transform="rotate(-30 208.254 94.3142)" fill="white"/>
</clipPath>
<clipPath id="clip1_1696_12723">
<rect x="332.173" y="252.96" width="83.7084" height="45" rx="15" transform="rotate(30 332.173 252.96)" fill="white"/>
</clipPath>
</defs>
</svg>
