<svg width="900" height="400" viewBox="0 0 900 400" fill="none" xmlns="http://www.w3.org/2000/svg">
<line x1="188.422" y1="211.156" x2="504.66" y2="393.736" stroke="black" stroke-width="3"/>
<g clip-path="url(#clip0_1696_12792)">
<rect x="317.472" y="261.413" width="91.3833" height="45" rx="15" transform="rotate(30 317.472 261.413)" fill="#FAFAF1"/>
<path d="M320.558 302.363C316.349 299.933 315.011 296.25 316.946 291.998L319.757 293.31C318.423 296.281 319.161 298.543 321.967 300.163C325.059 301.948 327.366 301.132 328.626 298.949C330.021 296.533 329.231 294.241 326.399 292.606L324.528 291.526L325.803 289.318L327.648 290.383C330.038 291.763 332.124 291.27 333.264 289.295C334.509 287.139 333.528 285.118 331.164 283.753C328.436 282.178 326.245 282.853 324.557 284.996L322.161 283.266C324.703 279.884 328.297 279.118 332.454 281.518C336.611 283.918 337.812 287.418 335.997 290.561C334.782 292.666 333.022 293.555 330.256 293.066L330.226 293.118C332.645 295.347 332.761 297.907 331.291 300.453C329.101 304.247 324.871 304.853 320.558 302.363ZM348.922 309.213L352.164 310.738L350.934 312.868L348.007 310.798L345.007 315.994L342.539 314.569L345.539 309.373L335.372 303.883L336.467 301.987L352.5 293.716L356.527 296.041L348.922 309.213ZM346.454 307.788L353.054 296.356L352.976 296.311L339.341 303.369L346.454 307.788ZM368.009 312.092C371.88 314.327 373.075 318.377 370.735 322.43C368.425 326.431 364.252 327.659 359.862 325.124C357.549 323.789 356.144 321.904 355.683 319.282C355.262 316.891 355.826 314.654 357.806 311.224C361.361 305.067 365.897 300.93 372.08 304.5C375.51 306.48 377 309.419 376.138 312.593L373.288 311.468C373.724 309.814 373.2 308.022 370.783 306.627C367.588 304.782 364.543 305.795 361.049 311.607C363.171 310.511 365.671 310.742 368.009 312.092ZM361.178 322.905C363.828 324.435 366.472 323.814 368.062 321.06C369.682 318.254 368.999 315.538 366.349 314.008C364.036 312.673 361.271 312.843 359.098 315.226C358.275 317.072 358.196 318.169 358.451 319.287C358.83 321.03 359.904 322.17 361.178 322.905Z" fill="black"/>
</g>
<path d="M367.281 78.9681C369.951 81.6381 370.381 83.1281 371.051 86.9981C373.791 101.128 373.131 118.378 371.051 136.948L367.081 139.778L283.211 188.508C281.981 189.218 281.181 189.578 280.371 189.568C279.551 189.568 278.751 189.208 277.531 188.508L257.611 176.998L253.641 174.168C252.541 158.388 252.161 142.768 253.641 127.578C253.641 119.118 255.051 118.478 259.301 115.788L340.581 68.1881C342.901 66.8381 345.211 67.1781 348.081 67.5481C354.401 69.2681 361.491 73.5881 367.291 78.9681H367.281Z" fill="#B8AB8A" stroke="#1F1F1F" stroke-width="1.5" stroke-miterlimit="10"/>
<path d="M280.479 135.258C281.809 143.728 280.359 177.088 280.299 186.598L280.479 135.258Z" fill="#B8AB8A"/>
<path d="M280.479 135.258C281.809 143.728 280.359 177.088 280.299 186.598" stroke="#1F1F1F" stroke-width="1.5" stroke-miterlimit="10"/>
<path d="M257.1 119.268C262.32 119.958 274.05 126.978 280.16 131.848L257.1 119.268Z" fill="#B8AB8A"/>
<path d="M257.1 119.268C262.32 119.958 274.05 126.978 280.16 131.848" stroke="#1F1F1F" stroke-width="1.5" stroke-miterlimit="10"/>
<path d="M266.589 127.818C266.589 127.818 264.439 133.708 264.439 156.618C264.439 160.898 264.439 179.048 264.439 179.048" fill="#B8AB8A"/>
<path d="M266.589 127.818C266.589 127.818 264.439 133.708 264.439 156.618C264.439 160.898 264.439 179.048 264.439 179.048" stroke="#1F1F1F" stroke-width="1.5" stroke-miterlimit="10"/>
<path d="M349.31 93.716C346.64 96.386 346.211 97.876 345.541 101.746C342.801 115.876 343.461 133.126 345.541 151.696L349.511 154.526L433.38 203.256C434.61 203.966 435.411 204.326 436.221 204.316C437.041 204.316 437.841 203.956 439.061 203.256L458.98 191.746L462.95 188.916C464.05 173.136 464.43 157.516 462.95 142.326C462.95 133.866 461.54 133.226 457.29 130.536L376.011 82.936C373.691 81.586 371.381 81.926 368.511 82.296C362.191 84.016 355.1 88.336 349.3 93.716H349.31Z" fill="#B8AB8A" stroke="#1F1F1F" stroke-width="1.5" stroke-miterlimit="10"/>
<path d="M436.11 149.996C434.78 158.466 436.23 191.826 436.29 201.336L436.11 149.996Z" fill="#B8AB8A"/>
<path d="M436.11 149.996C434.78 158.466 436.23 191.826 436.29 201.336" stroke="#1F1F1F" stroke-width="1.5" stroke-miterlimit="10"/>
<path d="M459.492 134.006C454.272 134.696 442.542 141.716 436.432 146.586L459.492 134.006Z" fill="#B8AB8A"/>
<path d="M459.492 134.006C454.272 134.696 442.542 141.716 436.432 146.586" stroke="#1F1F1F" stroke-width="1.5" stroke-miterlimit="10"/>
<path d="M450 142.556C450 142.556 452.15 148.446 452.15 171.356V193.786" fill="#B8AB8A"/>
<path d="M450 142.556C450 142.556 452.15 148.446 452.15 171.356V193.786" stroke="#1F1F1F" stroke-width="1.5" stroke-miterlimit="10"/>
<path d="M256.84 174.286L255.64 174.986C253.93 175.976 252.88 177.796 252.88 179.776C251.58 188.466 251.63 197.066 252.88 205.586L256.85 208.416L340.72 257.146C341.95 257.856 342.75 258.216 343.56 258.206C344.38 258.206 345.18 257.846 346.4 257.146L430.26 208.686L434.23 205.856V180.046C434.23 178.066 433.18 176.246 431.47 175.256C431.47 175.256 412.52 164.206 391.37 151.816C388.76 150.286 386.11 148.736 383.47 147.186C359.38 133.066 347.3 125.946 347.3 125.946C344.98 124.596 342.12 124.596 339.8 125.946C339.8 125.946 326.27 132.156 301.24 145.856C276.22 159.556 256.84 174.286 256.84 174.286Z" fill="#B8AB8A" stroke="#1F1F1F" stroke-width="1.5" stroke-miterlimit="10"/>
<path d="M431.899 184.856C408.989 200.116 370.339 221.196 345.109 233.956L431.899 184.856Z" fill="#B8AB8A"/>
<path d="M431.899 184.856C408.989 200.116 370.339 221.196 345.109 233.956" stroke="#1F1F1F" stroke-width="1.5" stroke-miterlimit="10"/>
<path d="M343.89 255.666C342.38 246.846 343.24 238.626 343.24 230.316L343.89 255.666Z" fill="#B8AB8A"/>
<path d="M343.89 255.666C342.38 246.846 343.24 238.626 343.24 230.316" stroke="#1F1F1F" stroke-width="1.5" stroke-miterlimit="10"/>
<path d="M442.41 147.156C439.74 149.826 439.31 151.316 438.64 155.186C435.9 169.316 436.56 186.566 438.64 205.136L442.61 207.966L526.48 256.696C527.71 257.406 528.51 257.766 529.32 257.756C530.14 257.756 530.94 257.396 532.16 256.696L552.08 245.186L556.05 242.356C557.15 226.576 557.53 210.956 556.05 195.766C556.05 187.306 554.64 186.666 550.39 183.976L469.11 136.376C466.79 135.026 464.48 135.366 461.61 135.736C455.29 137.456 448.2 141.776 442.4 147.156H442.41Z" fill="#B8AB8A" stroke="#1F1F1F" stroke-width="1.5" stroke-miterlimit="10"/>
<path d="M529.21 203.446C527.88 211.916 529.33 245.276 529.39 254.786L529.21 203.446Z" fill="#B8AB8A"/>
<path d="M529.21 203.446C527.88 211.916 529.33 245.276 529.39 254.786" stroke="#1F1F1F" stroke-width="1.5" stroke-miterlimit="10"/>
<path d="M552.589 187.446C547.369 188.136 535.639 195.156 529.529 200.026L552.589 187.446Z" fill="#B8AB8A"/>
<path d="M552.589 187.446C547.369 188.136 535.639 195.156 529.529 200.026" stroke="#1F1F1F" stroke-width="1.5" stroke-miterlimit="10"/>
<path d="M543.1 196.006C543.1 196.006 545.25 201.896 545.25 224.806V247.236" fill="#B8AB8A"/>
<path d="M543.1 196.006C543.1 196.006 545.25 201.896 545.25 224.806V247.236" stroke="#1F1F1F" stroke-width="1.5" stroke-miterlimit="10"/>
<path d="M365.89 218.176C364.18 219.166 363.13 220.986 363.13 222.966C362.01 231.116 362.16 239.776 363.13 248.776L367.1 251.606L450.97 300.336C452.2 301.046 453 301.406 453.81 301.396C454.63 301.396 455.43 301.036 456.65 300.336L522.34 262.406L526.31 259.576V233.766C526.31 231.786 525.26 229.966 523.55 228.976L522.35 228.276C522.35 228.276 496.77 210.836 478.51 201.046C460.25 191.256 439.39 179.666 439.39 179.666C437.07 178.316 434.21 178.316 431.89 179.666C431.89 179.666 412.22 189.536 401.98 195.516C391.75 201.486 365.89 218.176 365.89 218.176Z" fill="#B8AB8A" stroke="#1F1F1F" stroke-width="1.5" stroke-miterlimit="10"/>
<path d="M454.669 299.457C453.159 290.637 454.019 281.607 454.019 273.297L454.669 299.457Z" fill="#B8AB8A"/>
<path d="M454.669 299.457C453.159 290.637 454.019 281.607 454.019 273.297" stroke="#1F1F1F" stroke-width="1.5" stroke-miterlimit="10"/>
<path d="M525.18 238.826C502.27 254.086 480.58 265.226 455.35 277.986L525.18 238.826Z" fill="#B8AB8A"/>
<path d="M525.18 238.826C502.27 254.086 480.58 265.226 455.35 277.986" stroke="#1F1F1F" stroke-width="1.5" stroke-miterlimit="10"/>
<path d="M487.656 252.917C485.946 253.907 484.896 255.727 484.896 257.707C483.776 265.857 483.926 274.517 484.896 283.517L488.866 286.347L572.736 335.077C573.966 335.787 574.766 336.147 575.576 336.137C576.396 336.137 577.196 335.777 578.416 335.077L644.106 297.147L648.076 294.317V268.507C648.076 266.527 647.026 264.707 645.316 263.717L644.116 263.017C644.116 263.017 618.536 245.577 600.276 235.787C582.016 225.997 561.156 214.407 561.156 214.407C558.836 213.057 555.976 213.057 553.656 214.407C553.656 214.407 533.986 224.277 523.746 230.257C513.516 236.227 487.656 252.917 487.656 252.917Z" fill="#B8AB8A" stroke="#1F1F1F" stroke-width="1.5" stroke-miterlimit="10"/>
<path d="M576.437 334.207C574.927 325.387 575.787 316.357 575.787 308.047L576.437 334.207Z" fill="#B8AB8A"/>
<path d="M576.437 334.207C574.927 325.387 575.787 316.357 575.787 308.047" stroke="#1F1F1F" stroke-width="1.5" stroke-miterlimit="10"/>
<path d="M646.947 273.567C624.037 288.827 602.347 299.967 577.117 312.727L646.947 273.567Z" fill="#B8AB8A"/>
<path d="M646.947 273.567C624.037 288.827 602.347 299.967 577.117 312.727" stroke="#1F1F1F" stroke-width="1.5" stroke-miterlimit="10"/>
<path d="M410.89 162.181C402.04 142.501 408.02 99.4106 401.62 75.7006C401.15 73.9406 402.5 71.5406 402.45 69.7206C402.88 66.5006 400.26 63.6807 397.01 63.8707C371.62 75.2607 328.83 80.0706 300.05 71.3506C297.57 71.5006 295.55 73.3807 295.22 75.8407C294.69 92.6307 294.41 109.721 296.18 128.041C297.28 139.451 289.07 152.411 286.63 164.041C286.2 167.261 288.82 170.081 292.07 169.891C321.84 171.011 379.63 173.071 403.13 167.921C405.61 167.771 411.77 164.151 410.89 162.181Z" fill="#B8AB8A" stroke="#1F1F1F" stroke-width="1.5" stroke-miterlimit="10"/>
<path d="M447.232 195.376C447.492 194.026 448.232 192.786 448.552 191.476C452.482 175.666 459.732 159.316 461.962 155.356C462.812 153.856 464.042 151.346 464.842 149.776C465.362 148.756 465.552 146.456 466.102 145.456C466.772 143.526 468.192 140.806 469.762 142.156C483.532 151.706 498.852 159.316 514.522 166.866C515.872 167.646 516.482 169.276 515.972 170.746C515.532 171.706 514.552 173.486 514.152 174.476C512.012 179.786 509.712 185.076 507.402 191.296C504.112 200.176 501.662 208.436 498.662 217.586C498.122 219.246 498.272 221.456 497.632 223.046C496.962 224.976 494.702 225.816 492.932 224.796C490.852 224.236 489.192 222.506 487.302 221.676C471.562 214.836 460.882 207.906 450.962 199.246C449.612 198.466 446.722 196.836 447.232 195.366V195.376Z" fill="#B8AB8A" stroke="#1F1F1F" stroke-width="1.5" stroke-miterlimit="10"/>
<path d="M514.382 171.946C508.592 180.856 496.132 218.816 496.912 222.806" stroke="#1F1F1F" stroke-width="1.5" stroke-miterlimit="10"/>
<path d="M483.952 206.146C473.292 199.236 462.432 193.006 451.322 187.696L451.212 187.676C449.272 186.876 445.882 188.366 444.232 192.366C442.582 196.366 443.302 201.346 445.242 202.146C454.672 209.236 465.752 215.286 477.992 220.616C479.932 221.416 483.632 218.826 485.272 214.826C486.922 210.826 485.892 206.946 483.962 206.146H483.952Z" fill="#B8AB8A" stroke="#1F1F1F" stroke-width="1.5" stroke-miterlimit="10"/>
<path d="M477.642 219.837C476.382 218.947 475.812 215.927 477.462 211.927C479.112 207.927 481.042 206.617 482.742 206.467" stroke="#1F1F1F" stroke-width="1.5" stroke-miterlimit="10"/>
<path d="M444.723 195.586C453.953 201.866 464.513 207.786 476.193 213.396" stroke="#1F1F1F" stroke-width="1.5" stroke-miterlimit="10"/>
<path d="M469.932 207.286C469.752 207.466 468.912 209.936 468.912 209.936L471.312 211.046L472.352 208.426L469.932 207.286Z" fill="#B8AB8A" stroke="#1F1F1F" stroke-width="1.5" stroke-miterlimit="10"/>
<line x1="132.448" y1="139.064" x2="300.398" y2="42.0984" stroke="black" stroke-width="3"/>
<g clip-path="url(#clip1_1696_12792)">
<rect x="164.048" y="97.8765" width="98" height="45" rx="15" transform="rotate(-30 164.048 97.8765)" fill="#FAFAF1"/>
<path d="M203.434 113.82L195.274 99.6861L190.156 102.641L189.061 100.745L189.32 100.595C190.931 99.6645 191.987 98.6737 192.455 97.5032C192.852 96.5116 192.799 95.3993 192.302 94.0582L192.174 93.7164L194.59 92.3214L206.11 112.275L203.434 113.82ZM220.589 104.4C216.38 106.83 212.522 106.148 209.808 102.346L212.349 100.567C214.254 103.208 216.582 103.7 219.388 102.08C222.48 100.295 222.927 97.8888 221.667 95.7064C220.272 93.2902 217.892 92.8283 215.06 94.4633L213.189 95.5433L211.914 93.3349L213.759 92.2699C216.149 90.8899 216.765 88.8368 215.625 86.8623C214.38 84.7059 212.139 84.5447 209.775 85.9097C207.047 87.4847 206.536 89.7196 207.549 92.2529L204.852 93.4631C203.194 89.5708 204.328 86.0754 208.485 83.6754C212.642 81.2754 216.273 81.9848 218.088 85.1285C219.303 87.2329 219.193 89.2019 217.387 91.3532L217.417 91.4052C220.557 90.4237 222.832 91.6044 224.302 94.1505C226.492 97.9437 224.902 101.91 220.589 104.4ZM233.23 79.4351C237.101 77.2001 241.206 78.1903 243.546 82.2433C245.856 86.2443 244.833 90.4723 240.442 93.0073C238.13 94.3423 235.794 94.6169 233.293 93.7052C231.012 92.8744 229.356 91.2668 227.376 87.8373C223.821 81.6799 222.507 75.6836 228.691 72.1136C232.12 70.1336 235.41 70.3125 237.728 72.6465L235.329 74.5512C234.114 73.3472 232.3 72.9051 229.884 74.3001C226.688 76.1451 226.043 79.2885 229.33 85.2202C229.442 82.8345 230.891 80.7851 233.23 79.4351ZM239.178 90.7579C241.828 89.2279 242.613 86.6271 241.023 83.8732C239.403 81.0672 236.709 80.3015 234.059 81.8315C231.747 83.1665 230.511 85.6466 231.488 88.7195C232.675 90.3552 233.586 90.9726 234.682 91.3101C236.381 91.8532 237.905 91.4929 239.178 90.7579Z" fill="black"/>
</g>
<defs>
<clipPath id="clip0_1696_12792">
<rect x="317.472" y="261.413" width="91.3833" height="45" rx="15" transform="rotate(30 317.472 261.413)" fill="white"/>
</clipPath>
<clipPath id="clip1_1696_12792">
<rect x="164.048" y="97.8765" width="98" height="45" rx="15" transform="rotate(-30 164.048 97.8765)" fill="white"/>
</clipPath>
</defs>
</svg>
