<svg width="900" height="500" viewBox="0 0 900 500" fill="none" xmlns="http://www.w3.org/2000/svg">
<line x1="432.478" y1="246.665" x2="722.156" y2="413.911" stroke="black" stroke-width="3"/>
<g clip-path="url(#clip0_1696_9901)">
<rect x="551.57" y="291.174" width="83.7084" height="45" rx="15" transform="rotate(30 551.57 291.174)" fill="#FAFAF1"/>
<path d="M554.176 331.846C549.967 329.416 548.629 325.733 550.564 321.481L553.375 322.792C552.041 325.763 552.779 328.025 555.584 329.645C558.676 331.43 560.983 330.615 562.243 328.432C563.638 326.016 562.848 323.724 560.016 322.089L558.146 321.009L559.421 318.801L561.265 319.866C563.656 321.246 565.742 320.753 566.882 318.778C568.127 316.622 567.146 314.6 564.782 313.235C562.054 311.66 559.863 312.335 558.175 314.479L555.779 312.749C558.32 309.366 561.915 308.601 566.072 311.001C570.229 313.401 571.43 316.9 569.615 320.044C568.4 322.149 566.639 323.038 563.873 322.549L563.843 322.601C566.263 324.829 566.378 327.39 564.908 329.936C562.718 333.729 558.488 334.336 554.176 331.846ZM570.779 340.947L578.939 326.813L573.821 323.858L574.916 321.961L575.175 322.111C576.786 323.041 578.172 323.461 579.42 323.28C580.477 323.129 581.414 322.526 582.327 321.425L582.559 321.143L584.975 322.538L573.455 342.492L570.779 340.947ZM587.421 351.075C583.55 348.84 581.955 345.182 583.508 341.472L586.401 342.761C585.366 345.454 586.622 347.599 588.83 348.874C591.714 350.539 594.323 349.621 595.928 346.841C597.488 344.139 597.042 341.491 594.028 339.751C592.287 338.746 590.799 338.684 589.123 339.067L586.657 337.158L594.568 328.077L605.635 334.467L604.195 336.961L595.18 331.756L590.842 336.63L590.864 336.712C592.446 336.551 593.963 336.804 595.756 337.839C600.224 340.419 600.76 344.711 598.66 348.349C596.515 352.064 592.306 353.895 587.421 351.075Z" fill="black"/>
</g>
<line x1="183.749" y1="377.576" x2="410.494" y2="246.665" stroke="black" stroke-width="3"/>
<g clip-path="url(#clip1_1696_9901)">
<rect x="247.833" y="316.328" width="89.5785" height="45" rx="15" transform="rotate(-30 247.833 316.328)" fill="#FAFAF1"/>
<path d="M278.923 337.061C276.958 333.657 277.16 330.527 279.474 326.316L281.508 322.578C282.925 319.993 283.252 318.28 282.112 316.305C280.747 313.941 278.467 313.352 275.765 314.912C273.089 316.457 272.396 318.797 273.896 321.395L274.091 321.733L271.493 323.233L271.343 322.973C269.063 319.024 270.165 314.993 274.452 312.518C278.453 310.208 282.441 310.815 284.706 314.738C286.176 317.285 286.166 320.027 283.807 324.16L282.555 326.373C280.72 329.614 280.236 331.176 280.905 332.695L291.895 326.35L293.29 328.766L278.923 337.061ZM299.708 325.06C296.59 317.439 295.913 309.966 297.1 303.322L286.11 309.667L284.655 307.147L299.1 298.807L300.225 300.756C298.172 308.419 299.069 315.973 302.436 323.485L299.708 325.06ZM313.454 317.124C311.489 313.721 311.691 310.591 314.005 306.379L316.039 302.642C317.456 300.057 317.783 298.343 316.643 296.369C315.278 294.005 312.998 293.416 310.296 294.976C307.62 296.521 306.928 298.861 308.428 301.459L308.623 301.796L306.024 303.296L305.874 303.037C303.594 299.088 304.697 295.056 308.983 292.581C312.984 290.271 316.972 290.879 319.237 294.802C320.707 297.348 320.697 300.09 318.338 304.224L317.086 306.436C315.251 309.678 314.767 311.239 315.436 312.758L326.426 306.413L327.821 308.829L313.454 317.124Z" fill="black"/>
</g>
<line x1="404.401" y1="192.235" x2="572.352" y2="95.2692" stroke="black" stroke-width="3"/>
<g clip-path="url(#clip2_1696_9901)">
<rect x="436.001" y="151.048" width="98" height="45" rx="15" transform="rotate(-30 436.001 151.048)" fill="#FAFAF1"/>
<path d="M475.387 166.991L467.227 152.857L462.109 155.812L461.014 153.916L461.274 153.766C462.884 152.836 463.94 151.845 464.408 150.674C464.805 149.683 464.752 148.571 464.255 147.229L464.127 146.888L466.543 145.493L478.063 165.446L475.387 166.991ZM492.542 157.571C488.333 160.001 484.475 159.319 481.761 155.517L484.302 153.738C486.207 156.379 488.535 156.871 491.341 155.251C494.433 153.466 494.88 151.06 493.62 148.878C492.225 146.462 489.845 146 487.013 147.635L485.143 148.715L483.868 146.506L485.712 145.441C488.102 144.061 488.718 142.008 487.578 140.034C486.333 137.877 484.093 137.716 481.728 139.081C479 140.656 478.489 142.891 479.502 145.424L476.806 146.634C475.147 142.742 476.281 139.247 480.438 136.847C484.595 134.447 488.227 135.156 490.042 138.3C491.257 140.404 491.146 142.373 489.34 144.525L489.37 144.576C492.51 143.595 494.785 144.776 496.255 147.322C498.445 151.115 496.855 155.081 492.542 157.571ZM505.183 132.606C509.054 130.371 513.159 131.362 515.499 135.415C517.809 139.416 516.786 143.644 512.395 146.179C510.083 147.514 507.747 147.788 505.246 146.876C502.965 146.046 501.31 144.438 499.33 141.009C495.775 134.851 494.46 128.855 500.644 125.285C504.073 123.305 507.364 123.484 509.681 125.818L507.282 127.722C506.067 126.518 504.253 126.076 501.837 127.471C498.641 129.316 497.997 132.46 501.283 138.391C501.395 136.006 502.844 133.956 505.183 132.606ZM511.131 143.929C513.781 142.399 514.566 139.798 512.976 137.044C511.356 134.239 508.662 133.473 506.012 135.003C503.7 136.338 502.464 138.818 503.442 141.891C504.628 143.527 505.539 144.144 506.635 144.481C508.334 145.024 509.858 144.664 511.131 143.929Z" fill="black"/>
</g>
<path d="M249.006 107.643C246.336 110.313 245.906 111.803 245.236 115.673C242.496 129.803 243.156 147.053 245.236 165.623L249.206 168.453L333.076 217.183C334.306 217.893 335.106 218.253 335.916 218.243C336.736 218.243 337.536 217.883 338.756 217.183L358.676 205.673L362.646 202.843C363.746 187.063 364.126 171.443 362.646 156.253C362.646 147.793 361.236 147.153 356.986 144.463L275.706 96.8626C273.386 95.5126 271.076 95.8526 268.206 96.2226C261.886 97.9426 254.796 102.263 248.996 107.643H249.006Z" fill="#B8AB8A" stroke="#1F1F1F" stroke-width="1.5" stroke-miterlimit="10"/>
<path d="M335.806 163.923C334.476 172.393 335.926 205.753 335.986 215.263L335.806 163.923Z" fill="#B8AB8A"/>
<path d="M335.806 163.923C334.476 172.393 335.926 205.753 335.986 215.263" stroke="#1F1F1F" stroke-width="1.5" stroke-miterlimit="10"/>
<path d="M359.186 147.933C353.966 148.623 342.236 155.643 336.126 160.513L359.186 147.933Z" fill="#B8AB8A"/>
<path d="M359.186 147.933C353.966 148.623 342.236 155.643 336.126 160.513" stroke="#1F1F1F" stroke-width="1.5" stroke-miterlimit="10"/>
<path d="M349.696 156.482C349.696 156.482 351.846 162.372 351.846 185.282C351.846 189.562 351.846 207.712 351.846 207.712" fill="#B8AB8A"/>
<path d="M349.696 156.482C349.696 156.482 351.846 162.372 351.846 185.282C351.846 189.562 351.846 207.712 351.846 207.712" stroke="#1F1F1F" stroke-width="1.5" stroke-miterlimit="10"/>
<path d="M266.987 122.583C269.657 125.253 270.087 126.743 270.757 130.613C273.497 144.743 272.837 161.993 270.757 180.563L266.787 183.393L182.917 232.123C181.687 232.833 180.887 233.193 180.077 233.183C179.257 233.183 178.457 232.823 177.237 232.123L157.317 220.613L153.347 217.783C152.247 202.003 151.867 186.383 153.347 171.193C153.347 162.733 154.757 162.093 159.007 159.403L240.287 111.803C242.607 110.453 244.917 110.793 247.787 111.163C254.107 112.883 261.197 117.203 266.997 122.583H266.987Z" fill="#B8AB8A" stroke="#1F1F1F" stroke-width="1.5" stroke-miterlimit="10"/>
<path d="M180.187 178.873C181.517 187.343 180.067 220.703 180.007 230.213L180.187 178.873Z" fill="#B8AB8A"/>
<path d="M180.187 178.873C181.517 187.343 180.067 220.703 180.007 230.213" stroke="#1F1F1F" stroke-width="1.5" stroke-miterlimit="10"/>
<path d="M156.808 162.873C162.028 163.563 173.758 170.583 179.868 175.453L156.808 162.873Z" fill="#B8AB8A"/>
<path d="M156.808 162.873C162.028 163.563 173.758 170.583 179.868 175.453" stroke="#1F1F1F" stroke-width="1.5" stroke-miterlimit="10"/>
<path d="M166.298 171.434C166.298 171.434 164.148 177.324 164.148 200.234V222.664" fill="#B8AB8A"/>
<path d="M166.298 171.434C166.298 171.434 164.148 177.324 164.148 200.234V222.664" stroke="#1F1F1F" stroke-width="1.5" stroke-miterlimit="10"/>
<path d="M173.887 176.023C176.557 178.693 176.987 180.183 177.657 184.053C180.397 198.183 179.737 215.434 177.657 234.004L173.687 236.833L89.8168 285.563C88.5868 286.273 87.7868 286.633 86.9768 286.623C86.1568 286.623 85.3568 286.263 84.1368 285.563L64.2168 274.053L60.2468 271.224C59.1468 255.444 58.7668 239.824 60.2468 224.634C60.2468 216.174 61.6568 215.533 65.9068 212.843L147.187 165.243C149.507 163.893 151.817 164.233 154.687 164.603C161.007 166.323 168.097 170.643 173.897 176.023H173.887Z" fill="#B8AB8A" stroke="#1F1F1F" stroke-width="1.5" stroke-miterlimit="10"/>
<path d="M87.0868 232.312C88.4168 240.783 86.9668 274.142 86.9068 283.652L87.0868 232.312Z" fill="#B8AB8A"/>
<path d="M87.0868 232.312C88.4168 240.783 86.9668 274.142 86.9068 283.652" stroke="#1F1F1F" stroke-width="1.5" stroke-miterlimit="10"/>
<path d="M63.7076 216.323C68.9276 217.013 80.6576 224.033 86.7676 228.903L63.7076 216.323Z" fill="#B8AB8A"/>
<path d="M63.7076 216.323C68.9276 217.013 80.6576 224.033 86.7676 228.903" stroke="#1F1F1F" stroke-width="1.5" stroke-miterlimit="10"/>
<path d="M73.1973 224.873C73.1973 224.873 71.0473 230.763 71.0473 253.673V276.103" fill="#B8AB8A"/>
<path d="M73.1973 224.873C73.1973 224.873 71.0473 230.763 71.0473 253.673V276.103" stroke="#1F1F1F" stroke-width="1.5" stroke-miterlimit="10"/>
<path d="M359.447 203.153L360.647 203.853C362.357 204.843 363.407 206.663 363.407 208.643C364.707 217.333 364.657 225.933 363.407 234.453L359.437 237.283L275.567 286.013C274.337 286.723 273.537 287.083 272.727 287.073C271.907 287.073 271.107 286.713 269.887 286.013L186.027 237.553L182.057 234.723V208.913C182.057 206.933 183.107 205.113 184.817 204.123C184.817 204.123 203.767 193.073 224.917 180.683C227.527 179.153 230.177 177.603 232.817 176.053C256.907 161.933 268.987 154.813 268.987 154.813C271.307 153.463 274.167 153.463 276.487 154.813C276.487 154.813 290.017 161.023 315.047 174.723C340.067 188.423 359.447 203.153 359.447 203.153Z" fill="#B8AB8A" stroke="#1F1F1F" stroke-width="1.5" stroke-miterlimit="10"/>
<path d="M184.398 213.733C207.308 228.993 245.958 250.073 271.188 262.833L184.398 213.733Z" fill="#B8AB8A"/>
<path d="M184.398 213.733C207.308 228.993 245.958 250.073 271.188 262.833" stroke="#1F1F1F" stroke-width="1.5" stroke-miterlimit="10"/>
<path d="M272.407 284.543C273.917 275.723 273.057 267.503 273.057 259.193L272.407 284.543Z" fill="#B8AB8A"/>
<path d="M272.407 284.543C273.917 275.723 273.057 267.503 273.057 259.193" stroke="#1F1F1F" stroke-width="1.5" stroke-miterlimit="10"/>
<path d="M267.367 256.433L268.567 257.133C270.277 258.123 271.327 259.943 271.327 261.923C272.627 270.613 272.577 279.213 271.327 287.733L267.357 290.563L183.487 339.293C182.257 340.003 181.457 340.363 180.647 340.353C179.827 340.353 179.027 339.993 177.807 339.293L93.9469 290.833L89.9769 288.003V262.193C89.9769 260.213 91.0269 258.393 92.7369 257.403C92.7369 257.403 111.687 246.353 132.837 233.963C135.447 232.433 138.097 230.883 140.737 229.333C164.827 215.213 176.907 208.093 176.907 208.093C179.227 206.743 182.087 206.743 184.407 208.093C184.407 208.093 197.937 214.303 222.967 228.003C247.987 241.703 267.367 256.433 267.367 256.433Z" fill="#B8AB8A" stroke="#1F1F1F" stroke-width="1.5" stroke-miterlimit="10"/>
<path d="M92.3174 267.003C115.227 282.263 153.877 303.343 179.107 316.103L92.3174 267.003Z" fill="#B8AB8A"/>
<path d="M92.3174 267.003C115.227 282.263 153.877 303.343 179.107 316.103" stroke="#1F1F1F" stroke-width="1.5" stroke-miterlimit="10"/>
<path d="M180.327 337.813C181.837 328.993 180.977 320.773 180.977 312.463L180.327 337.813Z" fill="#B8AB8A"/>
<path d="M180.327 337.813C181.837 328.993 180.977 320.773 180.977 312.463" stroke="#1F1F1F" stroke-width="1.5" stroke-miterlimit="10"/>
<path d="M39.0367 228.863C36.3667 231.533 35.9367 233.023 35.2667 236.893C32.5267 251.023 33.1867 268.273 35.2667 286.843L39.2367 289.673L123.107 338.403C124.337 339.113 125.137 339.473 125.947 339.463C126.767 339.463 127.567 339.103 128.787 338.403L148.707 326.893L152.677 324.063C153.777 308.283 154.157 292.663 152.677 277.473C152.677 269.013 151.267 268.373 147.017 265.683L65.7367 218.083C63.4167 216.733 61.1067 217.073 58.2367 217.443C51.9167 219.163 44.8267 223.483 39.0267 228.863H39.0367Z" fill="#B8AB8A" stroke="#1F1F1F" stroke-width="1.5" stroke-miterlimit="10"/>
<path d="M125.839 285.153C124.509 293.623 125.959 326.983 126.019 336.493L125.839 285.153Z" fill="#B8AB8A"/>
<path d="M125.839 285.153C124.509 293.623 125.959 326.983 126.019 336.493" stroke="#1F1F1F" stroke-width="1.5" stroke-miterlimit="10"/>
<path d="M149.218 269.153C143.998 269.843 132.268 276.863 126.158 281.733L149.218 269.153Z" fill="#B8AB8A"/>
<path d="M149.218 269.153C143.998 269.843 132.268 276.863 126.158 281.733" stroke="#1F1F1F" stroke-width="1.5" stroke-miterlimit="10"/>
<path d="M139.728 277.713C139.728 277.713 141.878 283.603 141.878 306.513C141.878 310.793 141.878 328.943 141.878 328.943" stroke="#1F1F1F" stroke-width="1.5" stroke-miterlimit="10"/>
<path d="M161.969 221.303C160.289 219.933 158.249 219.133 156.569 217.813C136.299 201.893 116.309 188.963 95.449 178.813C93.879 178.053 92.059 176.333 90.489 175.603C87.809 173.893 84.829 174.783 84.299 177.463C83.109 188.613 69.669 200.393 67.509 211.353C65.259 222.743 74.949 228.643 71.739 239.833C71.339 241.883 69.949 252.183 71.999 253.493C83.779 254.843 107.659 246.183 124.109 255.503C131.809 259.863 138.749 260.343 149.019 266.753C159.509 273.293 157.259 284.313 168.899 289.913C171.579 291.623 172.719 291.583 173.249 288.903C172.679 285.113 173.249 283.523 173.249 280.033C173.249 256.163 171.319 240.073 164.799 227.073C165.199 225.023 164.019 222.603 161.969 221.293V221.303Z" fill="#B8AB8A" stroke="#1F1F1F" stroke-width="1.5" stroke-miterlimit="10"/>
<path d="M78.1596 250.493C78.1596 250.493 101.55 243.953 127.73 250.913C133.37 252.413 145.55 260.583 151.5 265.333C164.37 275.623 168.89 289.923 168.89 289.923" stroke="#1F1F1F" stroke-width="1.5" stroke-miterlimit="10"/>
<path d="M259.859 171.133C259.599 169.783 258.859 168.543 258.539 167.233C254.609 151.423 247.359 135.073 245.129 131.113C244.279 129.613 243.049 127.103 242.249 125.533C241.729 124.513 241.539 122.213 240.989 121.213C240.319 119.283 238.899 116.563 237.329 117.913C223.559 127.463 208.239 135.073 192.569 142.623C191.219 143.403 190.609 145.033 191.119 146.503C191.559 147.463 192.539 149.243 192.939 150.233C195.079 155.543 197.379 160.833 199.689 167.053C202.979 175.933 205.429 184.193 208.429 193.343C208.969 195.003 208.819 197.213 209.459 198.803C210.129 200.733 212.389 201.573 214.159 200.553C216.239 199.993 217.899 198.263 219.789 197.433C235.529 190.593 246.209 183.663 256.129 175.003C257.479 174.223 260.369 172.593 259.859 171.123V171.133Z" fill="#B8AB8A" stroke="#1F1F1F" stroke-width="1.5" stroke-miterlimit="10"/>
<path d="M192.709 147.713C198.499 156.623 210.959 194.583 210.179 198.573" stroke="#1F1F1F" stroke-width="1.5" stroke-miterlimit="10"/>
<path d="M223.139 181.913C233.799 175.003 244.659 168.773 255.769 163.463L255.879 163.443C257.819 162.643 261.209 164.133 262.859 168.133C264.509 172.133 263.789 177.113 261.849 177.913C252.419 185.003 241.339 191.053 229.099 196.383C227.159 197.183 223.459 194.593 221.819 190.593C220.169 186.593 221.199 182.713 223.129 181.913H223.139Z" fill="#B8AB8A" stroke="#1F1F1F" stroke-width="1.5" stroke-miterlimit="10"/>
<path d="M229.448 195.603C230.708 194.713 231.278 191.693 229.628 187.693C227.978 183.693 226.048 182.383 224.348 182.233" stroke="#1F1F1F" stroke-width="1.5" stroke-miterlimit="10"/>
<path d="M262.368 171.354C253.138 177.634 242.578 183.554 230.898 189.164" stroke="#1F1F1F" stroke-width="1.5" stroke-miterlimit="10"/>
<path d="M257.631 170.969C257.811 171.149 258.651 173.619 258.651 173.619L256.251 174.729L255.211 172.109L257.631 170.969Z" fill="#B8AB8A" stroke="#1F1F1F" stroke-width="1.5" stroke-miterlimit="10"/>
<path d="M566.616 120.27C563.946 122.94 563.516 124.43 562.846 128.3C560.106 142.43 560.766 159.68 562.846 178.25L566.816 181.08L650.686 229.81C651.916 230.52 652.716 230.88 653.526 230.87C654.346 230.87 655.146 230.51 656.366 229.81L676.286 218.3L680.256 215.47C681.356 199.69 681.736 184.07 680.256 168.88C680.256 160.42 678.846 159.78 674.596 157.09L593.316 109.49C590.996 108.14 588.686 108.48 585.816 108.85C579.496 110.57 572.406 114.89 566.606 120.27H566.616Z" fill="#B8AB8A" stroke="#1F1F1F" stroke-width="1.5" stroke-miterlimit="10"/>
<path d="M653.415 176.55C652.085 185.02 653.535 218.38 653.595 227.89L653.415 176.55Z" fill="#B8AB8A"/>
<path d="M653.415 176.55C652.085 185.02 653.535 218.38 653.595 227.89" stroke="#1F1F1F" stroke-width="1.5" stroke-miterlimit="10"/>
<path d="M676.795 160.56C671.575 161.25 659.845 168.27 653.735 173.14L676.795 160.56Z" fill="#B8AB8A"/>
<path d="M676.795 160.56C671.575 161.25 659.845 168.27 653.735 173.14" stroke="#1F1F1F" stroke-width="1.5" stroke-miterlimit="10"/>
<path d="M667.306 169.11C667.306 169.11 669.456 175 669.456 197.91V220.34" fill="#B8AB8A"/>
<path d="M667.306 169.11C667.306 169.11 669.456 175 669.456 197.91V220.34" stroke="#1F1F1F" stroke-width="1.5" stroke-miterlimit="10"/>
<path d="M474.156 200.839L472.956 201.539C471.246 202.529 470.196 204.349 470.196 206.329C468.896 215.019 468.946 223.619 470.196 232.139L474.166 234.969L558.036 283.699C559.266 284.409 560.066 284.769 560.876 284.759C561.696 284.759 562.496 284.399 563.716 283.699L647.576 235.239L651.546 232.409V206.599C651.546 204.619 650.496 202.799 648.786 201.809C648.786 201.809 629.836 190.759 608.686 178.369C606.076 176.839 603.426 175.289 600.786 173.739C576.696 159.619 564.616 152.499 564.616 152.499C562.296 151.149 559.436 151.149 557.116 152.499C557.116 152.499 543.586 158.709 518.556 172.409C493.536 186.109 474.156 200.839 474.156 200.839Z" fill="#B8AB8A" stroke="#1F1F1F" stroke-width="1.5" stroke-miterlimit="10"/>
<path d="M649.206 211.41C626.296 226.67 587.646 247.75 562.416 260.51L649.206 211.41Z" fill="#B8AB8A"/>
<path d="M649.206 211.41C626.296 226.67 587.646 247.75 562.416 260.51" stroke="#1F1F1F" stroke-width="1.5" stroke-miterlimit="10"/>
<path d="M561.197 282.22C559.687 273.4 560.547 265.18 560.547 256.87L561.197 282.22Z" fill="#B8AB8A"/>
<path d="M561.197 282.22C559.687 273.4 560.547 265.18 560.547 256.87" stroke="#1F1F1F" stroke-width="1.5" stroke-miterlimit="10"/>
<path d="M659.717 173.71C657.047 176.38 656.617 177.87 655.947 181.74C653.207 195.87 653.867 213.12 655.947 231.69L659.917 234.52L743.787 283.25C745.017 283.96 745.817 284.32 746.627 284.31C747.447 284.31 748.247 283.95 749.467 283.25L769.387 271.74L773.357 268.91C774.457 253.13 774.837 237.51 773.357 222.32C773.357 213.86 771.947 213.22 767.697 210.53L686.417 162.93C684.097 161.58 681.787 161.92 678.917 162.29C672.597 164.01 665.507 168.33 659.707 173.71H659.717Z" fill="#B8AB8A" stroke="#1F1F1F" stroke-width="1.5" stroke-miterlimit="10"/>
<path d="M746.517 230C745.187 238.47 746.637 271.83 746.697 281.34L746.517 230Z" fill="#B8AB8A"/>
<path d="M746.517 230C745.187 238.47 746.637 271.83 746.697 281.34" stroke="#1F1F1F" stroke-width="1.5" stroke-miterlimit="10"/>
<path d="M769.897 214C764.677 214.69 752.947 221.71 746.837 226.58L769.897 214Z" fill="#B8AB8A"/>
<path d="M769.897 214C764.677 214.69 752.947 221.71 746.837 226.58" stroke="#1F1F1F" stroke-width="1.5" stroke-miterlimit="10"/>
<path d="M760.407 222.561C760.407 222.561 762.557 228.451 762.557 251.361V273.791" fill="#B8AB8A"/>
<path d="M760.407 222.561C760.407 222.561 762.557 228.451 762.557 251.361V273.791" stroke="#1F1F1F" stroke-width="1.5" stroke-miterlimit="10"/>
<path d="M566.237 254.12L565.037 254.82C563.327 255.81 562.277 257.63 562.277 259.61C560.977 268.3 561.027 276.9 562.277 285.42L566.247 288.25L650.117 336.98C651.347 337.69 652.147 338.05 652.957 338.04C653.777 338.04 654.577 337.68 655.797 336.98L739.657 288.52L743.627 285.69V259.88C743.627 257.9 742.577 256.08 740.867 255.09C740.867 255.09 721.917 244.04 700.767 231.65C698.157 230.12 695.507 228.57 692.867 227.02C668.777 212.9 656.697 205.78 656.697 205.78C654.377 204.43 651.517 204.43 649.197 205.78C649.197 205.78 635.667 211.99 610.637 225.69C585.617 239.39 566.237 254.12 566.237 254.12Z" fill="#B8AB8A" stroke="#1F1F1F" stroke-width="1.5" stroke-miterlimit="10"/>
<path d="M741.287 264.69C718.377 279.95 679.727 301.03 654.497 313.79L741.287 264.69Z" fill="#B8AB8A"/>
<path d="M741.287 264.69C718.377 279.95 679.727 301.03 654.497 313.79" stroke="#1F1F1F" stroke-width="1.5" stroke-miterlimit="10"/>
<path d="M653.277 335.5C651.767 326.68 652.627 318.46 652.627 310.15L653.277 335.5Z" fill="#B8AB8A"/>
<path d="M653.277 335.5C651.767 326.68 652.627 318.46 652.627 310.15" stroke="#1F1F1F" stroke-width="1.5" stroke-miterlimit="10"/>
<path d="M663.736 220.78C663.996 219.43 664.736 218.19 665.056 216.88C668.986 201.07 676.236 184.72 678.466 180.76C679.316 179.26 680.546 176.75 681.346 175.18C681.866 174.16 682.056 171.86 682.606 170.86C683.276 168.93 684.696 166.21 686.266 167.56C700.036 177.11 715.356 184.72 731.026 192.27C732.376 193.05 732.986 194.68 732.476 196.15C732.036 197.11 731.056 198.89 730.656 199.88C728.516 205.19 726.216 210.48 723.906 216.7C720.616 225.58 718.166 233.84 715.166 242.99C714.626 244.65 714.776 246.86 714.136 248.45C713.466 250.38 711.206 251.22 709.436 250.2C707.356 249.64 705.696 247.91 703.806 247.08C688.066 240.24 677.386 233.31 667.466 224.65C666.116 223.87 663.226 222.24 663.736 220.77V220.78Z" fill="#B8AB8A" stroke="#1F1F1F" stroke-width="1.5" stroke-miterlimit="10"/>
<path d="M730.886 197.35C725.096 206.26 712.636 244.22 713.416 248.21" stroke="#1F1F1F" stroke-width="1.5" stroke-miterlimit="10"/>
<path d="M700.446 231.55C689.786 224.64 678.926 218.41 667.816 213.1L667.706 213.08C665.766 212.28 662.376 213.77 660.726 217.77C659.076 221.77 659.796 226.75 661.736 227.55C671.166 234.64 682.246 240.69 694.486 246.02C696.426 246.82 700.126 244.23 701.766 240.23C703.416 236.23 702.386 232.35 700.456 231.55H700.446Z" fill="#B8AB8A" stroke="#1F1F1F" stroke-width="1.5" stroke-miterlimit="10"/>
<path d="M694.136 245.24C692.876 244.35 692.306 241.33 693.956 237.33C695.606 233.33 697.536 232.02 699.236 231.87" stroke="#1F1F1F" stroke-width="1.5" stroke-miterlimit="10"/>
<path d="M661.216 220.99C670.446 227.27 681.006 233.19 692.686 238.8" stroke="#1F1F1F" stroke-width="1.5" stroke-miterlimit="10"/>
<path d="M686.436 232.69C686.256 232.87 685.416 235.34 685.416 235.34L687.816 236.45L688.856 233.83L686.436 232.69Z" fill="#B8AB8A" stroke="#1F1F1F" stroke-width="1.5" stroke-miterlimit="10"/>
<path d="M751.936 227.159C749.266 229.829 748.836 231.319 748.166 235.189C745.426 249.319 746.086 266.569 748.166 285.139L752.136 287.969L836.006 336.699C837.236 337.409 838.035 337.769 838.845 337.759C839.665 337.759 840.466 337.399 841.686 336.699L861.606 325.189L865.576 322.359C866.676 306.579 867.056 290.959 865.576 275.769C865.576 267.309 864.166 266.669 859.916 263.979L778.636 216.379C776.316 215.029 774.006 215.369 771.136 215.739C764.816 217.459 757.726 221.779 751.926 227.159H751.936Z" fill="#B8AB8A" stroke="#1F1F1F" stroke-width="1.5" stroke-miterlimit="10"/>
<path d="M838.736 283.44C837.406 291.91 838.856 325.27 838.916 334.78L838.736 283.44Z" fill="#B8AB8A"/>
<path d="M838.736 283.44C837.406 291.91 838.856 325.27 838.916 334.78" stroke="#1F1F1F" stroke-width="1.5" stroke-miterlimit="10"/>
<path d="M862.117 267.45C856.897 268.14 845.167 275.16 839.057 280.03L862.117 267.45Z" fill="#B8AB8A"/>
<path d="M862.117 267.45C856.897 268.14 845.167 275.16 839.057 280.03" stroke="#1F1F1F" stroke-width="1.5" stroke-miterlimit="10"/>
<path d="M852.626 276.001C852.626 276.001 854.776 281.891 854.776 304.801V327.231" fill="#B8AB8A"/>
<path d="M852.626 276.001C852.626 276.001 854.776 281.891 854.776 304.801V327.231" stroke="#1F1F1F" stroke-width="1.5" stroke-miterlimit="10"/>
<path d="M658.455 307.56L657.255 308.26C655.545 309.25 654.495 311.07 654.495 313.05C653.195 321.74 653.245 330.34 654.495 338.86L658.465 341.69L742.335 390.42C743.565 391.13 744.365 391.49 745.175 391.48C745.995 391.48 746.795 391.12 748.015 390.42L831.875 341.96L835.845 339.13V313.32C835.845 311.34 834.795 309.52 833.085 308.53C833.085 308.53 814.135 297.48 792.985 285.09C790.375 283.56 787.725 282.01 785.085 280.46C760.995 266.34 748.915 259.22 748.915 259.22C746.595 257.87 743.735 257.87 741.415 259.22C741.415 259.22 727.885 265.43 702.855 279.13C677.835 292.83 658.455 307.56 658.455 307.56Z" fill="#B8AB8A" stroke="#1F1F1F" stroke-width="1.5" stroke-miterlimit="10"/>
<path d="M833.505 318.13C810.595 333.39 771.945 354.47 746.715 367.23L833.505 318.13Z" fill="#B8AB8A"/>
<path d="M833.505 318.13C810.595 333.39 771.945 354.47 746.715 367.23" stroke="#1F1F1F" stroke-width="1.5" stroke-miterlimit="10"/>
<path d="M745.495 388.94C743.985 380.12 744.845 371.9 744.845 363.59L745.495 388.94Z" fill="#B8AB8A"/>
<path d="M745.495 388.94C743.985 380.12 744.845 371.9 744.845 363.59" stroke="#1F1F1F" stroke-width="1.5" stroke-miterlimit="10"/>
<path d="M803.427 305.939C801.487 310.589 800.837 314.529 798.977 319.249C797.547 322.229 793.697 323.499 790.977 321.899C764.447 309.709 739.337 297.479 721.767 282.629C719.697 281.409 718.987 278.879 720.077 276.609C720.737 274.529 722.227 272.629 722.927 270.589C727.147 258.269 750.947 225.889 750.947 225.889C751.617 224.109 754.537 225.059 756.147 225.939C778.757 243.029 800.417 252.599 822.537 262.229C825.557 263.889 827.177 267.099 826.657 270.539C826.427 272.029 825.737 275.839 826.017 277.199C828.137 287.639 826.237 292.409 829.017 302.939C829.557 305.989 826.937 309.029 823.567 309.249L803.437 305.929L803.427 305.939Z" fill="#B8AB8A" stroke="#1F1F1F" stroke-width="1.5" stroke-miterlimit="10"/>
<path d="M822.537 271.399C816.607 284.969 807.257 296.769 803.427 305.939L822.537 271.399Z" fill="#B8AB8A"/>
<path d="M822.537 271.399C816.607 284.969 807.257 296.769 803.427 305.939" stroke="#1F1F1F" stroke-width="1.5" stroke-miterlimit="10"/>
<defs>
<clipPath id="clip0_1696_9901">
<rect x="551.57" y="291.174" width="83.7084" height="45" rx="15" transform="rotate(30 551.57 291.174)" fill="white"/>
</clipPath>
<clipPath id="clip1_1696_9901">
<rect x="247.833" y="316.328" width="89.5785" height="45" rx="15" transform="rotate(-30 247.833 316.328)" fill="white"/>
</clipPath>
<clipPath id="clip2_1696_9901">
<rect x="436.001" y="151.048" width="98" height="45" rx="15" transform="rotate(-30 436.001 151.048)" fill="white"/>
</clipPath>
</defs>
</svg>
