<svg width="900" height="500" viewBox="0 0 900 500" fill="none" xmlns="http://www.w3.org/2000/svg">
<line x1="166.109" y1="308.328" x2="455.788" y2="475.574" stroke="black" stroke-width="3"/>
<g clip-path="url(#clip0_1696_11679)">
<rect x="285.201" y="352.838" width="83.7084" height="45" rx="15" transform="rotate(30 285.201 352.838)" fill="#FAFAF1"/>
<path d="M287.806 393.509C283.597 391.079 282.259 387.397 284.195 383.145L287.006 384.456C285.672 387.427 286.409 389.689 289.215 391.309C292.307 393.094 294.614 392.278 295.874 390.095C297.269 387.679 296.479 385.387 293.647 383.752L291.777 382.672L293.052 380.464L294.896 381.529C297.287 382.909 299.373 382.416 300.513 380.441C301.758 378.285 300.777 376.264 298.412 374.899C295.684 373.324 293.493 373.999 291.806 376.142L289.41 374.412C291.951 371.03 295.546 370.264 299.702 372.664C303.859 375.064 305.061 378.564 303.246 381.707C302.031 383.812 300.27 384.701 297.504 384.212L297.474 384.264C299.894 386.493 300.009 389.053 298.539 391.599C296.349 395.393 292.119 395.999 287.806 393.509ZM304.41 402.61L312.57 388.476L307.451 385.521L308.546 383.625L308.806 383.775C310.417 384.705 311.803 385.124 313.05 384.943C314.108 384.792 315.045 384.19 315.957 383.088L316.189 382.807L318.606 384.202L307.086 404.155L304.41 402.61ZM321.052 412.738C317.181 410.503 315.586 406.846 317.139 403.135L320.032 404.424C318.997 407.117 320.253 409.263 322.461 410.538C325.345 412.203 327.954 411.284 329.559 408.504C331.119 405.802 330.673 403.154 327.659 401.414C325.918 400.409 324.43 400.347 322.754 400.73L320.288 398.821L328.198 389.74L339.266 396.13L337.826 398.624L328.811 393.419L324.473 398.293L324.495 398.375C326.077 398.215 327.594 398.467 329.387 399.502C333.855 402.082 334.391 406.375 332.291 410.012C330.146 413.727 325.936 415.558 321.052 412.738Z" fill="black"/>
</g>
<path d="M396.191 129.187C393.521 131.857 393.091 133.347 392.421 137.217C389.681 151.347 390.341 168.597 392.421 187.167L396.391 189.997L480.261 238.727C481.491 239.437 482.291 239.797 483.101 239.787C483.921 239.787 484.721 239.427 485.941 238.727L505.861 227.217L509.831 224.387C510.931 208.607 511.311 192.987 509.831 177.797C509.831 169.337 508.421 168.697 504.171 166.007L422.891 118.407C420.571 117.057 418.261 117.397 415.391 117.767C409.071 119.487 401.981 123.807 396.181 129.187H396.191Z" fill="#B8AB8A" stroke="#1F1F1F" stroke-width="1.5" stroke-miterlimit="10"/>
<path d="M482.991 185.466C481.661 193.936 483.111 227.296 483.171 236.806L482.991 185.466Z" fill="#B8AB8A"/>
<path d="M482.991 185.466C481.661 193.936 483.111 227.296 483.171 236.806" stroke="#1F1F1F" stroke-width="1.5" stroke-miterlimit="10"/>
<path d="M506.372 169.477C501.152 170.167 489.423 177.187 483.312 182.057L506.372 169.477Z" fill="#B8AB8A"/>
<path d="M506.372 169.477C501.152 170.167 489.423 177.187 483.312 182.057" stroke="#1F1F1F" stroke-width="1.5" stroke-miterlimit="10"/>
<path d="M496.881 178.027C496.881 178.027 499.031 183.917 499.031 206.827V229.257" fill="#B8AB8A"/>
<path d="M496.881 178.027C496.881 178.027 499.031 183.917 499.031 206.827V229.257" stroke="#1F1F1F" stroke-width="1.5" stroke-miterlimit="10"/>
<path d="M302.711 209.586L301.511 210.286C299.801 211.276 298.751 213.096 298.751 215.076C297.451 223.766 297.501 232.366 298.751 240.886L302.721 243.716L386.591 292.446C387.821 293.156 388.621 293.516 389.431 293.506C390.251 293.506 391.051 293.146 392.271 292.446L476.131 243.986L480.101 241.156V215.346C480.101 213.366 479.051 211.546 477.341 210.556C477.341 210.556 458.391 199.506 437.241 187.116C434.631 185.586 431.981 184.036 429.341 182.486C405.251 168.366 393.171 161.246 393.171 161.246C390.851 159.896 387.991 159.896 385.671 161.246C385.671 161.246 372.141 167.456 347.111 181.156C322.091 194.856 302.711 209.586 302.711 209.586Z" fill="#B8AB8A" stroke="#1F1F1F" stroke-width="1.5" stroke-miterlimit="10"/>
<path d="M477.761 220.156C454.851 235.416 416.201 256.496 390.971 269.256L477.761 220.156Z" fill="#B8AB8A"/>
<path d="M477.761 220.156C454.851 235.416 416.201 256.496 390.971 269.256" stroke="#1F1F1F" stroke-width="1.5" stroke-miterlimit="10"/>
<path d="M389.751 290.966C388.241 282.146 389.101 273.926 389.101 265.616L389.751 290.966Z" fill="#B8AB8A"/>
<path d="M389.751 290.966C388.241 282.146 389.101 273.926 389.101 265.616" stroke="#1F1F1F" stroke-width="1.5" stroke-miterlimit="10"/>
<path d="M482.991 185.466C481.661 193.936 483.111 227.296 483.171 236.806L482.991 185.466Z" fill="#B8AB8A"/>
<path d="M482.991 185.466C481.661 193.936 483.111 227.296 483.171 236.806" stroke="#1F1F1F" stroke-width="1.5" stroke-miterlimit="10"/>
<path d="M506.372 169.477C501.152 170.167 489.423 177.187 483.312 182.057L506.372 169.477Z" fill="#B8AB8A"/>
<path d="M506.372 169.477C501.152 170.167 489.423 177.187 483.312 182.057" stroke="#1F1F1F" stroke-width="1.5" stroke-miterlimit="10"/>
<path d="M496.881 178.026C496.881 178.026 499.031 183.916 499.031 206.826V229.256" fill="#B8AB8A"/>
<path d="M496.881 178.026C496.881 178.026 499.031 183.916 499.031 206.826V229.256" stroke="#1F1F1F" stroke-width="1.5" stroke-miterlimit="10"/>
<path d="M210.012 263.686L208.812 264.386C207.102 265.376 206.052 267.196 206.052 269.176C204.752 277.866 204.802 286.466 206.052 294.986L210.022 297.816L293.892 346.546C295.122 347.256 295.922 347.616 296.732 347.606C297.552 347.606 298.352 347.246 299.572 346.546L383.432 298.086L387.402 295.256V269.446C387.402 267.466 386.352 265.646 384.642 264.656C384.642 264.656 365.692 253.606 344.542 241.216C341.932 239.686 339.282 238.136 336.642 236.586C312.552 222.466 300.472 215.346 300.472 215.346C298.152 213.996 295.292 213.996 292.972 215.346C292.972 215.346 279.442 221.556 254.412 235.256C229.392 248.956 210.012 263.686 210.012 263.686Z" fill="#B8AB8A" stroke="#1F1F1F" stroke-width="1.5" stroke-miterlimit="10"/>
<path d="M385.071 274.267C362.161 289.527 323.511 310.607 298.281 323.367L385.071 274.267Z" fill="#B8AB8A"/>
<path d="M385.071 274.267C362.161 289.527 323.511 310.607 298.281 323.367" stroke="#1F1F1F" stroke-width="1.5" stroke-miterlimit="10"/>
<path d="M297.062 345.077C295.552 336.257 296.412 328.037 296.412 319.727L297.062 345.077Z" fill="#B8AB8A"/>
<path d="M297.062 345.077C295.552 336.257 296.412 328.037 296.412 319.727" stroke="#1F1F1F" stroke-width="1.5" stroke-miterlimit="10"/>
<path d="M447.833 206.957C445.893 211.607 445.243 215.547 443.383 220.267C441.953 223.247 438.103 224.517 435.383 222.917C408.853 210.727 383.743 198.497 366.173 183.647C364.103 182.427 363.393 179.897 364.483 177.627C365.143 175.547 366.633 173.647 367.333 171.607C371.553 159.287 395.353 126.907 395.353 126.907C396.023 125.127 398.943 126.077 400.553 126.957C423.163 144.047 444.823 153.617 466.943 163.247C469.963 164.907 471.583 168.117 471.063 171.557C470.833 173.047 470.143 176.857 470.423 178.217C472.543 188.657 470.643 193.427 473.423 203.957C473.963 207.007 471.343 210.047 467.973 210.267L447.843 206.947L447.833 206.957Z" fill="#B8AB8A" stroke="#1F1F1F" stroke-width="1.5" stroke-miterlimit="10"/>
<path d="M466.942 172.417C461.012 185.987 451.662 197.787 447.832 206.957L466.942 172.417Z" fill="#B8AB8A"/>
<path d="M466.942 172.417C461.012 185.987 451.662 197.787 447.832 206.957" stroke="#1F1F1F" stroke-width="1.5" stroke-miterlimit="10"/>
<path d="M488.018 182.513C485.348 185.183 484.918 186.673 484.248 190.543C481.508 204.673 482.168 221.923 484.248 240.493L488.218 243.323L572.088 292.053C573.318 292.763 574.118 293.123 574.928 293.113C575.748 293.113 576.548 292.753 577.768 292.053L597.688 280.543L601.658 277.713C602.758 261.933 603.138 246.313 601.658 231.123C601.658 222.663 600.248 222.023 595.998 219.333L514.718 171.733C512.398 170.383 510.088 170.723 507.218 171.093C500.898 172.813 493.808 177.133 488.008 182.513H488.018Z" fill="#B8AB8A" stroke="#1F1F1F" stroke-width="1.5" stroke-miterlimit="10"/>
<path d="M574.817 238.804C573.487 247.274 574.937 280.634 574.997 290.144L574.817 238.804Z" fill="#B8AB8A"/>
<path d="M574.817 238.804C573.487 247.274 574.937 280.634 574.997 290.144" stroke="#1F1F1F" stroke-width="1.5" stroke-miterlimit="10"/>
<path d="M598.199 222.813C592.979 223.503 581.249 230.523 575.139 235.393L598.199 222.813Z" fill="#B8AB8A"/>
<path d="M598.199 222.813C592.979 223.503 581.249 230.523 575.139 235.393" stroke="#1F1F1F" stroke-width="1.5" stroke-miterlimit="10"/>
<path d="M588.707 231.363C588.707 231.363 590.857 237.253 590.857 260.163V282.593" fill="#B8AB8A"/>
<path d="M588.707 231.363C588.707 231.363 590.857 237.253 590.857 260.163V282.593" stroke="#1F1F1F" stroke-width="1.5" stroke-miterlimit="10"/>
<path d="M396.869 262.533L395.669 263.233C393.959 264.223 392.909 266.043 392.909 268.023C391.609 276.713 391.659 285.313 392.909 293.833L396.879 296.663L480.749 345.393C481.979 346.103 482.779 346.463 483.589 346.453C484.409 346.453 485.209 346.093 486.429 345.393L570.289 296.933L574.259 294.103V268.293C574.259 266.313 573.209 264.493 571.499 263.503C571.499 263.503 552.549 252.453 531.399 240.063C528.789 238.533 526.139 236.983 523.499 235.433C499.409 221.313 487.329 214.193 487.329 214.193C485.009 212.843 482.149 212.843 479.829 214.193C479.829 214.193 466.299 220.403 441.269 234.103C416.249 247.803 396.869 262.533 396.869 262.533Z" fill="#B8AB8A" stroke="#1F1F1F" stroke-width="1.5" stroke-miterlimit="10"/>
<path d="M571.919 273.103C549.009 288.363 510.359 309.443 485.129 322.203L571.919 273.103Z" fill="#B8AB8A"/>
<path d="M571.919 273.103C549.009 288.363 510.359 309.443 485.129 322.203" stroke="#1F1F1F" stroke-width="1.5" stroke-miterlimit="10"/>
<path d="M483.909 343.912C482.399 335.092 483.259 326.873 483.259 318.562L483.909 343.912Z" fill="#B8AB8A"/>
<path d="M483.909 343.912C482.399 335.092 483.259 326.873 483.259 318.562" stroke="#1F1F1F" stroke-width="1.5" stroke-miterlimit="10"/>
<path d="M493.501 229.358C493.761 228.008 494.501 226.768 494.821 225.458C498.751 209.648 506.001 193.298 508.231 189.338C509.081 187.838 510.311 185.328 511.111 183.758C511.631 182.738 511.821 180.438 512.371 179.438C513.041 177.508 514.461 174.788 516.031 176.138C529.801 185.688 545.121 193.298 560.791 200.848C562.141 201.628 562.751 203.258 562.241 204.728C561.801 205.688 560.821 207.468 560.421 208.458C558.281 213.768 555.981 219.058 553.671 225.278C550.381 234.158 547.931 242.418 544.931 251.568C544.391 253.228 544.541 255.438 543.901 257.028C543.231 258.958 540.971 259.798 539.201 258.778C537.121 258.218 535.461 256.488 533.571 255.658C517.831 248.818 507.151 241.888 497.231 233.228C495.881 232.448 492.991 230.818 493.501 229.348V229.358Z" fill="#B8AB8A" stroke="#1F1F1F" stroke-width="1.5" stroke-miterlimit="10"/>
<path d="M560.661 205.938C554.871 214.848 542.411 252.808 543.191 256.798" stroke="#1F1F1F" stroke-width="1.5" stroke-miterlimit="10"/>
<path d="M530.221 240.128C519.561 233.218 508.701 226.988 497.591 221.678L497.481 221.658C495.541 220.858 492.151 222.348 490.501 226.348C488.851 230.348 489.571 235.328 491.511 236.128C500.941 243.218 512.021 249.268 524.261 254.598C526.201 255.398 529.901 252.808 531.541 248.808C533.191 244.808 532.161 240.928 530.231 240.128H530.221Z" fill="#B8AB8A" stroke="#1F1F1F" stroke-width="1.5" stroke-miterlimit="10"/>
<path d="M523.912 253.829C522.652 252.939 522.082 249.919 523.732 245.919C525.382 241.919 527.312 240.609 529.012 240.459" stroke="#1F1F1F" stroke-width="1.5" stroke-miterlimit="10"/>
<path d="M490.992 229.579C500.222 235.859 510.782 241.779 522.462 247.389" stroke="#1F1F1F" stroke-width="1.5" stroke-miterlimit="10"/>
<path d="M516.202 241.278C516.022 241.458 515.182 243.928 515.182 243.928L517.582 245.038L518.622 242.418L516.202 241.278Z" fill="#B8AB8A" stroke="#1F1F1F" stroke-width="1.5" stroke-miterlimit="10"/>
<path d="M689.988 298.644L691.188 299.344C692.898 300.334 693.948 302.154 693.948 304.134C695.248 312.824 695.198 321.424 693.948 329.944L689.978 332.774L606.108 381.504C604.878 382.214 604.078 382.574 603.268 382.564C602.448 382.564 601.648 382.204 600.428 381.504L516.568 333.044L512.598 330.214V304.404C512.598 302.424 513.648 300.604 515.358 299.614C515.358 299.614 534.308 288.564 555.458 276.174C558.068 274.644 560.718 273.094 563.358 271.544C587.448 257.424 599.528 250.304 599.528 250.304C601.848 248.954 604.708 248.954 607.028 250.304C607.028 250.304 620.558 256.514 645.588 270.214C670.608 283.914 689.988 298.644 689.988 298.644Z" fill="#B8AB8A" stroke="#1F1F1F" stroke-width="1.5" stroke-miterlimit="10"/>
<path d="M514.938 309.215C537.847 324.475 576.498 345.555 601.728 358.315L514.938 309.215Z" fill="#B8AB8A"/>
<path d="M514.938 309.215C537.847 324.475 576.498 345.555 601.728 358.315" stroke="#1F1F1F" stroke-width="1.5" stroke-miterlimit="10"/>
<path d="M602.947 380.025C604.457 371.205 603.597 362.985 603.597 354.675L602.947 380.025Z" fill="#B8AB8A"/>
<path d="M602.947 380.025C604.457 371.205 603.597 362.985 603.597 354.675" stroke="#1F1F1F" stroke-width="1.5" stroke-miterlimit="10"/>
<line x1="144.811" y1="251.547" x2="398.392" y2="105.141" stroke="black" stroke-width="3"/>
<g clip-path="url(#clip1_1696_11679)">
<rect x="218.666" y="178.143" width="98" height="45" rx="15" transform="rotate(-30 218.666 178.143)" fill="#FAFAF1"/>
<path d="M253.998 196.426C252.033 193.023 252.235 189.892 254.549 185.681L256.583 181.943C258 179.358 258.328 177.645 257.188 175.671C255.823 173.306 253.543 172.718 250.841 174.278C248.165 175.823 247.472 178.162 248.972 180.761L249.167 181.098L246.569 182.598L246.419 182.338C244.139 178.389 245.241 174.358 249.528 171.883C253.529 169.573 257.517 170.181 259.782 174.104C261.252 176.65 261.242 179.392 258.882 183.526L257.631 185.738C255.796 188.98 255.311 190.541 255.981 192.06L266.97 185.715L268.365 188.131L253.998 196.426ZM281.493 171.511L284.435 169.466L285.665 171.596L282.408 173.095L285.408 178.292L282.94 179.717L279.94 174.52L270.102 180.581L269.007 178.685L269.861 160.663L273.888 158.338L281.493 171.511ZM279.025 172.936L272.425 161.504L272.347 161.549L271.641 176.887L279.025 172.936ZM297.073 171.557L288.913 157.423L283.795 160.378L282.7 158.482L282.96 158.332C284.57 157.402 285.626 156.411 286.094 155.241C286.491 154.249 286.438 153.137 285.941 151.795L285.813 151.454L288.229 150.059L299.749 170.012L297.073 171.557Z" fill="black"/>
</g>
<defs>
<clipPath id="clip0_1696_11679">
<rect x="285.201" y="352.838" width="83.7084" height="45" rx="15" transform="rotate(30 285.201 352.838)" fill="white"/>
</clipPath>
<clipPath id="clip1_1696_11679">
<rect x="218.666" y="178.143" width="98" height="45" rx="15" transform="rotate(-30 218.666 178.143)" fill="white"/>
</clipPath>
</defs>
</svg>
