<svg width="900" height="400" viewBox="0 0 900 400" fill="none" xmlns="http://www.w3.org/2000/svg">
<line x1="218.076" y1="247.688" x2="399.236" y2="352.28" stroke="black" stroke-width="3"/>
<g clip-path="url(#clip0_1696_11604)">
<rect x="276.721" y="257.298" width="98" height="45" rx="15" transform="rotate(30 276.721 257.298)" fill="#FAFAF1"/>
<path d="M278.553 297.038C280.518 293.635 283.33 292.245 288.134 292.143L292.388 292.036C295.335 291.971 296.982 291.397 298.122 289.423C299.487 287.059 298.857 284.79 296.155 283.23C293.479 281.685 291.106 282.255 289.606 284.853L289.411 285.19L286.813 283.69L286.963 283.431C289.243 279.482 293.285 278.42 297.572 280.895C301.573 283.205 303.041 286.963 300.776 290.886C299.306 293.432 296.926 294.794 292.167 294.818L289.625 294.84C285.9 294.872 284.306 295.233 283.325 296.572L294.315 302.917L292.92 305.333L278.553 297.038ZM302.117 310.643L310.277 296.509L305.158 293.554L306.253 291.658L306.513 291.808C308.124 292.738 309.51 293.157 310.758 292.977C311.815 292.825 312.752 292.223 313.664 291.122L313.896 290.84L316.313 292.235L304.793 312.188L302.117 310.643ZM318.848 320.857C313.86 317.977 313.235 312.94 317.21 306.055C321.185 299.17 325.845 297.218 330.833 300.098C335.795 302.963 336.435 307.975 332.46 314.86C328.485 321.745 323.81 323.722 318.848 320.857ZM320.153 318.597C323.764 320.682 326.907 318.478 329.862 313.36C332.817 308.242 333.154 304.418 329.543 302.333C325.932 300.248 322.789 302.452 319.834 307.57C316.879 312.688 316.542 316.512 320.153 318.597Z" fill="black"/>
</g>
<line x1="161.402" y1="179.99" x2="414.984" y2="33.5849" stroke="black" stroke-width="3"/>
<g clip-path="url(#clip1_1696_11604)">
<rect x="235.258" y="106.587" width="98" height="45" rx="15" transform="rotate(-30 235.258 106.587)" fill="#FAFAF1"/>
<path d="M270.59 124.87C268.625 121.466 268.827 118.336 271.141 114.125L273.175 110.387C274.592 107.802 274.919 106.089 273.779 104.114C272.414 101.75 270.134 101.161 267.432 102.721C264.756 104.266 264.064 106.606 265.564 109.204L265.759 109.542L263.161 111.042L263.011 110.782C260.731 106.833 261.833 102.802 266.119 100.327C270.12 98.0168 274.108 98.6242 276.373 102.547C277.843 105.093 277.833 107.836 275.474 111.969L274.222 114.181C272.387 117.423 271.903 118.985 272.572 120.504L283.562 114.159L284.957 116.575L270.59 124.87ZM298.085 99.9541L301.027 97.9093L302.257 100.04L299 101.539L302 106.735L299.532 108.16L296.532 102.964L286.694 109.025L285.599 107.128L286.453 89.1068L290.48 86.7818L298.085 99.9541ZM295.617 101.379L289.017 89.9476L288.939 89.9926L288.233 105.33L295.617 101.379ZM313.665 100L305.505 85.8669L300.386 88.8219L299.291 86.9253L299.551 86.7753C301.162 85.8453 302.218 84.8545 302.686 83.684C303.083 82.6924 303.03 81.5801 302.533 80.239L302.405 79.8972L304.821 78.5022L316.341 98.4554L313.665 100Z" fill="black"/>
</g>
<path d="M378.625 120.191L377.425 120.891C375.715 121.881 374.665 123.701 374.665 125.681C373.365 134.371 373.415 142.971 374.665 151.491L378.635 154.321L462.505 203.051C463.735 203.761 464.535 204.121 465.345 204.111C466.165 204.111 466.965 203.751 468.185 203.051L552.045 154.591L556.015 151.761V125.951C556.015 123.971 554.965 122.151 553.255 121.161C553.255 121.161 534.305 110.111 513.155 97.7211C510.545 96.1911 507.895 94.6411 505.255 93.0911C481.165 78.9711 469.085 71.8511 469.085 71.8511C466.765 70.5011 463.905 70.5011 461.585 71.8511C461.585 71.8511 448.055 78.0611 423.025 91.7611C398.005 105.461 378.625 120.191 378.625 120.191Z" fill="#B8AB8A" stroke="#1F1F1F" stroke-width="1.5" stroke-miterlimit="10"/>
<path d="M553.675 130.76C530.765 146.02 492.115 167.1 466.885 179.86L553.675 130.76Z" fill="#B8AB8A"/>
<path d="M553.675 130.76C530.765 146.02 492.115 167.1 466.885 179.86" stroke="#1F1F1F" stroke-width="1.5" stroke-miterlimit="10"/>
<path d="M465.665 201.57C464.155 192.75 465.015 184.53 465.015 176.22L465.665 201.57Z" fill="#B8AB8A"/>
<path d="M465.665 201.57C464.155 192.75 465.015 184.53 465.015 176.22" stroke="#1F1F1F" stroke-width="1.5" stroke-miterlimit="10"/>
<path d="M285.887 173.461L284.687 174.161C282.977 175.151 281.927 176.971 281.927 178.951C280.627 187.641 280.677 196.241 281.927 204.761L285.897 207.591L369.767 256.321C370.997 257.031 371.797 257.391 372.607 257.381C373.427 257.381 374.227 257.021 375.447 256.321L459.307 207.861L463.277 205.031V179.221C463.277 177.241 462.227 175.421 460.517 174.431C460.517 174.431 441.567 163.381 420.417 150.991C417.807 149.461 415.157 147.911 412.517 146.361C388.427 132.241 376.347 125.121 376.347 125.121C374.027 123.771 371.167 123.771 368.847 125.121C368.847 125.121 355.317 131.331 330.287 145.031C305.267 158.731 285.887 173.461 285.887 173.461Z" fill="#B8AB8A" stroke="#1F1F1F" stroke-width="1.5" stroke-miterlimit="10"/>
<path d="M460.946 184.041C438.036 199.301 399.386 220.381 374.156 233.141L460.946 184.041Z" fill="#B8AB8A"/>
<path d="M460.946 184.041C438.036 199.301 399.386 220.381 374.156 233.141" stroke="#1F1F1F" stroke-width="1.5" stroke-miterlimit="10"/>
<path d="M372.937 254.851C371.427 246.031 372.287 237.811 372.287 229.501L372.937 254.851Z" fill="#B8AB8A"/>
<path d="M372.937 254.851C371.427 246.031 372.287 237.811 372.287 229.501" stroke="#1F1F1F" stroke-width="1.5" stroke-miterlimit="10"/>
<path d="M369.446 178.121C367.236 197.091 365.446 199.711 364.416 208.141L386.416 210.831C389.776 210.611 392.396 207.581 391.866 204.521C389.086 193.991 376.586 177.571 374.926 175.901C372.466 173.441 372.466 170.611 369.456 168.951C347.336 159.311 325.676 149.751 303.066 132.661C301.456 131.781 298.536 130.831 297.866 132.611C297.866 132.611 292.256 161.921 288.036 174.251C287.336 176.291 285.846 178.191 285.186 180.271C284.096 182.541 284.796 185.071 286.876 186.291C304.446 201.141 329.556 213.371 356.086 225.561C358.806 227.161 362.656 225.881 364.086 222.911C365.946 218.181 362.326 214.241 364.266 209.601C364.316 209.091 364.376 208.611 364.426 208.141" fill="#B8AB8A"/>
<path d="M369.446 178.121C367.236 197.091 365.446 199.711 364.416 208.141L386.416 210.831C389.776 210.611 392.396 207.581 391.866 204.521C389.086 193.991 376.586 177.571 374.926 175.901C372.466 173.441 372.466 170.611 369.456 168.951C347.336 159.311 325.676 149.751 303.066 132.661C301.456 131.781 298.536 130.831 297.866 132.611C297.866 132.611 292.256 161.921 288.036 174.251C287.336 176.291 285.846 178.191 285.186 180.271C284.096 182.541 284.796 185.071 286.876 186.291C304.446 201.141 329.556 213.371 356.086 225.561C358.806 227.161 362.656 225.881 364.086 222.911C365.946 218.181 362.326 214.241 364.266 209.601C364.316 209.091 364.376 208.611 364.426 208.141" stroke="#1F1F1F" stroke-width="1.5" stroke-miterlimit="10"/>
<path d="M256.037 164.781C253.367 167.451 252.937 168.941 252.267 172.811C249.527 186.941 250.187 204.191 252.267 222.761L256.237 225.591L340.107 274.321C341.337 275.031 342.137 275.391 342.947 275.381C343.767 275.381 344.567 275.021 345.787 274.321L365.707 262.811L369.677 259.981C370.777 244.201 371.157 228.581 369.677 213.391C369.677 204.931 368.267 204.291 364.017 201.601L282.737 154.001C280.417 152.651 278.107 152.991 275.237 153.361C268.917 155.081 261.827 159.401 256.027 164.781H256.037Z" fill="#B8AB8A" stroke="#1F1F1F" stroke-width="1.5" stroke-miterlimit="10"/>
<path d="M342.837 221.071C341.507 229.541 342.957 262.901 343.017 272.411L342.837 221.071Z" fill="#B8AB8A"/>
<path d="M342.837 221.071C341.507 229.541 342.957 262.901 343.017 272.411" stroke="#1F1F1F" stroke-width="1.5" stroke-miterlimit="10"/>
<path d="M366.216 205.071C360.996 205.761 349.266 212.781 343.156 217.651L366.216 205.071Z" fill="#B8AB8A"/>
<path d="M366.216 205.071C360.996 205.761 349.266 212.781 343.156 217.651" stroke="#1F1F1F" stroke-width="1.5" stroke-miterlimit="10"/>
<path d="M356.727 213.631C356.727 213.631 358.877 219.521 358.877 242.431V264.861" fill="#B8AB8A"/>
<path d="M356.727 213.631C356.727 213.631 358.877 219.521 358.877 242.431V264.861" stroke="#1F1F1F" stroke-width="1.5" stroke-miterlimit="10"/>
<path d="M534.935 110.741C532.265 113.411 531.836 114.901 531.166 118.771C528.426 132.901 529.086 150.151 531.166 168.721L535.136 171.551L619.006 220.281C620.236 220.991 621.035 221.351 621.845 221.341C622.665 221.341 623.465 220.981 624.685 220.281L644.606 208.771L648.576 205.941C649.676 190.161 650.056 174.541 648.576 159.351C648.576 150.891 647.166 150.251 642.916 147.561L561.636 99.961C559.316 98.611 557.006 98.951 554.136 99.321C547.816 101.041 540.726 105.361 534.926 110.741H534.935Z" fill="#B8AB8A" stroke="#1F1F1F" stroke-width="1.5" stroke-miterlimit="10"/>
<path d="M621.735 167.02C620.405 175.49 621.855 208.85 621.915 218.36L621.735 167.02Z" fill="#B8AB8A"/>
<path d="M621.735 167.02C620.405 175.49 621.855 208.85 621.915 218.36" stroke="#1F1F1F" stroke-width="1.5" stroke-miterlimit="10"/>
<path d="M645.115 151.031C639.895 151.721 628.165 158.741 622.055 163.611L645.115 151.031Z" fill="#B8AB8A"/>
<path d="M645.115 151.031C639.895 151.721 628.165 158.741 622.055 163.611" stroke="#1F1F1F" stroke-width="1.5" stroke-miterlimit="10"/>
<path d="M635.625 159.581C635.625 159.581 637.775 165.471 637.775 188.381V210.811" fill="#B8AB8A"/>
<path d="M635.625 159.581C635.625 159.581 637.775 165.471 637.775 188.381V210.811" stroke="#1F1F1F" stroke-width="1.5" stroke-miterlimit="10"/>
<path d="M441.455 191.14L440.255 191.84C438.545 192.83 437.495 194.65 437.495 196.63C436.195 205.32 436.245 213.92 437.495 222.44L441.465 225.27L525.335 274C526.565 274.71 527.365 275.07 528.175 275.06C528.995 275.06 529.795 274.7 531.015 274L614.875 225.54L618.845 222.71V196.9C618.845 194.92 617.795 193.1 616.085 192.11C616.085 192.11 597.135 181.06 575.985 168.67C573.375 167.14 570.725 165.59 568.085 164.04C543.995 149.92 531.915 142.8 531.915 142.8C529.595 141.45 526.735 141.45 524.415 142.8C524.415 142.8 510.885 149.01 485.855 162.71C460.835 176.41 441.455 191.14 441.455 191.14Z" fill="#B8AB8A" stroke="#1F1F1F" stroke-width="1.5" stroke-miterlimit="10"/>
<path d="M616.505 201.709C593.595 216.969 554.945 238.049 529.715 250.809L616.505 201.709Z" fill="#B8AB8A"/>
<path d="M616.505 201.709C593.595 216.969 554.945 238.049 529.715 250.809" stroke="#1F1F1F" stroke-width="1.5" stroke-miterlimit="10"/>
<path d="M528.495 272.519C526.985 263.699 527.845 255.479 527.845 247.169L528.495 272.519Z" fill="#B8AB8A"/>
<path d="M528.495 272.519C526.985 263.699 527.845 255.479 527.845 247.169" stroke="#1F1F1F" stroke-width="1.5" stroke-miterlimit="10"/>
<path d="M621.735 167.02C620.405 175.49 621.855 208.85 621.915 218.36L621.735 167.02Z" fill="#B8AB8A"/>
<path d="M621.735 167.02C620.405 175.49 621.855 208.85 621.915 218.36" stroke="#1F1F1F" stroke-width="1.5" stroke-miterlimit="10"/>
<path d="M645.115 151.031C639.895 151.721 628.165 158.741 622.055 163.611L645.115 151.031Z" fill="#B8AB8A"/>
<path d="M645.115 151.031C639.895 151.721 628.165 158.741 622.055 163.611" stroke="#1F1F1F" stroke-width="1.5" stroke-miterlimit="10"/>
<path d="M635.625 159.581C635.625 159.581 637.775 165.471 637.775 188.381V210.811" fill="#B8AB8A"/>
<path d="M635.625 159.581C635.625 159.581 637.775 165.471 637.775 188.381V210.811" stroke="#1F1F1F" stroke-width="1.5" stroke-miterlimit="10"/>
<path d="M348.756 245.241L347.556 245.941C345.846 246.931 344.796 248.751 344.796 250.731C343.496 259.421 343.546 268.021 344.796 276.541L348.766 279.371L432.636 328.101C433.866 328.811 434.666 329.171 435.476 329.161C436.296 329.161 437.096 328.801 438.316 328.101L522.176 279.641L526.146 276.811V251.001C526.146 249.021 525.096 247.201 523.386 246.211C523.386 246.211 504.436 235.161 483.286 222.771C480.676 221.241 478.026 219.691 475.386 218.141C451.296 204.021 439.216 196.901 439.216 196.901C436.896 195.551 434.036 195.551 431.716 196.901C431.716 196.901 418.186 203.111 393.156 216.811C368.136 230.511 348.756 245.241 348.756 245.241Z" fill="#B8AB8A" stroke="#1F1F1F" stroke-width="1.5" stroke-miterlimit="10"/>
<path d="M523.815 255.821C500.905 271.081 462.255 292.161 437.025 304.921L523.815 255.821Z" fill="#B8AB8A"/>
<path d="M523.815 255.821C500.905 271.081 462.255 292.161 437.025 304.921" stroke="#1F1F1F" stroke-width="1.5" stroke-miterlimit="10"/>
<path d="M435.806 326.631C434.296 317.811 435.156 309.591 435.156 301.281L435.806 326.631Z" fill="#B8AB8A"/>
<path d="M435.806 326.631C434.296 317.811 435.156 309.591 435.156 301.281" stroke="#1F1F1F" stroke-width="1.5" stroke-miterlimit="10"/>
<path d="M542.026 159.321C542.286 157.971 543.026 156.731 543.346 155.421C547.276 139.611 554.526 123.261 556.756 119.301C557.606 117.801 558.836 115.291 559.636 113.721C560.156 112.701 560.346 110.401 560.896 109.401C561.566 107.471 562.986 104.751 564.556 106.101C578.326 115.651 593.646 123.261 609.316 130.811C610.666 131.591 611.276 133.221 610.766 134.691C610.326 135.651 609.346 137.431 608.946 138.421C606.806 143.731 604.506 149.021 602.196 155.241C598.906 164.121 596.456 172.381 593.456 181.531C592.916 183.191 593.066 185.401 592.426 186.991C591.756 188.921 589.496 189.761 587.726 188.741C585.646 188.181 583.986 186.451 582.096 185.621C566.356 178.781 555.676 171.851 545.756 163.191C544.406 162.411 541.516 160.781 542.026 159.311V159.321Z" fill="#B8AB8A" stroke="#1F1F1F" stroke-width="1.5" stroke-miterlimit="10"/>
<path d="M609.187 135.901C603.397 144.811 590.937 182.771 591.717 186.761" stroke="#1F1F1F" stroke-width="1.5" stroke-miterlimit="10"/>
<path d="M578.747 170.091C568.087 163.181 557.227 156.951 546.117 151.641L546.007 151.621C544.067 150.821 540.677 152.311 539.027 156.311C537.377 160.311 538.097 165.291 540.037 166.091C549.467 173.181 560.547 179.231 572.787 184.561C574.727 185.361 578.427 182.771 580.067 178.771C581.717 174.771 580.687 170.891 578.757 170.091H578.747Z" fill="#B8AB8A" stroke="#1F1F1F" stroke-width="1.5" stroke-miterlimit="10"/>
<path d="M572.435 183.792C571.175 182.902 570.605 179.882 572.255 175.882C573.905 171.882 575.835 170.572 577.535 170.422" stroke="#1F1F1F" stroke-width="1.5" stroke-miterlimit="10"/>
<path d="M539.516 159.542C548.746 165.822 559.306 171.742 570.986 177.352" stroke="#1F1F1F" stroke-width="1.5" stroke-miterlimit="10"/>
<path d="M564.727 171.241C564.547 171.421 563.707 173.891 563.707 173.891L566.107 175.001L567.147 172.381L564.727 171.241Z" fill="#B8AB8A" stroke="#1F1F1F" stroke-width="1.5" stroke-miterlimit="10"/>
<defs>
<clipPath id="clip0_1696_11604">
<rect x="276.721" y="257.298" width="98" height="45" rx="15" transform="rotate(30 276.721 257.298)" fill="white"/>
</clipPath>
<clipPath id="clip1_1696_11604">
<rect x="235.258" y="106.587" width="98" height="45" rx="15" transform="rotate(-30 235.258 106.587)" fill="white"/>
</clipPath>
</defs>
</svg>
