<svg width="900" height="400" viewBox="0 0 900 400" fill="none" xmlns="http://www.w3.org/2000/svg">
<line x1="222.476" y1="201.681" x2="346.253" y2="273.144" stroke="black" stroke-width="3"/>
<g clip-path="url(#clip0_1696_13532)">
<rect x="251.895" y="195.609" width="98" height="45" rx="15" transform="rotate(30 251.895 195.609)" fill="#FAFAF1"/>
<path d="M257.781 237.69L265.941 223.556L260.822 220.601L261.917 218.705L262.177 218.855C263.788 219.785 265.174 220.204 266.421 220.024C267.479 219.872 268.416 219.27 269.328 218.169L269.56 217.887L271.977 219.282L260.457 239.235L257.781 237.69ZM274.516 247.837C270.307 245.407 268.969 241.725 270.904 237.473L273.715 238.784C272.381 241.755 273.119 244.017 275.925 245.637C279.016 247.422 281.323 246.606 282.583 244.424C283.978 242.007 283.189 239.715 280.357 238.08L278.486 237L279.761 234.792L281.606 235.857C283.996 237.237 286.082 236.744 287.222 234.769C288.467 232.613 287.486 230.592 285.122 229.227C282.394 227.652 280.203 228.327 278.515 230.47L276.119 228.74C278.661 225.358 282.255 224.592 286.412 226.992C290.569 229.392 291.77 232.892 289.955 236.036C288.74 238.14 286.98 239.029 284.213 238.54L284.183 238.592C286.603 240.821 286.719 243.381 285.249 245.928C283.059 249.721 278.829 250.327 274.516 247.837ZM302.456 246.302C306.327 248.537 307.522 252.587 305.182 256.64C302.872 260.641 298.699 261.869 294.309 259.334C291.996 257.999 290.591 256.113 290.13 253.492C289.709 251.101 290.273 248.863 292.253 245.434C295.808 239.276 300.344 235.14 306.527 238.71C309.957 240.69 311.447 243.629 310.585 246.803L307.735 245.678C308.171 244.024 307.647 242.231 305.23 240.836C302.035 238.991 298.99 240.005 295.496 245.817C297.618 244.721 300.118 244.952 302.456 246.302ZM295.625 257.114C298.275 258.644 300.919 258.024 302.509 255.27C304.129 252.464 303.446 249.748 300.796 248.218C298.483 246.883 295.718 247.053 293.545 249.436C292.722 251.282 292.643 252.379 292.898 253.496C293.277 255.24 294.351 256.379 295.625 257.114Z" fill="black"/>
</g>
<line x1="183.503" y1="116.625" x2="321.075" y2="37.1974" stroke="black" stroke-width="3"/>
<g clip-path="url(#clip1_1696_13532)">
<rect x="202.385" y="82.8289" width="91" height="45" rx="15" transform="rotate(-30 202.385 82.8289)" fill="#FAFAF1"/>
<path d="M241.581 98.8815L233.421 84.748L228.303 87.703L227.208 85.8064L227.468 85.6564C229.079 84.7264 230.135 83.7356 230.602 82.5651C231 81.5735 230.946 80.4612 230.449 79.1201L230.321 78.7783L232.737 77.3833L244.257 97.3365L241.581 98.8815ZM255.409 90.8981L247.249 76.7646L242.131 79.7196L241.036 77.823L241.296 77.673C242.906 76.743 243.962 75.7522 244.43 74.5817C244.827 73.5901 244.774 72.4778 244.277 71.1367L244.149 70.7949L246.565 69.3999L258.085 89.3531L255.409 90.8981ZM272.501 81.5494C268.63 83.7844 264.665 83.337 262.229 80.1365L264.792 78.2757C266.606 80.5189 269.092 80.5041 271.3 79.2291C274.184 77.5641 274.693 74.8455 273.088 72.0655C271.528 69.3635 269.012 68.4258 265.998 70.1658C264.258 71.1708 263.459 72.4284 262.953 74.0717L260.067 75.2529L256.158 63.8615L267.226 57.4715L268.666 59.9657L259.65 65.1707L261.702 71.3646L261.784 71.3865C262.436 69.9361 263.413 68.7485 265.206 67.7135C269.675 65.1335 273.66 66.8162 275.76 70.4536C277.905 74.1688 277.386 78.7294 272.501 81.5494Z" fill="black"/>
</g>
<path d="M378.785 76.4148C381.455 79.0848 381.885 80.5748 382.555 84.4448C385.295 98.5748 384.635 115.825 382.555 134.395L378.585 137.225L294.715 185.955C293.485 186.665 292.685 187.025 291.875 187.015C291.055 187.015 290.255 186.655 289.035 185.955L269.115 174.445L265.145 171.615C264.045 155.835 263.665 140.215 265.145 125.025C265.145 116.565 266.555 115.925 270.805 113.235L352.085 65.6348C354.405 64.2848 356.715 64.6248 359.585 64.9948C365.905 66.7148 372.995 71.0348 378.795 76.4148H378.785Z" fill="#B8AB8A" stroke="#1F1F1F" stroke-width="1.5" stroke-miterlimit="10"/>
<path d="M291.996 132.705C293.326 141.175 291.876 174.535 291.816 184.045L291.996 132.705Z" fill="#B8AB8A"/>
<path d="M291.996 132.705C293.326 141.175 291.876 174.535 291.816 184.045" stroke="#1F1F1F" stroke-width="1.5" stroke-miterlimit="10"/>
<path d="M268.605 116.715C273.825 117.405 285.555 124.425 291.665 129.295L268.605 116.715Z" fill="#B8AB8A"/>
<path d="M268.605 116.715C273.825 117.405 285.555 124.425 291.665 129.295" stroke="#1F1F1F" stroke-width="1.5" stroke-miterlimit="10"/>
<path d="M278.095 125.264C278.095 125.264 275.945 131.154 275.945 154.064C275.945 158.344 275.945 176.494 275.945 176.494" fill="#B8AB8A"/>
<path d="M278.095 125.264C278.095 125.264 275.945 131.154 275.945 154.064C275.945 158.344 275.945 176.494 275.945 176.494" stroke="#1F1F1F" stroke-width="1.5" stroke-miterlimit="10"/>
<path d="M360.814 91.3553C358.144 94.0253 357.714 95.5153 357.044 99.3853C354.304 113.515 354.964 130.765 357.044 149.335L361.014 152.165L444.884 200.895C446.114 201.605 446.914 201.965 447.724 201.955C448.544 201.955 449.344 201.595 450.564 200.895L470.484 189.385L474.454 186.555C475.554 170.775 475.934 155.155 474.454 139.965C474.454 131.505 473.044 130.865 468.794 128.175L387.514 80.5753C385.194 79.2253 382.884 79.5653 380.014 79.9353C373.694 81.6553 366.604 85.9753 360.804 91.3553H360.814Z" fill="#B8AB8A" stroke="#1F1F1F" stroke-width="1.5" stroke-miterlimit="10"/>
<path d="M447.605 147.645C446.275 156.115 447.725 189.475 447.785 198.985L447.605 147.645Z" fill="#B8AB8A"/>
<path d="M447.605 147.645C446.275 156.115 447.725 189.475 447.785 198.985" stroke="#1F1F1F" stroke-width="1.5" stroke-miterlimit="10"/>
<path d="M470.994 131.655C465.774 132.345 454.044 139.365 447.934 144.235L470.994 131.655Z" fill="#B8AB8A"/>
<path d="M470.994 131.655C465.774 132.345 454.044 139.365 447.934 144.235" stroke="#1F1F1F" stroke-width="1.5" stroke-miterlimit="10"/>
<path d="M461.494 140.204C461.494 140.204 463.644 146.094 463.644 169.004V191.434" fill="#B8AB8A"/>
<path d="M461.494 140.204C461.494 140.204 463.644 146.094 463.644 169.004V191.434" stroke="#1F1F1F" stroke-width="1.5" stroke-miterlimit="10"/>
<path d="M284.295 161.925C282.585 162.915 281.535 164.735 281.535 166.715C280.415 174.865 280.565 183.525 281.535 192.525L285.505 195.355L369.375 244.085C370.605 244.795 371.405 245.155 372.215 245.145C373.035 245.145 373.835 244.785 375.055 244.085L440.745 206.155L444.715 203.325V177.515C444.715 175.535 443.665 173.715 441.955 172.725L440.755 172.025C440.755 172.025 415.175 154.585 396.915 144.795C378.655 135.005 357.795 123.415 357.795 123.415C355.475 122.065 352.615 122.065 350.295 123.415C350.295 123.415 330.625 133.285 320.385 139.265C310.155 145.235 284.295 161.925 284.295 161.925Z" fill="#B8AB8A" stroke="#1F1F1F" stroke-width="1.5" stroke-miterlimit="10"/>
<path d="M373.074 243.204C371.564 234.384 372.424 225.354 372.424 217.044L373.074 243.204Z" fill="#B8AB8A"/>
<path d="M373.074 243.204C371.564 234.384 372.424 225.354 372.424 217.044" stroke="#1F1F1F" stroke-width="1.5" stroke-miterlimit="10"/>
<path d="M443.584 182.575C420.674 197.835 398.984 208.975 373.754 221.735L443.584 182.575Z" fill="#B8AB8A"/>
<path d="M443.584 182.575C420.674 197.835 398.984 208.975 373.754 221.735" stroke="#1F1F1F" stroke-width="1.5" stroke-miterlimit="10"/>
<path d="M495.402 171.895C492.732 174.565 492.302 176.055 491.632 179.925C488.892 194.055 489.552 211.305 491.632 229.875L495.602 232.705L579.472 281.435C580.702 282.145 581.502 282.505 582.312 282.495C583.132 282.495 583.932 282.135 585.152 281.435L605.072 269.925L609.042 267.095C610.142 251.315 610.522 235.695 609.042 220.505C609.042 212.045 607.632 211.405 603.382 208.715L522.102 161.115C519.782 159.765 517.472 160.105 514.602 160.475C508.282 162.195 501.192 166.515 495.392 171.895H495.402Z" fill="#B8AB8A" stroke="#1F1F1F" stroke-width="1.5" stroke-miterlimit="10"/>
<path d="M582.192 228.185C580.862 236.655 582.312 270.015 582.372 279.525L582.192 228.185Z" fill="#B8AB8A"/>
<path d="M582.192 228.185C580.862 236.655 582.312 270.015 582.372 279.525" stroke="#1F1F1F" stroke-width="1.5" stroke-miterlimit="10"/>
<path d="M605.572 212.185C600.352 212.875 588.622 219.895 582.512 224.765L605.572 212.185Z" fill="#B8AB8A"/>
<path d="M605.572 212.185C600.352 212.875 588.622 219.895 582.512 224.765" stroke="#1F1F1F" stroke-width="1.5" stroke-miterlimit="10"/>
<path d="M596.082 220.744C596.082 220.744 598.232 226.634 598.232 249.544V271.974" fill="#B8AB8A"/>
<path d="M596.082 220.744C596.082 220.744 598.232 226.634 598.232 249.544V271.974" stroke="#1F1F1F" stroke-width="1.5" stroke-miterlimit="10"/>
<path d="M418.873 242.466C417.163 243.456 416.113 245.276 416.113 247.256C414.993 255.406 415.143 264.066 416.113 273.066L420.083 275.896L503.953 324.626C505.183 325.336 505.983 325.696 506.793 325.686C507.613 325.686 508.413 325.326 509.633 324.626L575.323 286.696L579.293 283.866V258.056C579.293 256.076 578.243 254.256 576.533 253.266L575.333 252.566C575.333 252.566 549.753 235.126 531.493 225.336C513.233 215.546 492.373 203.956 492.373 203.956C490.053 202.606 487.193 202.606 484.873 203.956C484.873 203.956 465.203 213.826 454.963 219.806C444.733 225.776 418.873 242.466 418.873 242.466Z" fill="#B8AB8A" stroke="#1F1F1F" stroke-width="1.5" stroke-miterlimit="10"/>
<path d="M507.652 323.744C506.142 314.924 507.002 305.894 507.002 297.584L507.652 323.744Z" fill="#B8AB8A"/>
<path d="M507.652 323.744C506.142 314.924 507.002 305.894 507.002 297.584" stroke="#1F1F1F" stroke-width="1.5" stroke-miterlimit="10"/>
<path d="M578.172 263.105C555.262 278.365 533.572 289.505 508.342 302.265L578.172 263.105Z" fill="#B8AB8A"/>
<path d="M578.172 263.105C555.262 278.365 533.572 289.505 508.342 302.265" stroke="#1F1F1F" stroke-width="1.5" stroke-miterlimit="10"/>
<path d="M630.242 224.735C632.912 227.405 633.342 228.895 634.012 232.765C636.752 246.895 636.092 264.145 634.012 282.715L630.042 285.545L546.172 334.275C544.942 334.985 544.142 335.345 543.332 335.335C542.512 335.335 541.712 334.975 540.492 334.275L520.572 322.765L516.602 319.935C515.502 304.155 515.122 288.535 516.602 273.345C516.602 264.885 518.012 264.245 522.262 261.555L603.542 213.955C605.862 212.605 608.172 212.945 611.042 213.315C617.362 215.035 624.452 219.355 630.252 224.735H630.242Z" fill="#B8AB8A" stroke="#1F1F1F" stroke-width="1.5" stroke-miterlimit="10"/>
<path d="M543.442 281.015C544.772 289.485 543.322 322.845 543.262 332.355L543.442 281.015Z" fill="#B8AB8A"/>
<path d="M543.442 281.015C544.772 289.485 543.322 322.845 543.262 332.355" stroke="#1F1F1F" stroke-width="1.5" stroke-miterlimit="10"/>
<path d="M520.062 265.025C525.282 265.715 537.012 272.735 543.122 277.605L520.062 265.025Z" fill="#B8AB8A"/>
<path d="M520.062 265.025C525.282 265.715 537.012 272.735 543.122 277.605" stroke="#1F1F1F" stroke-width="1.5" stroke-miterlimit="10"/>
<path d="M529.552 273.574C529.552 273.574 527.402 279.464 527.402 302.374C527.402 306.654 527.402 324.804 527.402 324.804" stroke="#1F1F1F" stroke-width="1.5" stroke-miterlimit="10"/>
<path d="M503.073 219.375C504.753 218.005 506.793 217.205 508.473 215.885C528.743 199.965 548.733 187.035 569.593 176.885C571.163 176.125 572.983 174.405 574.553 173.675C577.233 171.965 580.213 172.855 580.743 175.535C581.933 186.685 595.373 198.465 597.533 209.425C599.783 220.815 590.093 226.715 593.303 237.905C593.703 239.955 595.093 250.255 593.043 251.565C581.263 252.915 557.383 244.255 540.933 253.575C533.233 257.935 526.293 258.415 516.023 264.825C505.533 271.365 507.783 282.385 496.143 287.985C493.463 289.695 492.323 289.655 491.793 286.975C492.363 283.185 491.793 281.595 491.793 278.105C491.793 254.235 493.723 238.145 500.243 225.145C499.843 223.095 501.023 220.675 503.073 219.365V219.375Z" fill="#B8AB8A" stroke="#1F1F1F" stroke-width="1.5" stroke-miterlimit="10"/>
<path d="M586.882 248.565C586.882 248.565 563.492 242.025 537.312 248.985C531.672 250.485 519.492 258.655 513.542 263.405C500.672 273.695 496.152 287.995 496.152 287.995" stroke="#1F1F1F" stroke-width="1.5" stroke-miterlimit="10"/>
<path d="M363.696 142.115C363.956 140.765 364.696 139.525 365.016 138.215C368.946 122.405 376.196 106.055 378.426 102.095C379.276 100.595 380.506 98.0849 381.306 96.5149C381.826 95.4949 382.016 93.1949 382.566 92.1949C383.236 90.2649 384.656 87.5449 386.226 88.8949C399.996 98.4449 415.316 106.055 430.986 113.605C432.336 114.385 432.946 116.015 432.436 117.485C431.996 118.445 431.016 120.225 430.616 121.215C428.476 126.525 426.176 131.815 423.866 138.035C420.576 146.915 418.126 155.175 415.126 164.325C414.586 165.985 414.736 168.195 414.096 169.785C413.426 171.715 411.166 172.555 409.396 171.535C407.316 170.975 405.656 169.245 403.766 168.415C388.026 161.575 377.346 154.645 367.426 145.985C366.076 145.205 363.186 143.575 363.696 142.105V142.115Z" fill="#B8AB8A" stroke="#1F1F1F" stroke-width="1.5" stroke-miterlimit="10"/>
<path d="M430.847 118.695C425.057 127.605 412.597 165.565 413.377 169.555" stroke="#1F1F1F" stroke-width="1.5" stroke-miterlimit="10"/>
<path d="M400.415 152.895C389.755 145.985 378.895 139.755 367.785 134.445L367.675 134.425C365.735 133.625 362.345 135.115 360.695 139.115C359.045 143.115 359.765 148.095 361.705 148.895C371.135 155.985 382.215 162.035 394.455 167.365C396.395 168.165 400.095 165.575 401.735 161.575C403.385 157.575 402.355 153.695 400.425 152.895H400.415Z" fill="#B8AB8A" stroke="#1F1F1F" stroke-width="1.5" stroke-miterlimit="10"/>
<path d="M394.105 166.585C392.845 165.695 392.275 162.675 393.925 158.675C395.575 154.675 397.505 153.365 399.205 153.215" stroke="#1F1F1F" stroke-width="1.5" stroke-miterlimit="10"/>
<path d="M361.186 142.335C370.416 148.615 380.976 154.535 392.656 160.145" stroke="#1F1F1F" stroke-width="1.5" stroke-miterlimit="10"/>
<path d="M386.395 154.034C386.215 154.214 385.375 156.684 385.375 156.684L387.775 157.794L388.815 155.174L386.395 154.034Z" fill="#B8AB8A" stroke="#1F1F1F" stroke-width="1.5" stroke-miterlimit="10"/>
<defs>
<clipPath id="clip0_1696_13532">
<rect x="251.895" y="195.609" width="98" height="45" rx="15" transform="rotate(30 251.895 195.609)" fill="white"/>
</clipPath>
<clipPath id="clip1_1696_13532">
<rect x="202.385" y="82.8289" width="91" height="45" rx="15" transform="rotate(-30 202.385 82.8289)" fill="white"/>
</clipPath>
</defs>
</svg>
