<svg width="900" height="505" viewBox="0 0 900 505" fill="none" xmlns="http://www.w3.org/2000/svg">
<line x1="88.4219" y1="320.156" x2="404.66" y2="502.736" stroke="black" stroke-width="3"/>
<g clip-path="url(#clip0_1696_10765)">
<rect x="217.472" y="370.414" width="91.3833" height="45" rx="15" transform="rotate(30 217.472 370.414)" fill="#FAFAF1"/>
<path d="M222.322 412.381C218.113 409.951 216.775 406.269 218.71 402.017L221.521 403.328C220.187 406.299 220.925 408.561 223.731 410.181C226.822 411.966 229.129 411.15 230.389 408.968C231.784 406.552 230.994 404.26 228.163 402.625L226.292 401.545L227.567 399.336L229.412 400.401C231.802 401.781 233.888 401.288 235.028 399.314C236.273 397.157 235.292 395.136 232.928 393.771C230.2 392.196 228.009 392.871 226.321 395.014L223.925 393.284C226.467 389.902 230.061 389.137 234.218 391.537C238.375 393.937 239.576 397.436 237.761 400.58C236.546 402.684 234.786 403.573 232.019 403.085L231.989 403.137C234.409 405.365 234.524 407.926 233.054 410.472C230.864 414.265 226.634 414.871 222.322 412.381ZM236.121 419.863C241.162 413.352 247.295 409.029 253.643 406.735L242.653 400.39L244.108 397.87L258.553 406.21L257.428 408.159C249.765 410.212 243.672 414.766 238.849 421.438L236.121 419.863ZM254.364 430.396C259.405 423.884 265.538 419.561 271.885 417.268L260.895 410.923L262.35 408.402L276.795 416.742L275.67 418.691C268.007 420.744 261.914 425.298 257.092 431.971L254.364 430.396Z" fill="black"/>
</g>
<line x1="45.7852" y1="210.066" x2="358.146" y2="29.7244" stroke="black" stroke-width="3"/>
<g clip-path="url(#clip1_1696_10765)">
<rect x="146.433" y="127.708" width="104" height="45" rx="15" transform="rotate(-30 146.433 127.708)" fill="#FAFAF1"/>
<path d="M188.903 142.356C184.694 144.786 180.836 144.104 178.121 140.301L180.662 138.523C182.568 141.164 184.896 141.656 187.702 140.036C190.793 138.251 191.24 135.845 189.98 133.662C188.585 131.246 186.206 130.784 183.374 132.419L181.503 133.499L180.228 131.291L182.073 130.226C184.463 128.846 185.079 126.793 183.939 124.818C182.694 122.662 180.453 122.501 178.089 123.866C175.361 125.441 174.85 127.676 175.862 130.209L173.166 131.419C171.508 127.527 172.642 124.031 176.799 121.631C180.956 119.231 184.587 119.941 186.402 123.084C187.617 125.189 187.507 127.158 185.7 129.309L185.73 129.361C188.87 128.38 191.145 129.56 192.615 132.106C194.805 135.9 193.216 139.866 188.903 142.356ZM209.017 121.217L211.959 119.172L213.189 121.302L209.932 122.801L212.932 127.998L210.464 129.423L207.464 124.226L197.626 130.287L196.531 128.391L197.385 110.369L201.412 108.044L209.017 121.217ZM206.549 122.642L199.949 111.21L199.871 111.255L199.165 126.593L206.549 122.642ZM221.054 106.126C224.925 103.891 229.03 104.882 231.37 108.935C233.68 112.936 232.657 117.164 228.266 119.699C225.954 121.034 223.618 121.308 221.118 120.396C218.837 119.566 217.181 117.958 215.201 114.529C211.646 108.371 210.332 102.375 216.515 98.8049C219.945 96.8249 223.235 97.0038 225.552 99.3377L223.153 101.242C221.939 100.039 220.124 99.5963 217.708 100.991C214.513 102.836 213.868 105.98 217.154 111.911C217.266 109.526 218.716 107.476 221.054 106.126ZM227.002 117.449C229.652 115.919 230.437 113.318 228.847 110.564C227.227 107.759 224.533 106.993 221.883 108.523C219.571 109.858 218.336 112.338 219.313 115.411C220.5 117.047 221.411 117.664 222.506 118.001C224.205 118.545 225.729 118.184 227.002 117.449Z" fill="black"/>
</g>
<path d="M363.544 121.945C360.874 124.615 360.444 126.105 359.774 129.975C357.034 144.105 357.694 161.355 359.774 179.925L363.744 182.755L447.614 231.485C448.844 232.195 449.644 232.555 450.454 232.545C451.274 232.545 452.074 232.185 453.294 231.485L473.214 219.975L477.184 217.145C478.284 201.365 478.664 185.745 477.184 170.555C477.184 162.095 475.774 161.455 471.524 158.765L390.244 111.165C387.924 109.815 385.614 110.155 382.744 110.525C376.424 112.245 369.334 116.565 363.534 121.945H363.544Z" fill="#B8AB8A" stroke="#1F1F1F" stroke-width="1.5" stroke-miterlimit="10"/>
<path d="M450.343 178.225C449.013 186.695 450.463 220.055 450.523 229.565L450.343 178.225Z" fill="#B8AB8A"/>
<path d="M450.343 178.225C449.013 186.695 450.463 220.055 450.523 229.565" stroke="#1F1F1F" stroke-width="1.5" stroke-miterlimit="10"/>
<path d="M473.724 162.235C468.504 162.925 456.774 169.945 450.664 174.815L473.724 162.235Z" fill="#B8AB8A"/>
<path d="M473.724 162.235C468.504 162.925 456.774 169.945 450.664 174.815" stroke="#1F1F1F" stroke-width="1.5" stroke-miterlimit="10"/>
<path d="M464.234 170.785C464.234 170.785 466.384 176.675 466.384 199.585C466.384 203.865 466.384 222.015 466.384 222.015" fill="#B8AB8A"/>
<path d="M464.234 170.785C464.234 170.785 466.384 176.675 466.384 199.585C466.384 203.865 466.384 222.015 466.384 222.015" stroke="#1F1F1F" stroke-width="1.5" stroke-miterlimit="10"/>
<path d="M351.645 122.225C354.315 124.895 354.745 126.385 355.415 130.255C358.155 144.385 357.495 161.635 355.415 180.205L351.445 183.035L267.575 231.765C266.345 232.475 265.545 232.835 264.735 232.825C263.915 232.825 263.115 232.465 261.895 231.765L241.975 220.255L238.005 217.425C236.905 201.645 236.525 186.025 238.005 170.835C238.005 162.375 239.415 161.735 243.665 159.045L324.945 111.445C327.265 110.095 329.575 110.435 332.445 110.805C338.765 112.525 345.855 116.845 351.655 122.225H351.645Z" fill="#B8AB8A" stroke="#1F1F1F" stroke-width="1.5" stroke-miterlimit="10"/>
<path d="M264.845 178.515C266.175 186.985 264.725 220.345 264.665 229.855L264.845 178.515Z" fill="#B8AB8A"/>
<path d="M264.845 178.515C266.175 186.985 264.725 220.345 264.665 229.855" stroke="#1F1F1F" stroke-width="1.5" stroke-miterlimit="10"/>
<path d="M241.464 162.515C246.684 163.205 258.414 170.225 264.524 175.095L241.464 162.515Z" fill="#B8AB8A"/>
<path d="M241.464 162.515C246.684 163.205 258.414 170.225 264.524 175.095" stroke="#1F1F1F" stroke-width="1.5" stroke-miterlimit="10"/>
<path d="M250.954 171.075C250.954 171.075 248.804 176.965 248.804 199.875V222.305" fill="#B8AB8A"/>
<path d="M250.954 171.075C250.954 171.075 248.804 176.965 248.804 199.875V222.305" stroke="#1F1F1F" stroke-width="1.5" stroke-miterlimit="10"/>
<path d="M456.637 175.384C453.967 178.054 453.537 179.544 452.867 183.414C450.127 197.544 450.787 214.794 452.867 233.364L456.837 236.194L540.707 284.924C541.937 285.634 542.737 285.994 543.547 285.984C544.367 285.984 545.167 285.624 546.387 284.924L566.307 273.414L570.277 270.584C571.377 254.804 571.757 239.184 570.277 223.994C570.277 215.534 568.867 214.894 564.617 212.204L483.337 164.604C481.017 163.254 478.707 163.594 475.837 163.964C469.517 165.684 462.427 170.004 456.627 175.384H456.637Z" fill="#B8AB8A" stroke="#1F1F1F" stroke-width="1.5" stroke-miterlimit="10"/>
<path d="M543.437 231.673C542.107 240.143 543.557 273.503 543.617 283.013L543.437 231.673Z" fill="#B8AB8A"/>
<path d="M543.437 231.673C542.107 240.143 543.557 273.503 543.617 283.013" stroke="#1F1F1F" stroke-width="1.5" stroke-miterlimit="10"/>
<path d="M566.817 215.684C561.597 216.374 549.867 223.394 543.757 228.264L566.817 215.684Z" fill="#B8AB8A"/>
<path d="M566.817 215.684C561.597 216.374 549.867 223.394 543.757 228.264" stroke="#1F1F1F" stroke-width="1.5" stroke-miterlimit="10"/>
<path d="M557.326 224.234C557.326 224.234 559.476 230.124 559.476 253.034V275.464" fill="#B8AB8A"/>
<path d="M557.326 224.234C557.326 224.234 559.476 230.124 559.476 253.034V275.464" stroke="#1F1F1F" stroke-width="1.5" stroke-miterlimit="10"/>
<path d="M444.104 202.795L445.304 203.495C447.014 204.485 448.064 206.305 448.064 208.285C449.364 216.975 449.314 225.575 448.064 234.095L444.094 236.925L360.224 285.655C358.994 286.365 358.194 286.725 357.384 286.715C356.564 286.715 355.764 286.355 354.544 285.655L270.684 237.195L266.714 234.365V208.555C266.714 206.575 267.764 204.755 269.474 203.765C269.474 203.765 288.424 192.715 309.574 180.325C312.184 178.795 314.834 177.245 317.474 175.695C341.564 161.575 353.644 154.455 353.644 154.455C355.964 153.105 358.824 153.105 361.144 154.455C361.144 154.455 374.674 160.665 399.704 174.365C424.724 188.065 444.104 202.795 444.104 202.795Z" fill="#B8AB8A" stroke="#1F1F1F" stroke-width="1.5" stroke-miterlimit="10"/>
<path d="M269.055 213.375C291.965 228.635 330.615 249.715 355.845 262.475L269.055 213.375Z" fill="#B8AB8A"/>
<path d="M269.055 213.375C291.965 228.635 330.615 249.715 355.845 262.475" stroke="#1F1F1F" stroke-width="1.5" stroke-miterlimit="10"/>
<path d="M357.064 284.185C358.574 275.365 357.714 267.145 357.714 258.835L357.064 284.185Z" fill="#B8AB8A"/>
<path d="M357.064 284.185C358.574 275.365 357.714 267.145 357.714 258.835" stroke="#1F1F1F" stroke-width="1.5" stroke-miterlimit="10"/>
<path d="M363.157 255.793L361.957 256.493C360.247 257.483 359.197 259.303 359.197 261.283C357.897 269.973 357.947 278.573 359.197 287.093L363.167 289.923L447.037 338.653C448.267 339.363 449.067 339.723 449.877 339.713C450.697 339.713 451.497 339.353 452.717 338.653L536.577 290.193L540.547 287.363V261.553C540.547 259.573 539.497 257.753 537.787 256.763C537.787 256.763 518.837 245.713 497.687 233.323C495.077 231.793 492.427 230.243 489.787 228.693C465.697 214.573 453.617 207.453 453.617 207.453C451.297 206.103 448.437 206.103 446.117 207.453C446.117 207.453 432.587 213.663 407.557 227.363C382.537 241.063 363.157 255.793 363.157 255.793Z" fill="#B8AB8A" stroke="#1F1F1F" stroke-width="1.5" stroke-miterlimit="10"/>
<path d="M538.206 266.363C515.296 281.623 476.646 302.703 451.416 315.463L538.206 266.363Z" fill="#B8AB8A"/>
<path d="M538.206 266.363C515.296 281.623 476.646 302.703 451.416 315.463" stroke="#1F1F1F" stroke-width="1.5" stroke-miterlimit="10"/>
<path d="M450.197 337.173C448.687 328.353 449.547 320.133 449.547 311.823L450.197 337.173Z" fill="#B8AB8A"/>
<path d="M450.197 337.173C448.687 328.353 449.547 320.133 449.547 311.823" stroke="#1F1F1F" stroke-width="1.5" stroke-miterlimit="10"/>
<path d="M258.544 175.665C261.214 178.335 261.644 179.825 262.314 183.695C265.054 197.825 264.394 215.075 262.314 233.645L258.344 236.475L174.474 285.205C173.244 285.915 172.444 286.275 171.634 286.265C170.814 286.265 170.014 285.905 168.794 285.205L148.874 273.695L144.904 270.865C143.804 255.085 143.424 239.465 144.904 224.275C144.904 215.815 146.314 215.175 150.564 212.485L231.844 164.885C234.164 163.535 236.474 163.875 239.344 164.245C245.664 165.965 252.754 170.285 258.554 175.665H258.544Z" fill="#B8AB8A" stroke="#1F1F1F" stroke-width="1.5" stroke-miterlimit="10"/>
<path d="M171.744 231.954C173.074 240.424 171.624 273.784 171.564 283.294L171.744 231.954Z" fill="#B8AB8A"/>
<path d="M171.744 231.954C173.074 240.424 171.624 273.784 171.564 283.294" stroke="#1F1F1F" stroke-width="1.5" stroke-miterlimit="10"/>
<path d="M148.364 215.965C153.584 216.655 165.314 223.675 171.424 228.545L148.364 215.965Z" fill="#B8AB8A"/>
<path d="M148.364 215.965C153.584 216.655 165.314 223.675 171.424 228.545" stroke="#1F1F1F" stroke-width="1.5" stroke-miterlimit="10"/>
<path d="M157.854 224.515C157.854 224.515 155.704 230.405 155.704 253.315V275.745" fill="#B8AB8A"/>
<path d="M157.854 224.515C157.854 224.515 155.704 230.405 155.704 253.315V275.745" stroke="#1F1F1F" stroke-width="1.5" stroke-miterlimit="10"/>
<path d="M352.024 256.074L353.224 256.774C354.934 257.764 355.984 259.584 355.984 261.564C357.284 270.254 357.234 278.854 355.984 287.374L352.014 290.204L268.144 338.934C266.914 339.644 266.114 340.004 265.304 339.994C264.484 339.994 263.684 339.634 262.464 338.934L178.604 290.474L174.634 287.644V261.834C174.634 259.854 175.684 258.034 177.394 257.044C177.394 257.044 196.344 245.994 217.494 233.604C220.104 232.074 222.754 230.524 225.394 228.974C249.484 214.854 261.564 207.734 261.564 207.734C263.884 206.384 266.744 206.384 269.064 207.734C269.064 207.734 282.594 213.944 307.624 227.644C332.644 241.344 352.024 256.074 352.024 256.074Z" fill="#B8AB8A" stroke="#1F1F1F" stroke-width="1.5" stroke-miterlimit="10"/>
<path d="M176.975 266.645C199.885 281.905 238.535 302.985 263.765 315.745L176.975 266.645Z" fill="#B8AB8A"/>
<path d="M176.975 266.645C199.885 281.905 238.535 302.985 263.765 315.745" stroke="#1F1F1F" stroke-width="1.5" stroke-miterlimit="10"/>
<path d="M264.984 337.455C266.494 328.635 265.634 320.415 265.634 312.105L264.984 337.455Z" fill="#B8AB8A"/>
<path d="M264.984 337.455C266.494 328.635 265.634 320.415 265.634 312.105" stroke="#1F1F1F" stroke-width="1.5" stroke-miterlimit="10"/>
<path d="M149.152 247.236C146.482 249.906 146.052 251.396 145.382 255.266C142.642 269.396 143.302 286.646 145.382 305.216L149.352 308.046L233.222 356.776C234.452 357.486 235.252 357.846 236.062 357.836C236.882 357.836 237.682 357.476 238.902 356.776L258.822 345.266L262.792 342.436C263.892 326.656 264.272 311.036 262.792 295.846C262.792 287.386 261.382 286.746 257.132 284.056L175.852 236.456C173.532 235.106 171.222 235.446 168.352 235.816C162.032 237.536 154.942 241.856 149.142 247.236H149.152Z" fill="#B8AB8A" stroke="#1F1F1F" stroke-width="1.5" stroke-miterlimit="10"/>
<path d="M235.952 303.527C234.622 311.997 236.072 345.357 236.132 354.867L235.952 303.527Z" fill="#B8AB8A"/>
<path d="M235.952 303.527C234.622 311.997 236.072 345.357 236.132 354.867" stroke="#1F1F1F" stroke-width="1.5" stroke-miterlimit="10"/>
<path d="M259.332 287.526C254.112 288.216 242.382 295.236 236.272 300.106L259.332 287.526Z" fill="#B8AB8A"/>
<path d="M259.332 287.526C254.112 288.216 242.382 295.236 236.272 300.106" stroke="#1F1F1F" stroke-width="1.5" stroke-miterlimit="10"/>
<path d="M249.842 296.086C249.842 296.086 251.992 301.976 251.992 324.886C251.992 329.166 251.992 347.316 251.992 347.316" stroke="#1F1F1F" stroke-width="1.5" stroke-miterlimit="10"/>
<path d="M421.447 187.333C412.597 167.653 418.577 124.563 412.177 100.853C411.707 99.0927 413.057 96.6927 413.007 94.8727C413.437 91.6527 410.817 88.8328 407.567 89.0228C382.177 100.413 339.387 105.223 310.607 96.5028C308.127 96.6528 306.107 98.5327 305.777 100.993C305.247 117.783 304.967 134.873 306.737 153.193C307.837 164.603 299.627 177.563 297.187 189.193C296.757 192.413 299.377 195.233 302.627 195.043C332.397 196.163 390.187 198.223 413.687 193.073C416.167 192.923 422.327 189.303 421.447 187.333Z" fill="#B8AB8A" stroke="#1F1F1F" stroke-width="1.5" stroke-miterlimit="10"/>
<path d="M265.137 227.768C264.877 226.418 264.137 225.178 263.817 223.868C259.887 208.058 252.637 191.708 250.407 187.748C249.557 186.248 248.327 183.738 247.527 182.168C247.007 181.148 246.817 178.848 246.267 177.848C245.597 175.918 244.177 173.198 242.607 174.548C228.837 184.098 213.517 191.708 197.847 199.258C196.497 200.038 195.887 201.668 196.397 203.138C196.837 204.098 197.817 205.878 198.217 206.868C200.357 212.178 202.657 217.468 204.967 223.688C208.257 232.568 210.707 240.828 213.707 249.978C214.247 251.638 214.097 253.848 214.737 255.438C215.407 257.368 217.667 258.208 219.437 257.188C221.517 256.628 223.177 254.898 225.067 254.068C240.807 247.228 251.487 240.298 261.407 231.638C262.757 230.858 265.647 229.228 265.137 227.758V227.768Z" fill="#B8AB8A" stroke="#1F1F1F" stroke-width="1.5" stroke-miterlimit="10"/>
<path d="M197.987 204.348C203.777 213.258 216.237 251.218 215.457 255.208" stroke="#1F1F1F" stroke-width="1.5" stroke-miterlimit="10"/>
<path d="M228.417 238.548C239.077 231.638 249.937 225.408 261.047 220.098L261.157 220.078C263.097 219.278 266.487 220.768 268.137 224.768C269.787 228.768 269.067 233.748 267.127 234.548C257.697 241.638 246.617 247.688 234.377 253.018C232.437 253.818 228.737 251.228 227.097 247.228C225.447 243.228 226.477 239.348 228.407 238.548H228.417Z" fill="#B8AB8A" stroke="#1F1F1F" stroke-width="1.5" stroke-miterlimit="10"/>
<path d="M234.727 252.238C235.987 251.348 236.557 248.328 234.907 244.328C233.257 240.328 231.327 239.018 229.627 238.868" stroke="#1F1F1F" stroke-width="1.5" stroke-miterlimit="10"/>
<path d="M267.647 227.987C258.417 234.267 247.857 240.187 236.177 245.797" stroke="#1F1F1F" stroke-width="1.5" stroke-miterlimit="10"/>
<path d="M262.91 227.604C263.09 227.784 263.93 230.254 263.93 230.254L261.53 231.364L260.49 228.744L262.91 227.604Z" fill="#B8AB8A" stroke="#1F1F1F" stroke-width="1.5" stroke-miterlimit="10"/>
<path d="M720.998 255.74L722.198 256.44C723.908 257.43 724.958 259.25 724.958 261.23C726.258 269.92 726.208 278.52 724.958 287.04L720.988 289.87L637.118 338.6C635.888 339.31 635.088 339.67 634.278 339.66C633.458 339.66 632.658 339.3 631.438 338.6L547.578 290.14L543.608 287.31V261.5C543.608 259.52 544.658 257.7 546.368 256.71C546.368 256.71 565.318 245.66 586.468 233.27C589.078 231.74 591.728 230.19 594.368 228.64C618.458 214.52 630.538 207.4 630.538 207.4C632.858 206.05 635.718 206.05 638.038 207.4C638.038 207.4 651.568 213.61 676.598 227.31C701.618 241.01 720.998 255.74 720.998 255.74Z" fill="#B8AB8A" stroke="#1F1F1F" stroke-width="1.5" stroke-miterlimit="10"/>
<path d="M545.939 266.321C568.849 281.581 607.499 302.661 632.729 315.421L545.939 266.321Z" fill="#B8AB8A"/>
<path d="M545.939 266.321C568.849 281.581 607.499 302.661 632.729 315.421" stroke="#1F1F1F" stroke-width="1.5" stroke-miterlimit="10"/>
<path d="M633.948 337.131C635.458 328.311 634.598 320.091 634.598 311.781L633.948 337.131Z" fill="#B8AB8A"/>
<path d="M633.948 337.131C635.458 328.311 634.598 320.091 634.598 311.781" stroke="#1F1F1F" stroke-width="1.5" stroke-miterlimit="10"/>
<path d="M750.848 247.107C753.518 249.777 753.948 251.267 754.618 255.137C757.358 269.267 756.698 286.517 754.618 305.087L750.648 307.917L666.778 356.647C665.548 357.357 664.748 357.717 663.938 357.707C663.118 357.707 662.318 357.347 661.098 356.647L641.178 345.137L637.208 342.307C636.108 326.527 635.728 310.907 637.208 295.717C637.208 287.257 638.618 286.617 642.868 283.927L724.148 236.327C726.468 234.977 728.778 235.317 731.648 235.687C737.968 237.407 745.058 241.727 750.858 247.107H750.848Z" fill="#B8AB8A" stroke="#1F1F1F" stroke-width="1.5" stroke-miterlimit="10"/>
<path d="M664.048 303.397C665.378 311.867 663.928 345.227 663.868 354.737L664.048 303.397Z" fill="#B8AB8A"/>
<path d="M664.048 303.397C665.378 311.867 663.928 345.227 663.868 354.737" stroke="#1F1F1F" stroke-width="1.5" stroke-miterlimit="10"/>
<path d="M640.669 287.397C645.889 288.087 657.619 295.107 663.729 299.977L640.669 287.397Z" fill="#B8AB8A"/>
<path d="M640.669 287.397C645.889 288.087 657.619 295.107 663.729 299.977" stroke="#1F1F1F" stroke-width="1.5" stroke-miterlimit="10"/>
<path d="M650.158 295.957C650.158 295.957 648.008 301.847 648.008 324.757V347.187" fill="#B8AB8A"/>
<path d="M650.158 295.957C650.158 295.957 648.008 301.847 648.008 324.757V347.187" stroke="#1F1F1F" stroke-width="1.5" stroke-miterlimit="10"/>
<path d="M455.897 309.066L454.697 309.766C452.987 310.756 451.937 312.576 451.937 314.556C450.637 323.246 450.687 331.846 451.937 340.366L455.907 343.196L539.777 391.926C541.007 392.636 541.807 392.996 542.617 392.986C543.437 392.986 544.237 392.626 545.457 391.926L629.317 343.466L633.287 340.636V314.826C633.287 312.846 632.237 311.026 630.527 310.036C630.527 310.036 611.577 298.986 590.427 286.596C587.817 285.066 585.167 283.516 582.527 281.966C558.437 267.846 546.357 260.726 546.357 260.726C544.037 259.376 541.177 259.376 538.857 260.726C538.857 260.726 525.327 266.936 500.297 280.636C475.277 294.336 455.897 309.066 455.897 309.066Z" fill="#B8AB8A" stroke="#1F1F1F" stroke-width="1.5" stroke-miterlimit="10"/>
<path d="M630.956 319.647C608.046 334.907 569.396 355.987 544.166 368.747L630.956 319.647Z" fill="#B8AB8A"/>
<path d="M630.956 319.647C608.046 334.907 569.396 355.987 544.166 368.747" stroke="#1F1F1F" stroke-width="1.5" stroke-miterlimit="10"/>
<path d="M542.947 390.457C541.437 381.637 542.297 373.417 542.297 365.107L542.947 390.457Z" fill="#B8AB8A"/>
<path d="M542.947 390.457C541.437 381.637 542.297 373.417 542.297 365.107" stroke="#1F1F1F" stroke-width="1.5" stroke-miterlimit="10"/>
<path d="M551.464 314.609C553.674 333.579 555.464 336.199 556.494 344.629L534.494 347.319C531.134 347.099 528.514 344.069 529.044 341.009C531.824 330.479 544.324 314.059 545.984 312.389C548.444 309.929 548.444 307.099 551.454 305.439C573.574 295.799 595.234 286.239 617.844 269.149C619.454 268.269 622.374 267.319 623.044 269.099C623.044 269.099 628.654 298.409 632.874 310.739C633.574 312.779 635.064 314.679 635.724 316.759C636.814 319.029 636.114 321.559 634.034 322.779C616.464 337.629 591.354 349.859 564.824 362.049C562.104 363.649 558.254 362.369 556.824 359.399C554.964 354.669 558.584 350.729 556.644 346.089C556.594 345.579 556.534 345.099 556.484 344.629" fill="#B8AB8A"/>
<path d="M551.464 314.609C553.674 333.579 555.464 336.199 556.494 344.629L534.494 347.319C531.134 347.099 528.514 344.069 529.044 341.009C531.824 330.479 544.324 314.059 545.984 312.389C548.444 309.929 548.444 307.099 551.454 305.439C573.574 295.799 595.234 286.239 617.844 269.149C619.454 268.269 622.374 267.319 623.044 269.099C623.044 269.099 628.654 298.409 632.874 310.739C633.574 312.779 635.064 314.679 635.724 316.759C636.814 319.029 636.114 321.559 634.034 322.779C616.464 337.629 591.354 349.859 564.824 362.049C562.104 363.649 558.254 362.369 556.824 359.399C554.964 354.669 558.584 350.729 556.644 346.089C556.594 345.579 556.534 345.099 556.484 344.629" stroke="#1F1F1F" stroke-width="1.5" stroke-miterlimit="10"/>
<path d="M658.221 300.386C660.891 303.056 661.321 304.546 661.991 308.416C664.731 322.546 664.071 339.796 661.991 358.366L658.021 361.196L574.151 409.926C572.921 410.636 572.121 410.996 571.311 410.986C570.491 410.986 569.691 410.626 568.471 409.926L548.551 398.416L544.581 395.586C543.481 379.806 543.101 364.186 544.581 348.996C544.581 340.536 545.991 339.896 550.241 337.206L631.521 289.606C633.841 288.256 636.151 288.596 639.021 288.966C645.341 290.686 652.431 295.006 658.231 300.386H658.221Z" fill="#B8AB8A" stroke="#1F1F1F" stroke-width="1.5" stroke-miterlimit="10"/>
<path d="M571.421 356.676C572.751 365.146 571.301 398.506 571.241 408.016L571.421 356.676Z" fill="#B8AB8A"/>
<path d="M571.421 356.676C572.751 365.146 571.301 398.506 571.241 408.016" stroke="#1F1F1F" stroke-width="1.5" stroke-miterlimit="10"/>
<path d="M548.042 340.676C553.262 341.366 564.992 348.386 571.102 353.256L548.042 340.676Z" fill="#B8AB8A"/>
<path d="M548.042 340.676C553.262 341.366 564.992 348.386 571.102 353.256" stroke="#1F1F1F" stroke-width="1.5" stroke-miterlimit="10"/>
<path d="M557.531 349.236C557.531 349.236 555.381 355.126 555.381 378.036V400.466" fill="#B8AB8A"/>
<path d="M557.531 349.236C557.531 349.236 555.381 355.126 555.381 378.036V400.466" stroke="#1F1F1F" stroke-width="1.5" stroke-miterlimit="10"/>
<path d="M457.832 227.007C458.092 225.657 458.832 224.417 459.152 223.107C463.082 207.297 470.332 190.947 472.562 186.987C473.412 185.487 474.642 182.977 475.442 181.407C475.962 180.387 476.152 178.087 476.702 177.087C477.372 175.157 478.792 172.437 480.362 173.787C494.132 183.337 509.452 190.947 525.122 198.497C526.472 199.277 527.082 200.907 526.572 202.377C526.132 203.337 525.152 205.117 524.752 206.107C522.612 211.417 520.312 216.707 518.002 222.927C514.712 231.807 512.262 240.067 509.262 249.217C508.722 250.877 508.872 253.087 508.232 254.677C507.562 256.607 505.302 257.447 503.532 256.427C501.452 255.867 499.792 254.137 497.902 253.307C482.162 246.467 471.482 239.537 461.562 230.877C460.212 230.097 457.322 228.467 457.832 226.997V227.007Z" fill="#B8AB8A" stroke="#1F1F1F" stroke-width="1.5" stroke-miterlimit="10"/>
<path d="M524.982 203.587C519.192 212.497 506.732 250.457 507.512 254.447" stroke="#1F1F1F" stroke-width="1.5" stroke-miterlimit="10"/>
<path d="M494.552 237.787C483.892 230.877 473.032 224.647 461.922 219.337L461.812 219.317C459.872 218.517 456.482 220.007 454.832 224.007C453.182 228.007 453.902 232.987 455.842 233.787C465.272 240.877 476.352 246.927 488.592 252.257C490.532 253.057 494.232 250.467 495.872 246.467C497.522 242.467 496.492 238.587 494.562 237.787H494.552Z" fill="#B8AB8A" stroke="#1F1F1F" stroke-width="1.5" stroke-miterlimit="10"/>
<path d="M488.242 251.478C486.982 250.588 486.412 247.568 488.062 243.568C489.712 239.568 491.642 238.258 493.342 238.108" stroke="#1F1F1F" stroke-width="1.5" stroke-miterlimit="10"/>
<path d="M455.321 227.228C464.551 233.508 475.111 239.428 486.791 245.038" stroke="#1F1F1F" stroke-width="1.5" stroke-miterlimit="10"/>
<path d="M480.532 238.927C480.352 239.107 479.512 241.577 479.512 241.577L481.912 242.687L482.952 240.067L480.532 238.927Z" fill="#B8AB8A" stroke="#1F1F1F" stroke-width="1.5" stroke-miterlimit="10"/>
<defs>
<clipPath id="clip0_1696_10765">
<rect x="217.472" y="370.414" width="91.3833" height="45" rx="15" transform="rotate(30 217.472 370.414)" fill="white"/>
</clipPath>
<clipPath id="clip1_1696_10765">
<rect x="146.433" y="127.708" width="104" height="45" rx="15" transform="rotate(-30 146.433 127.708)" fill="white"/>
</clipPath>
</defs>
</svg>
