<svg width="900" height="400" viewBox="0 0 900 400" fill="none" xmlns="http://www.w3.org/2000/svg">
<line x1="271.684" y1="227.213" x2="474.1" y2="344.078" stroke="black" stroke-width="3"/>
<g clip-path="url(#clip0_1696_14359)">
<rect x="340.957" y="242.959" width="98" height="45" rx="15" transform="rotate(30 340.957 242.959)" fill="#FAFAF1"/>
<path d="M342.79 282.7C344.755 279.297 347.567 277.906 352.371 277.805L356.625 277.697C359.572 277.632 361.22 277.059 362.36 275.085C363.725 272.72 363.095 270.451 360.393 268.891C357.717 267.346 355.344 267.916 353.844 270.514L353.649 270.852L351.051 269.352L351.201 269.092C353.481 265.143 357.523 264.082 361.81 266.557C365.811 268.867 367.279 272.625 365.014 276.548C363.544 279.094 361.164 280.456 356.404 280.48L353.863 280.502C350.138 280.534 348.543 280.895 347.563 282.234L358.552 288.579L357.157 290.995L342.79 282.7ZM378.115 294.054L381.357 295.579L380.127 297.709L377.2 295.639L374.2 300.835L371.732 299.41L374.732 294.214L364.564 288.724L365.659 286.828L381.693 278.556L385.72 280.881L378.115 294.054ZM375.647 292.629L382.247 281.197L382.169 281.152L368.533 288.21L375.647 292.629ZM385.865 307.569L394.025 293.436L388.907 290.481L390.002 288.584L390.261 288.734C391.872 289.664 393.258 290.083 394.506 289.903C395.563 289.751 396.5 289.149 397.413 288.048L397.645 287.766L400.061 289.161L388.541 309.114L385.865 307.569Z" fill="black"/>
</g>
<path d="M427.796 94.7847C430.466 97.4547 430.896 98.9447 431.566 102.815C434.306 116.945 433.646 134.195 431.566 152.765L427.596 155.595L343.726 204.325C342.496 205.035 341.696 205.395 340.886 205.385C340.066 205.385 339.266 205.025 338.046 204.325L318.126 192.815L314.156 189.985C313.056 174.205 312.676 158.585 314.156 143.395C314.156 134.935 315.566 134.295 319.816 131.605L401.096 84.0047C403.416 82.6547 405.726 82.9947 408.596 83.3647C414.916 85.0847 422.006 89.4047 427.806 94.7847H427.796Z" fill="#B8AB8A" stroke="#1F1F1F" stroke-width="1.5" stroke-miterlimit="10"/>
<path d="M341.006 151.075C342.336 159.545 340.886 192.905 340.826 202.415L341.006 151.075Z" fill="#B8AB8A"/>
<path d="M341.006 151.075C342.336 159.545 340.886 192.905 340.826 202.415" stroke="#1F1F1F" stroke-width="1.5" stroke-miterlimit="10"/>
<path d="M317.616 135.085C322.836 135.775 334.566 142.795 340.676 147.665L317.616 135.085Z" fill="#B8AB8A"/>
<path d="M317.616 135.085C322.836 135.775 334.566 142.795 340.676 147.665" stroke="#1F1F1F" stroke-width="1.5" stroke-miterlimit="10"/>
<path d="M327.106 143.636C327.106 143.636 324.956 149.526 324.956 172.436C324.956 176.716 324.956 194.866 324.956 194.866" fill="#B8AB8A"/>
<path d="M327.106 143.636C327.106 143.636 324.956 149.526 324.956 172.436C324.956 176.716 324.956 194.866 324.956 194.866" stroke="#1F1F1F" stroke-width="1.5" stroke-miterlimit="10"/>
<path d="M409.826 109.724C407.156 112.394 406.726 113.884 406.056 117.754C403.316 131.884 403.976 149.134 406.056 167.704L410.026 170.534L493.896 219.264C495.126 219.974 495.926 220.334 496.736 220.324C497.556 220.324 498.356 219.964 499.576 219.264L519.496 207.754L523.466 204.924C524.566 189.144 524.946 173.524 523.466 158.334C523.466 149.874 522.056 149.234 517.806 146.544L436.526 98.9439C434.206 97.5939 431.896 97.9339 429.026 98.3039C422.706 100.024 415.616 104.344 409.816 109.724H409.826Z" fill="#B8AB8A" stroke="#1F1F1F" stroke-width="1.5" stroke-miterlimit="10"/>
<path d="M496.616 166.015C495.286 174.485 496.736 207.845 496.796 217.355L496.616 166.015Z" fill="#B8AB8A"/>
<path d="M496.616 166.015C495.286 174.485 496.736 207.845 496.796 217.355" stroke="#1F1F1F" stroke-width="1.5" stroke-miterlimit="10"/>
<path d="M520.006 150.025C514.786 150.715 503.056 157.735 496.946 162.605L520.006 150.025Z" fill="#B8AB8A"/>
<path d="M520.006 150.025C514.786 150.715 503.056 157.735 496.946 162.605" stroke="#1F1F1F" stroke-width="1.5" stroke-miterlimit="10"/>
<path d="M510.507 158.575C510.507 158.575 512.657 164.465 512.657 187.375V209.805" fill="#B8AB8A"/>
<path d="M510.507 158.575C510.507 158.575 512.657 164.465 512.657 187.375V209.805" stroke="#1F1F1F" stroke-width="1.5" stroke-miterlimit="10"/>
<path d="M333.306 180.295C331.596 181.285 330.546 183.105 330.546 185.085C329.426 193.235 329.576 201.895 330.546 210.895L334.516 213.725L418.386 262.455C419.616 263.165 420.416 263.525 421.226 263.515C422.046 263.515 422.846 263.155 424.066 262.455L489.756 224.525L493.726 221.695V195.885C493.726 193.905 492.676 192.085 490.966 191.095L489.766 190.395C489.766 190.395 464.186 172.955 445.926 163.165C427.666 153.375 406.806 141.785 406.806 141.785C404.486 140.435 401.626 140.435 399.306 141.785C399.306 141.785 379.636 151.655 369.396 157.635C359.166 163.605 333.306 180.295 333.306 180.295Z" fill="#B8AB8A" stroke="#1F1F1F" stroke-width="1.5" stroke-miterlimit="10"/>
<path d="M422.086 261.575C420.576 252.755 421.436 243.725 421.436 235.415L422.086 261.575Z" fill="#B8AB8A"/>
<path d="M422.086 261.575C420.576 252.755 421.436 243.725 421.436 235.415" stroke="#1F1F1F" stroke-width="1.5" stroke-miterlimit="10"/>
<path d="M492.597 200.944C469.687 216.204 447.997 227.344 422.767 240.104L492.597 200.944Z" fill="#B8AB8A"/>
<path d="M492.597 200.944C469.687 216.204 447.997 227.344 422.767 240.104" stroke="#1F1F1F" stroke-width="1.5" stroke-miterlimit="10"/>
<path d="M426.396 233.744C424.686 234.734 423.636 236.554 423.636 238.534C422.516 246.684 422.666 255.344 423.636 264.344L427.606 267.174L511.476 315.904C512.706 316.614 513.506 316.974 514.316 316.964C515.136 316.964 515.936 316.604 517.156 315.904L582.846 277.974L586.816 275.144V249.334C586.816 247.354 585.766 245.534 584.056 244.544L582.856 243.844C582.856 243.844 557.276 226.404 539.016 216.614C520.756 206.824 499.896 195.234 499.896 195.234C497.576 193.884 494.716 193.884 492.396 195.234C492.396 195.234 472.726 205.104 462.486 211.084C452.256 217.054 426.396 233.744 426.396 233.744Z" fill="#B8AB8A" stroke="#1F1F1F" stroke-width="1.5" stroke-miterlimit="10"/>
<path d="M515.176 315.024C513.666 306.204 514.526 297.174 514.526 288.864L515.176 315.024Z" fill="#B8AB8A"/>
<path d="M515.176 315.024C513.666 306.204 514.526 297.174 514.526 288.864" stroke="#1F1F1F" stroke-width="1.5" stroke-miterlimit="10"/>
<path d="M585.696 254.384C562.786 269.644 541.096 280.784 515.866 293.544L585.696 254.384Z" fill="#B8AB8A"/>
<path d="M585.696 254.384C562.786 269.644 541.096 280.784 515.866 293.544" stroke="#1F1F1F" stroke-width="1.5" stroke-miterlimit="10"/>
<path d="M409.374 162.138C409.634 160.788 410.374 159.548 410.694 158.238C414.624 142.428 421.874 126.078 424.104 122.118C424.954 120.618 426.184 118.108 426.984 116.538C427.504 115.518 427.694 113.218 428.244 112.218C428.914 110.288 430.334 107.568 431.904 108.918C445.674 118.468 460.994 126.078 476.664 133.628C478.014 134.408 478.624 136.038 478.114 137.508C477.674 138.468 476.694 140.248 476.294 141.238C474.154 146.548 471.854 151.838 469.544 158.058C466.254 166.938 463.804 175.198 460.804 184.348C460.264 186.008 460.414 188.218 459.774 189.808C459.104 191.738 456.844 192.578 455.074 191.558C452.994 190.998 451.334 189.268 449.444 188.438C433.704 181.598 423.024 174.668 413.104 166.008C411.754 165.228 408.864 163.598 409.374 162.128V162.138Z" fill="#B8AB8A" stroke="#1F1F1F" stroke-width="1.5" stroke-miterlimit="10"/>
<path d="M476.525 138.718C470.735 147.628 458.275 185.588 459.055 189.578" stroke="#1F1F1F" stroke-width="1.5" stroke-miterlimit="10"/>
<path d="M397.723 168.12C397.983 166.77 399.033 165.29 399.273 163.95C399.863 160.72 402.263 152.62 403.313 149.11C403.643 148.02 404.723 145.21 405.143 143.18C405.813 141.25 406.363 140.22 408.133 141.24C408.863 141.74 409.923 143.54 410.663 144.04C422.253 151.96 434.693 159.59 447.893 165.75C449.693 166.59 452.753 165.41 454.533 166.27C455.883 167.05 454.683 170.49 454.173 171.96C452.883 174.57 448.603 186.36 448.813 194.78C448.143 196.71 445.843 200.86 444.073 199.84C439.273 197.04 438.143 194.51 434.993 193.01C421.553 186.65 409.453 178.74 399.863 170.98C398.513 170.2 397.213 169.58 397.723 168.11V168.12Z" fill="#B8AB8A" stroke="#1F1F1F" stroke-width="1.5" stroke-miterlimit="10"/>
<path d="M406.063 174.699C404.073 166.059 408.833 153.989 414.053 149.499" stroke="#1F1F1F" stroke-width="1.5" stroke-miterlimit="10"/>
<path d="M403.333 172.93C401.343 164.29 406.103 152.22 411.323 147.73" stroke="#1F1F1F" stroke-width="1.5" stroke-miterlimit="10"/>
<path d="M407.232 154.54C407.412 154.72 409.412 155.57 409.412 155.57L410.672 153.21L408.452 152.21L407.242 154.54H407.232Z" fill="#1F1F1F" stroke="#1F1F1F" stroke-width="1.5" stroke-miterlimit="10"/>
<line x1="236.658" y1="138.529" x2="374.23" y2="59.1015" stroke="black" stroke-width="3"/>
<g clip-path="url(#clip1_1696_14359)">
<rect x="256.321" y="104.733" width="91" height="45" rx="15" transform="rotate(-30 256.321 104.733)" fill="#FAFAF1"/>
<path d="M295.518 120.785L287.358 106.652L282.24 109.607L281.145 107.71L281.404 107.56C283.015 106.63 284.071 105.639 284.539 104.469C284.936 103.477 284.883 102.365 284.386 101.024L284.258 100.682L286.674 99.2871L298.194 119.24L295.518 120.785ZM309.345 112.802L301.185 98.6684L296.067 101.623L294.972 99.7268L295.232 99.5768C296.843 98.6468 297.899 97.656 298.366 96.4855C298.764 95.4939 298.71 94.3816 298.213 93.0405L298.085 92.6987L300.501 91.3037L312.021 111.257L309.345 112.802ZM326.438 103.453C322.567 105.688 318.602 105.241 316.165 102.04L318.728 100.18C320.543 102.423 323.028 102.408 325.237 101.133C328.121 99.4679 328.63 96.7493 327.025 93.9693C325.465 91.2673 322.949 90.3297 319.935 92.0697C318.194 93.0747 317.396 94.3322 316.89 95.9755L314.004 97.1567L310.094 85.7653L321.162 79.3753L322.602 81.8695L313.587 87.0745L315.639 93.2684L315.721 93.2903C316.373 91.8399 317.35 90.6523 319.142 89.6173C323.611 87.0373 327.597 88.7201 329.697 92.3574C331.842 96.0726 331.322 100.633 326.438 103.453Z" fill="black"/>
</g>
<defs>
<clipPath id="clip0_1696_14359">
<rect x="340.957" y="242.959" width="98" height="45" rx="15" transform="rotate(30 340.957 242.959)" fill="white"/>
</clipPath>
<clipPath id="clip1_1696_14359">
<rect x="256.321" y="104.733" width="91" height="45" rx="15" transform="rotate(-30 256.321 104.733)" fill="white"/>
</clipPath>
</defs>
</svg>
