<svg width="900" height="400" viewBox="0 0 900 400" fill="none" xmlns="http://www.w3.org/2000/svg">
<path d="M395.935 87.5042C398.605 90.1742 399.035 91.6642 399.705 95.5342C402.445 109.664 401.785 126.914 399.705 145.484L395.735 148.314L311.865 197.044C310.635 197.754 309.835 198.114 309.025 198.104C308.205 198.104 307.405 197.744 306.185 197.044L286.265 185.534L282.295 182.704C281.195 166.924 280.815 151.304 282.295 136.114C282.295 127.654 283.705 127.014 287.955 124.324L369.235 76.7242C371.555 75.3742 373.865 75.7142 376.735 76.0842C383.055 77.8042 390.145 82.1242 395.945 87.5042H395.935Z" fill="#B8AB8A" stroke="#1F1F1F" stroke-width="1.5" stroke-miterlimit="10"/>
<path d="M309.135 143.794C310.465 152.264 309.015 185.624 308.955 195.134L309.135 143.794Z" fill="#B8AB8A"/>
<path d="M309.135 143.794C310.465 152.264 309.015 185.624 308.955 195.134" stroke="#1F1F1F" stroke-width="1.5" stroke-miterlimit="10"/>
<path d="M285.756 127.794C290.976 128.484 302.706 135.504 308.816 140.374L285.756 127.794Z" fill="#B8AB8A"/>
<path d="M285.756 127.794C290.976 128.484 302.706 135.504 308.816 140.374" stroke="#1F1F1F" stroke-width="1.5" stroke-miterlimit="10"/>
<path d="M295.246 136.354C295.246 136.354 293.096 142.244 293.096 165.154C293.096 169.434 293.096 187.584 293.096 187.584" fill="#B8AB8A"/>
<path d="M295.246 136.354C295.246 136.354 293.096 142.244 293.096 165.154C293.096 169.434 293.096 187.584 293.096 187.584" stroke="#1F1F1F" stroke-width="1.5" stroke-miterlimit="10"/>
<path d="M379.214 101.495C375.574 104.355 374.764 105.765 374.094 109.635C371.354 123.765 372.014 142.185 374.094 160.755L378.064 163.585L443.814 201.395C445.044 202.105 445.844 202.465 446.654 202.455C447.474 202.455 448.274 202.095 449.494 201.395L469.414 189.885L473.384 187.055C474.484 171.275 474.864 155.655 473.384 140.465C473.384 132.005 471.974 131.365 467.724 128.675L403.594 91.7946C401.274 90.4446 397.784 90.9846 395.304 91.8746C389.714 93.9946 384.324 97.0946 379.214 101.485V101.495Z" fill="#B8AB8A" stroke="#1F1F1F" stroke-width="1.5" stroke-miterlimit="10"/>
<path d="M446.535 147.124C445.205 155.594 446.655 188.954 446.715 198.464L446.535 147.124Z" fill="#B8AB8A"/>
<path d="M446.535 147.124C445.205 155.594 446.655 188.954 446.715 198.464" stroke="#1F1F1F" stroke-width="1.5" stroke-miterlimit="10"/>
<path d="M460.425 139.684C460.425 139.684 462.575 147.834 462.575 168.484V190.914" fill="#B8AB8A"/>
<path d="M460.425 139.684C460.425 139.684 462.575 147.834 462.575 168.484V190.914" stroke="#1F1F1F" stroke-width="1.5" stroke-miterlimit="10"/>
<path d="M470.475 131.875C465.255 132.565 453.525 139.585 447.415 144.455L470.475 131.875Z" fill="#B8AB8A"/>
<path d="M470.475 131.875C465.255 132.565 453.525 139.585 447.415 144.455" stroke="#1F1F1F" stroke-width="1.5" stroke-miterlimit="10"/>
<path d="M301.155 173.724C299.445 174.714 298.395 176.534 298.395 178.514C297.205 186.534 297.345 195.204 298.395 204.324L302.365 207.154L368.055 245.084C369.285 245.794 370.085 246.154 370.895 246.144C371.715 246.144 372.515 245.784 373.735 245.084L439.425 207.154L443.395 204.324V178.514C443.395 176.534 442.345 174.714 440.635 173.724L439.435 173.024C439.435 173.024 421.585 161.544 406.055 152.414C390.525 143.284 374.645 135.214 374.645 135.214C372.325 133.864 369.465 133.864 367.145 135.214C367.145 135.214 352.495 142.774 338.325 150.384C324.155 157.984 301.155 173.724 301.155 173.724Z" fill="#B8AB8A" stroke="#1F1F1F" stroke-width="1.5" stroke-miterlimit="10"/>
<path d="M442.274 183.154C419.364 198.414 397.674 209.554 372.444 222.314L442.274 183.154Z" fill="#B8AB8A"/>
<path d="M442.274 183.154C419.364 198.414 397.674 209.554 372.444 222.314" stroke="#1F1F1F" stroke-width="1.5" stroke-miterlimit="10"/>
<path d="M370.905 242.404C369.395 233.584 370.255 226.393 370.255 218.083L370.905 242.404Z" fill="#B8AB8A"/>
<path d="M370.905 242.404C369.395 233.584 370.255 226.393 370.255 218.083" stroke="#1F1F1F" stroke-width="1.5" stroke-miterlimit="10"/>
<path d="M495.027 171.076C491.387 173.936 490.577 175.346 489.907 179.216C487.167 193.346 487.827 211.766 489.907 230.336L493.877 233.166L559.627 270.976C560.857 271.686 561.657 272.046 562.467 272.036C563.287 272.036 564.087 271.676 565.307 270.976L585.227 259.466L589.197 256.636C590.297 240.856 590.677 225.236 589.197 210.046C589.197 201.586 587.787 200.946 583.537 198.256L519.407 161.376C517.087 160.026 513.597 160.566 511.117 161.456C505.527 163.576 500.137 166.676 495.027 171.066V171.076Z" fill="#B8AB8A" stroke="#1F1F1F" stroke-width="1.5" stroke-miterlimit="10"/>
<path d="M562.346 216.716C561.016 225.186 562.466 258.546 562.526 268.056L562.346 216.716Z" fill="#B8AB8A"/>
<path d="M562.346 216.716C561.016 225.186 562.466 258.546 562.526 268.056" stroke="#1F1F1F" stroke-width="1.5" stroke-miterlimit="10"/>
<path d="M576.235 209.276C576.235 209.276 578.385 217.426 578.385 238.076V260.506" fill="#B8AB8A"/>
<path d="M576.235 209.276C576.235 209.276 578.385 217.426 578.385 238.076V260.506" stroke="#1F1F1F" stroke-width="1.5" stroke-miterlimit="10"/>
<path d="M586.288 201.465C581.068 202.155 569.338 209.175 563.228 214.045L586.288 201.465Z" fill="#B8AB8A"/>
<path d="M586.288 201.465C581.068 202.155 569.338 209.175 563.228 214.045" stroke="#1F1F1F" stroke-width="1.5" stroke-miterlimit="10"/>
<path d="M416.967 243.316C415.257 244.306 414.207 246.126 414.207 248.106C413.017 256.126 413.157 264.796 414.207 273.916L418.177 276.746L483.867 314.676C485.097 315.386 485.897 315.746 486.707 315.736C487.527 315.736 488.327 315.376 489.547 314.676L555.237 276.746L559.207 273.916V248.106C559.207 246.126 558.157 244.306 556.447 243.316L555.247 242.616C555.247 242.616 537.397 231.136 521.867 222.006C506.337 212.876 490.457 204.806 490.457 204.806C488.137 203.456 485.277 203.456 482.957 204.806C482.957 204.806 468.307 212.366 454.137 219.976C439.967 227.576 416.967 243.316 416.967 243.316Z" fill="#B8AB8A" stroke="#1F1F1F" stroke-width="1.5" stroke-miterlimit="10"/>
<path d="M558.087 252.736C535.177 267.996 513.487 279.136 488.257 291.896L558.087 252.736Z" fill="#B8AB8A"/>
<path d="M558.087 252.736C535.177 267.996 513.487 279.136 488.257 291.896" stroke="#1F1F1F" stroke-width="1.5" stroke-miterlimit="10"/>
<path d="M486.717 311.986C485.207 303.166 486.067 295.976 486.067 287.666L486.717 311.986Z" fill="#B8AB8A"/>
<path d="M486.717 311.986C485.207 303.166 486.067 295.976 486.067 287.666" stroke="#1F1F1F" stroke-width="1.5" stroke-miterlimit="10"/>
<path d="M491.688 215.385C491.948 214.035 492.688 212.795 493.008 211.485C496.938 195.675 504.188 179.325 506.418 175.365C507.268 173.865 508.498 171.355 509.298 169.785C509.818 168.765 510.008 166.465 510.558 165.465C511.228 163.535 512.648 160.815 514.218 162.165C527.988 171.715 543.308 179.325 558.978 186.875C560.328 187.655 560.938 189.285 560.428 190.755C559.988 191.715 559.008 193.495 558.608 194.485C556.468 199.795 554.168 205.085 551.858 211.305C548.568 220.185 546.118 228.445 543.118 237.595C542.578 239.255 542.728 241.465 542.088 243.055C541.418 244.985 539.158 245.825 537.388 244.805C535.308 244.245 533.648 242.515 531.758 241.685C516.018 234.845 505.338 227.915 495.418 219.255C494.068 218.475 491.178 216.845 491.688 215.375V215.385Z" fill="#B8AB8A" stroke="#1F1F1F" stroke-width="1.5" stroke-miterlimit="10"/>
<path d="M558.848 191.956C553.058 200.866 540.598 238.826 541.378 242.816" stroke="#1F1F1F" stroke-width="1.5" stroke-miterlimit="10"/>
<path d="M613.088 213.646C615.758 216.316 616.188 217.806 616.858 221.676C619.598 235.806 618.938 253.056 616.858 271.626L612.888 274.456L529.018 323.186C527.788 323.896 526.988 324.256 526.178 324.246C525.358 324.246 524.558 323.886 523.338 323.186L503.418 311.676L499.448 308.846C498.348 293.066 497.968 277.446 499.448 262.256C499.448 253.796 500.858 253.156 505.108 250.466L586.388 202.866C588.708 201.516 591.018 201.856 593.888 202.226C600.208 203.946 607.298 208.266 613.098 213.646H613.088Z" fill="#B8AB8A" stroke="#1F1F1F" stroke-width="1.5" stroke-miterlimit="10"/>
<path d="M526.286 269.926C527.616 278.396 526.166 311.756 526.106 321.266L526.286 269.926Z" fill="#B8AB8A"/>
<path d="M526.286 269.926C527.616 278.396 526.166 311.756 526.106 321.266" stroke="#1F1F1F" stroke-width="1.5" stroke-miterlimit="10"/>
<path d="M502.907 253.936C508.127 254.626 519.857 261.646 525.967 266.516L502.907 253.936Z" fill="#B8AB8A"/>
<path d="M502.907 253.936C508.127 254.626 519.857 261.646 525.967 266.516" stroke="#1F1F1F" stroke-width="1.5" stroke-miterlimit="10"/>
<path d="M512.397 262.486C512.397 262.486 510.247 268.376 510.247 291.286C510.247 295.566 510.247 313.716 510.247 313.716" stroke="#1F1F1F" stroke-width="1.5" stroke-miterlimit="10"/>
<path d="M371.865 142.764C372.125 141.414 373.175 139.934 373.415 138.594C374.005 135.364 376.405 127.264 377.455 123.754C377.785 122.664 378.865 119.854 379.285 117.824C379.955 115.894 380.505 114.864 382.275 115.884C383.005 116.384 384.065 118.184 384.805 118.684C396.395 126.604 408.835 134.234 422.035 140.394C423.835 141.234 426.895 140.054 428.675 140.914C430.025 141.694 428.825 145.134 428.315 146.604C427.025 149.214 422.745 161.004 422.955 169.424C422.285 171.354 419.985 175.504 418.215 174.484C413.415 171.684 412.285 169.154 409.135 167.654C395.695 161.294 383.595 153.384 374.005 145.624C372.655 144.844 371.355 144.224 371.865 142.754V142.764Z" fill="#B8AB8A" stroke="#1F1F1F" stroke-width="1.5" stroke-miterlimit="10"/>
<path d="M380.205 149.334C378.215 140.694 382.975 128.624 388.195 124.134" stroke="#1F1F1F" stroke-width="1.5" stroke-miterlimit="10"/>
<path d="M377.476 147.565C375.486 138.925 380.246 126.855 385.466 122.365" stroke="#1F1F1F" stroke-width="1.5" stroke-miterlimit="10"/>
<path d="M381.365 129.174C381.545 129.354 383.545 130.204 383.545 130.204L384.805 127.844L382.585 126.844L381.375 129.174H381.365Z" fill="#1F1F1F" stroke="#1F1F1F" stroke-width="1.5" stroke-miterlimit="10"/>
<line x1="230.161" y1="207.465" x2="353.939" y2="278.928" stroke="black" stroke-width="3"/>
<g clip-path="url(#clip0_1696_13750)">
<rect x="262.61" y="203.143" width="91" height="45" rx="15" transform="rotate(30 262.61 203.143)" fill="#FAFAF1"/>
<path d="M268.307 245.114L276.467 230.981L271.349 228.026L272.444 226.129L272.703 226.279C274.314 227.209 275.7 227.628 276.948 227.448C278.005 227.296 278.942 226.694 279.855 225.593L280.087 225.311L282.503 226.706L270.983 246.659L268.307 245.114ZM282.135 253.098L290.295 238.964L285.176 236.009L286.271 234.113L286.531 234.263C288.142 235.193 289.528 235.612 290.775 235.431C291.833 235.28 292.77 234.677 293.682 233.576L293.914 233.295L296.331 234.69L284.811 254.643L282.135 253.098ZM298.777 263.226C294.906 260.991 293.311 257.333 294.864 253.623L297.757 254.912C296.722 257.605 297.977 259.751 300.186 261.026C303.07 262.691 305.679 261.772 307.284 258.992C308.844 256.29 308.398 253.642 305.384 251.902C303.643 250.897 302.155 250.835 300.479 251.218L298.013 249.309L305.923 240.228L316.991 246.618L315.551 249.112L306.536 243.907L302.198 248.781L302.22 248.863C303.802 248.703 305.319 248.955 307.112 249.99C311.58 252.57 312.116 256.863 310.016 260.5C307.871 264.215 303.661 266.046 298.777 263.226Z" fill="black"/>
</g>
<line x1="194.001" y1="138.668" x2="341.55" y2="53.4808" stroke="black" stroke-width="3"/>
<g clip-path="url(#clip1_1696_13750)">
<rect x="218.729" y="102.128" width="91" height="45" rx="15" transform="rotate(-30 218.729 102.128)" fill="#FAFAF1"/>
<path d="M257.925 118.18L249.765 104.047L244.647 107.002L243.552 105.105L243.812 104.955C245.422 104.025 246.479 103.034 246.946 101.864C247.343 100.872 247.29 99.7599 246.793 98.4188L246.665 98.077L249.081 96.682L260.601 116.635L257.925 118.18ZM271.753 110.197L263.593 96.0633L258.474 99.0183L257.379 97.1217L257.639 96.9717C259.25 96.0417 260.306 95.0509 260.774 93.8804C261.171 92.8888 261.118 91.7765 260.621 90.4354L260.493 90.0936L262.909 88.6986L274.429 108.652L271.753 110.197ZM288.845 100.848C284.974 103.083 281.009 102.636 278.572 99.4352L281.135 97.5744C282.95 99.8176 285.436 99.8028 287.644 98.5278C290.528 96.8628 291.037 94.1442 289.432 91.3642C287.872 88.6622 285.356 87.7246 282.342 89.4646C280.601 90.4696 279.803 91.7271 279.297 93.3704L276.411 94.5516L272.502 83.1602L283.569 76.7702L285.009 79.2644L275.994 84.4694L278.046 90.6633L278.128 90.6852C278.78 89.2348 279.757 88.0472 281.55 87.0122C286.018 84.4322 290.004 86.115 292.104 89.7523C294.249 93.4675 293.729 98.0281 288.845 100.848Z" fill="black"/>
</g>
<defs>
<clipPath id="clip0_1696_13750">
<rect x="262.61" y="203.143" width="91" height="45" rx="15" transform="rotate(30 262.61 203.143)" fill="white"/>
</clipPath>
<clipPath id="clip1_1696_13750">
<rect x="218.729" y="102.128" width="91" height="45" rx="15" transform="rotate(-30 218.729 102.128)" fill="white"/>
</clipPath>
</defs>
</svg>
