<svg width="900" height="500" viewBox="0 0 900 500" fill="none" xmlns="http://www.w3.org/2000/svg">
<path d="M400.165 88.2449C402.835 90.9149 403.265 92.4049 403.935 96.2749C406.675 110.405 406.015 127.655 403.935 146.225L399.965 149.055L316.095 197.785C314.865 198.495 314.065 198.855 313.255 198.845C312.435 198.845 311.635 198.485 310.415 197.785L290.495 186.275L286.525 183.445C285.425 167.665 285.045 152.045 286.525 136.855C286.525 128.395 287.935 127.755 292.185 125.065L373.465 77.4649C375.785 76.1149 378.095 76.4549 380.965 76.8249C387.285 78.5449 394.375 82.8649 400.175 88.2449H400.165Z" fill="#B8AB8A" stroke="#1F1F1F" stroke-width="1.5" stroke-miterlimit="10"/>
<path d="M313.366 144.535C314.696 153.005 313.246 186.365 313.186 195.875L313.366 144.535Z" fill="#B8AB8A"/>
<path d="M313.366 144.535C314.696 153.005 313.246 186.365 313.186 195.875" stroke="#1F1F1F" stroke-width="1.5" stroke-miterlimit="10"/>
<path d="M289.985 128.545C295.205 129.235 306.935 136.255 313.045 141.125L289.985 128.545Z" fill="#B8AB8A"/>
<path d="M289.985 128.545C295.205 129.235 306.935 136.255 313.045 141.125" stroke="#1F1F1F" stroke-width="1.5" stroke-miterlimit="10"/>
<path d="M299.475 137.095C299.475 137.095 297.325 142.985 297.325 165.895C297.325 170.175 297.325 188.325 297.325 188.325" fill="#B8AB8A"/>
<path d="M299.475 137.095C299.475 137.095 297.325 142.985 297.325 165.895C297.325 170.175 297.325 188.325 297.325 188.325" stroke="#1F1F1F" stroke-width="1.5" stroke-miterlimit="10"/>
<path d="M307.066 141.694C309.736 144.364 310.166 145.854 310.836 149.724C313.576 163.854 312.916 181.104 310.836 199.674L306.866 202.504L222.996 251.234C221.766 251.944 220.966 252.304 220.156 252.294C219.336 252.294 218.536 251.934 217.316 251.234L197.396 239.724L193.426 236.894C192.326 221.114 191.946 205.494 193.426 190.304C193.426 181.844 194.836 181.204 199.086 178.514L280.366 130.914C282.686 129.564 284.996 129.904 287.866 130.274C294.186 131.994 301.276 136.314 307.076 141.694H307.066Z" fill="#B8AB8A" stroke="#1F1F1F" stroke-width="1.5" stroke-miterlimit="10"/>
<path d="M220.265 197.985C221.595 206.455 220.145 239.815 220.085 249.325L220.265 197.985Z" fill="#B8AB8A"/>
<path d="M220.265 197.985C221.595 206.455 220.145 239.815 220.085 249.325" stroke="#1F1F1F" stroke-width="1.5" stroke-miterlimit="10"/>
<path d="M196.885 181.984C202.105 182.674 213.835 189.694 219.945 194.564L196.885 181.984Z" fill="#B8AB8A"/>
<path d="M196.885 181.984C202.105 182.674 213.835 189.694 219.945 194.564" stroke="#1F1F1F" stroke-width="1.5" stroke-miterlimit="10"/>
<path d="M206.375 190.544C206.375 190.544 204.225 196.434 204.225 219.344C204.225 223.624 204.225 241.774 204.225 241.774" fill="#B8AB8A"/>
<path d="M206.375 190.544C206.375 190.544 204.225 196.434 204.225 219.344C204.225 223.624 204.225 241.774 204.225 241.774" stroke="#1F1F1F" stroke-width="1.5" stroke-miterlimit="10"/>
<path d="M382.186 103.194C379.516 105.864 379.086 107.354 378.416 111.224C375.676 125.354 376.336 142.604 378.416 161.174L382.386 164.004L466.256 212.734C467.486 213.444 468.286 213.804 469.096 213.794C469.916 213.794 470.716 213.434 471.936 212.734L491.855 201.224L495.825 198.394C496.925 182.614 497.305 166.994 495.825 151.804C495.825 143.344 494.416 142.704 490.166 140.014L408.886 92.414C406.566 91.064 404.256 91.404 401.386 91.774C395.066 93.494 387.975 97.814 382.175 103.194H382.186Z" fill="#B8AB8A" stroke="#1F1F1F" stroke-width="1.5" stroke-miterlimit="10"/>
<path d="M468.985 159.475C467.655 167.945 469.105 201.305 469.165 210.815L468.985 159.475Z" fill="#B8AB8A"/>
<path d="M468.985 159.475C467.655 167.945 469.105 201.305 469.165 210.815" stroke="#1F1F1F" stroke-width="1.5" stroke-miterlimit="10"/>
<path d="M492.366 143.484C487.146 144.174 475.416 151.194 469.306 156.064L492.366 143.484Z" fill="#B8AB8A"/>
<path d="M492.366 143.484C487.146 144.174 475.416 151.194 469.306 156.064" stroke="#1F1F1F" stroke-width="1.5" stroke-miterlimit="10"/>
<path d="M482.875 152.034C482.875 152.034 485.025 157.924 485.025 180.834V203.264" fill="#B8AB8A"/>
<path d="M482.875 152.034C482.875 152.034 485.025 157.924 485.025 180.834V203.264" stroke="#1F1F1F" stroke-width="1.5" stroke-miterlimit="10"/>
<path d="M289.715 183.764L288.515 184.464C286.805 185.454 285.755 187.274 285.755 189.254C284.455 197.944 284.505 206.544 285.755 215.064L289.725 217.894L373.595 266.624C374.825 267.334 375.625 267.694 376.435 267.684C377.255 267.684 378.055 267.324 379.275 266.624L463.135 218.164L467.105 215.334V189.524C467.105 187.544 466.055 185.724 464.345 184.734C464.345 184.734 445.395 173.684 424.245 161.294C421.635 159.764 418.985 158.214 416.345 156.664C392.255 142.544 380.175 135.424 380.175 135.424C377.855 134.074 374.995 134.074 372.675 135.424C372.675 135.424 359.145 141.634 334.115 155.334C309.095 169.034 289.715 183.764 289.715 183.764Z" fill="#B8AB8A" stroke="#1F1F1F" stroke-width="1.5" stroke-miterlimit="10"/>
<path d="M464.774 194.335C441.864 209.595 403.214 230.675 377.984 243.435L464.774 194.335Z" fill="#B8AB8A"/>
<path d="M464.774 194.335C441.864 209.595 403.214 230.675 377.984 243.435" stroke="#1F1F1F" stroke-width="1.5" stroke-miterlimit="10"/>
<path d="M376.765 265.145C375.255 256.325 376.115 248.105 376.115 239.795L376.765 265.145Z" fill="#B8AB8A"/>
<path d="M376.765 265.145C375.255 256.325 376.115 248.105 376.115 239.795" stroke="#1F1F1F" stroke-width="1.5" stroke-miterlimit="10"/>
<path d="M196.985 237.045L195.785 237.745C194.075 238.735 193.025 240.555 193.025 242.535C191.725 251.225 191.775 259.825 193.025 268.345L196.995 271.175L280.865 319.905C282.095 320.615 282.895 320.975 283.705 320.965C284.525 320.965 285.325 320.605 286.545 319.905L370.405 271.445L374.375 268.615V242.805C374.375 240.825 373.325 239.005 371.615 238.015C371.615 238.015 352.665 226.965 331.515 214.575C328.905 213.045 326.255 211.495 323.615 209.945C299.525 195.825 287.445 188.705 287.445 188.705C285.125 187.355 282.265 187.355 279.945 188.705C279.945 188.705 266.415 194.915 241.385 208.615C216.365 222.315 196.985 237.045 196.985 237.045Z" fill="#B8AB8A" stroke="#1F1F1F" stroke-width="1.5" stroke-miterlimit="10"/>
<path d="M372.034 247.614C349.124 262.874 310.474 283.954 285.244 296.714L372.034 247.614Z" fill="#B8AB8A"/>
<path d="M372.034 247.614C349.124 262.874 310.474 283.954 285.244 296.714" stroke="#1F1F1F" stroke-width="1.5" stroke-miterlimit="10"/>
<path d="M284.025 318.424C282.515 309.604 283.375 301.384 283.375 293.074L284.025 318.424Z" fill="#B8AB8A"/>
<path d="M284.025 318.424C282.515 309.604 283.375 301.384 283.375 293.074" stroke="#1F1F1F" stroke-width="1.5" stroke-miterlimit="10"/>
<path d="M475.285 156.635C472.615 159.305 472.185 160.795 471.515 164.665C468.775 178.795 469.435 196.045 471.515 214.615L475.485 217.445L559.355 266.175C560.585 266.885 561.385 267.245 562.195 267.235C563.015 267.235 563.815 266.875 565.035 266.175L584.955 254.665L588.925 251.835C590.025 236.055 590.405 220.435 588.925 205.245C588.925 196.785 587.515 196.145 583.265 193.455L501.985 145.855C499.665 144.505 497.355 144.845 494.485 145.215C488.165 146.935 481.075 151.255 475.275 156.635H475.285Z" fill="#B8AB8A" stroke="#1F1F1F" stroke-width="1.5" stroke-miterlimit="10"/>
<path d="M562.085 212.925C560.755 221.395 562.205 254.755 562.265 264.265L562.085 212.925Z" fill="#B8AB8A"/>
<path d="M562.085 212.925C560.755 221.395 562.205 254.755 562.265 264.265" stroke="#1F1F1F" stroke-width="1.5" stroke-miterlimit="10"/>
<path d="M585.465 196.935C580.245 197.625 568.515 204.645 562.405 209.515L585.465 196.935Z" fill="#B8AB8A"/>
<path d="M585.465 196.935C580.245 197.625 568.515 204.645 562.405 209.515" stroke="#1F1F1F" stroke-width="1.5" stroke-miterlimit="10"/>
<path d="M575.975 205.486C575.975 205.486 578.125 211.376 578.125 234.286V256.716" fill="#B8AB8A"/>
<path d="M575.975 205.486C575.975 205.486 578.125 211.376 578.125 234.286V256.716" stroke="#1F1F1F" stroke-width="1.5" stroke-miterlimit="10"/>
<path d="M381.795 237.045L380.595 237.745C378.885 238.735 377.835 240.555 377.835 242.535C376.535 251.225 376.585 259.825 377.835 268.345L381.805 271.175L465.675 319.905C466.905 320.615 467.705 320.975 468.515 320.965C469.335 320.965 470.135 320.605 471.355 319.905L555.215 271.445L559.185 268.615V242.805C559.185 240.825 558.135 239.005 556.425 238.015C556.425 238.015 537.475 226.965 516.325 214.575C513.715 213.045 511.065 211.495 508.425 209.945C484.335 195.825 472.255 188.705 472.255 188.705C469.935 187.355 467.075 187.355 464.755 188.705C464.755 188.705 451.225 194.915 426.195 208.615C401.175 222.315 381.795 237.045 381.795 237.045Z" fill="#B8AB8A" stroke="#1F1F1F" stroke-width="1.5" stroke-miterlimit="10"/>
<path d="M556.854 247.615C533.944 262.875 495.294 283.955 470.064 296.715L556.854 247.615Z" fill="#B8AB8A"/>
<path d="M556.854 247.615C533.944 262.875 495.294 283.955 470.064 296.715" stroke="#1F1F1F" stroke-width="1.5" stroke-miterlimit="10"/>
<path d="M468.845 318.424C467.335 309.604 468.195 301.384 468.195 293.074L468.845 318.424Z" fill="#B8AB8A"/>
<path d="M468.845 318.424C467.335 309.604 468.195 301.384 468.195 293.074" stroke="#1F1F1F" stroke-width="1.5" stroke-miterlimit="10"/>
<path d="M479.295 203.705C479.555 202.355 480.295 201.115 480.615 199.805C484.545 183.995 491.795 167.645 494.025 163.685C494.875 162.185 496.105 159.675 496.905 158.105C497.425 157.085 497.615 154.785 498.165 153.785C498.835 151.855 500.255 149.135 501.825 150.485C515.595 160.035 530.915 167.645 546.585 175.195C547.935 175.975 548.545 177.605 548.035 179.075C547.595 180.035 546.615 181.815 546.215 182.805C544.075 188.115 541.775 193.405 539.465 199.625C536.175 208.505 533.725 216.765 530.725 225.915C530.185 227.575 530.335 229.785 529.695 231.375C529.025 233.305 526.765 234.145 524.995 233.125C522.915 232.565 521.255 230.835 519.365 230.005C503.625 223.165 492.945 216.235 483.025 207.575C481.675 206.795 478.785 205.165 479.295 203.695V203.705Z" fill="#B8AB8A" stroke="#1F1F1F" stroke-width="1.5" stroke-miterlimit="10"/>
<path d="M546.455 180.274C540.665 189.184 528.205 227.144 528.985 231.134" stroke="#1F1F1F" stroke-width="1.5" stroke-miterlimit="10"/>
<path d="M516.014 214.475C505.354 207.565 494.494 201.335 483.384 196.025L483.274 196.005C481.334 195.205 477.944 196.695 476.294 200.695C474.644 204.695 475.364 209.675 477.304 210.475C486.734 217.565 497.814 223.615 510.054 228.945C511.994 229.745 515.694 227.155 517.334 223.155C518.984 219.155 517.954 215.275 516.024 214.475H516.014Z" fill="#B8AB8A" stroke="#1F1F1F" stroke-width="1.5" stroke-miterlimit="10"/>
<path d="M509.705 228.165C508.445 227.275 507.875 224.255 509.525 220.255C511.175 216.255 513.105 214.945 514.805 214.795" stroke="#1F1F1F" stroke-width="1.5" stroke-miterlimit="10"/>
<path d="M476.785 203.915C486.015 210.195 496.575 216.115 508.255 221.725" stroke="#1F1F1F" stroke-width="1.5" stroke-miterlimit="10"/>
<path d="M501.995 215.615C501.815 215.795 500.975 218.265 500.975 218.265L503.375 219.375L504.415 216.755L501.995 215.615Z" fill="#B8AB8A" stroke="#1F1F1F" stroke-width="1.5" stroke-miterlimit="10"/>
<path d="M567.506 210.085C564.836 212.755 564.406 214.245 563.736 218.115C560.996 232.245 561.656 249.495 563.736 268.065L567.706 270.895L651.576 319.625C652.806 320.335 653.606 320.695 654.416 320.685C655.236 320.685 656.036 320.325 657.256 319.625L677.176 308.115L681.146 305.285C682.246 289.505 682.626 273.885 681.146 258.695C681.146 250.235 679.736 249.595 675.486 246.905L594.206 199.305C591.886 197.955 589.576 198.295 586.706 198.665C580.386 200.385 573.296 204.705 567.496 210.085H567.506Z" fill="#B8AB8A" stroke="#1F1F1F" stroke-width="1.5" stroke-miterlimit="10"/>
<path d="M654.306 266.365C652.976 274.835 654.426 308.195 654.486 317.705L654.306 266.365Z" fill="#B8AB8A"/>
<path d="M654.306 266.365C652.976 274.835 654.426 308.195 654.486 317.705" stroke="#1F1F1F" stroke-width="1.5" stroke-miterlimit="10"/>
<path d="M677.686 250.375C672.466 251.065 660.736 258.085 654.626 262.955L677.686 250.375Z" fill="#B8AB8A"/>
<path d="M677.686 250.375C672.466 251.065 660.736 258.085 654.626 262.955" stroke="#1F1F1F" stroke-width="1.5" stroke-miterlimit="10"/>
<path d="M668.195 258.925C668.195 258.925 670.345 264.815 670.345 287.725V310.155" fill="#B8AB8A"/>
<path d="M668.195 258.925C668.195 258.925 670.345 264.815 670.345 287.725V310.155" stroke="#1F1F1F" stroke-width="1.5" stroke-miterlimit="10"/>
<path d="M474.027 290.485L472.827 291.185C471.117 292.175 470.067 293.995 470.067 295.975C468.767 304.665 468.817 313.265 470.067 321.785L474.037 324.615L557.907 373.345C559.137 374.055 559.937 374.415 560.747 374.405C561.567 374.405 562.367 374.045 563.587 373.345L647.447 324.885L651.417 322.055V296.245C651.417 294.265 650.367 292.445 648.657 291.455C648.657 291.455 629.707 280.405 608.557 268.015C605.947 266.485 603.297 264.935 600.657 263.385C576.567 249.265 564.487 242.145 564.487 242.145C562.167 240.795 559.307 240.795 556.987 242.145C556.987 242.145 543.457 248.355 518.427 262.055C493.407 275.755 474.027 290.485 474.027 290.485Z" fill="#B8AB8A" stroke="#1F1F1F" stroke-width="1.5" stroke-miterlimit="10"/>
<path d="M649.077 301.056C626.167 316.316 587.517 337.396 562.287 350.156L649.077 301.056Z" fill="#B8AB8A"/>
<path d="M649.077 301.056C626.167 316.316 587.517 337.396 562.287 350.156" stroke="#1F1F1F" stroke-width="1.5" stroke-miterlimit="10"/>
<path d="M561.068 371.866C559.558 363.046 560.418 354.826 560.418 346.516L561.068 371.866Z" fill="#B8AB8A"/>
<path d="M561.068 371.866C559.558 363.046 560.418 354.826 560.418 346.516" stroke="#1F1F1F" stroke-width="1.5" stroke-miterlimit="10"/>
<path d="M381.286 343.765L380.086 344.465C378.376 345.455 377.326 347.275 377.326 349.255C376.026 357.945 376.076 366.545 377.326 375.065L381.296 377.895L465.166 426.625C466.396 427.335 467.196 427.695 468.006 427.685C468.826 427.685 469.626 427.325 470.846 426.625L554.706 378.165L558.676 375.335V349.525C558.676 347.545 557.626 345.725 555.916 344.735C555.916 344.735 536.966 333.685 515.816 321.295C513.206 319.765 510.556 318.215 507.916 316.665C483.826 302.545 471.746 295.425 471.746 295.425C469.426 294.075 466.566 294.075 464.246 295.425C464.246 295.425 450.716 301.635 425.686 315.335C400.666 329.035 381.286 343.765 381.286 343.765Z" fill="#B8AB8A" stroke="#1F1F1F" stroke-width="1.5" stroke-miterlimit="10"/>
<path d="M556.347 354.335C533.437 369.595 494.787 390.675 469.557 403.435L556.347 354.335Z" fill="#B8AB8A"/>
<path d="M556.347 354.335C533.437 369.595 494.787 390.675 469.557 403.435" stroke="#1F1F1F" stroke-width="1.5" stroke-miterlimit="10"/>
<path d="M468.337 425.145C466.827 416.325 467.687 408.105 467.687 399.795L468.337 425.145Z" fill="#B8AB8A"/>
<path d="M468.337 425.145C466.827 416.325 467.687 408.105 467.687 399.795" stroke="#1F1F1F" stroke-width="1.5" stroke-miterlimit="10"/>
<path d="M482.127 344.966C492.787 338.056 503.647 331.826 514.757 326.516L514.867 326.496C516.807 325.696 520.197 327.186 521.847 331.186C523.497 335.186 522.777 340.166 520.837 340.966C511.407 348.056 500.327 354.106 488.087 359.436C486.147 360.236 482.447 357.646 480.807 353.646C479.167 349.646 480.187 345.766 482.117 344.966H482.127Z" fill="#B8AB8A" stroke="#1F1F1F" stroke-width="1.5" stroke-miterlimit="10"/>
<path d="M488.437 358.667C489.697 357.777 490.267 354.757 488.617 350.757C486.967 346.757 485.037 345.447 483.337 345.297" stroke="#1F1F1F" stroke-width="1.5" stroke-miterlimit="10"/>
<path d="M521.357 334.417C512.127 340.697 501.567 346.617 489.887 352.227" stroke="#1F1F1F" stroke-width="1.5" stroke-miterlimit="10"/>
<path d="M551.208 328.726C555.548 315.216 555.938 318.846 556.598 310.496C556.598 307.906 557.108 304.106 552.938 307.196C541.558 308.446 517.298 321.926 507.788 330.206C503.388 330.776 504.608 333.276 504.088 334.376C501.948 338.476 493.798 337.996 488.028 361.086C487.688 363.216 488.418 364.956 489.058 366.546C489.728 368.476 491.988 369.316 493.758 368.296C495.838 367.736 497.418 365.786 499.388 365.176C516.138 359.976 541.588 344.436 543.158 340.656C543.788 338.976 548.988 334.866 551.208 328.726Z" fill="#B8AB8A" stroke="#1F1F1F" stroke-width="1.5" stroke-miterlimit="10"/>
<path d="M492.578 365.856C493.298 362.146 505.648 352.226 510.938 340.136C511.628 338.546 511.128 336.686 509.778 335.596" stroke="#1F1F1F" stroke-width="1.5" stroke-miterlimit="10"/>
<path d="M518.637 335.585C518.637 335.585 538.027 330.925 550.677 316.975L518.637 335.585Z" fill="#B8AB8A"/>
<path d="M518.637 335.585C518.637 335.585 538.027 330.925 550.677 316.975" stroke="#1F1F1F" stroke-width="1.5" stroke-miterlimit="10"/>
<path d="M702.345 262.914C705.015 265.584 705.445 267.074 706.115 270.944C708.855 285.074 708.195 302.325 706.115 320.895L702.145 323.724L618.275 372.454C617.045 373.164 616.245 373.524 615.435 373.514C614.615 373.514 613.815 373.154 612.595 372.454L592.675 360.944L588.705 358.114C587.605 342.334 587.225 326.714 588.705 311.524C588.705 303.064 590.115 302.424 594.365 299.734L675.645 252.134C677.965 250.784 680.275 251.124 683.145 251.494C689.465 253.214 696.555 257.534 702.355 262.914H702.345Z" fill="#B8AB8A" stroke="#1F1F1F" stroke-width="1.5" stroke-miterlimit="10"/>
<path d="M615.555 319.205C616.885 327.675 615.435 361.035 615.375 370.545L615.555 319.205Z" fill="#B8AB8A"/>
<path d="M615.555 319.205C616.885 327.675 615.435 361.035 615.375 370.545" stroke="#1F1F1F" stroke-width="1.5" stroke-miterlimit="10"/>
<path d="M592.165 303.214C597.385 303.904 609.115 310.924 615.225 315.794L592.165 303.214Z" fill="#B8AB8A"/>
<path d="M592.165 303.214C597.385 303.904 609.115 310.924 615.225 315.794" stroke="#1F1F1F" stroke-width="1.5" stroke-miterlimit="10"/>
<path d="M601.666 311.765C601.666 311.765 599.516 317.655 599.516 340.565C599.516 344.845 599.516 362.995 599.516 362.995" fill="#B8AB8A"/>
<path d="M601.666 311.765C601.666 311.765 599.516 317.655 599.516 340.565C599.516 344.845 599.516 362.995 599.516 362.995" stroke="#1F1F1F" stroke-width="1.5" stroke-miterlimit="10"/>
<path d="M579.415 255.354C581.095 253.984 583.135 253.184 584.815 251.864C605.085 235.944 625.075 223.014 645.935 212.864C647.505 212.104 649.325 210.384 650.895 209.654C653.575 207.944 656.555 208.834 657.085 211.514C658.275 222.664 671.715 234.444 673.875 245.404C676.125 256.794 666.435 262.694 669.645 273.884C670.045 275.934 671.435 286.234 669.385 287.544C657.605 288.894 633.725 280.234 617.275 289.554C609.575 293.914 602.635 294.394 592.365 300.804C581.875 307.344 584.125 318.364 572.485 323.964C569.805 325.674 568.665 325.634 568.135 322.954C568.705 319.164 568.135 317.574 568.135 314.084C568.135 290.214 570.065 274.124 576.585 261.124C576.185 259.074 577.365 256.654 579.415 255.344V255.354Z" fill="#B8AB8A" stroke="#1F1F1F" stroke-width="1.5" stroke-miterlimit="10"/>
<path d="M663.235 284.545C663.235 284.545 639.845 278.005 613.665 284.965C608.025 286.465 595.845 294.635 589.895 299.385C577.025 309.675 572.505 323.975 572.505 323.975" stroke="#1F1F1F" stroke-width="1.5" stroke-miterlimit="10"/>
<path d="M443.166 170.635C434.316 150.955 440.296 107.865 433.896 84.1549C433.426 82.3949 434.776 79.9949 434.726 78.1749C435.156 74.9549 432.536 72.1349 429.286 72.3249C403.896 83.7149 361.106 88.5249 332.326 79.8049C329.846 79.9549 327.826 81.8349 327.496 84.2949C326.966 101.085 326.686 118.175 328.456 136.495C329.556 147.905 321.346 160.865 318.906 172.495C318.476 175.715 321.096 178.535 324.346 178.345C354.116 179.465 411.906 181.525 435.406 176.375C437.886 176.225 444.046 172.605 443.166 170.635Z" fill="#B8AB8A" stroke="#1F1F1F" stroke-width="1.5" stroke-miterlimit="10"/>
<path d="M609.246 316.365C611.916 319.035 612.346 320.525 613.016 324.395C615.756 338.525 615.096 355.775 613.016 374.345L609.046 377.175L525.176 425.905C523.946 426.615 523.146 426.975 522.336 426.965C521.516 426.965 520.716 426.605 519.496 425.905L499.576 414.395L495.606 411.565C494.506 395.785 494.126 380.165 495.606 364.975C495.606 356.515 497.016 355.875 501.266 353.185L582.546 305.585C584.866 304.235 587.176 304.575 590.046 304.945C596.366 306.665 603.457 310.985 609.257 316.365H609.246Z" fill="#B8AB8A" stroke="#1F1F1F" stroke-width="1.5" stroke-miterlimit="10"/>
<path d="M522.456 372.645C523.786 381.115 522.336 414.475 522.276 423.985L522.456 372.645Z" fill="#B8AB8A"/>
<path d="M522.456 372.645C523.786 381.115 522.336 414.475 522.276 423.985" stroke="#1F1F1F" stroke-width="1.5" stroke-miterlimit="10"/>
<path d="M499.066 356.655C504.286 357.345 516.016 364.365 522.126 369.235L499.066 356.655Z" fill="#B8AB8A"/>
<path d="M499.066 356.655C504.286 357.345 516.016 364.365 522.126 369.235" stroke="#1F1F1F" stroke-width="1.5" stroke-miterlimit="10"/>
<path d="M508.566 365.205C508.566 365.205 506.416 371.095 506.416 394.005C506.416 398.285 506.416 416.435 506.416 416.435" fill="#B8AB8A"/>
<path d="M508.566 365.205C508.566 365.205 506.416 371.095 506.416 394.005C506.416 398.285 506.416 416.435 506.416 416.435" stroke="#1F1F1F" stroke-width="1.5" stroke-miterlimit="10"/>
<line x1="131.422" y1="274.156" x2="447.66" y2="456.736" stroke="black" stroke-width="3"/>
<g clip-path="url(#clip0_1696_11407)">
<rect x="260.472" y="324.414" width="91.3833" height="45" rx="15" transform="rotate(30 260.472 324.414)" fill="#FAFAF1"/>
<path d="M265.322 366.381C261.113 363.951 259.775 360.269 261.71 356.017L264.521 357.328C263.187 360.299 263.925 362.561 266.731 364.181C269.822 365.966 272.129 365.15 273.389 362.968C274.784 360.551 273.994 358.259 271.163 356.624L269.292 355.544L270.567 353.336L272.412 354.401C274.802 355.781 276.888 355.288 278.028 353.313C279.273 351.157 278.292 349.136 275.928 347.771C273.2 346.196 271.009 346.871 269.321 349.014L266.925 347.284C269.467 343.902 273.061 343.137 277.218 345.537C281.375 347.937 282.576 351.436 280.761 354.58C279.546 356.684 277.786 357.573 275.019 357.084L274.989 357.136C277.409 359.365 277.524 361.926 276.054 364.472C273.864 368.265 269.634 368.871 265.322 366.381ZM279.121 373.863C284.162 367.352 290.295 363.029 296.643 360.735L285.653 354.39L287.108 351.87L301.553 360.21L300.428 362.159C292.765 364.212 286.672 368.766 281.849 375.438L279.121 373.863ZM297.364 384.396C302.405 377.884 308.538 373.561 314.885 371.268L303.895 364.923L305.35 362.402L319.795 370.742L318.67 372.691C311.007 374.744 304.914 379.298 300.092 385.971L297.364 384.396Z" fill="black"/>
</g>
<line x1="85.0576" y1="203.089" x2="338.639" y2="56.6839" stroke="black" stroke-width="3"/>
<g clip-path="url(#clip1_1696_11407)">
<rect x="158.913" y="129.685" width="98" height="45" rx="15" transform="rotate(-30 158.913 129.685)" fill="#FAFAF1"/>
<path d="M194.246 147.969C192.281 144.565 192.483 141.435 194.797 137.223L196.831 133.486C198.248 130.901 198.576 129.188 197.436 127.213C196.071 124.849 193.791 124.26 191.089 125.82C188.413 127.365 187.72 129.705 189.22 132.303L189.415 132.641L186.817 134.141L186.667 133.881C184.387 129.932 185.489 125.901 189.776 123.426C193.777 121.116 197.765 121.723 200.03 125.646C201.5 128.192 201.49 130.935 199.13 135.068L197.879 137.28C196.044 140.522 195.559 142.084 196.229 143.602L207.218 137.257L208.613 139.674L194.246 147.969ZM221.741 123.053L224.683 121.008L225.913 123.139L222.656 124.638L225.656 129.834L223.188 131.259L220.188 126.063L210.35 132.124L209.255 130.227L210.109 112.206L214.136 109.881L221.741 123.053ZM219.273 124.478L212.673 113.046L212.595 113.091L211.889 128.429L219.273 124.478ZM237.321 123.099L229.161 108.966L224.043 111.921L222.948 110.024L223.208 109.874C224.818 108.944 225.874 107.953 226.342 106.783C226.739 105.791 226.686 104.679 226.189 103.338L226.061 102.996L228.477 101.601L239.997 121.554L237.321 123.099Z" fill="black"/>
</g>
<defs>
<clipPath id="clip0_1696_11407">
<rect x="260.472" y="324.414" width="91.3833" height="45" rx="15" transform="rotate(30 260.472 324.414)" fill="white"/>
</clipPath>
<clipPath id="clip1_1696_11407">
<rect x="158.913" y="129.685" width="98" height="45" rx="15" transform="rotate(-30 158.913 129.685)" fill="white"/>
</clipPath>
</defs>
</svg>
