<svg width="900" height="500" viewBox="0 0 900 500" fill="none" xmlns="http://www.w3.org/2000/svg">
<line x1="176.096" y1="320.897" x2="402.841" y2="451.808" stroke="black" stroke-width="3"/>
<g clip-path="url(#clip0_1696_13039)">
<rect x="261.18" y="345.771" width="89.5785" height="45" rx="15" transform="rotate(30 261.18 345.771)" fill="#FAFAF1"/>
<path d="M258.769 383.062C260.734 379.659 263.546 378.268 268.351 378.167L272.604 378.059C275.552 377.994 277.199 377.421 278.339 375.447C279.704 373.082 279.074 370.813 276.372 369.253C273.696 367.708 271.323 368.278 269.823 370.876L269.628 371.214L267.03 369.714L267.18 369.454C269.46 365.505 273.502 364.444 277.789 366.919C281.79 369.229 283.258 372.986 280.993 376.91C279.523 379.456 277.143 380.818 272.384 380.842L269.842 380.864C266.117 380.896 264.523 381.257 263.542 382.596L274.532 388.941L273.137 391.357L258.769 383.062ZM279.555 395.063C284.596 388.551 290.729 384.228 297.076 381.935L286.087 375.59L287.542 373.069L301.987 381.409L300.862 383.358C293.199 385.411 287.105 389.965 282.283 396.638L279.555 395.063ZM293.3 402.999C295.265 399.595 298.077 398.205 302.882 398.103L307.135 397.996C310.083 397.931 311.73 397.358 312.87 395.383C314.235 393.019 313.605 390.75 310.903 389.19C308.227 387.645 305.854 388.215 304.354 390.813L304.159 391.151L301.561 389.651L301.711 389.391C303.991 385.442 308.033 384.381 312.32 386.856C316.321 389.166 317.789 392.923 315.524 396.846C314.054 399.392 311.674 400.755 306.915 400.778L304.373 400.8C300.648 400.832 299.054 401.193 298.073 402.532L309.063 408.877L307.668 411.294L293.3 402.999Z" fill="black"/>
</g>
<line x1="125.059" y1="253.089" x2="378.64" y2="106.684" stroke="black" stroke-width="3"/>
<g clip-path="url(#clip1_1696_13039)">
<rect x="191.99" y="190.198" width="104" height="45" rx="15" transform="rotate(-30 191.99 190.198)" fill="#FAFAF1"/>
<path d="M227.08 208.621C225.115 205.218 225.317 202.088 227.631 197.876L229.665 194.139C231.082 191.554 231.409 189.84 230.269 187.866C228.904 185.502 226.624 184.913 223.922 186.473C221.246 188.018 220.553 190.358 222.053 192.956L222.248 193.293L219.65 194.793L219.5 194.534C217.22 190.585 218.322 186.553 222.609 184.078C226.61 181.768 230.598 182.376 232.863 186.299C234.333 188.845 234.323 191.588 231.964 195.721L230.712 197.933C228.877 201.175 228.393 202.736 229.062 204.255L240.052 197.91L241.447 200.326L227.08 208.621ZM246.591 197.357C244.626 193.953 244.827 190.823 247.142 186.612L249.176 182.874C250.593 180.289 250.92 178.576 249.78 176.601C248.415 174.237 246.135 173.648 243.433 175.208C240.757 176.753 240.064 179.093 241.564 181.691L241.759 182.029L239.161 183.529L239.011 183.269C236.731 179.32 237.833 175.289 242.12 172.814C246.121 170.504 250.109 171.111 252.374 175.034C253.844 177.58 253.834 180.323 251.475 184.456L250.223 186.669C248.388 189.91 247.904 191.472 248.573 192.991L259.563 186.646L260.958 189.062L246.591 197.357ZM273.538 182.353C268.55 185.233 263.875 183.255 259.9 176.371C255.925 169.486 256.565 164.474 261.553 161.594C266.516 158.729 271.176 160.681 275.151 167.566C279.126 174.45 278.501 179.488 273.538 182.353ZM272.233 180.092C275.845 178.007 275.507 174.184 272.552 169.066C269.597 163.947 266.455 161.744 262.843 163.829C259.232 165.914 259.569 169.737 262.524 174.856C265.479 179.974 268.622 182.177 272.233 180.092Z" fill="black"/>
</g>
<path d="M437.571 141.189C440.241 143.859 440.671 145.349 441.341 149.219C444.081 163.349 443.421 180.599 441.341 199.169L437.371 201.999L353.501 250.729C352.271 251.439 351.471 251.799 350.661 251.789C349.841 251.789 349.041 251.429 347.821 250.729L327.901 239.219L323.931 236.389C322.831 220.609 322.451 204.989 323.931 189.799C323.931 181.339 325.341 180.699 329.591 178.009L410.871 130.409C413.191 129.059 415.501 129.399 418.371 129.769C424.691 131.489 431.781 135.809 437.581 141.189H437.571Z" fill="#B8AB8A" stroke="#1F1F1F" stroke-width="1.5" stroke-miterlimit="10"/>
<path d="M350.783 197.48C352.113 205.95 350.663 239.31 350.603 248.82L350.783 197.48Z" fill="#B8AB8A"/>
<path d="M350.783 197.48C352.113 205.95 350.663 239.31 350.603 248.82" stroke="#1F1F1F" stroke-width="1.5" stroke-miterlimit="10"/>
<path d="M327.392 181.49C332.612 182.18 344.342 189.2 350.452 194.07L327.392 181.49Z" fill="#B8AB8A"/>
<path d="M327.392 181.49C332.612 182.18 344.342 189.2 350.452 194.07" stroke="#1F1F1F" stroke-width="1.5" stroke-miterlimit="10"/>
<path d="M336.891 190.04C336.891 190.04 334.741 195.93 334.741 218.84C334.741 223.12 334.741 241.27 334.741 241.27" fill="#B8AB8A"/>
<path d="M336.891 190.04C336.891 190.04 334.741 195.93 334.741 218.84C334.741 223.12 334.741 241.27 334.741 241.27" stroke="#1F1F1F" stroke-width="1.5" stroke-miterlimit="10"/>
<path d="M419.601 156.13C416.931 158.8 416.501 160.29 415.831 164.16C413.091 178.29 413.751 195.54 415.831 214.11L419.801 216.94L503.671 265.67C504.901 266.38 505.701 266.74 506.511 266.73C507.331 266.73 508.131 266.37 509.351 265.67L529.271 254.16L533.241 251.33C534.341 235.55 534.721 219.93 533.241 204.74C533.241 196.28 531.831 195.64 527.581 192.95L446.301 145.35C443.981 144 441.671 144.34 438.801 144.71C432.481 146.43 425.391 150.75 419.591 156.13H419.601Z" fill="#B8AB8A" stroke="#1F1F1F" stroke-width="1.5" stroke-miterlimit="10"/>
<path d="M506.391 212.42C505.061 220.89 506.511 254.25 506.571 263.76L506.391 212.42Z" fill="#B8AB8A"/>
<path d="M506.391 212.42C505.061 220.89 506.511 254.25 506.571 263.76" stroke="#1F1F1F" stroke-width="1.5" stroke-miterlimit="10"/>
<path d="M529.78 196.429C524.56 197.119 512.83 204.139 506.72 209.009L529.78 196.429Z" fill="#B8AB8A"/>
<path d="M529.78 196.429C524.56 197.119 512.83 204.139 506.72 209.009" stroke="#1F1F1F" stroke-width="1.5" stroke-miterlimit="10"/>
<path d="M520.29 204.979C520.29 204.979 522.44 210.869 522.44 233.779V256.209" fill="#B8AB8A"/>
<path d="M520.29 204.979C520.29 204.979 522.44 210.869 522.44 233.779V256.209" stroke="#1F1F1F" stroke-width="1.5" stroke-miterlimit="10"/>
<path d="M512.7 209.58C510.03 212.25 509.6 213.74 508.93 217.61C506.19 231.74 506.85 248.99 508.93 267.56L512.9 270.39L596.77 319.12C598 319.83 598.8 320.19 599.61 320.18C600.43 320.18 601.23 319.82 602.45 319.12L622.37 307.61L626.34 304.78C627.44 289 627.82 273.38 626.34 258.19C626.34 249.73 624.93 249.09 620.68 246.4L539.4 198.8C537.08 197.45 534.77 197.79 531.9 198.16C525.58 199.88 518.49 204.2 512.69 209.58H512.7Z" fill="#B8AB8A" stroke="#1F1F1F" stroke-width="1.5" stroke-miterlimit="10"/>
<path d="M599.49 265.87C598.16 274.34 599.61 307.7 599.67 317.21L599.49 265.87Z" fill="#B8AB8A"/>
<path d="M599.49 265.87C598.16 274.34 599.61 307.7 599.67 317.21" stroke="#1F1F1F" stroke-width="1.5" stroke-miterlimit="10"/>
<path d="M622.881 249.87C617.661 250.56 605.931 257.58 599.821 262.45L622.881 249.87Z" fill="#B8AB8A"/>
<path d="M622.881 249.87C617.661 250.56 605.931 257.58 599.821 262.45" stroke="#1F1F1F" stroke-width="1.5" stroke-miterlimit="10"/>
<path d="M613.38 258.429C613.38 258.429 615.53 264.319 615.53 287.229V309.659" fill="#B8AB8A"/>
<path d="M613.38 258.429C613.38 258.429 615.53 264.319 615.53 287.229V309.659" stroke="#1F1F1F" stroke-width="1.5" stroke-miterlimit="10"/>
<path d="M326.191 237.33L324.991 238.03C323.281 239.02 322.231 240.84 322.231 242.82C320.931 251.51 320.981 260.11 322.231 268.63L326.201 271.46L410.071 320.19C411.301 320.9 412.101 321.26 412.911 321.25C413.731 321.25 414.531 320.89 415.751 320.19L499.611 271.73L503.581 268.9V243.09C503.581 241.11 502.531 239.29 500.821 238.3C500.821 238.3 481.871 227.25 460.721 214.86C458.111 213.33 455.461 211.78 452.821 210.23C428.731 196.11 416.651 188.99 416.651 188.99C414.331 187.64 411.471 187.64 409.151 188.99C409.151 188.99 395.621 195.2 370.591 208.9C345.571 222.6 326.191 237.33 326.191 237.33Z" fill="#B8AB8A" stroke="#1F1F1F" stroke-width="1.5" stroke-miterlimit="10"/>
<path d="M501.25 247.91C478.34 263.17 439.69 284.25 414.46 297.01L501.25 247.91Z" fill="#B8AB8A"/>
<path d="M501.25 247.91C478.34 263.17 439.69 284.25 414.46 297.01" stroke="#1F1F1F" stroke-width="1.5" stroke-miterlimit="10"/>
<path d="M413.241 318.72C411.731 309.9 412.591 301.68 412.591 293.37L413.241 318.72Z" fill="#B8AB8A"/>
<path d="M413.241 318.72C411.731 309.9 412.591 301.68 412.591 293.37" stroke="#1F1F1F" stroke-width="1.5" stroke-miterlimit="10"/>
<path d="M250.421 280.769C248.711 281.759 247.661 283.579 247.661 285.559C246.541 293.709 246.691 302.369 247.661 311.369L251.631 314.199L335.501 362.929C336.731 363.639 337.531 363.999 338.341 363.989C339.161 363.989 339.961 363.629 341.181 362.929L406.871 324.999L410.841 322.169V296.359C410.841 294.379 409.791 292.559 408.081 291.569L406.881 290.869C406.881 290.869 381.301 273.429 363.041 263.639C344.781 253.849 323.921 242.259 323.921 242.259C321.601 240.909 318.741 240.909 316.421 242.259C316.421 242.259 296.751 252.129 286.511 258.109C276.281 264.079 250.421 280.769 250.421 280.769Z" fill="#B8AB8A" stroke="#1F1F1F" stroke-width="1.5" stroke-miterlimit="10"/>
<path d="M339.2 362.049C337.69 353.229 338.55 344.199 338.55 335.889L339.2 362.049Z" fill="#B8AB8A"/>
<path d="M339.2 362.049C337.69 353.229 338.55 344.199 338.55 335.889" stroke="#1F1F1F" stroke-width="1.5" stroke-miterlimit="10"/>
<path d="M409.72 301.42C386.81 316.68 365.12 327.82 339.89 340.58L409.72 301.42Z" fill="#B8AB8A"/>
<path d="M409.72 301.42C386.81 316.68 365.12 327.82 339.89 340.58" stroke="#1F1F1F" stroke-width="1.5" stroke-miterlimit="10"/>
<path d="M419.21 289.979L418.01 290.679C416.3 291.669 415.25 293.489 415.25 295.469C413.95 304.159 414 312.759 415.25 321.279L419.22 324.109L503.09 372.839C504.32 373.549 505.12 373.909 505.93 373.899C506.75 373.899 507.55 373.539 508.77 372.839L592.63 324.379L596.6 321.549V295.739C596.6 293.759 595.55 291.939 593.84 290.949C593.84 290.949 574.89 279.899 553.74 267.509C551.13 265.979 548.48 264.429 545.84 262.879C521.75 248.759 509.67 241.639 509.67 241.639C507.35 240.289 504.49 240.289 502.17 241.639C502.17 241.639 488.64 247.849 463.61 261.549C438.59 275.249 419.21 289.979 419.21 289.979Z" fill="#B8AB8A" stroke="#1F1F1F" stroke-width="1.5" stroke-miterlimit="10"/>
<path d="M594.269 300.559C571.359 315.819 532.709 336.899 507.479 349.659L594.269 300.559Z" fill="#B8AB8A"/>
<path d="M594.269 300.559C571.359 315.819 532.709 336.899 507.479 349.659" stroke="#1F1F1F" stroke-width="1.5" stroke-miterlimit="10"/>
<path d="M506.26 371.369C504.75 362.549 505.61 354.329 505.61 346.019L506.26 371.369Z" fill="#B8AB8A"/>
<path d="M506.26 371.369C504.75 362.549 505.61 354.329 505.61 346.019" stroke="#1F1F1F" stroke-width="1.5" stroke-miterlimit="10"/>
<path d="M520.359 258.449C520.619 257.099 521.359 255.859 521.679 254.549C525.609 238.739 532.859 222.389 535.089 218.429C535.939 216.929 537.169 214.419 537.969 212.849C538.489 211.829 538.679 209.529 539.229 208.529C539.899 206.599 541.319 203.879 542.889 205.229C556.659 214.779 571.979 222.389 587.649 229.939C588.999 230.719 589.609 232.349 589.099 233.819C588.659 234.779 587.679 236.559 587.279 237.549C585.139 242.859 582.839 248.149 580.529 254.369C577.239 263.249 574.789 271.509 571.789 280.659C571.249 282.319 571.399 284.529 570.759 286.119C570.089 288.049 567.829 288.889 566.059 287.869C563.979 287.309 562.319 285.579 560.429 284.749C544.689 277.909 534.009 270.979 524.089 262.319C522.739 261.539 519.849 259.909 520.359 258.439V258.449Z" fill="#B8AB8A" stroke="#1F1F1F" stroke-width="1.5" stroke-miterlimit="10"/>
<path d="M587.51 235.029C581.72 243.939 569.26 281.899 570.04 285.889" stroke="#1F1F1F" stroke-width="1.5" stroke-miterlimit="10"/>
<path d="M557.08 269.219C546.42 262.309 535.56 256.079 524.45 250.769L524.34 250.749C522.4 249.949 519.01 251.439 517.36 255.439C515.71 259.439 516.43 264.419 518.37 265.219C527.8 272.309 538.88 278.359 551.12 283.689C553.06 284.489 556.76 281.899 558.4 277.899C560.05 273.899 559.02 270.019 557.09 269.219H557.08Z" fill="#B8AB8A" stroke="#1F1F1F" stroke-width="1.5" stroke-miterlimit="10"/>
<path d="M550.77 282.92C549.51 282.03 548.94 279.01 550.59 275.01C552.24 271.01 554.17 269.7 555.87 269.55" stroke="#1F1F1F" stroke-width="1.5" stroke-miterlimit="10"/>
<path d="M517.851 258.67C527.081 264.95 537.641 270.87 549.321 276.48" stroke="#1F1F1F" stroke-width="1.5" stroke-miterlimit="10"/>
<path d="M543.06 270.369C542.88 270.549 542.04 273.019 542.04 273.019L544.44 274.129L545.48 271.509L543.06 270.369Z" fill="#B8AB8A" stroke="#1F1F1F" stroke-width="1.5" stroke-miterlimit="10"/>
<path d="M647.539 262.42C650.209 265.09 650.639 266.58 651.309 270.45C654.049 284.58 653.389 301.83 651.309 320.4L647.339 323.23L563.469 371.96C562.239 372.67 561.439 373.03 560.629 373.02C559.809 373.02 559.009 372.66 557.789 371.96L537.869 360.45L533.899 357.62C532.799 341.84 532.419 326.22 533.899 311.03C533.899 302.57 535.309 301.93 539.559 299.24L620.839 251.64C623.159 250.29 625.469 250.63 628.339 251C634.659 252.72 641.749 257.04 647.549 262.42H647.539Z" fill="#B8AB8A" stroke="#1F1F1F" stroke-width="1.5" stroke-miterlimit="10"/>
<path d="M560.74 318.699C562.07 327.169 560.62 360.529 560.56 370.039L560.74 318.699Z" fill="#B8AB8A"/>
<path d="M560.74 318.699C562.07 327.169 560.62 360.529 560.56 370.039" stroke="#1F1F1F" stroke-width="1.5" stroke-miterlimit="10"/>
<path d="M537.36 302.71C542.58 303.4 554.31 310.42 560.42 315.29L537.36 302.71Z" fill="#B8AB8A"/>
<path d="M537.36 302.71C542.58 303.4 554.31 310.42 560.42 315.29" stroke="#1F1F1F" stroke-width="1.5" stroke-miterlimit="10"/>
<path d="M546.85 311.26C546.85 311.26 544.7 317.15 544.7 340.06C544.7 344.34 544.7 362.49 544.7 362.49" stroke="#1F1F1F" stroke-width="1.5" stroke-miterlimit="10"/>
<path d="M481.18 224.419C472.33 204.739 478.31 161.649 471.91 137.939C471.44 136.179 472.79 133.779 472.74 131.959C473.17 128.739 470.55 125.919 467.3 126.109C441.91 137.499 399.12 142.309 370.34 133.589C367.86 133.739 365.84 135.619 365.51 138.079C364.98 154.869 364.7 171.959 366.47 190.279C367.57 201.689 359.36 214.649 356.92 226.279C356.49 229.499 359.11 232.319 362.36 232.129C392.13 233.249 449.92 235.309 473.42 230.159C475.9 230.009 482.06 226.389 481.18 224.419Z" fill="#B8AB8A" stroke="#1F1F1F" stroke-width="1.5" stroke-miterlimit="10"/>
<defs>
<clipPath id="clip0_1696_13039">
<rect x="261.18" y="345.771" width="89.5785" height="45" rx="15" transform="rotate(30 261.18 345.771)" fill="white"/>
</clipPath>
<clipPath id="clip1_1696_13039">
<rect x="191.99" y="190.198" width="104" height="45" rx="15" transform="rotate(-30 191.99 190.198)" fill="white"/>
</clipPath>
</defs>
</svg>
