<svg width="900" height="400" viewBox="0 0 900 400" fill="none" xmlns="http://www.w3.org/2000/svg">
<path d="M351.599 156.069C352.929 164.539 351.479 197.899 351.419 207.409L351.599 156.069Z" fill="#B8AB8A"/>
<path d="M351.599 156.069C352.929 164.539 351.479 197.899 351.419 207.409" stroke="#1F1F1F" stroke-width="1.5" stroke-miterlimit="10"/>
<path d="M328.219 140.069C333.439 140.759 345.169 147.779 351.279 152.649L328.219 140.069Z" fill="#B8AB8A"/>
<path d="M328.219 140.069C333.439 140.759 345.169 147.779 351.279 152.649" stroke="#1F1F1F" stroke-width="1.5" stroke-miterlimit="10"/>
<path d="M337.709 148.629C337.709 148.629 335.559 154.519 335.559 177.429C335.559 181.709 335.559 199.859 335.559 199.859" fill="#B8AB8A"/>
<path d="M337.709 148.629C337.709 148.629 335.559 154.519 335.559 177.429C335.559 181.709 335.559 199.859 335.559 199.859" stroke="#1F1F1F" stroke-width="1.5" stroke-miterlimit="10"/>
<path d="M404.66 111.692C408.3 114.552 409.11 115.962 409.78 119.832C412.52 133.962 411.86 152.382 409.78 170.952L405.81 173.782L340.06 211.592C338.83 212.302 338.03 212.662 337.22 212.652C336.4 212.652 335.6 212.292 334.38 211.592L314.46 200.082L310.49 197.252C309.39 181.472 309.01 165.852 310.49 150.662C310.49 142.202 311.9 141.562 316.15 138.872L380.28 101.992C382.6 100.642 386.09 101.182 388.57 102.072C394.16 104.192 399.55 107.292 404.66 111.682V111.692Z" fill="#B8AB8A" stroke="#1F1F1F" stroke-width="1.5" stroke-miterlimit="10"/>
<path d="M337.34 157.32C338.67 165.79 337.22 199.15 337.16 208.66L337.34 157.32Z" fill="#B8AB8A"/>
<path d="M337.34 157.32C338.67 165.79 337.22 199.15 337.16 208.66" stroke="#1F1F1F" stroke-width="1.5" stroke-miterlimit="10"/>
<path d="M323.45 149.881C323.45 149.881 321.3 158.031 321.3 178.681V201.111" fill="#B8AB8A"/>
<path d="M323.45 149.881C323.45 149.881 321.3 158.031 321.3 178.681V201.111" stroke="#1F1F1F" stroke-width="1.5" stroke-miterlimit="10"/>
<path d="M313.4 142.073C318.62 142.763 330.35 149.783 336.46 154.653L313.4 142.073Z" fill="#B8AB8A"/>
<path d="M313.4 142.073C318.62 142.763 330.35 149.783 336.46 154.653" stroke="#1F1F1F" stroke-width="1.5" stroke-miterlimit="10"/>
<path d="M343.35 183.642C341.64 184.632 340.59 186.452 340.59 188.432C339.4 196.452 339.54 205.122 340.59 214.242L344.56 217.072L410.25 255.002C411.48 255.712 412.28 256.072 413.09 256.062C413.91 256.062 414.71 255.702 415.93 255.002L481.62 217.072L485.59 214.242V188.432C485.59 186.452 484.54 184.632 482.83 183.642L481.63 182.942C481.63 182.942 463.78 171.462 448.25 162.332C432.72 153.202 416.84 145.132 416.84 145.132C414.52 143.782 411.66 143.782 409.34 145.132C409.34 145.132 394.69 152.692 380.52 160.302C366.35 167.902 343.35 183.642 343.35 183.642Z" fill="#B8AB8A" stroke="#1F1F1F" stroke-width="1.5" stroke-miterlimit="10"/>
<path d="M484.471 193.072C461.561 208.332 439.871 219.472 414.641 232.232L484.471 193.072Z" fill="#B8AB8A"/>
<path d="M484.471 193.072C461.561 208.332 439.871 219.472 414.641 232.232" stroke="#1F1F1F" stroke-width="1.5" stroke-miterlimit="10"/>
<path d="M413.1 252.322C411.59 243.502 412.45 236.312 412.45 228.002L413.1 252.322Z" fill="#B8AB8A"/>
<path d="M413.1 252.322C411.59 243.502 412.45 236.312 412.45 228.002" stroke="#1F1F1F" stroke-width="1.5" stroke-miterlimit="10"/>
<path d="M495.339 154.172C491.699 157.032 490.889 158.442 490.219 162.312C487.479 176.442 488.139 194.862 490.219 213.432L494.189 216.262L559.939 254.072C561.169 254.782 561.969 255.142 562.779 255.132C563.599 255.132 564.399 254.772 565.619 254.072L585.539 242.562L589.509 239.732C590.609 223.952 590.989 208.332 589.509 193.142C589.509 184.682 588.099 184.042 583.849 181.352L519.719 144.472C517.399 143.122 513.909 143.662 511.429 144.552C505.839 146.672 500.449 149.772 495.339 154.162V154.172Z" fill="#B8AB8A" stroke="#1F1F1F" stroke-width="1.5" stroke-miterlimit="10"/>
<path d="M562.66 199.801C561.33 208.271 562.78 241.631 562.84 251.141L562.66 199.801Z" fill="#B8AB8A"/>
<path d="M562.66 199.801C561.33 208.271 562.78 241.631 562.84 251.141" stroke="#1F1F1F" stroke-width="1.5" stroke-miterlimit="10"/>
<path d="M576.551 192.361C576.551 192.361 578.701 200.511 578.701 221.161V243.591" fill="#B8AB8A"/>
<path d="M576.551 192.361C576.551 192.361 578.701 200.511 578.701 221.161V243.591" stroke="#1F1F1F" stroke-width="1.5" stroke-miterlimit="10"/>
<path d="M586.599 184.553C581.379 185.243 569.649 192.263 563.539 197.133L586.599 184.553Z" fill="#B8AB8A"/>
<path d="M586.599 184.553C581.379 185.243 569.649 192.263 563.539 197.133" stroke="#1F1F1F" stroke-width="1.5" stroke-miterlimit="10"/>
<path d="M417.28 226.402C415.57 227.392 414.52 229.212 414.52 231.192C413.33 239.212 413.47 247.882 414.52 257.002L418.49 259.832L484.18 297.762C485.41 298.472 486.21 298.832 487.02 298.822C487.84 298.822 488.64 298.462 489.86 297.762L555.55 259.832L559.52 257.002V231.192C559.52 229.212 558.47 227.392 556.76 226.402L555.56 225.702C555.56 225.702 537.71 214.222 522.18 205.092C506.65 195.962 490.77 187.892 490.77 187.892C488.45 186.542 485.59 186.542 483.27 187.892C483.27 187.892 468.62 195.452 454.45 203.062C440.28 210.662 417.28 226.402 417.28 226.402Z" fill="#B8AB8A" stroke="#1F1F1F" stroke-width="1.5" stroke-miterlimit="10"/>
<path d="M558.4 235.832C535.49 251.092 513.8 262.232 488.57 274.992L558.4 235.832Z" fill="#B8AB8A"/>
<path d="M558.4 235.832C535.49 251.092 513.8 262.232 488.57 274.992" stroke="#1F1F1F" stroke-width="1.5" stroke-miterlimit="10"/>
<path d="M487.03 295.082C485.52 286.262 486.38 279.072 486.38 270.762L487.03 295.082Z" fill="#B8AB8A"/>
<path d="M487.03 295.082C485.52 286.262 486.38 279.072 486.38 270.762" stroke="#1F1F1F" stroke-width="1.5" stroke-miterlimit="10"/>
<path d="M484.53 201.944C484.79 200.594 485.53 199.354 485.85 198.044C489.78 182.234 497.03 165.884 499.26 161.924C500.11 160.424 501.34 157.914 502.14 156.344C502.66 155.324 502.85 153.024 503.4 152.024C504.07 150.094 505.49 147.374 507.06 148.724C520.83 158.274 536.15 165.884 551.82 173.434C553.17 174.214 553.78 175.844 553.27 177.314C552.83 178.274 551.85 180.054 551.45 181.044C549.31 186.354 547.01 191.644 544.7 197.864C541.41 206.744 538.96 215.004 535.96 224.154C535.42 225.814 535.57 228.024 534.93 229.614C534.26 231.544 532 232.384 530.23 231.364C528.15 230.804 526.49 229.074 524.6 228.244C508.86 221.404 498.18 214.474 488.26 205.814C486.91 205.034 484.02 203.404 484.53 201.934V201.944Z" fill="#B8AB8A" stroke="#1F1F1F" stroke-width="1.5" stroke-miterlimit="10"/>
<path d="M551.681 178.524C545.891 187.434 533.431 225.394 534.211 229.384" stroke="#1F1F1F" stroke-width="1.5" stroke-miterlimit="10"/>
<path d="M409.22 151.111C408.96 149.761 407.91 148.281 407.67 146.941C407.08 143.711 404.68 135.611 403.63 132.101C403.3 131.011 402.22 128.201 401.8 126.171C401.13 124.241 400.58 123.211 398.81 124.231C398.08 124.731 397.02 126.531 396.28 127.031C384.69 134.951 372.25 142.581 359.05 148.741C357.25 149.581 354.19 148.401 352.41 149.261C351.06 150.041 352.26 153.481 352.77 154.951C354.06 157.561 358.34 169.351 358.13 177.771C358.8 179.701 361.1 183.851 362.87 182.831C367.67 180.031 368.8 177.501 371.95 176.001C385.39 169.641 397.49 161.731 407.08 153.971C408.43 153.191 409.73 152.571 409.22 151.101V151.111Z" fill="#B8AB8A" stroke="#1F1F1F" stroke-width="1.5" stroke-miterlimit="10"/>
<path d="M370.821 175.331C372.811 166.691 368.051 154.621 362.831 150.131" stroke="#1F1F1F" stroke-width="1.5" stroke-miterlimit="10"/>
<path d="M373.551 173.562C375.541 164.922 370.781 152.852 365.561 148.362" stroke="#1F1F1F" stroke-width="1.5" stroke-miterlimit="10"/>
<path d="M367.472 156.202L366.212 153.842L368.432 152.842L369.642 155.172C368.898 155.682 367.472 156.202 367.472 156.202Z" fill="#1F1F1F" stroke="#1F1F1F" stroke-width="1.5" stroke-miterlimit="10"/>
<line x1="274.479" y1="229.489" x2="450.634" y2="331.192" stroke="black" stroke-width="3"/>
<g clip-path="url(#clip0_1696_14655)">
<rect x="330.621" y="237.655" width="98" height="45" rx="15" transform="rotate(30 330.621 237.655)" fill="#FAFAF1"/>
<path d="M336.507 279.735L344.667 265.602L339.549 262.647L340.644 260.75L340.904 260.9C342.514 261.83 343.901 262.249 345.148 262.069C346.205 261.917 347.142 261.315 348.055 260.214L348.287 259.932L350.703 261.327L339.183 281.28L336.507 279.735ZM369.105 274.827C369.526 277.218 368.988 279.47 367.008 282.9C363.453 289.057 358.917 293.193 352.734 289.623C349.278 287.628 347.814 284.705 348.651 281.516L351.5 282.641C351.064 284.295 351.589 286.087 354.005 287.482C357.226 289.342 360.271 288.329 363.78 282.491C361.617 283.598 359.169 283.397 356.805 282.032C352.908 279.782 351.739 275.747 354.079 271.694C356.389 267.693 360.536 266.45 364.927 268.985C367.265 270.335 368.645 272.205 369.105 274.827ZM358.44 280.1C360.778 281.45 363.584 281.269 365.761 278.82C366.554 277.026 366.592 275.939 366.337 274.822C365.958 273.079 364.91 271.954 363.611 271.204C360.961 269.674 358.316 270.295 356.726 273.049C355.106 275.855 355.816 278.585 358.44 280.1ZM388.616 286.091C389.037 288.482 388.499 290.735 386.519 294.164C382.964 300.322 378.428 304.458 372.245 300.888C368.789 298.893 367.325 295.969 368.162 292.78L371.011 293.905C370.575 295.559 371.099 297.352 373.516 298.747C376.737 300.607 379.782 299.593 383.291 293.756C381.128 294.862 378.68 294.662 376.316 293.297C372.419 291.047 371.25 287.011 373.59 282.958C375.9 278.957 380.047 277.714 384.438 280.249C386.776 281.599 388.155 283.47 388.616 286.091ZM377.951 291.365C380.289 292.715 383.095 292.534 385.272 290.084C386.065 288.29 386.103 287.204 385.848 286.087C385.469 284.343 384.421 283.219 383.122 282.469C380.472 280.939 377.827 281.56 376.237 284.314C374.617 287.119 375.327 289.85 377.951 291.365Z" fill="black"/>
</g>
<line x1="227.841" y1="148.616" x2="375.39" y2="63.4288" stroke="black" stroke-width="3"/>
<g clip-path="url(#clip1_1696_14655)">
<rect x="250.438" y="108.382" width="91" height="45" rx="15" transform="rotate(-30 250.438 108.382)" fill="#FAFAF1"/>
<path d="M289.635 124.435L281.475 110.301L276.357 113.256L275.262 111.359L275.522 111.209C277.132 110.279 278.189 109.289 278.656 108.118C279.053 107.127 279 106.014 278.503 104.673L278.375 104.331L280.791 102.936L292.311 122.89L289.635 124.435ZM303.463 116.451L295.303 102.318L290.184 105.273L289.089 103.376L289.349 103.226C290.96 102.296 292.016 101.305 292.484 100.135C292.881 99.1431 292.828 98.0307 292.331 96.6896L292.202 96.3479L294.619 94.9529L306.139 114.906L303.463 116.451ZM320.555 107.102C316.684 109.337 312.719 108.89 310.282 105.689L312.845 103.829C314.66 106.072 317.146 106.057 319.354 104.782C322.238 103.117 322.747 100.398 321.142 97.6185C319.582 94.9165 317.066 93.9788 314.052 95.7188C312.311 96.7238 311.513 97.9814 311.007 99.6246L308.121 100.806L304.211 89.4145L315.279 83.0245L316.719 85.5186L307.704 90.7236L309.756 96.9175L309.838 96.9395C310.49 95.4891 311.467 94.3014 313.26 93.2664C317.728 90.6864 321.714 92.3692 323.814 96.0065C325.959 99.7218 325.439 104.282 320.555 107.102Z" fill="black"/>
</g>
<defs>
<clipPath id="clip0_1696_14655">
<rect x="330.621" y="237.655" width="98" height="45" rx="15" transform="rotate(30 330.621 237.655)" fill="white"/>
</clipPath>
<clipPath id="clip1_1696_14655">
<rect x="250.438" y="108.382" width="91" height="45" rx="15" transform="rotate(-30 250.438 108.382)" fill="white"/>
</clipPath>
</defs>
</svg>
