<svg width="900" height="400" viewBox="0 0 900 400" fill="none" xmlns="http://www.w3.org/2000/svg">
<path d="M441.951 69.6148C439.281 72.2848 438.851 73.7748 438.181 77.6448C435.441 91.7748 436.101 109.025 438.181 127.595L442.151 130.425L526.021 179.155C527.251 179.865 528.051 180.225 528.861 180.215C529.681 180.215 530.481 179.855 531.701 179.155L551.621 167.645L555.591 164.815C556.691 149.035 557.071 133.415 555.591 118.225C555.591 109.765 554.181 109.125 549.931 106.435L468.651 58.8348C466.331 57.4848 464.021 57.8248 461.151 58.1948C454.831 59.9148 447.741 64.2348 441.941 69.6148H441.951Z" fill="#B8AB8A" stroke="#1F1F1F" stroke-width="1.5" stroke-miterlimit="10"/>
<path d="M528.751 125.895C527.421 134.365 528.871 167.725 528.931 177.235L528.751 125.895Z" fill="#B8AB8A"/>
<path d="M528.751 125.895C527.421 134.365 528.871 167.725 528.931 177.235" stroke="#1F1F1F" stroke-width="1.5" stroke-miterlimit="10"/>
<path d="M552.13 109.905C546.91 110.595 535.18 117.615 529.07 122.485L552.13 109.905Z" fill="#B8AB8A"/>
<path d="M552.13 109.905C546.91 110.595 535.18 117.615 529.07 122.485" stroke="#1F1F1F" stroke-width="1.5" stroke-miterlimit="10"/>
<path d="M542.641 118.455C542.641 118.455 544.791 124.345 544.791 147.255V169.685" fill="#B8AB8A"/>
<path d="M542.641 118.455C542.641 118.455 544.791 124.345 544.791 147.255V169.685" stroke="#1F1F1F" stroke-width="1.5" stroke-miterlimit="10"/>
<path d="M348.471 150.015L347.271 150.715C345.561 151.705 344.511 153.525 344.511 155.505C343.211 164.195 343.261 172.795 344.511 181.315L348.481 184.145L432.351 232.875C433.581 233.585 434.381 233.945 435.191 233.935C436.011 233.935 436.811 233.575 438.031 232.875L521.891 184.415L525.861 181.585V155.775C525.861 153.795 524.811 151.975 523.101 150.985C523.101 150.985 504.151 139.935 483.001 127.545C480.391 126.015 477.741 124.465 475.101 122.915C451.011 108.795 438.931 101.675 438.931 101.675C436.611 100.325 433.751 100.325 431.431 101.675C431.431 101.675 417.901 107.885 392.871 121.585C367.851 135.285 348.471 150.015 348.471 150.015Z" fill="#B8AB8A" stroke="#1F1F1F" stroke-width="1.5" stroke-miterlimit="10"/>
<path d="M523.52 160.585C500.61 175.845 461.96 196.925 436.73 209.685L523.52 160.585Z" fill="#B8AB8A"/>
<path d="M523.52 160.585C500.61 175.845 461.96 196.925 436.73 209.685" stroke="#1F1F1F" stroke-width="1.5" stroke-miterlimit="10"/>
<path d="M435.511 231.395C434.001 222.575 434.861 214.355 434.861 206.045L435.511 231.395Z" fill="#B8AB8A"/>
<path d="M435.511 231.395C434.001 222.575 434.861 214.355 434.861 206.045" stroke="#1F1F1F" stroke-width="1.5" stroke-miterlimit="10"/>
<path d="M528.751 125.895C527.421 134.365 528.871 167.725 528.931 177.235L528.751 125.895Z" fill="#B8AB8A"/>
<path d="M528.751 125.895C527.421 134.365 528.871 167.725 528.931 177.235" stroke="#1F1F1F" stroke-width="1.5" stroke-miterlimit="10"/>
<path d="M552.13 109.905C546.91 110.595 535.18 117.615 529.07 122.485L552.13 109.905Z" fill="#B8AB8A"/>
<path d="M552.13 109.905C546.91 110.595 535.18 117.615 529.07 122.485" stroke="#1F1F1F" stroke-width="1.5" stroke-miterlimit="10"/>
<path d="M542.641 118.454C542.641 118.454 544.791 124.344 544.791 147.254V169.684" fill="#B8AB8A"/>
<path d="M542.641 118.454C542.641 118.454 544.791 124.344 544.791 147.254V169.684" stroke="#1F1F1F" stroke-width="1.5" stroke-miterlimit="10"/>
<path d="M255.772 204.114L254.572 204.814C252.862 205.804 251.812 207.624 251.812 209.604C250.512 218.294 250.562 226.894 251.812 235.414L255.782 238.244L339.652 286.974C340.882 287.684 341.682 288.044 342.492 288.034C343.312 288.034 344.112 287.674 345.332 286.974L429.192 238.514L433.162 235.684V209.874C433.162 207.894 432.112 206.074 430.402 205.084C430.402 205.084 411.452 194.034 390.302 181.644C387.692 180.114 385.042 178.564 382.402 177.014C358.312 162.894 346.232 155.774 346.232 155.774C343.912 154.424 341.052 154.424 338.732 155.774C338.732 155.774 325.202 161.984 300.172 175.684C275.152 189.384 255.772 204.114 255.772 204.114Z" fill="#B8AB8A" stroke="#1F1F1F" stroke-width="1.5" stroke-miterlimit="10"/>
<path d="M430.831 214.695C407.921 229.955 369.271 251.035 344.041 263.795L430.831 214.695Z" fill="#B8AB8A"/>
<path d="M430.831 214.695C407.921 229.955 369.271 251.035 344.041 263.795" stroke="#1F1F1F" stroke-width="1.5" stroke-miterlimit="10"/>
<path d="M342.822 285.505C341.312 276.685 342.172 268.465 342.172 260.155L342.822 285.505Z" fill="#B8AB8A"/>
<path d="M342.822 285.505C341.312 276.685 342.172 268.465 342.172 260.155" stroke="#1F1F1F" stroke-width="1.5" stroke-miterlimit="10"/>
<path d="M494.362 147.349C492.422 151.999 491.772 155.939 489.912 160.659C488.482 163.639 484.632 164.909 481.912 163.309C455.382 151.119 430.272 138.889 412.702 124.039C410.632 122.819 409.922 120.289 411.012 118.019C411.672 115.939 413.162 114.039 413.862 111.999C418.082 99.6787 441.882 67.2987 441.882 67.2987C442.552 65.5187 445.472 66.4687 447.082 67.3487C469.692 84.4387 491.352 94.0087 513.472 103.639C516.492 105.299 518.112 108.509 517.592 111.949C517.362 113.439 516.672 117.249 516.952 118.609C519.072 129.049 517.172 133.819 519.952 144.349C520.492 147.399 517.872 150.439 514.502 150.659L494.372 147.339L494.362 147.349Z" fill="#B8AB8A" stroke="#1F1F1F" stroke-width="1.5" stroke-miterlimit="10"/>
<path d="M513.471 112.809C507.541 126.379 498.191 138.179 494.361 147.349L513.471 112.809Z" fill="#B8AB8A"/>
<path d="M513.471 112.809C507.541 126.379 498.191 138.179 494.361 147.349" stroke="#1F1F1F" stroke-width="1.5" stroke-miterlimit="10"/>
<path d="M534.529 123.716C531.859 126.386 531.429 127.876 530.759 131.746C528.019 145.876 528.679 163.126 530.759 181.696L534.729 184.526L618.599 233.256C619.829 233.966 620.629 234.326 621.439 234.316C622.259 234.316 623.059 233.956 624.279 233.256L644.199 221.746L648.169 218.916C649.269 203.136 649.649 187.516 648.169 172.326C648.169 163.866 646.759 163.226 642.509 160.536L561.229 112.936C558.909 111.586 556.599 111.926 553.729 112.296C547.409 114.016 540.319 118.336 534.519 123.716H534.529Z" fill="#B8AB8A" stroke="#1F1F1F" stroke-width="1.5" stroke-miterlimit="10"/>
<path d="M621.329 179.995C619.999 188.465 621.449 221.825 621.509 231.335L621.329 179.995Z" fill="#B8AB8A"/>
<path d="M621.329 179.995C619.999 188.465 621.449 221.825 621.509 231.335" stroke="#1F1F1F" stroke-width="1.5" stroke-miterlimit="10"/>
<path d="M644.708 164.006C639.488 164.696 627.758 171.716 621.648 176.586L644.708 164.006Z" fill="#B8AB8A"/>
<path d="M644.708 164.006C639.488 164.696 627.758 171.716 621.648 176.586" stroke="#1F1F1F" stroke-width="1.5" stroke-miterlimit="10"/>
<path d="M635.219 172.556C635.219 172.556 637.369 178.446 637.369 201.356V223.786" fill="#B8AB8A"/>
<path d="M635.219 172.556C635.219 172.556 637.369 178.446 637.369 201.356V223.786" stroke="#1F1F1F" stroke-width="1.5" stroke-miterlimit="10"/>
<path d="M441.049 204.115L439.849 204.815C438.139 205.805 437.089 207.625 437.089 209.605C435.789 218.295 435.839 226.895 437.089 235.415L441.059 238.245L524.929 286.975C526.159 287.685 526.959 288.045 527.769 288.035C528.589 288.035 529.389 287.675 530.609 286.975L614.469 238.515L618.439 235.685V209.875C618.439 207.895 617.389 206.075 615.679 205.085C615.679 205.085 596.729 194.035 575.579 181.645C572.969 180.115 570.319 178.565 567.679 177.015C543.589 162.895 531.509 155.775 531.509 155.775C529.189 154.425 526.329 154.425 524.009 155.775C524.009 155.775 510.479 161.985 485.449 175.685C460.429 189.385 441.049 204.115 441.049 204.115Z" fill="#B8AB8A" stroke="#1F1F1F" stroke-width="1.5" stroke-miterlimit="10"/>
<path d="M616.099 214.685C593.189 229.945 554.539 251.025 529.309 263.785L616.099 214.685Z" fill="#B8AB8A"/>
<path d="M616.099 214.685C593.189 229.945 554.539 251.025 529.309 263.785" stroke="#1F1F1F" stroke-width="1.5" stroke-miterlimit="10"/>
<path d="M528.089 285.495C526.579 276.675 527.439 268.455 527.439 260.145L528.089 285.495Z" fill="#B8AB8A"/>
<path d="M528.089 285.495C526.579 276.675 527.439 268.455 527.439 260.145" stroke="#1F1F1F" stroke-width="1.5" stroke-miterlimit="10"/>
<path d="M621.329 179.995C619.999 188.465 621.449 221.825 621.509 231.335L621.329 179.995Z" fill="#B8AB8A"/>
<path d="M621.329 179.995C619.999 188.465 621.449 221.825 621.509 231.335" stroke="#1F1F1F" stroke-width="1.5" stroke-miterlimit="10"/>
<path d="M644.708 164.006C639.488 164.696 627.758 171.716 621.648 176.586L644.708 164.006Z" fill="#B8AB8A"/>
<path d="M644.708 164.006C639.488 164.696 627.758 171.716 621.648 176.586" stroke="#1F1F1F" stroke-width="1.5" stroke-miterlimit="10"/>
<path d="M635.219 172.555C635.219 172.555 637.369 178.445 637.369 201.355V223.785" fill="#B8AB8A"/>
<path d="M635.219 172.555C635.219 172.555 637.369 178.445 637.369 201.355V223.785" stroke="#1F1F1F" stroke-width="1.5" stroke-miterlimit="10"/>
<path d="M348.35 258.215L347.15 258.915C345.44 259.905 344.39 261.725 344.39 263.705C343.09 272.395 343.14 280.995 344.39 289.515L348.36 292.345L432.23 341.075C433.46 341.785 434.26 342.145 435.07 342.135C435.89 342.135 436.69 341.775 437.91 341.075L521.77 292.615L525.74 289.785V263.975C525.74 261.995 524.69 260.175 522.98 259.185C522.98 259.185 504.03 248.135 482.88 235.745C480.27 234.215 477.62 232.665 474.98 231.115C450.89 216.995 438.81 209.875 438.81 209.875C436.49 208.525 433.63 208.525 431.31 209.875C431.31 209.875 417.78 216.085 392.75 229.785C367.73 243.485 348.35 258.215 348.35 258.215Z" fill="#B8AB8A" stroke="#1F1F1F" stroke-width="1.5" stroke-miterlimit="10"/>
<path d="M523.409 268.796C500.499 284.056 461.849 305.136 436.619 317.896L523.409 268.796Z" fill="#B8AB8A"/>
<path d="M523.409 268.796C500.499 284.056 461.849 305.136 436.619 317.896" stroke="#1F1F1F" stroke-width="1.5" stroke-miterlimit="10"/>
<path d="M435.4 339.606C433.89 330.786 434.75 322.566 434.75 314.256L435.4 339.606Z" fill="#B8AB8A"/>
<path d="M435.4 339.606C433.89 330.786 434.75 322.566 434.75 314.256" stroke="#1F1F1F" stroke-width="1.5" stroke-miterlimit="10"/>
<path d="M541.618 172.296C541.878 170.946 542.618 169.706 542.938 168.396C546.868 152.586 554.118 136.236 556.348 132.276C557.198 130.776 558.428 128.266 559.228 126.696C559.748 125.676 559.938 123.376 560.488 122.376C561.158 120.446 562.578 117.726 564.148 119.076C577.918 128.626 593.238 136.236 608.908 143.786C610.258 144.566 610.868 146.196 610.358 147.666C609.918 148.626 608.938 150.406 608.538 151.396C606.398 156.706 604.098 161.996 601.788 168.216C598.498 177.096 596.048 185.356 593.048 194.506C592.508 196.166 592.658 198.376 592.018 199.966C591.348 201.896 589.088 202.736 587.318 201.716C585.238 201.156 583.578 199.426 581.688 198.596C565.948 191.756 555.268 184.826 545.348 176.166C543.998 175.386 541.108 173.756 541.618 172.286V172.296Z" fill="#B8AB8A" stroke="#1F1F1F" stroke-width="1.5" stroke-miterlimit="10"/>
<path d="M608.778 148.876C602.988 157.786 590.528 195.746 591.308 199.736" stroke="#1F1F1F" stroke-width="1.5" stroke-miterlimit="10"/>
<path d="M578.339 183.066C567.679 176.156 556.819 169.926 545.709 164.616L545.599 164.596C543.659 163.796 540.269 165.286 538.619 169.286C536.969 173.286 537.689 178.266 539.629 179.066C549.059 186.156 560.139 192.206 572.379 197.536C574.319 198.336 578.019 195.746 579.659 191.746C581.309 187.746 580.279 183.866 578.349 183.066H578.339Z" fill="#B8AB8A" stroke="#1F1F1F" stroke-width="1.5" stroke-miterlimit="10"/>
<path d="M572.029 196.766C570.769 195.876 570.199 192.856 571.849 188.856C573.499 184.856 575.429 183.546 577.129 183.396" stroke="#1F1F1F" stroke-width="1.5" stroke-miterlimit="10"/>
<path d="M539.107 172.516C548.337 178.796 558.897 184.716 570.577 190.326" stroke="#1F1F1F" stroke-width="1.5" stroke-miterlimit="10"/>
<path d="M564.319 184.216C564.139 184.396 563.299 186.866 563.299 186.866L565.699 187.976L566.739 185.356L564.319 184.216Z" fill="#B8AB8A" stroke="#1F1F1F" stroke-width="1.5" stroke-miterlimit="10"/>
<line x1="220.908" y1="254.714" x2="402.068" y2="359.307" stroke="black" stroke-width="3"/>
<g clip-path="url(#clip0_1696_11818)">
<rect x="279.553" y="264.324" width="98" height="45" rx="15" transform="rotate(30 279.553 264.324)" fill="#FAFAF1"/>
<path d="M281.385 304.065C283.35 300.662 286.162 299.271 290.966 299.17L295.22 299.062C298.167 298.997 299.814 298.424 300.954 296.45C302.319 294.085 301.689 291.816 298.987 290.256C296.311 288.711 293.939 289.281 292.439 291.879L292.244 292.217L289.645 290.717L289.795 290.457C292.075 286.508 296.118 285.447 300.404 287.922C304.405 290.232 305.873 293.99 303.608 297.913C302.138 300.459 299.758 301.821 294.999 301.845L292.457 301.867C288.732 301.899 287.138 302.26 286.157 303.599L297.147 309.944L295.752 312.36L281.385 304.065ZM304.949 317.67L313.109 303.536L307.99 300.581L309.085 298.685L309.345 298.835C310.956 299.765 312.342 300.184 313.59 300.003C314.647 299.852 315.584 299.249 316.497 298.148L316.728 297.866L319.145 299.261L307.625 319.215L304.949 317.67ZM321.68 327.884C316.692 325.004 316.067 319.966 320.042 313.081C324.017 306.197 328.677 304.245 333.665 307.125C338.627 309.99 339.267 315.002 335.292 321.886C331.317 328.771 326.642 330.749 321.68 327.884ZM322.985 325.623C326.596 327.708 329.739 325.505 332.694 320.386C335.649 315.268 335.986 311.445 332.375 309.36C328.764 307.275 325.621 309.478 322.666 314.596C319.711 319.715 319.374 323.538 322.985 325.623Z" fill="black"/>
</g>
<line x1="180.111" y1="185.533" x2="433.693" y2="39.128" stroke="black" stroke-width="3"/>
<g clip-path="url(#clip1_1696_11818)">
<rect x="253.967" y="112.13" width="98" height="45" rx="15" transform="rotate(-30 253.967 112.13)" fill="#FAFAF1"/>
<path d="M289.299 130.413C287.334 127.009 287.536 123.879 289.85 119.668L291.884 115.93C293.301 113.345 293.628 111.632 292.488 109.657C291.123 107.293 288.843 106.704 286.141 108.264C283.465 109.809 282.773 112.149 284.273 114.747L284.468 115.085L281.869 116.585L281.719 116.325C279.439 112.376 280.542 108.345 284.828 105.87C288.829 103.56 292.817 104.167 295.082 108.09C296.552 110.637 296.542 113.379 294.183 117.513L292.931 119.725C291.096 122.966 290.612 124.528 291.281 126.047L302.271 119.702L303.666 122.118L289.299 130.413ZM316.794 105.497L319.736 103.452L320.966 105.583L317.709 107.082L320.709 112.278L318.241 113.703L315.241 108.507L305.403 114.568L304.308 112.671L305.162 94.6501L309.189 92.3251L316.794 105.497ZM314.326 106.922L307.726 95.4908L307.648 95.5358L306.942 110.873L314.326 106.922ZM332.374 105.544L324.214 91.4101L319.095 94.3651L318 92.4685L318.26 92.3185C319.871 91.3885 320.927 90.3977 321.395 89.2272C321.792 88.2356 321.739 87.1233 321.242 85.7822L321.113 85.4404L323.53 84.0454L335.05 103.999L332.374 105.544Z" fill="black"/>
</g>
<defs>
<clipPath id="clip0_1696_11818">
<rect x="279.553" y="264.324" width="98" height="45" rx="15" transform="rotate(30 279.553 264.324)" fill="white"/>
</clipPath>
<clipPath id="clip1_1696_11818">
<rect x="253.967" y="112.13" width="98" height="45" rx="15" transform="rotate(-30 253.967 112.13)" fill="white"/>
</clipPath>
</defs>
</svg>
