<svg width="900" height="400" viewBox="0 0 900 400" fill="none" xmlns="http://www.w3.org/2000/svg">
<line x1="191.427" y1="148.422" x2="359.377" y2="51.4555" stroke="black" stroke-width="3"/>
<g clip-path="url(#clip0_1696_14231)">
<rect x="223.027" y="107.233" width="98" height="45" rx="15" transform="rotate(-30 223.027 107.233)" fill="#FAFAF1"/>
<path d="M262.413 123.177L254.253 109.043L249.135 111.998L248.04 110.102L248.3 109.952C249.911 109.022 250.967 108.031 251.434 106.86C251.832 105.869 251.778 104.756 251.281 103.415L251.153 103.073L253.569 101.678L265.089 121.632L262.413 123.177ZM279.569 113.757C275.36 116.187 271.502 115.505 268.787 111.703L271.328 109.924C273.234 112.565 275.562 113.057 278.368 111.437C281.459 109.652 281.906 107.246 280.646 105.064C279.251 102.647 276.871 102.185 274.04 103.82L272.169 104.9L270.894 102.692L272.739 101.627C275.129 100.247 275.745 98.1939 274.605 96.2194C273.36 94.0629 271.119 93.9018 268.755 95.2668C266.027 96.8418 265.516 99.0767 266.528 101.61L263.832 102.82C262.174 98.9278 263.308 95.4324 267.465 93.0324C271.622 90.6324 275.253 91.3419 277.068 94.4855C278.283 96.59 278.173 98.5589 276.366 100.71L276.396 100.762C279.536 99.7808 281.811 100.961 283.281 103.508C285.471 107.301 283.881 111.267 279.569 113.757ZM292.209 88.7922C296.08 86.5572 300.185 87.5473 302.525 91.6003C304.835 95.6014 303.812 99.8293 299.421 102.364C297.109 103.699 294.773 103.974 292.273 103.062C289.992 102.231 288.336 100.624 286.356 97.1944C282.801 91.037 281.487 85.0407 287.67 81.4707C291.1 79.4907 294.39 79.6696 296.707 82.0035L294.308 83.9082C293.094 82.7043 291.279 82.2621 288.863 83.6571C285.668 85.5021 285.023 88.6456 288.309 94.5772C288.421 92.1915 289.871 90.1422 292.209 88.7922ZM298.157 100.115C300.807 98.585 301.592 95.9842 300.002 93.2302C298.382 90.4243 295.688 89.6586 293.038 91.1886C290.726 92.5236 289.491 95.0036 290.468 98.0766C291.655 99.7123 292.566 100.33 293.661 100.667C295.36 101.21 296.884 100.85 298.157 100.115Z" fill="black"/>
</g>
<path d="M503.283 150.351C500.613 153.021 500.183 154.511 499.513 158.381C496.773 172.511 497.433 189.761 499.513 208.331L503.483 211.161L587.353 259.891C588.583 260.601 589.383 260.961 590.193 260.951C591.013 260.951 591.813 260.591 593.033 259.891L612.953 248.381L616.923 245.551C618.023 229.771 618.403 214.151 616.923 198.961C616.923 190.501 615.513 189.861 611.263 187.171L529.983 139.571C527.663 138.221 525.353 138.561 522.483 138.931C516.163 140.651 509.073 144.971 503.273 150.351H503.283Z" fill="#B8AB8A" stroke="#1F1F1F" stroke-width="1.5" stroke-miterlimit="10"/>
<path d="M590.083 206.642C588.753 215.112 590.203 248.472 590.263 257.982L590.083 206.642Z" fill="#B8AB8A"/>
<path d="M590.083 206.642C588.753 215.112 590.203 248.472 590.263 257.982" stroke="#1F1F1F" stroke-width="1.5" stroke-miterlimit="10"/>
<path d="M613.462 190.651C608.242 191.341 596.512 198.361 590.402 203.231L613.462 190.651Z" fill="#B8AB8A"/>
<path d="M613.462 190.651C608.242 191.341 596.512 198.361 590.402 203.231" stroke="#1F1F1F" stroke-width="1.5" stroke-miterlimit="10"/>
<path d="M603.973 199.2C603.973 199.2 606.123 205.09 606.123 228V250.43" fill="#B8AB8A"/>
<path d="M603.973 199.2C603.973 199.2 606.123 205.09 606.123 228V250.43" stroke="#1F1F1F" stroke-width="1.5" stroke-miterlimit="10"/>
<path d="M396.717 97.0713C399.387 99.7413 399.817 101.231 400.487 105.101C403.227 119.231 402.567 136.481 400.487 155.051L396.517 157.881L312.647 206.611C311.417 207.321 310.617 207.681 309.807 207.671C308.987 207.671 308.187 207.311 306.967 206.611L287.047 195.101L283.077 192.271C281.977 176.491 281.597 160.871 283.077 145.681C283.077 137.221 284.487 136.581 288.737 133.891L370.017 86.2913C372.337 84.9413 374.647 85.2813 377.517 85.6513C383.837 87.3713 390.927 91.6913 396.727 97.0713H396.717Z" fill="#B8AB8A" stroke="#1F1F1F" stroke-width="1.5" stroke-miterlimit="10"/>
<path d="M309.917 153.362C311.247 161.832 309.797 195.192 309.737 204.702L309.917 153.362Z" fill="#B8AB8A"/>
<path d="M309.917 153.362C311.247 161.832 309.797 195.192 309.737 204.702" stroke="#1F1F1F" stroke-width="1.5" stroke-miterlimit="10"/>
<path d="M286.537 137.372C291.757 138.062 303.487 145.082 309.597 149.952L286.537 137.372Z" fill="#B8AB8A"/>
<path d="M286.537 137.372C291.757 138.062 303.487 145.082 309.597 149.952" stroke="#1F1F1F" stroke-width="1.5" stroke-miterlimit="10"/>
<path d="M296.027 145.923C296.027 145.923 293.877 151.813 293.877 174.723V197.153" fill="#B8AB8A"/>
<path d="M296.027 145.923C296.027 145.923 293.877 151.813 293.877 174.723V197.153" stroke="#1F1F1F" stroke-width="1.5" stroke-miterlimit="10"/>
<path d="M317.723 177.48L316.523 178.18C314.813 179.17 313.763 180.99 313.763 182.97C312.463 191.66 312.513 200.26 313.763 208.78L317.733 211.61L401.603 260.34C402.833 261.05 403.633 261.41 404.443 261.4C405.263 261.4 406.063 261.04 407.283 260.34L491.143 211.88L495.113 209.05V183.24C495.113 181.26 494.063 179.44 492.353 178.45C492.353 178.45 473.403 167.4 452.253 155.01C449.643 153.48 446.993 151.93 444.353 150.38C420.263 136.26 408.183 129.14 408.183 129.14C405.863 127.79 403.003 127.79 400.683 129.14C400.683 129.14 387.153 135.35 362.123 149.05C337.103 162.75 317.723 177.48 317.723 177.48Z" fill="#B8AB8A" stroke="#1F1F1F" stroke-width="1.5" stroke-miterlimit="10"/>
<path d="M492.772 188.06C469.862 203.32 431.212 224.4 405.982 237.16L492.772 188.06Z" fill="#B8AB8A"/>
<path d="M492.772 188.06C469.862 203.32 431.212 224.4 405.982 237.16" stroke="#1F1F1F" stroke-width="1.5" stroke-miterlimit="10"/>
<path d="M404.763 258.871C403.253 250.051 404.113 241.831 404.113 233.521L404.763 258.871Z" fill="#B8AB8A"/>
<path d="M404.763 258.871C403.253 250.051 404.113 241.831 404.113 233.521" stroke="#1F1F1F" stroke-width="1.5" stroke-miterlimit="10"/>
<path d="M409.803 230.759L408.603 231.459C406.893 232.449 405.843 234.269 405.843 236.249C404.543 244.939 404.593 253.539 405.843 262.059L409.813 264.889L493.683 313.619C494.913 314.329 495.713 314.689 496.523 314.679C497.343 314.679 498.143 314.319 499.363 313.619L583.223 265.159L587.193 262.329V236.519C587.193 234.539 586.143 232.719 584.433 231.729C584.433 231.729 565.483 220.679 544.333 208.289C541.723 206.759 539.073 205.209 536.433 203.659C512.343 189.539 500.263 182.419 500.263 182.419C497.943 181.069 495.083 181.069 492.763 182.419C492.763 182.419 479.233 188.629 454.203 202.329C429.183 216.029 409.803 230.759 409.803 230.759Z" fill="#B8AB8A" stroke="#1F1F1F" stroke-width="1.5" stroke-miterlimit="10"/>
<path d="M584.853 241.329C561.943 256.589 523.292 277.669 498.062 290.429L584.853 241.329Z" fill="#B8AB8A"/>
<path d="M584.853 241.329C561.943 256.589 523.292 277.669 498.062 290.429" stroke="#1F1F1F" stroke-width="1.5" stroke-miterlimit="10"/>
<path d="M496.843 312.14C495.333 303.32 496.193 295.1 496.193 286.79L496.843 312.14Z" fill="#B8AB8A"/>
<path d="M496.843 312.14C495.333 303.32 496.193 295.1 496.193 286.79" stroke="#1F1F1F" stroke-width="1.5" stroke-miterlimit="10"/>
<path d="M554.715 228.693C552.775 233.343 552.125 237.283 550.265 242.003C548.835 244.983 544.985 246.253 542.265 244.653C515.735 232.463 490.625 220.233 473.055 205.383C470.985 204.163 470.275 201.633 471.365 199.363C472.025 197.283 473.515 195.383 474.215 193.343C478.435 181.023 502.235 148.643 502.235 148.643C502.905 146.863 505.825 147.813 507.435 148.693C530.045 165.783 551.705 175.353 573.825 184.983C576.845 186.643 578.465 189.853 577.945 193.293C577.715 194.783 577.025 198.593 577.305 199.953C579.425 210.393 577.525 215.163 580.305 225.693C580.845 228.743 578.225 231.783 574.855 232.003L554.725 228.683L554.715 228.693Z" fill="#B8AB8A" stroke="#1F1F1F" stroke-width="1.5" stroke-miterlimit="10"/>
<path d="M573.826 194.153C567.896 207.723 558.546 219.523 554.716 228.693L573.826 194.153Z" fill="#B8AB8A"/>
<path d="M573.826 194.153C567.896 207.723 558.546 219.523 554.716 228.693" stroke="#1F1F1F" stroke-width="1.5" stroke-miterlimit="10"/>
<path d="M392.497 143.333C392.237 141.983 391.497 140.743 391.177 139.433C387.247 123.623 379.997 107.273 377.767 103.313C376.917 101.813 375.687 99.3027 374.887 97.7327C374.367 96.7127 374.177 94.4127 373.627 93.4127C372.957 91.4827 371.537 88.7626 369.967 90.1126C356.197 99.6626 340.877 107.273 325.207 114.823C323.857 115.603 323.247 117.233 323.757 118.703C324.197 119.663 325.177 121.443 325.577 122.433C327.717 127.743 330.017 133.033 332.327 139.253C335.617 148.133 338.067 156.393 341.067 165.543C341.607 167.203 341.457 169.413 342.097 171.003C342.767 172.933 345.027 173.773 346.797 172.753C348.877 172.193 350.537 170.463 352.427 169.633C368.167 162.793 378.847 155.863 388.767 147.203C390.117 146.423 393.007 144.793 392.497 143.323V143.333Z" fill="#B8AB8A" stroke="#1F1F1F" stroke-width="1.5" stroke-miterlimit="10"/>
<path d="M325.348 119.913C331.138 128.823 343.598 166.783 342.818 170.773" stroke="#1F1F1F" stroke-width="1.5" stroke-miterlimit="10"/>
<path d="M360.207 159.501C370.867 152.591 381.727 146.361 392.837 141.051L392.947 141.031C394.887 140.231 398.277 141.721 399.927 145.721C401.577 149.721 400.857 154.701 398.917 155.501C389.487 162.591 378.407 168.641 366.167 173.971C364.227 174.771 360.527 172.181 358.887 168.181C357.247 164.181 358.267 160.301 360.197 159.501H360.207Z" fill="#B8AB8A" stroke="#1F1F1F" stroke-width="1.5" stroke-miterlimit="10"/>
<path d="M366.517 173.191C367.777 172.301 368.347 169.281 366.697 165.281C365.047 161.281 363.117 159.971 361.417 159.821" stroke="#1F1F1F" stroke-width="1.5" stroke-miterlimit="10"/>
<path d="M399.437 148.942C390.207 155.222 379.647 161.142 367.967 166.752" stroke="#1F1F1F" stroke-width="1.5" stroke-miterlimit="10"/>
<path d="M374.217 160.641C374.397 160.821 375.237 163.291 375.237 163.291L372.837 164.401L371.797 161.781L374.217 160.641Z" fill="#B8AB8A" stroke="#1F1F1F" stroke-width="1.5" stroke-miterlimit="10"/>
<line x1="260.959" y1="221.885" x2="463.375" y2="338.75" stroke="black" stroke-width="3"/>
<g clip-path="url(#clip1_1696_14231)">
<rect x="330.232" y="237.631" width="98" height="45" rx="15" transform="rotate(30 330.232 237.631)" fill="#FAFAF1"/>
<path d="M332.065 277.372C334.03 273.968 336.842 272.578 341.647 272.477L345.9 272.369C348.848 272.304 350.495 271.731 351.635 269.756C353 267.392 352.37 265.123 349.668 263.563C346.992 262.018 344.619 262.588 343.119 265.186L342.924 265.524L340.326 264.024L340.476 263.764C342.756 259.815 346.798 258.754 351.085 261.229C355.086 263.539 356.554 267.296 354.289 271.219C352.819 273.766 350.439 275.128 345.68 275.152L343.138 275.174C339.413 275.206 337.819 275.567 336.838 276.906L347.828 283.251L346.433 285.667L332.065 277.372ZM367.391 288.726L370.632 290.251L369.402 292.381L366.476 290.31L363.476 295.507L361.007 294.082L364.007 288.885L353.84 283.396L354.935 281.5L370.969 273.228L374.996 275.553L367.391 288.726ZM364.922 287.301L371.522 275.869L371.444 275.824L357.809 282.882L364.922 287.301ZM375.14 302.241L383.3 288.108L378.182 285.153L379.277 283.256L379.537 283.406C381.148 284.336 382.534 284.755 383.781 284.575C384.839 284.423 385.775 283.821 386.688 282.72L386.92 282.438L389.336 283.833L377.816 303.786L375.14 302.241Z" fill="black"/>
</g>
<defs>
<clipPath id="clip0_1696_14231">
<rect x="223.027" y="107.233" width="98" height="45" rx="15" transform="rotate(-30 223.027 107.233)" fill="white"/>
</clipPath>
<clipPath id="clip1_1696_14231">
<rect x="330.232" y="237.631" width="98" height="45" rx="15" transform="rotate(30 330.232 237.631)" fill="white"/>
</clipPath>
</defs>
</svg>
