<svg width="900" height="400" viewBox="0 0 900 400" fill="none" xmlns="http://www.w3.org/2000/svg">
<path d="M353.79 62.7947C356.46 65.4647 356.89 66.9547 357.56 70.8247C360.3 84.9547 359.64 102.205 357.56 120.775L353.59 123.605L269.72 172.335C268.49 173.045 267.69 173.405 266.88 173.395C266.06 173.395 265.26 173.035 264.04 172.335L244.12 160.825L240.15 157.995C239.05 142.215 238.67 126.595 240.15 111.405C240.15 102.945 241.56 102.305 245.81 99.6147L327.09 52.0147C329.41 50.6647 331.72 51.0047 334.59 51.3747C340.91 53.0947 348 57.4147 353.8 62.7947H353.79Z" fill="#B8AB8A" stroke="#1F1F1F" stroke-width="1.5" stroke-miterlimit="10"/>
<path d="M266.989 119.085C268.319 127.555 266.869 160.915 266.809 170.425L266.989 119.085Z" fill="#B8AB8A"/>
<path d="M266.989 119.085C268.319 127.555 266.869 160.915 266.809 170.425" stroke="#1F1F1F" stroke-width="1.5" stroke-miterlimit="10"/>
<path d="M243.609 103.094C248.829 103.784 260.559 110.804 266.669 115.674L243.609 103.094Z" fill="#B8AB8A"/>
<path d="M243.609 103.094C248.829 103.784 260.559 110.804 266.669 115.674" stroke="#1F1F1F" stroke-width="1.5" stroke-miterlimit="10"/>
<path d="M253.099 111.645C253.099 111.645 250.949 117.535 250.949 140.445C250.949 144.725 250.949 162.875 250.949 162.875" fill="#B8AB8A"/>
<path d="M253.099 111.645C253.099 111.645 250.949 117.535 250.949 140.445C250.949 144.725 250.949 162.875 250.949 162.875" stroke="#1F1F1F" stroke-width="1.5" stroke-miterlimit="10"/>
<path d="M335.811 77.7449C333.141 80.4149 332.711 81.9049 332.041 85.7749C329.301 99.9049 329.961 117.155 332.041 135.725L336.011 138.555L419.881 187.285C421.111 187.995 421.911 188.355 422.721 188.345C423.541 188.345 424.341 187.985 425.561 187.285L445.48 175.775L449.45 172.945C450.55 157.165 450.93 141.545 449.45 126.355C449.45 117.895 448.04 117.255 443.79 114.565L362.511 66.9649C360.191 65.6149 357.881 65.9549 355.011 66.3249C348.691 68.0449 341.6 72.3649 335.8 77.7449H335.811Z" fill="#B8AB8A" stroke="#1F1F1F" stroke-width="1.5" stroke-miterlimit="10"/>
<path d="M422.61 134.024C421.28 142.494 422.73 175.854 422.79 185.364L422.61 134.024Z" fill="#B8AB8A"/>
<path d="M422.61 134.024C421.28 142.494 422.73 175.854 422.79 185.364" stroke="#1F1F1F" stroke-width="1.5" stroke-miterlimit="10"/>
<path d="M445.99 118.035C440.77 118.725 429.04 125.745 422.93 130.615L445.99 118.035Z" fill="#B8AB8A"/>
<path d="M445.99 118.035C440.77 118.725 429.04 125.745 422.93 130.615" stroke="#1F1F1F" stroke-width="1.5" stroke-miterlimit="10"/>
<path d="M436.5 126.585C436.5 126.585 438.65 132.475 438.65 155.385V177.815" fill="#B8AB8A"/>
<path d="M436.5 126.585C436.5 126.585 438.65 132.475 438.65 155.385V177.815" stroke="#1F1F1F" stroke-width="1.5" stroke-miterlimit="10"/>
<path d="M243.35 158.314L242.15 159.014C240.44 160.004 239.39 161.824 239.39 163.804C238.09 172.494 238.14 181.094 239.39 189.614L243.36 192.444L327.23 241.174C328.46 241.884 329.26 242.244 330.07 242.234C330.89 242.234 331.69 241.874 332.91 241.174L416.77 192.714L420.74 189.884V164.074C420.74 162.094 419.69 160.274 417.98 159.284C417.98 159.284 399.03 148.234 377.88 135.844C375.27 134.314 372.62 132.764 369.98 131.214C345.89 117.094 333.81 109.974 333.81 109.974C331.49 108.624 328.63 108.624 326.31 109.974C326.31 109.974 312.78 116.184 287.75 129.884C262.73 143.584 243.35 158.314 243.35 158.314Z" fill="#B8AB8A" stroke="#1F1F1F" stroke-width="1.5" stroke-miterlimit="10"/>
<path d="M418.399 168.885C395.489 184.145 356.839 205.225 331.609 217.985L418.399 168.885Z" fill="#B8AB8A"/>
<path d="M418.399 168.885C395.489 184.145 356.839 205.225 331.609 217.985" stroke="#1F1F1F" stroke-width="1.5" stroke-miterlimit="10"/>
<path d="M330.39 239.694C328.88 230.874 329.74 222.654 329.74 214.344L330.39 239.694Z" fill="#B8AB8A"/>
<path d="M330.39 239.694C328.88 230.874 329.74 222.654 329.74 214.344" stroke="#1F1F1F" stroke-width="1.5" stroke-miterlimit="10"/>
<path d="M428.91 131.184C426.24 133.854 425.81 135.344 425.14 139.214C422.4 153.344 423.06 170.594 425.14 189.164L429.11 191.994L512.98 240.724C514.21 241.434 515.01 241.794 515.82 241.784C516.64 241.784 517.44 241.424 518.66 240.724L538.58 229.214L542.55 226.384C543.65 210.604 544.03 194.984 542.55 179.794C542.55 171.334 541.14 170.694 536.89 168.004L455.61 120.404C453.29 119.054 450.98 119.394 448.11 119.764C441.79 121.484 434.7 125.804 428.9 131.184H428.91Z" fill="#B8AB8A" stroke="#1F1F1F" stroke-width="1.5" stroke-miterlimit="10"/>
<path d="M515.71 187.474C514.38 195.944 515.83 229.304 515.89 238.814L515.71 187.474Z" fill="#B8AB8A"/>
<path d="M515.71 187.474C514.38 195.944 515.83 229.304 515.89 238.814" stroke="#1F1F1F" stroke-width="1.5" stroke-miterlimit="10"/>
<path d="M539.089 171.474C533.869 172.164 522.139 179.184 516.029 184.054L539.089 171.474Z" fill="#B8AB8A"/>
<path d="M539.089 171.474C533.869 172.164 522.139 179.184 516.029 184.054" stroke="#1F1F1F" stroke-width="1.5" stroke-miterlimit="10"/>
<path d="M529.6 180.035C529.6 180.035 531.75 185.925 531.75 208.835V231.265" fill="#B8AB8A"/>
<path d="M529.6 180.035C529.6 180.035 531.75 185.925 531.75 208.835V231.265" stroke="#1F1F1F" stroke-width="1.5" stroke-miterlimit="10"/>
<path d="M335.43 211.594L334.23 212.294C332.52 213.284 331.47 215.104 331.47 217.084C330.17 225.774 330.22 234.374 331.47 242.894L335.44 245.724L419.31 294.454C420.54 295.164 421.34 295.524 422.15 295.514C422.97 295.514 423.77 295.154 424.99 294.454L508.85 245.994L512.82 243.164V217.354C512.82 215.374 511.77 213.554 510.06 212.564C510.06 212.564 491.11 201.514 469.96 189.124C467.35 187.594 464.7 186.044 462.06 184.494C437.97 170.374 425.89 163.254 425.89 163.254C423.57 161.904 420.71 161.904 418.39 163.254C418.39 163.254 404.86 169.464 379.83 183.164C354.81 196.864 335.43 211.594 335.43 211.594Z" fill="#B8AB8A" stroke="#1F1F1F" stroke-width="1.5" stroke-miterlimit="10"/>
<path d="M510.479 222.165C487.569 237.425 448.919 258.505 423.689 271.265L510.479 222.165Z" fill="#B8AB8A"/>
<path d="M510.479 222.165C487.569 237.425 448.919 258.505 423.689 271.265" stroke="#1F1F1F" stroke-width="1.5" stroke-miterlimit="10"/>
<path d="M422.47 292.975C420.96 284.155 421.82 275.935 421.82 267.625L422.47 292.975Z" fill="#B8AB8A"/>
<path d="M422.47 292.975C420.96 284.155 421.82 275.935 421.82 267.625" stroke="#1F1F1F" stroke-width="1.5" stroke-miterlimit="10"/>
<path d="M432.929 178.255C433.189 176.905 433.929 175.665 434.249 174.355C438.179 158.545 445.429 142.195 447.659 138.235C448.509 136.735 449.739 134.225 450.539 132.655C451.059 131.635 451.249 129.335 451.799 128.335C452.469 126.405 453.889 123.685 455.459 125.035C469.229 134.585 484.549 142.195 500.219 149.745C501.569 150.525 502.179 152.155 501.669 153.625C501.229 154.585 500.249 156.365 499.849 157.355C497.709 162.665 495.409 167.955 493.099 174.175C489.809 183.055 487.359 191.315 484.359 200.465C483.819 202.125 483.969 204.335 483.329 205.925C482.659 207.855 480.399 208.695 478.629 207.675C476.549 207.115 474.889 205.385 472.999 204.555C457.259 197.715 446.579 190.785 436.659 182.125C435.309 181.345 432.419 179.715 432.929 178.245V178.255Z" fill="#B8AB8A" stroke="#1F1F1F" stroke-width="1.5" stroke-miterlimit="10"/>
<path d="M500.079 154.825C494.289 163.735 481.829 201.695 482.609 205.685" stroke="#1F1F1F" stroke-width="1.5" stroke-miterlimit="10"/>
<path d="M469.639 189.025C458.979 182.115 448.119 175.885 437.009 170.575L436.899 170.555C434.959 169.755 431.569 171.245 429.919 175.245C428.269 179.245 428.989 184.225 430.929 185.025C440.359 192.115 451.439 198.165 463.679 203.495C465.619 204.295 469.319 201.705 470.959 197.705C472.609 193.705 471.579 189.825 469.649 189.025H469.639Z" fill="#B8AB8A" stroke="#1F1F1F" stroke-width="1.5" stroke-miterlimit="10"/>
<path d="M463.33 202.714C462.07 201.824 461.5 198.804 463.15 194.804C464.8 190.804 466.73 189.494 468.43 189.344" stroke="#1F1F1F" stroke-width="1.5" stroke-miterlimit="10"/>
<path d="M430.408 178.464C439.638 184.744 450.198 190.664 461.878 196.274" stroke="#1F1F1F" stroke-width="1.5" stroke-miterlimit="10"/>
<path d="M455.629 190.165C455.449 190.345 454.609 192.815 454.609 192.815L457.009 193.925L458.049 191.305L455.629 190.165Z" fill="#B8AB8A" stroke="#1F1F1F" stroke-width="1.5" stroke-miterlimit="10"/>
<path d="M521.131 184.635C518.461 187.305 518.031 188.795 517.361 192.665C514.621 206.795 515.281 224.045 517.361 242.615L521.331 245.445L605.201 294.175C606.431 294.885 607.231 295.245 608.041 295.235C608.861 295.235 609.661 294.875 610.881 294.175L630.801 282.665L634.771 279.835C635.871 264.055 636.251 248.435 634.771 233.245C634.771 224.785 633.361 224.145 629.111 221.455L547.831 173.855C545.511 172.505 543.201 172.845 540.331 173.215C534.011 174.935 526.921 179.255 521.121 184.635H521.131Z" fill="#B8AB8A" stroke="#1F1F1F" stroke-width="1.5" stroke-miterlimit="10"/>
<path d="M607.931 240.915C606.601 249.385 608.051 282.745 608.111 292.255L607.931 240.915Z" fill="#B8AB8A"/>
<path d="M607.931 240.915C606.601 249.385 608.051 282.745 608.111 292.255" stroke="#1F1F1F" stroke-width="1.5" stroke-miterlimit="10"/>
<path d="M631.312 224.924C626.092 225.614 614.362 232.634 608.252 237.504L631.312 224.924Z" fill="#B8AB8A"/>
<path d="M631.312 224.924C626.092 225.614 614.362 232.634 608.252 237.504" stroke="#1F1F1F" stroke-width="1.5" stroke-miterlimit="10"/>
<path d="M621.82 233.475C621.82 233.475 623.97 239.365 623.97 262.275V284.705" fill="#B8AB8A"/>
<path d="M621.82 233.475C621.82 233.475 623.97 239.365 623.97 262.275V284.705" stroke="#1F1F1F" stroke-width="1.5" stroke-miterlimit="10"/>
<path d="M427.651 265.035L426.451 265.735C424.741 266.725 423.691 268.545 423.691 270.525C422.391 279.215 422.441 287.815 423.691 296.335L427.661 299.165L511.531 347.895C512.761 348.605 513.561 348.965 514.371 348.955C515.191 348.955 515.991 348.595 517.211 347.895L601.071 299.435L605.041 296.605V270.795C605.041 268.815 603.991 266.995 602.281 266.005C602.281 266.005 583.331 254.955 562.181 242.565C559.571 241.035 556.921 239.485 554.281 237.935C530.191 223.815 518.111 216.695 518.111 216.695C515.791 215.345 512.931 215.345 510.611 216.695C510.611 216.695 497.081 222.905 472.051 236.605C447.031 250.305 427.651 265.035 427.651 265.035Z" fill="#B8AB8A" stroke="#1F1F1F" stroke-width="1.5" stroke-miterlimit="10"/>
<path d="M602.7 275.604C579.79 290.864 541.14 311.944 515.91 324.704L602.7 275.604Z" fill="#B8AB8A"/>
<path d="M602.7 275.604C579.79 290.864 541.14 311.944 515.91 324.704" stroke="#1F1F1F" stroke-width="1.5" stroke-miterlimit="10"/>
<path d="M514.691 346.414C513.181 337.594 514.041 329.374 514.041 321.064L514.691 346.414Z" fill="#B8AB8A"/>
<path d="M514.691 346.414C513.181 337.594 514.041 329.374 514.041 321.064" stroke="#1F1F1F" stroke-width="1.5" stroke-miterlimit="10"/>
<path d="M655.98 237.465C658.65 240.135 659.08 241.625 659.75 245.495C662.49 259.625 661.83 276.875 659.75 295.445L655.78 298.275L571.91 347.005C570.68 347.715 569.88 348.075 569.07 348.065C568.25 348.065 567.45 347.705 566.23 347.005L546.31 335.495L542.34 332.665C541.24 316.885 540.86 301.265 542.34 286.075C542.34 277.615 543.75 276.975 548 274.285L629.28 226.685C631.6 225.335 633.91 225.675 636.78 226.045C643.1 227.765 650.19 232.085 655.99 237.465H655.98Z" fill="#B8AB8A" stroke="#1F1F1F" stroke-width="1.5" stroke-miterlimit="10"/>
<path d="M569.178 293.755C570.508 302.225 569.058 335.585 568.998 345.095L569.178 293.755Z" fill="#B8AB8A"/>
<path d="M569.178 293.755C570.508 302.225 569.058 335.585 568.998 345.095" stroke="#1F1F1F" stroke-width="1.5" stroke-miterlimit="10"/>
<path d="M545.799 277.764C551.019 278.454 562.749 285.474 568.859 290.344L545.799 277.764Z" fill="#B8AB8A"/>
<path d="M545.799 277.764C551.019 278.454 562.749 285.474 568.859 290.344" stroke="#1F1F1F" stroke-width="1.5" stroke-miterlimit="10"/>
<path d="M555.289 286.315C555.289 286.315 553.139 292.205 553.139 315.115C553.139 319.395 553.139 337.545 553.139 337.545" fill="#B8AB8A"/>
<path d="M555.289 286.315C555.289 286.315 553.139 292.205 553.139 315.115C553.139 319.395 553.139 337.545 553.139 337.545" stroke="#1F1F1F" stroke-width="1.5" stroke-miterlimit="10"/>
<path d="M533.051 229.905C534.731 228.535 536.771 227.735 538.451 226.415C558.721 210.495 578.711 197.565 599.571 187.415C601.141 186.655 602.961 184.935 604.531 184.205C607.211 182.495 610.191 183.385 610.721 186.065C611.911 197.215 625.351 208.995 627.511 219.955C629.761 231.345 620.071 237.245 623.281 248.435C623.681 250.485 625.071 260.785 623.021 262.095C611.241 263.445 587.361 254.785 570.911 264.105C563.211 268.465 556.271 268.945 546.001 275.355C535.511 281.895 537.761 292.915 526.121 298.515C523.441 300.225 522.301 300.185 521.771 297.505C522.341 293.715 521.771 292.125 521.771 288.635C521.771 264.765 523.701 248.675 530.221 235.675C529.821 233.625 531.001 231.205 533.051 229.895V229.905Z" fill="#B8AB8A" stroke="#1F1F1F" stroke-width="1.5" stroke-miterlimit="10"/>
<path d="M616.861 259.094C616.861 259.094 593.471 252.554 567.291 259.514C561.651 261.014 549.471 269.184 543.521 273.934C530.651 284.224 526.131 298.524 526.131 298.524" stroke="#1F1F1F" stroke-width="1.5" stroke-miterlimit="10"/>
<line x1="113.733" y1="126.17" x2="281.684" y2="29.2034" stroke="black" stroke-width="3"/>
<g clip-path="url(#clip0_1696_12528)">
<rect x="145.333" y="84.9816" width="98" height="45" rx="15" transform="rotate(-30 145.333 84.9816)" fill="#FAFAF1"/>
<path d="M184.719 100.925L176.559 86.7912L171.441 89.7462L170.346 87.8496L170.606 87.6996C172.216 86.7696 173.272 85.7788 173.74 84.6083C174.137 83.6167 174.084 82.5044 173.587 81.1633L173.459 80.8215L175.875 79.4265L187.395 99.3797L184.719 100.925ZM201.874 91.5051C197.665 93.9351 193.807 93.2527 191.093 89.4507L193.634 87.6718C195.539 90.3128 197.867 90.8047 200.673 89.1847C203.765 87.3997 204.212 84.9939 202.952 82.8116C201.557 80.3953 199.177 79.9334 196.345 81.5684L194.475 82.6484L193.2 80.44L195.044 79.375C197.434 77.995 198.05 75.9419 196.91 73.9674C195.665 71.811 193.425 71.6498 191.06 73.0148C188.332 74.5898 187.821 76.8247 188.834 79.358L186.138 80.5682C184.479 76.6759 185.613 73.1805 189.77 70.7805C193.927 68.3805 197.559 69.0899 199.374 72.2336C200.589 74.338 200.478 76.307 198.672 78.4583L198.702 78.5103C201.842 77.5288 204.117 78.7095 205.587 81.2556C207.777 85.0488 206.187 89.0151 201.874 91.5051ZM214.515 66.5402C218.386 64.3052 222.491 65.2954 224.831 69.3484C227.141 73.3494 226.118 77.5774 221.727 80.1124C219.415 81.4474 217.079 81.722 214.578 80.8103C212.297 79.9795 210.642 78.3719 208.662 74.9424C205.107 68.785 203.792 62.7888 209.976 59.2188C213.405 57.2388 216.696 57.4176 219.013 59.7516L216.614 61.6563C215.399 60.4523 213.585 60.0102 211.169 61.4052C207.973 63.2502 207.329 66.3936 210.615 72.3253C210.727 69.9396 212.176 67.8902 214.515 66.5402ZM220.463 77.863C223.113 76.333 223.898 73.7322 222.308 70.9783C220.688 68.1723 217.994 67.4066 215.344 68.9366C213.032 70.2716 211.796 72.7517 212.774 75.8246C213.961 77.4603 214.871 78.0777 215.967 78.4152C217.666 78.9583 219.19 78.598 220.463 77.863Z" fill="black"/>
</g>
<line x1="188.922" y1="211.156" x2="505.16" y2="393.736" stroke="black" stroke-width="3"/>
<g clip-path="url(#clip1_1696_12528)">
<rect x="317.972" y="261.414" width="91.3833" height="45" rx="15" transform="rotate(30 317.972 261.414)" fill="#FAFAF1"/>
<path d="M322.822 303.381C318.613 300.951 317.275 297.269 319.21 293.017L322.021 294.328C320.687 297.299 321.425 299.561 324.231 301.181C327.322 302.966 329.629 302.15 330.889 299.968C332.284 297.551 331.494 295.259 328.663 293.624L326.792 292.544L328.067 290.336L329.912 291.401C332.302 292.781 334.388 292.288 335.528 290.313C336.773 288.157 335.792 286.136 333.428 284.771C330.7 283.196 328.509 283.871 326.821 286.014L324.425 284.284C326.967 280.902 330.561 280.137 334.718 282.537C338.875 284.937 340.076 288.436 338.261 291.58C337.046 293.684 335.286 294.573 332.519 294.084L332.489 294.136C334.909 296.365 335.024 298.926 333.554 301.472C331.364 305.265 327.134 305.871 322.822 303.381ZM336.621 310.863C341.662 304.352 347.795 300.029 354.143 297.735L343.153 291.39L344.608 288.87L359.053 297.21L357.928 299.159C350.265 301.212 344.172 305.766 339.349 312.438L336.621 310.863ZM354.864 321.396C359.905 314.884 366.038 310.561 372.385 308.268L361.395 301.923L362.85 299.402L377.295 307.742L376.17 309.691C368.507 311.744 362.414 316.298 357.592 322.971L354.864 321.396Z" fill="black"/>
</g>
<defs>
<clipPath id="clip0_1696_12528">
<rect x="145.333" y="84.9816" width="98" height="45" rx="15" transform="rotate(-30 145.333 84.9816)" fill="white"/>
</clipPath>
<clipPath id="clip1_1696_12528">
<rect x="317.972" y="261.414" width="91.3833" height="45" rx="15" transform="rotate(30 317.972 261.414)" fill="white"/>
</clipPath>
</defs>
</svg>
