<svg width="900" height="500" viewBox="0 0 900 500" fill="none" xmlns="http://www.w3.org/2000/svg">
<line x1="173.596" y1="336.897" x2="400.341" y2="467.808" stroke="black" stroke-width="3"/>
<g clip-path="url(#clip0_1696_12563)">
<rect x="258.68" y="361.771" width="89.5785" height="45" rx="15" transform="rotate(30 258.68 361.771)" fill="#FAFAF1"/>
<path d="M256.269 399.062C258.234 395.659 261.046 394.268 265.851 394.167L270.104 394.059C273.052 393.994 274.699 393.421 275.839 391.447C277.204 389.082 276.574 386.813 273.872 385.253C271.196 383.708 268.823 384.278 267.323 386.876L267.128 387.214L264.53 385.714L264.68 385.454C266.96 381.505 271.002 380.444 275.289 382.919C279.29 385.229 280.758 388.986 278.493 392.91C277.023 395.456 274.643 396.818 269.884 396.842L267.342 396.864C263.617 396.896 262.023 397.257 261.042 398.596L272.032 404.941L270.637 407.357L256.269 399.062ZM277.055 411.063C282.096 404.551 288.229 400.228 294.576 397.935L283.587 391.59L285.042 389.069L299.487 397.409L298.362 399.358C290.699 401.411 284.605 405.965 279.783 412.638L277.055 411.063ZM290.8 418.999C292.765 415.595 295.577 414.205 300.382 414.103L304.635 413.996C307.583 413.931 309.23 413.358 310.37 411.383C311.735 409.019 311.105 406.75 308.403 405.19C305.727 403.645 303.354 404.215 301.854 406.813L301.659 407.151L299.061 405.651L299.211 405.391C301.491 401.442 305.533 400.381 309.82 402.856C313.821 405.166 315.289 408.923 313.024 412.846C311.554 415.392 309.174 416.755 304.415 416.778L301.873 416.8C298.148 416.832 296.554 417.193 295.573 418.532L306.563 424.877L305.168 427.294L290.8 418.999Z" fill="black"/>
</g>
<line x1="119.952" y1="246.37" x2="370.545" y2="101.69" stroke="black" stroke-width="3"/>
<g clip-path="url(#clip1_1696_12563)">
<rect x="192.313" y="180.344" width="98" height="45" rx="15" transform="rotate(-30 192.313 180.344)" fill="#FAFAF1"/>
<path d="M227.646 198.627C225.681 195.224 225.883 192.093 228.198 187.882L230.231 184.144C231.649 181.559 231.976 179.846 230.836 177.872C229.471 175.507 227.191 174.918 224.489 176.478C221.813 178.023 221.12 180.363 222.62 182.961L222.815 183.299L220.217 184.799L220.067 184.539C217.787 180.59 218.889 176.559 223.176 174.084C227.177 171.774 231.165 172.381 233.43 176.305C234.9 178.851 234.89 181.593 232.531 185.727L231.279 187.939C229.444 191.181 228.96 192.742 229.629 194.261L240.619 187.916L242.014 190.332L227.646 198.627ZM255.142 173.711L258.083 171.667L259.313 173.797L256.057 175.296L259.057 180.492L256.588 181.917L253.588 176.721L243.751 182.782L242.656 180.885L243.51 162.864L247.537 160.539L255.142 173.711ZM252.673 175.136L246.073 163.705L245.995 163.75L245.29 179.088L252.673 175.136ZM270.721 173.758L262.561 159.624L257.443 162.579L256.348 160.683L256.608 160.533C258.219 159.603 259.275 158.612 259.742 157.441C260.14 156.45 260.086 155.337 259.589 153.996L259.461 153.655L261.877 152.26L273.397 172.213L270.721 173.758Z" fill="black"/>
</g>
<path d="M446.285 141.605C448.955 144.275 449.385 145.765 450.055 149.635C452.795 163.765 452.135 181.015 450.055 199.585L446.085 202.415L362.215 251.145C360.985 251.855 360.185 252.215 359.375 252.205C358.555 252.205 357.755 251.845 356.535 251.145L336.615 239.635L332.645 236.805C331.545 221.025 331.165 205.405 332.645 190.215C332.645 181.755 334.055 181.115 338.305 178.425L419.585 130.825C421.905 129.475 424.215 129.815 427.085 130.185C433.405 131.905 440.495 136.225 446.295 141.605H446.285Z" fill="#B8AB8A" stroke="#1F1F1F" stroke-width="1.5" stroke-miterlimit="10"/>
<path d="M359.485 197.895C360.815 206.365 359.365 239.725 359.305 249.235L359.485 197.895Z" fill="#B8AB8A"/>
<path d="M359.485 197.895C360.815 206.365 359.365 239.725 359.305 249.235" stroke="#1F1F1F" stroke-width="1.5" stroke-miterlimit="10"/>
<path d="M336.105 181.904C341.325 182.594 353.055 189.614 359.165 194.484L336.105 181.904Z" fill="#B8AB8A"/>
<path d="M336.105 181.904C341.325 182.594 353.055 189.614 359.165 194.484" stroke="#1F1F1F" stroke-width="1.5" stroke-miterlimit="10"/>
<path d="M345.595 190.454C345.595 190.454 343.445 196.344 343.445 219.254C343.445 223.534 343.445 241.684 343.445 241.684" fill="#B8AB8A"/>
<path d="M345.595 190.454C345.595 190.454 343.445 196.344 343.445 219.254C343.445 223.534 343.445 241.684 343.445 241.684" stroke="#1F1F1F" stroke-width="1.5" stroke-miterlimit="10"/>
<path d="M353.185 195.055C355.855 197.725 356.285 199.215 356.955 203.085C359.695 217.215 359.035 234.465 356.955 253.035L352.985 255.865L269.115 304.595C267.885 305.305 267.085 305.665 266.275 305.655C265.455 305.655 264.655 305.295 263.435 304.595L243.515 293.085L239.545 290.255C238.445 274.475 238.065 258.855 239.545 243.665C239.545 235.205 240.955 234.565 245.205 231.875L326.485 184.275C328.805 182.925 331.115 183.265 333.985 183.635C340.305 185.355 347.395 189.675 353.195 195.055H353.185Z" fill="#B8AB8A" stroke="#1F1F1F" stroke-width="1.5" stroke-miterlimit="10"/>
<path d="M266.383 251.345C267.713 259.815 266.263 293.175 266.203 302.685L266.383 251.345Z" fill="#B8AB8A"/>
<path d="M266.383 251.345C267.713 259.815 266.263 293.175 266.203 302.685" stroke="#1F1F1F" stroke-width="1.5" stroke-miterlimit="10"/>
<path d="M243.004 235.345C248.224 236.035 259.954 243.055 266.064 247.925L243.004 235.345Z" fill="#B8AB8A"/>
<path d="M243.004 235.345C248.224 236.035 259.954 243.055 266.064 247.925" stroke="#1F1F1F" stroke-width="1.5" stroke-miterlimit="10"/>
<path d="M252.494 243.904C252.494 243.904 250.344 249.794 250.344 272.704C250.344 276.984 250.344 295.134 250.344 295.134" fill="#B8AB8A"/>
<path d="M252.494 243.904C252.494 243.904 250.344 249.794 250.344 272.704C250.344 276.984 250.344 295.134 250.344 295.134" stroke="#1F1F1F" stroke-width="1.5" stroke-miterlimit="10"/>
<path d="M428.305 156.555C425.635 159.225 425.205 160.715 424.535 164.585C421.795 178.715 422.455 195.965 424.535 214.535L428.505 217.365L512.375 266.095C513.605 266.805 514.405 267.165 515.215 267.155C516.035 267.155 516.835 266.795 518.055 266.095L537.975 254.585L541.945 251.755C543.045 235.975 543.425 220.355 541.945 205.165C541.945 196.705 540.535 196.065 536.285 193.375L455.005 145.775C452.685 144.425 450.375 144.765 447.505 145.135C441.185 146.855 434.095 151.175 428.295 156.555H428.305Z" fill="#B8AB8A" stroke="#1F1F1F" stroke-width="1.5" stroke-miterlimit="10"/>
<path d="M515.105 212.835C513.775 221.305 515.225 254.665 515.285 264.175L515.105 212.835Z" fill="#B8AB8A"/>
<path d="M515.105 212.835C513.775 221.305 515.225 254.665 515.285 264.175" stroke="#1F1F1F" stroke-width="1.5" stroke-miterlimit="10"/>
<path d="M538.486 196.845C533.266 197.535 521.536 204.555 515.426 209.425L538.486 196.845Z" fill="#B8AB8A"/>
<path d="M538.486 196.845C533.266 197.535 521.536 204.555 515.426 209.425" stroke="#1F1F1F" stroke-width="1.5" stroke-miterlimit="10"/>
<path d="M528.994 205.394C528.994 205.394 531.144 211.284 531.144 234.194V256.624" fill="#B8AB8A"/>
<path d="M528.994 205.394C528.994 205.394 531.144 211.284 531.144 234.194V256.624" stroke="#1F1F1F" stroke-width="1.5" stroke-miterlimit="10"/>
<path d="M335.834 237.124L334.634 237.824C332.924 238.814 331.874 240.634 331.874 242.614C330.574 251.304 330.624 259.904 331.874 268.424L335.844 271.254L419.714 319.984C420.944 320.694 421.744 321.054 422.554 321.044C423.374 321.044 424.174 320.684 425.394 319.984L509.254 271.524L513.224 268.694V242.884C513.224 240.904 512.174 239.084 510.464 238.094C510.464 238.094 491.514 227.044 470.364 214.654C467.754 213.124 465.104 211.574 462.464 210.024C438.374 195.904 426.294 188.784 426.294 188.784C423.974 187.434 421.114 187.434 418.794 188.784C418.794 188.784 405.264 194.994 380.234 208.694C355.214 222.394 335.834 237.124 335.834 237.124Z" fill="#B8AB8A" stroke="#1F1F1F" stroke-width="1.5" stroke-miterlimit="10"/>
<path d="M510.894 247.694C487.984 262.954 449.334 284.034 424.104 296.794L510.894 247.694Z" fill="#B8AB8A"/>
<path d="M510.894 247.694C487.984 262.954 449.334 284.034 424.104 296.794" stroke="#1F1F1F" stroke-width="1.5" stroke-miterlimit="10"/>
<path d="M422.884 318.504C421.374 309.684 422.234 301.464 422.234 293.154L422.884 318.504Z" fill="#B8AB8A"/>
<path d="M422.884 318.504C421.374 309.684 422.234 301.464 422.234 293.154" stroke="#1F1F1F" stroke-width="1.5" stroke-miterlimit="10"/>
<path d="M243.104 290.404L241.904 291.104C240.194 292.094 239.144 293.914 239.144 295.894C237.844 304.584 237.894 313.184 239.144 321.704L243.114 324.534L326.984 373.264C328.214 373.974 329.014 374.334 329.824 374.324C330.644 374.324 331.444 373.964 332.664 373.264L416.524 324.804L420.494 321.974V296.164C420.494 294.184 419.444 292.364 417.734 291.374C417.734 291.374 398.784 280.324 377.634 267.934C375.024 266.404 372.374 264.854 369.734 263.304C345.644 249.184 333.564 242.064 333.564 242.064C331.244 240.714 328.384 240.714 326.064 242.064C326.064 242.064 312.534 248.274 287.504 261.974C262.484 275.674 243.104 290.404 243.104 290.404Z" fill="#B8AB8A" stroke="#1F1F1F" stroke-width="1.5" stroke-miterlimit="10"/>
<path d="M418.153 300.974C395.243 316.234 356.593 337.314 331.363 350.074L418.153 300.974Z" fill="#B8AB8A"/>
<path d="M418.153 300.974C395.243 316.234 356.593 337.314 331.363 350.074" stroke="#1F1F1F" stroke-width="1.5" stroke-miterlimit="10"/>
<path d="M330.144 371.784C328.634 362.964 329.494 354.744 329.494 346.434L330.144 371.784Z" fill="#B8AB8A"/>
<path d="M330.144 371.784C328.634 362.964 329.494 354.744 329.494 346.434" stroke="#1F1F1F" stroke-width="1.5" stroke-miterlimit="10"/>
<path d="M521.404 209.994C518.734 212.664 518.304 214.154 517.634 218.024C514.894 232.154 515.554 249.404 517.634 267.974L521.604 270.804L605.474 319.534C606.704 320.244 607.504 320.604 608.314 320.594C609.134 320.594 609.934 320.234 611.154 319.534L631.074 308.024L635.044 305.194C636.144 289.414 636.524 273.794 635.044 258.604C635.044 250.144 633.634 249.504 629.384 246.814L548.104 199.214C545.784 197.864 543.474 198.204 540.604 198.574C534.284 200.294 527.194 204.614 521.394 209.994H521.404Z" fill="#B8AB8A" stroke="#1F1F1F" stroke-width="1.5" stroke-miterlimit="10"/>
<path d="M608.204 266.284C606.874 274.754 608.324 308.114 608.384 317.624L608.204 266.284Z" fill="#B8AB8A"/>
<path d="M608.204 266.284C606.874 274.754 608.324 308.114 608.384 317.624" stroke="#1F1F1F" stroke-width="1.5" stroke-miterlimit="10"/>
<path d="M631.583 250.294C626.363 250.984 614.633 258.004 608.523 262.874L631.583 250.294Z" fill="#B8AB8A"/>
<path d="M631.583 250.294C626.363 250.984 614.633 258.004 608.523 262.874" stroke="#1F1F1F" stroke-width="1.5" stroke-miterlimit="10"/>
<path d="M622.094 258.844C622.094 258.844 624.244 264.734 624.244 287.644V310.074" fill="#B8AB8A"/>
<path d="M622.094 258.844C622.094 258.844 624.244 264.734 624.244 287.644V310.074" stroke="#1F1F1F" stroke-width="1.5" stroke-miterlimit="10"/>
<path d="M427.914 290.404L426.714 291.104C425.004 292.094 423.954 293.914 423.954 295.894C422.654 304.584 422.704 313.184 423.954 321.704L427.924 324.534L511.794 373.264C513.024 373.974 513.824 374.334 514.634 374.324C515.454 374.324 516.254 373.964 517.474 373.264L601.334 324.804L605.304 321.974V296.164C605.304 294.184 604.254 292.364 602.544 291.374C602.544 291.374 583.594 280.324 562.444 267.934C559.834 266.404 557.184 264.854 554.544 263.304C530.454 249.184 518.374 242.064 518.374 242.064C516.054 240.714 513.194 240.714 510.874 242.064C510.874 242.064 497.344 248.274 472.314 261.974C447.294 275.674 427.914 290.404 427.914 290.404Z" fill="#B8AB8A" stroke="#1F1F1F" stroke-width="1.5" stroke-miterlimit="10"/>
<path d="M602.974 300.974C580.064 316.234 541.414 337.314 516.184 350.074L602.974 300.974Z" fill="#B8AB8A"/>
<path d="M602.974 300.974C580.064 316.234 541.414 337.314 516.184 350.074" stroke="#1F1F1F" stroke-width="1.5" stroke-miterlimit="10"/>
<path d="M514.964 371.784C513.454 362.964 514.314 354.744 514.314 346.434L514.964 371.784Z" fill="#B8AB8A"/>
<path d="M514.964 371.784C513.454 362.964 514.314 354.744 514.314 346.434" stroke="#1F1F1F" stroke-width="1.5" stroke-miterlimit="10"/>
<path d="M525.415 257.065C525.675 255.715 526.415 254.475 526.735 253.165C530.665 237.355 537.915 221.005 540.145 217.045C540.995 215.545 542.225 213.035 543.025 211.465C543.545 210.445 543.735 208.145 544.285 207.145C544.955 205.215 546.375 202.495 547.945 203.845C561.715 213.395 577.035 221.005 592.705 228.555C594.055 229.335 594.665 230.965 594.155 232.435C593.715 233.395 592.735 235.175 592.335 236.165C590.195 241.475 587.895 246.765 585.585 252.985C582.295 261.865 579.845 270.125 576.845 279.275C576.305 280.935 576.455 283.145 575.815 284.735C575.145 286.665 572.885 287.505 571.115 286.485C569.035 285.925 567.375 284.195 565.485 283.365C549.745 276.525 539.065 269.595 529.145 260.935C527.795 260.155 524.905 258.525 525.415 257.055V257.065Z" fill="#B8AB8A" stroke="#1F1F1F" stroke-width="1.5" stroke-miterlimit="10"/>
<path d="M592.575 233.635C586.785 242.545 574.325 280.505 575.105 284.495" stroke="#1F1F1F" stroke-width="1.5" stroke-miterlimit="10"/>
<path d="M562.134 267.835C551.474 260.925 540.614 254.695 529.504 249.385L529.394 249.365C527.454 248.565 524.064 250.055 522.414 254.055C520.764 258.055 521.484 263.035 523.424 263.835C532.854 270.925 543.934 276.975 556.174 282.305C558.114 283.105 561.814 280.515 563.454 276.515C565.104 272.515 564.074 268.635 562.144 267.835H562.134Z" fill="#B8AB8A" stroke="#1F1F1F" stroke-width="1.5" stroke-miterlimit="10"/>
<path d="M555.824 281.524C554.564 280.634 553.994 277.614 555.644 273.614C557.294 269.614 559.224 268.304 560.924 268.154" stroke="#1F1F1F" stroke-width="1.5" stroke-miterlimit="10"/>
<path d="M522.904 257.274C532.134 263.554 542.694 269.474 554.374 275.084" stroke="#1F1F1F" stroke-width="1.5" stroke-miterlimit="10"/>
<path d="M548.114 268.975C547.934 269.155 547.094 271.625 547.094 271.625L549.494 272.735L550.534 270.115L548.114 268.975Z" fill="#B8AB8A" stroke="#1F1F1F" stroke-width="1.5" stroke-miterlimit="10"/>
<path d="M489.285 223.995C480.435 204.315 486.415 161.225 480.015 137.515C479.545 135.755 480.895 133.355 480.845 131.535C481.275 128.315 478.655 125.495 475.405 125.685C450.015 137.075 407.225 141.885 378.445 133.165C375.965 133.315 373.945 135.195 373.615 137.655C373.085 154.445 372.805 171.535 374.575 189.855C375.675 201.265 367.465 214.225 365.025 225.855C364.595 229.075 367.215 231.895 370.465 231.705C400.235 232.825 458.025 234.885 481.525 229.735C484.005 229.585 490.165 225.965 489.285 223.995Z" fill="#B8AB8A" stroke="#1F1F1F" stroke-width="1.5" stroke-miterlimit="10"/>
<path d="M656.226 262.834C658.896 265.504 659.326 266.994 659.996 270.864C662.736 284.994 662.076 302.244 659.996 320.814L656.026 323.644L572.156 372.374C570.926 373.084 570.126 373.444 569.316 373.434C568.496 373.434 567.696 373.074 566.476 372.374L546.556 360.864L542.586 358.034C541.486 342.254 541.106 326.634 542.586 311.444C542.586 302.984 543.996 302.344 548.246 299.654L629.526 252.054C631.846 250.704 634.156 251.044 637.026 251.414C643.346 253.134 650.436 257.454 656.236 262.834H656.226Z" fill="#B8AB8A" stroke="#1F1F1F" stroke-width="1.5" stroke-miterlimit="10"/>
<path d="M569.426 319.124C570.756 327.594 569.306 360.954 569.246 370.464L569.426 319.124Z" fill="#B8AB8A"/>
<path d="M569.426 319.124C570.756 327.594 569.306 360.954 569.246 370.464" stroke="#1F1F1F" stroke-width="1.5" stroke-miterlimit="10"/>
<path d="M546.047 303.134C551.267 303.824 562.997 310.844 569.107 315.714L546.047 303.134Z" fill="#B8AB8A"/>
<path d="M546.047 303.134C551.267 303.824 562.997 310.844 569.107 315.714" stroke="#1F1F1F" stroke-width="1.5" stroke-miterlimit="10"/>
<path d="M555.537 311.684C555.537 311.684 553.387 317.574 553.387 340.484C553.387 344.764 553.387 362.914 553.387 362.914" fill="#B8AB8A"/>
<path d="M555.537 311.684C555.537 311.684 553.387 317.574 553.387 340.484C553.387 344.764 553.387 362.914 553.387 362.914" stroke="#1F1F1F" stroke-width="1.5" stroke-miterlimit="10"/>
<defs>
<clipPath id="clip0_1696_12563">
<rect x="258.68" y="361.771" width="89.5785" height="45" rx="15" transform="rotate(30 258.68 361.771)" fill="white"/>
</clipPath>
<clipPath id="clip1_1696_12563">
<rect x="192.313" y="180.344" width="98" height="45" rx="15" transform="rotate(-30 192.313 180.344)" fill="white"/>
</clipPath>
</defs>
</svg>
