<svg width="900" height="400" viewBox="0 0 900 400" fill="none" xmlns="http://www.w3.org/2000/svg">
<line x1="274.479" y1="229.489" x2="450.634" y2="331.192" stroke="black" stroke-width="3"/>
<g clip-path="url(#clip0_1696_14538)">
<rect x="330.621" y="237.655" width="98" height="45" rx="15" transform="rotate(30 330.621 237.655)" fill="#FAFAF1"/>
<path d="M336.507 279.735L344.667 265.602L339.549 262.647L340.644 260.75L340.904 260.9C342.514 261.83 343.901 262.249 345.148 262.069C346.205 261.917 347.142 261.315 348.055 260.214L348.287 259.932L350.703 261.327L339.183 281.28L336.507 279.735ZM369.105 274.827C369.526 277.218 368.988 279.47 367.008 282.9C363.453 289.057 358.917 293.193 352.734 289.623C349.278 287.628 347.814 284.705 348.651 281.516L351.5 282.641C351.064 284.295 351.589 286.087 354.005 287.482C357.226 289.342 360.271 288.329 363.78 282.491C361.617 283.598 359.169 283.397 356.805 282.032C352.908 279.782 351.739 275.747 354.079 271.694C356.389 267.693 360.536 266.45 364.927 268.985C367.265 270.335 368.645 272.205 369.105 274.827ZM358.44 280.1C360.778 281.45 363.584 281.269 365.761 278.82C366.554 277.026 366.592 275.939 366.337 274.822C365.958 273.079 364.91 271.954 363.611 271.204C360.961 269.674 358.316 270.295 356.726 273.049C355.106 275.855 355.816 278.585 358.44 280.1ZM388.616 286.091C389.037 288.482 388.499 290.735 386.519 294.164C382.964 300.322 378.428 304.458 372.245 300.888C368.789 298.893 367.325 295.969 368.162 292.78L371.011 293.905C370.575 295.559 371.099 297.352 373.516 298.747C376.737 300.607 379.782 299.593 383.291 293.756C381.128 294.862 378.68 294.662 376.316 293.297C372.419 291.047 371.25 287.011 373.59 282.958C375.9 278.957 380.047 277.714 384.438 280.249C386.776 281.599 388.155 283.47 388.616 286.091ZM377.951 291.365C380.289 292.715 383.095 292.534 385.272 290.084C386.065 288.29 386.103 287.204 385.848 286.087C385.469 284.343 384.421 283.219 383.122 282.469C380.472 280.939 377.827 281.56 376.237 284.314C374.617 287.119 375.327 289.85 377.951 291.365Z" fill="black"/>
</g>
<line x1="233.116" y1="159.077" x2="380.665" y2="73.8901" stroke="black" stroke-width="3"/>
<g clip-path="url(#clip1_1696_14538)">
<rect x="257.843" y="122.537" width="91" height="45" rx="15" transform="rotate(-30 257.843 122.537)" fill="#FAFAF1"/>
<path d="M297.039 138.59L288.879 124.456L283.761 127.411L282.666 125.514L282.926 125.364C284.537 124.434 285.593 123.444 286.06 122.273C286.458 121.282 286.404 120.169 285.907 118.828L285.779 118.486L288.195 117.091L299.715 137.045L297.039 138.59ZM310.867 130.606L302.707 116.473L297.589 119.428L296.494 117.531L296.754 117.381C298.364 116.451 299.42 115.46 299.888 114.29C300.285 113.298 300.232 112.186 299.735 110.845L299.607 110.503L302.023 109.108L313.543 129.061L310.867 130.606ZM327.959 121.257C324.088 123.492 320.123 123.045 317.687 119.845L320.25 117.984C322.064 120.227 324.55 120.212 326.758 118.937C329.642 117.272 330.151 114.553 328.546 111.774C326.986 109.072 324.47 108.134 321.456 109.874C319.716 110.879 318.917 112.136 318.411 113.78L315.525 114.961L311.616 103.57L322.684 97.1795L324.124 99.6737L315.108 104.879L317.16 111.073L317.242 111.095C317.894 109.644 318.871 108.456 320.664 107.421C325.133 104.841 329.118 106.524 331.218 110.162C333.363 113.877 332.844 118.437 327.959 121.257Z" fill="black"/>
</g>
<path d="M437.414 105.118C441.054 107.978 441.864 109.388 442.534 113.258C445.274 127.388 444.614 145.808 442.534 164.378L438.564 167.208L372.814 205.018C371.584 205.728 370.784 206.088 369.974 206.078C369.154 206.078 368.354 205.718 367.134 205.018L347.214 193.508L343.244 190.678C342.144 174.898 341.764 159.278 343.244 144.088C343.244 135.628 344.654 134.988 348.904 132.298L413.034 95.4179C415.354 94.0679 418.844 94.6079 421.324 95.4979C426.914 97.6179 432.304 100.718 437.414 105.108V105.118Z" fill="#B8AB8A" stroke="#1F1F1F" stroke-width="1.5" stroke-miterlimit="10"/>
<path d="M370.093 150.746C371.423 159.216 369.973 192.576 369.913 202.086L370.093 150.746Z" fill="#B8AB8A"/>
<path d="M370.093 150.746C371.423 159.216 369.973 192.576 369.913 202.086" stroke="#1F1F1F" stroke-width="1.5" stroke-miterlimit="10"/>
<path d="M356.203 143.307C356.203 143.307 354.053 151.457 354.053 172.107V194.537" fill="#B8AB8A"/>
<path d="M356.203 143.307C356.203 143.307 354.053 151.457 354.053 172.107V194.537" stroke="#1F1F1F" stroke-width="1.5" stroke-miterlimit="10"/>
<path d="M346.154 135.499C351.374 136.189 363.104 143.209 369.214 148.079L346.154 135.499Z" fill="#B8AB8A"/>
<path d="M346.154 135.499C351.374 136.189 363.104 143.209 369.214 148.079" stroke="#1F1F1F" stroke-width="1.5" stroke-miterlimit="10"/>
<path d="M421.775 117.987C418.135 120.847 417.325 122.257 416.655 126.127C413.915 140.257 414.575 158.677 416.655 177.247L420.625 180.077L486.375 217.887C487.605 218.597 488.405 218.957 489.215 218.947C490.035 218.947 490.835 218.587 492.055 217.887L511.975 206.377L515.945 203.547C517.045 187.767 517.425 172.147 515.945 156.957C515.945 148.497 514.535 147.857 510.285 145.167L446.155 108.287C443.835 106.937 440.345 107.477 437.865 108.367C432.275 110.487 426.885 113.587 421.775 117.977V117.987Z" fill="#B8AB8A" stroke="#1F1F1F" stroke-width="1.5" stroke-miterlimit="10"/>
<path d="M489.095 163.616C487.765 172.086 489.215 205.446 489.275 214.956L489.095 163.616Z" fill="#B8AB8A"/>
<path d="M489.095 163.616C487.765 172.086 489.215 205.446 489.275 214.956" stroke="#1F1F1F" stroke-width="1.5" stroke-miterlimit="10"/>
<path d="M502.985 156.176C502.985 156.176 505.135 164.326 505.135 184.976V207.406" fill="#B8AB8A"/>
<path d="M502.985 156.176C502.985 156.176 505.135 164.326 505.135 184.976V207.406" stroke="#1F1F1F" stroke-width="1.5" stroke-miterlimit="10"/>
<path d="M513.035 148.366C507.815 149.056 496.085 156.076 489.975 160.946L513.035 148.366Z" fill="#B8AB8A"/>
<path d="M513.035 148.366C507.815 149.056 496.085 156.076 489.975 160.946" stroke="#1F1F1F" stroke-width="1.5" stroke-miterlimit="10"/>
<path d="M343.715 190.217C342.005 191.207 340.955 193.027 340.955 195.007C339.765 203.027 339.905 211.697 340.955 220.817L344.925 223.647L410.615 261.577C411.845 262.287 412.645 262.647 413.455 262.637C414.275 262.637 415.075 262.277 416.295 261.577L481.985 223.647L485.955 220.817V195.007C485.955 193.027 484.905 191.207 483.195 190.217L481.995 189.517C481.995 189.517 464.145 178.037 448.615 168.907C433.085 159.777 417.205 151.707 417.205 151.707C414.885 150.357 412.025 150.357 409.705 151.707C409.705 151.707 395.055 159.267 380.885 166.877C366.715 174.477 343.715 190.217 343.715 190.217Z" fill="#B8AB8A" stroke="#1F1F1F" stroke-width="1.5" stroke-miterlimit="10"/>
<path d="M484.836 199.647C461.926 214.907 440.236 226.047 415.006 238.807L484.836 199.647Z" fill="#B8AB8A"/>
<path d="M484.836 199.647C461.926 214.907 440.236 226.047 415.006 238.807" stroke="#1F1F1F" stroke-width="1.5" stroke-miterlimit="10"/>
<path d="M413.465 258.897C411.955 250.077 412.815 242.887 412.815 234.577L413.465 258.897Z" fill="#B8AB8A"/>
<path d="M413.465 258.897C411.955 250.077 412.815 242.887 412.815 234.577" stroke="#1F1F1F" stroke-width="1.5" stroke-miterlimit="10"/>
<path d="M417.644 232.976C415.934 233.966 414.884 235.786 414.884 237.766C413.694 245.786 413.834 254.456 414.884 263.576L418.854 266.406L484.544 304.336C485.774 305.046 486.574 305.406 487.384 305.396C488.204 305.396 489.004 305.036 490.224 304.336L555.914 266.406L559.884 263.576V237.766C559.884 235.786 558.834 233.966 557.124 232.976L555.924 232.276C555.924 232.276 538.074 220.796 522.544 211.666C507.014 202.536 491.134 194.466 491.134 194.466C488.814 193.116 485.954 193.116 483.634 194.466C483.634 194.466 468.984 202.026 454.814 209.636C440.644 217.236 417.644 232.976 417.644 232.976Z" fill="#B8AB8A" stroke="#1F1F1F" stroke-width="1.5" stroke-miterlimit="10"/>
<path d="M558.764 242.397C535.854 257.657 514.164 268.797 488.934 281.557L558.764 242.397Z" fill="#B8AB8A"/>
<path d="M558.764 242.397C535.854 257.657 514.164 268.797 488.934 281.557" stroke="#1F1F1F" stroke-width="1.5" stroke-miterlimit="10"/>
<path d="M487.393 301.647C485.883 292.827 486.743 285.637 486.743 277.327L487.393 301.647Z" fill="#B8AB8A"/>
<path d="M487.393 301.647C485.883 292.827 486.743 285.637 486.743 277.327" stroke="#1F1F1F" stroke-width="1.5" stroke-miterlimit="10"/>
<path d="M414.103 164.796C414.363 163.446 415.103 162.206 415.423 160.896C419.353 145.086 426.603 128.736 428.833 124.776C429.683 123.276 430.913 120.766 431.713 119.196C432.233 118.176 432.423 115.876 432.973 114.876C433.643 112.946 435.063 110.226 436.633 111.576C450.403 121.126 465.723 128.736 481.393 136.286C482.743 137.066 483.353 138.696 482.843 140.166C482.403 141.126 481.423 142.906 481.023 143.896C478.883 149.206 476.583 154.496 474.273 160.716C470.983 169.596 468.533 177.856 465.533 187.006C464.993 188.666 465.143 190.876 464.503 192.466C463.833 194.396 461.573 195.236 459.803 194.216C457.723 193.656 456.063 191.926 454.173 191.096C438.433 184.256 427.753 177.326 417.833 168.666C416.483 167.886 413.593 166.256 414.103 164.786V164.796Z" fill="#B8AB8A" stroke="#1F1F1F" stroke-width="1.5" stroke-miterlimit="10"/>
<path d="M481.253 141.376C475.463 150.286 463.003 188.246 463.783 192.236" stroke="#1F1F1F" stroke-width="1.5" stroke-miterlimit="10"/>
<path d="M402.452 170.778C402.712 169.428 403.762 167.948 404.002 166.608C404.592 163.378 406.992 155.278 408.042 151.768C408.372 150.678 409.452 147.868 409.872 145.838C410.542 143.908 411.092 142.878 412.862 143.898C413.592 144.398 414.652 146.198 415.392 146.698C426.982 154.618 439.422 162.248 452.622 168.408C454.422 169.248 457.482 168.068 459.262 168.928C460.612 169.708 459.412 173.148 458.902 174.618C457.612 177.228 453.332 189.018 453.542 197.438C452.872 199.368 450.572 203.518 448.802 202.498C444.002 199.698 442.872 197.168 439.722 195.668C426.282 189.308 414.182 181.398 404.592 173.638C403.242 172.858 401.942 172.238 402.452 170.768V170.778Z" fill="#B8AB8A" stroke="#1F1F1F" stroke-width="1.5" stroke-miterlimit="10"/>
<path d="M410.792 177.357C408.802 168.717 413.562 156.647 418.782 152.157" stroke="#1F1F1F" stroke-width="1.5" stroke-miterlimit="10"/>
<path d="M408.062 175.588C406.072 166.948 410.832 154.878 416.052 150.388" stroke="#1F1F1F" stroke-width="1.5" stroke-miterlimit="10"/>
<path d="M414.143 158.228L415.403 155.868L413.183 154.868L411.973 157.198C412.66 157.662 412.75 157.714 414.143 158.228Z" fill="#1F1F1F" stroke="#1F1F1F" stroke-width="1.5" stroke-miterlimit="10"/>
<defs>
<clipPath id="clip0_1696_14538">
<rect x="330.621" y="237.655" width="98" height="45" rx="15" transform="rotate(30 330.621 237.655)" fill="white"/>
</clipPath>
<clipPath id="clip1_1696_14538">
<rect x="257.843" y="122.537" width="91" height="45" rx="15" transform="rotate(-30 257.843 122.537)" fill="white"/>
</clipPath>
</defs>
</svg>
