<svg width="900" height="400" viewBox="0 0 900 400" fill="none" xmlns="http://www.w3.org/2000/svg">
<line x1="201.503" y1="137.625" x2="339.075" y2="58.1974" stroke="black" stroke-width="3"/>
<g clip-path="url(#clip0_1696_13476)">
<rect x="220.385" y="103.829" width="91" height="45" rx="15" transform="rotate(-30 220.385 103.829)" fill="#FAFAF1"/>
<path d="M259.581 119.882L251.421 105.748L246.303 108.703L245.208 106.806L245.468 106.656C247.079 105.726 248.135 104.736 248.602 103.565C249 102.574 248.946 101.461 248.449 100.12L248.321 99.7783L250.737 98.3833L262.257 118.337L259.581 119.882ZM273.409 111.898L265.249 97.7646L260.131 100.72L259.036 98.823L259.296 98.673C260.906 97.743 261.962 96.7522 262.43 95.5817C262.827 94.5901 262.774 93.4778 262.277 92.1367L262.149 91.7949L264.565 90.3999L276.085 110.353L273.409 111.898ZM290.501 102.549C286.63 104.784 282.665 104.337 280.229 101.137L282.792 99.2757C284.606 101.519 287.092 101.504 289.3 100.229C292.184 98.5641 292.693 95.8455 291.088 93.0655C289.528 90.3635 287.012 89.4258 283.998 91.1658C282.258 92.1708 281.459 93.4284 280.953 95.0717L278.067 96.2529L274.158 84.8615L285.226 78.4715L286.666 80.9657L277.65 86.1707L279.702 92.3646L279.784 92.3865C280.436 90.9361 281.413 89.7485 283.206 88.7135C287.675 86.1335 291.66 87.8162 293.76 91.4536C295.905 95.1688 295.386 99.7294 290.501 102.549Z" fill="black"/>
</g>
<path d="M399.527 89.9603C402.197 92.6303 402.627 94.1203 403.297 97.9903C406.037 112.12 405.377 129.37 403.297 147.94L399.327 150.77L315.457 199.5C314.227 200.21 313.427 200.57 312.617 200.56C311.797 200.56 310.997 200.2 309.777 199.5L289.857 187.99L285.887 185.16C284.787 169.38 284.407 153.76 285.887 138.57C285.887 130.11 287.297 129.47 291.547 126.78L372.827 79.1803C375.147 77.8303 377.457 78.1703 380.327 78.5403C386.647 80.2603 393.737 84.5803 399.537 89.9603H399.527Z" fill="#B8AB8A" stroke="#1F1F1F" stroke-width="1.5" stroke-miterlimit="10"/>
<path d="M312.737 146.25C314.067 154.72 312.617 188.08 312.557 197.59L312.737 146.25Z" fill="#B8AB8A"/>
<path d="M312.737 146.25C314.067 154.72 312.617 188.08 312.557 197.59" stroke="#1F1F1F" stroke-width="1.5" stroke-miterlimit="10"/>
<path d="M289.346 130.26C294.566 130.95 306.296 137.97 312.406 142.84L289.346 130.26Z" fill="#B8AB8A"/>
<path d="M289.346 130.26C294.566 130.95 306.296 137.97 312.406 142.84" stroke="#1F1F1F" stroke-width="1.5" stroke-miterlimit="10"/>
<path d="M298.836 138.81C298.836 138.81 296.686 144.7 296.686 167.61C296.686 171.89 296.686 190.04 296.686 190.04" fill="#B8AB8A"/>
<path d="M298.836 138.81C298.836 138.81 296.686 144.7 296.686 167.61C296.686 171.89 296.686 190.04 296.686 190.04" stroke="#1F1F1F" stroke-width="1.5" stroke-miterlimit="10"/>
<path d="M381.557 104.901C378.887 107.571 378.457 109.061 377.787 112.931C375.047 127.061 375.707 144.311 377.787 162.881L381.757 165.711L465.627 214.441C466.857 215.151 467.657 215.511 468.467 215.501C469.287 215.501 470.087 215.141 471.307 214.441L491.227 202.931L495.197 200.101C496.297 184.321 496.677 168.701 495.197 153.511C495.197 145.051 493.787 144.411 489.537 141.721L408.257 94.1209C405.937 92.7709 403.627 93.1109 400.757 93.4809C394.437 95.2009 387.347 99.5209 381.547 104.901H381.557Z" fill="#B8AB8A" stroke="#1F1F1F" stroke-width="1.5" stroke-miterlimit="10"/>
<path d="M468.347 161.191C467.017 169.661 468.467 203.021 468.527 212.531L468.347 161.191Z" fill="#B8AB8A"/>
<path d="M468.347 161.191C467.017 169.661 468.467 203.021 468.527 212.531" stroke="#1F1F1F" stroke-width="1.5" stroke-miterlimit="10"/>
<path d="M491.738 145.201C486.518 145.891 474.788 152.911 468.678 157.781L491.738 145.201Z" fill="#B8AB8A"/>
<path d="M491.738 145.201C486.518 145.891 474.788 152.911 468.678 157.781" stroke="#1F1F1F" stroke-width="1.5" stroke-miterlimit="10"/>
<path d="M482.236 153.75C482.236 153.75 484.386 159.64 484.386 182.55V204.98" fill="#B8AB8A"/>
<path d="M482.236 153.75C482.236 153.75 484.386 159.64 484.386 182.55V204.98" stroke="#1F1F1F" stroke-width="1.5" stroke-miterlimit="10"/>
<path d="M474.658 158.35C471.988 161.02 471.558 162.51 470.888 166.38C468.148 180.51 468.808 197.76 470.888 216.33L474.858 219.16L558.728 267.89C559.958 268.6 560.758 268.96 561.568 268.95C562.388 268.95 563.188 268.59 564.408 267.89L584.328 256.38L588.298 253.55C589.398 237.77 589.778 222.15 588.298 206.96C588.298 198.5 586.888 197.86 582.638 195.17L501.358 147.57C499.038 146.22 496.728 146.56 493.858 146.93C487.538 148.65 480.448 152.97 474.648 158.35H474.658Z" fill="#B8AB8A" stroke="#1F1F1F" stroke-width="1.5" stroke-miterlimit="10"/>
<path d="M561.448 214.64C560.118 223.11 561.568 256.47 561.628 265.98L561.448 214.64Z" fill="#B8AB8A"/>
<path d="M561.448 214.64C560.118 223.11 561.568 256.47 561.628 265.98" stroke="#1F1F1F" stroke-width="1.5" stroke-miterlimit="10"/>
<path d="M584.828 198.64C579.608 199.33 567.878 206.35 561.768 211.22L584.828 198.64Z" fill="#B8AB8A"/>
<path d="M584.828 198.64C579.608 199.33 567.878 206.35 561.768 211.22" stroke="#1F1F1F" stroke-width="1.5" stroke-miterlimit="10"/>
<path d="M575.338 207.2C575.338 207.2 577.488 213.09 577.488 236V258.43" fill="#B8AB8A"/>
<path d="M575.338 207.2C575.338 207.2 577.488 213.09 577.488 236V258.43" stroke="#1F1F1F" stroke-width="1.5" stroke-miterlimit="10"/>
<path d="M305.037 175.47C303.327 176.46 302.277 178.28 302.277 180.26C301.157 188.41 301.307 197.07 302.277 206.07L306.247 208.9L390.117 257.63C391.347 258.34 392.147 258.7 392.957 258.69C393.777 258.69 394.577 258.33 395.797 257.63L461.487 219.7L465.457 216.87V191.06C465.457 189.08 464.407 187.26 462.697 186.27L461.497 185.57C461.497 185.57 435.917 168.13 417.657 158.34C399.397 148.55 378.537 136.96 378.537 136.96C376.217 135.61 373.357 135.61 371.037 136.96C371.037 136.96 351.367 146.83 341.127 152.81C330.897 158.78 305.037 175.47 305.037 175.47Z" fill="#B8AB8A" stroke="#1F1F1F" stroke-width="1.5" stroke-miterlimit="10"/>
<path d="M393.818 256.75C392.308 247.93 393.168 238.9 393.168 230.59L393.818 256.75Z" fill="#B8AB8A"/>
<path d="M393.818 256.75C392.308 247.93 393.168 238.9 393.168 230.59" stroke="#1F1F1F" stroke-width="1.5" stroke-miterlimit="10"/>
<path d="M464.328 196.121C441.418 211.381 419.728 222.521 394.498 235.281L464.328 196.121Z" fill="#B8AB8A"/>
<path d="M464.328 196.121C441.418 211.381 419.728 222.521 394.498 235.281" stroke="#1F1F1F" stroke-width="1.5" stroke-miterlimit="10"/>
<path d="M398.127 228.92C396.417 229.91 395.367 231.73 395.367 233.71C394.247 241.86 394.397 250.52 395.367 259.52L399.337 262.35L483.207 311.08C484.437 311.79 485.237 312.15 486.047 312.14C486.867 312.14 487.667 311.78 488.887 311.08L554.577 273.15L558.547 270.32V244.51C558.547 242.53 557.497 240.71 555.787 239.72L554.587 239.02C554.587 239.02 529.007 221.58 510.747 211.79C492.487 202 471.627 190.41 471.627 190.41C469.307 189.06 466.447 189.06 464.127 190.41C464.127 190.41 444.457 200.28 434.217 206.26C423.987 212.23 398.127 228.92 398.127 228.92Z" fill="#B8AB8A" stroke="#1F1F1F" stroke-width="1.5" stroke-miterlimit="10"/>
<path d="M486.908 310.2C485.398 301.38 486.258 292.35 486.258 284.04L486.908 310.2Z" fill="#B8AB8A"/>
<path d="M486.908 310.2C485.398 301.38 486.258 292.35 486.258 284.04" stroke="#1F1F1F" stroke-width="1.5" stroke-miterlimit="10"/>
<path d="M557.428 249.56C534.518 264.82 512.828 275.96 487.598 288.72L557.428 249.56Z" fill="#B8AB8A"/>
<path d="M557.428 249.56C534.518 264.82 512.828 275.96 487.598 288.72" stroke="#1F1F1F" stroke-width="1.5" stroke-miterlimit="10"/>
<path d="M609.497 211.19C612.167 213.86 612.597 215.35 613.267 219.22C616.007 233.35 615.347 250.6 613.267 269.17L609.297 272L525.427 320.73C524.197 321.44 523.397 321.8 522.587 321.79C521.767 321.79 520.967 321.43 519.747 320.73L499.827 309.22L495.857 306.39C494.757 290.61 494.377 274.99 495.857 259.8C495.857 251.34 497.267 250.7 501.517 248.01L582.797 200.41C585.117 199.06 587.427 199.4 590.297 199.77C596.617 201.49 603.707 205.81 609.507 211.19H609.497Z" fill="#B8AB8A" stroke="#1F1F1F" stroke-width="1.5" stroke-miterlimit="10"/>
<path d="M522.698 267.47C524.028 275.94 522.578 309.3 522.518 318.81L522.698 267.47Z" fill="#B8AB8A"/>
<path d="M522.698 267.47C524.028 275.94 522.578 309.3 522.518 318.81" stroke="#1F1F1F" stroke-width="1.5" stroke-miterlimit="10"/>
<path d="M499.318 251.48C504.538 252.17 516.268 259.19 522.378 264.06L499.318 251.48Z" fill="#B8AB8A"/>
<path d="M499.318 251.48C504.538 252.17 516.268 259.19 522.378 264.06" stroke="#1F1F1F" stroke-width="1.5" stroke-miterlimit="10"/>
<path d="M508.808 260.03C508.808 260.03 506.658 265.92 506.658 288.83C506.658 293.11 506.658 311.26 506.658 311.26" stroke="#1F1F1F" stroke-width="1.5" stroke-miterlimit="10"/>
<path d="M482.327 205.83C484.007 204.46 486.047 203.66 487.727 202.34C507.997 186.42 527.987 173.49 548.847 163.34C550.417 162.58 552.237 160.86 553.807 160.13C556.487 158.42 559.467 159.31 559.997 161.99C561.187 173.14 574.627 184.92 576.787 195.88C579.037 207.27 569.347 213.17 572.557 224.36C572.957 226.41 574.347 236.71 572.297 238.02C560.517 239.37 536.637 230.71 520.187 240.03C512.487 244.39 505.547 244.87 495.277 251.28C484.787 257.82 487.037 268.84 475.397 274.44C472.717 276.15 471.577 276.11 471.047 273.43C471.617 269.64 471.047 268.05 471.047 264.56C471.047 240.69 472.977 224.6 479.497 211.6C479.097 209.55 480.277 207.13 482.327 205.82V205.83Z" fill="#B8AB8A" stroke="#1F1F1F" stroke-width="1.5" stroke-miterlimit="10"/>
<path d="M566.136 235.02C566.136 235.02 542.746 228.48 516.566 235.44C510.926 236.94 498.746 245.11 492.796 249.86C479.926 260.15 475.406 274.45 475.406 274.45" stroke="#1F1F1F" stroke-width="1.5" stroke-miterlimit="10"/>
<path d="M384.437 155.661C384.697 154.311 385.437 153.071 385.757 151.761C389.687 135.951 396.937 119.601 399.167 115.641C400.017 114.141 401.247 111.631 402.047 110.061C402.567 109.041 402.757 106.741 403.307 105.741C403.977 103.811 405.397 101.091 406.967 102.441C420.737 111.991 436.057 119.601 451.727 127.151C453.077 127.931 453.687 129.561 453.177 131.031C452.737 131.991 451.757 133.771 451.357 134.761C449.217 140.071 446.917 145.361 444.607 151.581C441.317 160.461 438.867 168.721 435.867 177.871C435.327 179.531 435.477 181.741 434.837 183.331C434.167 185.261 431.907 186.101 430.137 185.081C428.057 184.521 426.397 182.791 424.507 181.961C408.767 175.121 398.087 168.191 388.167 159.531C386.817 158.751 383.927 157.121 384.437 155.651V155.661Z" fill="#B8AB8A" stroke="#1F1F1F" stroke-width="1.5" stroke-miterlimit="10"/>
<path d="M451.587 132.241C445.797 141.151 433.337 179.111 434.117 183.101" stroke="#1F1F1F" stroke-width="1.5" stroke-miterlimit="10"/>
<path d="M421.157 166.441C410.497 159.531 399.637 153.301 388.527 147.991L388.417 147.971C386.477 147.171 383.087 148.661 381.437 152.661C379.787 156.661 380.507 161.641 382.447 162.441C391.877 169.531 402.957 175.581 415.197 180.911C417.137 181.711 420.837 179.121 422.477 175.121C424.127 171.121 423.097 167.241 421.167 166.441H421.157Z" fill="#B8AB8A" stroke="#1F1F1F" stroke-width="1.5" stroke-miterlimit="10"/>
<path d="M414.847 180.131C413.587 179.241 413.017 176.221 414.667 172.221C416.317 168.221 418.247 166.911 419.947 166.761" stroke="#1F1F1F" stroke-width="1.5" stroke-miterlimit="10"/>
<path d="M381.928 155.881C391.158 162.161 401.718 168.081 413.398 173.691" stroke="#1F1F1F" stroke-width="1.5" stroke-miterlimit="10"/>
<path d="M407.137 167.581C406.957 167.761 406.117 170.231 406.117 170.231L408.517 171.341L409.557 168.721L407.137 167.581Z" fill="#B8AB8A" stroke="#1F1F1F" stroke-width="1.5" stroke-miterlimit="10"/>
<line x1="250.353" y1="219.525" x2="477.097" y2="350.437" stroke="black" stroke-width="3"/>
<g clip-path="url(#clip1_1696_13476)">
<rect x="335.437" y="244.4" width="89.5785" height="45" rx="15" transform="rotate(30 335.437 244.4)" fill="#FAFAF1"/>
<path d="M333.026 281.691C334.991 278.287 337.803 276.897 342.607 276.796L346.861 276.688C349.809 276.623 351.456 276.05 352.596 274.075C353.961 271.711 353.331 269.442 350.629 267.882C347.953 266.337 345.58 266.907 344.08 269.505L343.885 269.843L341.287 268.343L341.437 268.083C343.717 264.134 347.759 263.073 352.046 265.548C356.047 267.858 357.515 271.615 355.25 275.538C353.78 278.084 351.4 279.447 346.64 279.47L344.099 279.493C340.374 279.524 338.78 279.886 337.799 281.225L348.789 287.57L347.394 289.986L333.026 281.691ZM353.812 293.691C358.853 287.18 364.986 282.857 371.333 280.563L360.343 274.218L361.798 271.698L376.244 280.038L375.119 281.987C367.455 284.04 361.362 288.594 356.54 295.266L353.812 293.691ZM367.557 301.627C369.522 298.224 372.334 296.834 377.139 296.732L381.392 296.625C384.34 296.56 385.987 295.986 387.127 294.012C388.492 291.648 387.862 289.379 385.16 287.819C382.484 286.274 380.111 286.844 378.611 289.442L378.416 289.779L375.818 288.279L375.968 288.02C378.248 284.07 382.29 283.009 386.577 285.484C390.578 287.794 392.046 291.552 389.781 295.475C388.311 298.021 385.931 299.383 381.171 299.407L378.63 299.429C374.905 299.461 373.311 299.822 372.33 301.161L383.32 307.506L381.925 309.922L367.557 301.627Z" fill="black"/>
</g>
<defs>
<clipPath id="clip0_1696_13476">
<rect x="220.385" y="103.829" width="91" height="45" rx="15" transform="rotate(-30 220.385 103.829)" fill="white"/>
</clipPath>
<clipPath id="clip1_1696_13476">
<rect x="335.437" y="244.4" width="89.5785" height="45" rx="15" transform="rotate(30 335.437 244.4)" fill="white"/>
</clipPath>
</defs>
</svg>
