<svg width="900" height="500" viewBox="0 0 900 500" fill="none" xmlns="http://www.w3.org/2000/svg">
<path d="M394.662 81.0308C391.992 83.7008 391.562 85.1908 390.892 89.0608C388.152 103.191 388.812 120.441 390.892 139.011L394.862 141.841L478.732 190.571C479.962 191.281 480.762 191.641 481.572 191.631C482.392 191.631 483.192 191.271 484.412 190.571L504.332 179.061L508.302 176.231C509.402 160.451 509.782 144.831 508.302 129.641C508.302 121.181 506.892 120.541 502.642 117.851L421.362 70.2508C419.042 68.9008 416.732 69.2408 413.862 69.6108C407.542 71.3308 400.452 75.6508 394.652 81.0308H394.662Z" fill="#B8AB8A" stroke="#1F1F1F" stroke-width="1.5" stroke-miterlimit="10"/>
<path d="M481.462 137.311C480.132 145.781 481.582 179.141 481.642 188.651L481.462 137.311Z" fill="#B8AB8A"/>
<path d="M481.462 137.311C480.132 145.781 481.582 179.141 481.642 188.651" stroke="#1F1F1F" stroke-width="1.5" stroke-miterlimit="10"/>
<path d="M504.841 121.321C499.621 122.011 487.891 129.031 481.781 133.901L504.841 121.321Z" fill="#B8AB8A"/>
<path d="M504.841 121.321C499.621 122.011 487.891 129.031 481.781 133.901" stroke="#1F1F1F" stroke-width="1.5" stroke-miterlimit="10"/>
<path d="M495.352 129.871C495.352 129.871 497.502 135.761 497.502 158.671V181.101" fill="#B8AB8A"/>
<path d="M495.352 129.871C495.352 129.871 497.502 135.761 497.502 158.671V181.101" stroke="#1F1F1F" stroke-width="1.5" stroke-miterlimit="10"/>
<path d="M302.192 161.601L300.992 162.301C299.282 163.291 298.232 165.111 298.232 167.091C296.932 175.781 296.982 184.381 298.232 192.901L302.202 195.731L386.072 244.461C387.302 245.171 388.102 245.531 388.912 245.521C389.732 245.521 390.532 245.161 391.752 244.461L475.612 196.001L479.582 193.171V167.361C479.582 165.381 478.532 163.561 476.822 162.571C476.822 162.571 457.872 151.521 436.722 139.131C434.112 137.601 431.462 136.051 428.822 134.501C404.732 120.381 392.652 113.261 392.652 113.261C390.332 111.911 387.472 111.911 385.152 113.261C385.152 113.261 371.622 119.471 346.592 133.171C321.572 146.871 302.192 161.601 302.192 161.601Z" fill="#B8AB8A" stroke="#1F1F1F" stroke-width="1.5" stroke-miterlimit="10"/>
<path d="M477.251 172.171C454.341 187.431 415.691 208.511 390.461 221.271L477.251 172.171Z" fill="#B8AB8A"/>
<path d="M477.251 172.171C454.341 187.431 415.691 208.511 390.461 221.271" stroke="#1F1F1F" stroke-width="1.5" stroke-miterlimit="10"/>
<path d="M389.242 242.981C387.732 234.161 388.592 225.941 388.592 217.631L389.242 242.981Z" fill="#B8AB8A"/>
<path d="M389.242 242.981C387.732 234.161 388.592 225.941 388.592 217.631" stroke="#1F1F1F" stroke-width="1.5" stroke-miterlimit="10"/>
<path d="M487.764 134.47C485.094 137.14 484.664 138.63 483.994 142.5C481.254 156.63 481.914 173.88 483.994 192.45L487.964 195.28L571.834 244.01C573.064 244.72 573.864 245.08 574.674 245.07C575.494 245.07 576.294 244.71 577.514 244.01L597.434 232.5L601.404 229.67C602.504 213.89 602.884 198.27 601.404 183.08C601.404 174.62 599.994 173.98 595.744 171.29L514.464 123.69C512.144 122.34 509.834 122.68 506.964 123.05C500.644 124.77 493.554 129.09 487.754 134.47H487.764Z" fill="#B8AB8A" stroke="#1F1F1F" stroke-width="1.5" stroke-miterlimit="10"/>
<path d="M574.562 190.76C573.232 199.23 574.682 232.59 574.742 242.1L574.562 190.76Z" fill="#B8AB8A"/>
<path d="M574.562 190.76C573.232 199.23 574.682 232.59 574.742 242.1" stroke="#1F1F1F" stroke-width="1.5" stroke-miterlimit="10"/>
<path d="M597.941 174.76C592.721 175.45 580.991 182.47 574.881 187.34L597.941 174.76Z" fill="#B8AB8A"/>
<path d="M597.941 174.76C592.721 175.45 580.991 182.47 574.881 187.34" stroke="#1F1F1F" stroke-width="1.5" stroke-miterlimit="10"/>
<path d="M588.451 183.32C588.451 183.32 590.601 189.21 590.601 212.12V234.55" fill="#B8AB8A"/>
<path d="M588.451 183.32C588.451 183.32 590.601 189.21 590.601 212.12V234.55" stroke="#1F1F1F" stroke-width="1.5" stroke-miterlimit="10"/>
<path d="M208.483 215.531L207.283 216.231C205.573 217.221 204.523 219.041 204.523 221.021C203.223 229.711 203.273 238.311 204.523 246.831L208.493 249.661L292.363 298.391C293.593 299.101 294.393 299.461 295.203 299.451C296.023 299.451 296.823 299.091 298.043 298.391L381.903 249.931L385.873 247.101V221.291C385.873 219.311 384.823 217.491 383.113 216.501C383.113 216.501 364.163 205.451 343.013 193.061C340.403 191.531 337.753 189.981 335.113 188.431C311.023 174.311 298.943 167.191 298.943 167.191C296.623 165.841 293.763 165.841 291.443 167.191C291.443 167.191 277.913 173.401 252.883 187.101C227.863 200.801 208.483 215.531 208.483 215.531Z" fill="#B8AB8A" stroke="#1F1F1F" stroke-width="1.5" stroke-miterlimit="10"/>
<path d="M383.544 226.111C360.634 241.371 321.984 262.451 296.754 275.211L383.544 226.111Z" fill="#B8AB8A"/>
<path d="M383.544 226.111C360.634 241.371 321.984 262.451 296.754 275.211" stroke="#1F1F1F" stroke-width="1.5" stroke-miterlimit="10"/>
<path d="M295.533 296.921C294.023 288.101 294.883 279.881 294.883 271.571L295.533 296.921Z" fill="#B8AB8A"/>
<path d="M295.533 296.921C294.023 288.101 294.883 279.881 294.883 271.571" stroke="#1F1F1F" stroke-width="1.5" stroke-miterlimit="10"/>
<path d="M411.244 205.491C409.534 206.481 408.484 208.301 408.484 210.281C407.364 218.431 407.514 227.091 408.484 236.091L412.454 238.921L496.324 287.651C497.554 288.361 498.354 288.721 499.164 288.711C499.984 288.711 500.784 288.351 502.004 287.651L567.694 249.721L571.664 246.891V221.081C571.664 219.101 570.614 217.281 568.904 216.291L567.704 215.591C567.704 215.591 542.124 198.151 523.864 188.361C505.604 178.571 484.744 166.981 484.744 166.981C482.424 165.631 479.564 165.631 477.244 166.981C477.244 166.981 457.574 176.851 447.334 182.831C437.104 188.801 411.244 205.491 411.244 205.491Z" fill="#B8AB8A" stroke="#1F1F1F" stroke-width="1.5" stroke-miterlimit="10"/>
<path d="M500.023 286.771C498.513 277.951 499.373 268.921 499.373 260.611L500.023 286.771Z" fill="#B8AB8A"/>
<path d="M500.023 286.771C498.513 277.951 499.373 268.921 499.373 260.611" stroke="#1F1F1F" stroke-width="1.5" stroke-miterlimit="10"/>
<path d="M570.533 226.141C547.623 241.401 525.933 252.541 500.703 265.301L570.533 226.141Z" fill="#B8AB8A"/>
<path d="M570.533 226.141C547.623 241.401 525.933 252.541 500.703 265.301" stroke="#1F1F1F" stroke-width="1.5" stroke-miterlimit="10"/>
<path d="M580.865 188.371C578.195 191.041 577.765 192.531 577.095 196.401C574.355 210.531 575.015 227.781 577.095 246.351L581.065 249.181L664.935 297.911C666.165 298.621 666.965 298.981 667.775 298.971C668.595 298.971 669.395 298.611 670.615 297.911L690.535 286.401L694.505 283.571C695.605 267.791 695.985 252.171 694.505 236.981C694.505 228.521 693.095 227.881 688.845 225.191L607.565 177.591C605.245 176.241 602.935 176.581 600.065 176.951C593.745 178.671 586.655 182.991 580.855 188.371H580.865Z" fill="#B8AB8A" stroke="#1F1F1F" stroke-width="1.5" stroke-miterlimit="10"/>
<path d="M667.655 244.661C666.325 253.131 667.775 286.491 667.835 296.001L667.655 244.661Z" fill="#B8AB8A"/>
<path d="M667.655 244.661C666.325 253.131 667.775 286.491 667.835 296.001" stroke="#1F1F1F" stroke-width="1.5" stroke-miterlimit="10"/>
<path d="M691.044 228.661C685.824 229.351 674.094 236.371 667.984 241.241L691.044 228.661Z" fill="#B8AB8A"/>
<path d="M691.044 228.661C685.824 229.351 674.094 236.371 667.984 241.241" stroke="#1F1F1F" stroke-width="1.5" stroke-miterlimit="10"/>
<path d="M681.555 237.22C681.555 237.22 683.705 243.11 683.705 266.02V288.45" fill="#B8AB8A"/>
<path d="M681.555 237.22C681.555 237.22 683.705 243.11 683.705 266.02V288.45" stroke="#1F1F1F" stroke-width="1.5" stroke-miterlimit="10"/>
<path d="M504.344 258.93C502.634 259.92 501.584 261.74 501.584 263.72C500.464 271.87 500.614 280.53 501.584 289.53L505.554 292.36L589.424 341.09C590.654 341.8 591.454 342.16 592.264 342.15C593.084 342.15 593.884 341.79 595.104 341.09L660.794 303.16L664.764 300.33V274.52C664.764 272.54 663.714 270.72 662.004 269.73L660.804 269.03C660.804 269.03 635.224 251.59 616.964 241.8C598.704 232.01 577.844 220.42 577.844 220.42C575.524 219.07 572.664 219.07 570.344 220.42C570.344 220.42 550.674 230.29 540.434 236.27C530.204 242.24 504.344 258.93 504.344 258.93Z" fill="#B8AB8A" stroke="#1F1F1F" stroke-width="1.5" stroke-miterlimit="10"/>
<path d="M593.122 340.22C591.612 331.4 592.472 322.37 592.472 314.06L593.122 340.22Z" fill="#B8AB8A"/>
<path d="M593.122 340.22C591.612 331.4 592.472 322.37 592.472 314.06" stroke="#1F1F1F" stroke-width="1.5" stroke-miterlimit="10"/>
<path d="M663.633 279.58C640.723 294.84 619.033 305.98 593.803 318.74L663.633 279.58Z" fill="#B8AB8A"/>
<path d="M663.633 279.58C640.723 294.84 619.033 305.98 593.803 318.74" stroke="#1F1F1F" stroke-width="1.5" stroke-miterlimit="10"/>
<path d="M584.042 235.443C584.302 234.093 585.042 232.853 585.362 231.543C589.292 215.733 596.542 199.383 598.772 195.423C599.622 193.923 600.852 191.413 601.652 189.843C602.172 188.823 602.362 186.523 602.912 185.523C603.582 183.593 605.002 180.873 606.572 182.223C620.342 191.773 635.662 199.383 651.332 206.933C652.682 207.713 653.292 209.343 652.782 210.813C652.342 211.773 651.362 213.553 650.962 214.543C648.822 219.853 646.522 225.143 644.212 231.363C640.922 240.243 638.472 248.503 635.472 257.653C634.932 259.313 635.082 261.523 634.442 263.113C633.772 265.043 631.512 265.883 629.742 264.863C627.662 264.303 626.002 262.573 624.112 261.743C608.372 254.903 597.692 247.973 587.772 239.313C586.422 238.533 583.532 236.903 584.042 235.433V235.443Z" fill="#B8AB8A" stroke="#1F1F1F" stroke-width="1.5" stroke-miterlimit="10"/>
<path d="M651.202 212.013C645.412 220.923 632.952 258.883 633.732 262.873" stroke="#1F1F1F" stroke-width="1.5" stroke-miterlimit="10"/>
<path d="M620.763 246.213C610.103 239.303 599.243 233.073 588.133 227.763L588.023 227.743C586.083 226.943 582.693 228.433 581.043 232.433C579.393 236.433 580.113 241.413 582.053 242.213C591.483 249.303 602.563 255.353 614.803 260.683C616.743 261.483 620.443 258.893 622.083 254.893C623.733 250.893 622.703 247.013 620.773 246.213H620.763Z" fill="#B8AB8A" stroke="#1F1F1F" stroke-width="1.5" stroke-miterlimit="10"/>
<path d="M614.453 259.903C613.193 259.013 612.623 255.993 614.273 251.993C615.923 247.993 617.853 246.683 619.553 246.533" stroke="#1F1F1F" stroke-width="1.5" stroke-miterlimit="10"/>
<path d="M581.533 235.653C590.763 241.933 601.323 247.853 613.003 253.463" stroke="#1F1F1F" stroke-width="1.5" stroke-miterlimit="10"/>
<path d="M606.743 247.353C606.563 247.533 605.723 250.003 605.723 250.003L608.123 251.113L609.163 248.493L606.743 247.353Z" fill="#B8AB8A" stroke="#1F1F1F" stroke-width="1.5" stroke-miterlimit="10"/>
<path d="M393.712 324.867L392.512 325.567C390.802 326.557 389.752 328.377 389.752 330.357C388.452 339.047 388.502 347.647 389.752 356.167L393.722 358.997L477.592 407.727C478.822 408.437 479.622 408.797 480.432 408.787C481.252 408.787 482.052 408.427 483.272 407.727L567.132 359.267L571.102 356.437V330.627C571.102 328.647 570.052 326.827 568.342 325.837C568.342 325.837 549.392 314.787 528.242 302.397C525.632 300.867 522.982 299.317 520.342 297.767C496.252 283.647 484.172 276.527 484.172 276.527C481.852 275.177 478.992 275.177 476.672 276.527C476.672 276.527 463.142 282.737 438.112 296.437C413.092 310.137 393.712 324.867 393.712 324.867Z" fill="#B8AB8A" stroke="#1F1F1F" stroke-width="1.5" stroke-miterlimit="10"/>
<path d="M568.762 335.437C545.852 350.697 507.202 371.777 481.972 384.537L568.762 335.437Z" fill="#B8AB8A"/>
<path d="M568.762 335.437C545.852 350.697 507.202 371.777 481.972 384.537" stroke="#1F1F1F" stroke-width="1.5" stroke-miterlimit="10"/>
<path d="M480.752 406.247C479.242 397.427 480.102 389.207 480.102 380.897L480.752 406.247Z" fill="#B8AB8A"/>
<path d="M480.752 406.247C479.242 397.427 480.102 389.207 480.102 380.897" stroke="#1F1F1F" stroke-width="1.5" stroke-miterlimit="10"/>
<path d="M441.749 160.229C439.809 164.879 439.159 168.819 437.299 173.539C435.869 176.519 432.019 177.789 429.299 176.189C402.769 163.999 377.659 151.769 360.089 136.919C358.019 135.699 357.309 133.169 358.399 130.899C359.059 128.819 360.549 126.919 361.249 124.879C365.469 112.559 389.269 80.1791 389.269 80.1791C389.939 78.3991 392.859 79.349 394.469 80.229C417.079 97.319 438.739 106.889 460.859 116.519C463.879 118.179 465.499 121.389 464.979 124.829C464.749 126.319 464.059 130.129 464.339 131.489C466.459 141.929 464.559 146.699 467.339 157.229C467.879 160.279 465.259 163.319 461.889 163.539L441.759 160.219L441.749 160.229Z" fill="#B8AB8A" stroke="#1F1F1F" stroke-width="1.5" stroke-miterlimit="10"/>
<path d="M460.848 125.689C454.918 139.259 445.568 151.059 441.738 160.229L460.848 125.689Z" fill="#B8AB8A"/>
<path d="M460.848 125.689C454.918 139.259 445.568 151.059 441.738 160.229" stroke="#1F1F1F" stroke-width="1.5" stroke-miterlimit="10"/>
<path d="M488.187 176.058C488.447 174.708 489.277 173.738 489.737 170.378C490.187 167.128 492.727 159.048 493.777 155.538C494.107 154.448 495.187 151.638 495.607 149.608C496.277 147.678 496.827 146.648 498.597 147.668C499.327 148.168 500.387 149.968 501.127 150.468C512.717 158.388 525.157 166.018 538.357 172.178C540.157 173.018 543.217 171.838 544.997 172.698C546.347 173.478 545.147 176.918 544.637 178.388C543.347 180.998 539.067 192.788 539.277 201.208C538.867 203.968 536.307 207.288 534.537 206.268C529.737 203.468 529.317 202.188 525.837 200.308C512.757 193.238 499.917 186.688 490.327 178.918C488.977 178.138 487.677 177.518 488.187 176.048V176.058Z" fill="#B8AB8A" stroke="#1F1F1F" stroke-width="1.5" stroke-miterlimit="10"/>
<path d="M523.757 191.887C513.097 184.977 502.237 178.747 491.127 173.437L491.017 173.417C489.077 172.617 485.687 174.107 484.037 178.107C482.387 182.107 483.107 187.087 485.047 187.887C494.477 194.977 505.557 201.027 517.797 206.357C519.737 207.157 523.437 204.567 525.077 200.567C526.717 196.567 525.697 192.687 523.767 191.887H523.757Z" fill="#B8AB8A" stroke="#1F1F1F" stroke-width="1.5" stroke-miterlimit="10"/>
<path d="M517.447 205.577C516.187 204.687 515.617 201.667 517.267 197.667C518.917 193.667 520.847 192.357 522.547 192.207" stroke="#1F1F1F" stroke-width="1.5" stroke-miterlimit="10"/>
<path d="M484.526 181.327C493.756 187.607 504.316 193.527 515.996 199.137" stroke="#1F1F1F" stroke-width="1.5" stroke-miterlimit="10"/>
<path d="M509.746 193.027C509.566 193.207 508.726 195.677 508.726 195.677L511.126 196.787L512.166 194.167L509.746 193.027Z" fill="#B8AB8A" stroke="#1F1F1F" stroke-width="1.5" stroke-miterlimit="10"/>
<line x1="163.838" y1="275.064" x2="453.516" y2="442.309" stroke="black" stroke-width="3"/>
<g clip-path="url(#clip0_1693_5058)">
<rect x="282.93" y="319.573" width="83.7084" height="45" rx="15" transform="rotate(30 282.93 319.573)" fill="#FAFAF1"/>
<path d="M285.535 360.244C281.326 357.814 279.988 354.132 281.923 349.88L284.734 351.191C283.4 354.162 284.138 356.424 286.944 358.044C290.036 359.829 292.342 359.013 293.602 356.831C294.997 354.415 294.208 352.123 291.376 350.488L289.505 349.408L290.78 347.199L292.625 348.264C295.015 349.644 297.101 349.151 298.241 347.177C299.486 345.02 298.505 342.999 296.141 341.634C293.413 340.059 291.222 340.734 289.534 342.877L287.138 341.147C289.68 337.765 293.274 337 297.431 339.4C301.588 341.8 302.789 345.299 300.974 348.443C299.759 350.547 297.999 351.436 295.232 350.948L295.202 351C297.622 353.228 297.738 355.789 296.268 358.335C294.078 362.128 289.848 362.734 285.535 360.244ZM302.138 369.345L310.298 355.212L305.18 352.257L306.275 350.36L306.535 350.51C308.146 351.44 309.532 351.859 310.779 351.679C311.836 351.527 312.773 350.925 313.686 349.824L313.918 349.542L316.334 350.937L304.814 370.89L302.138 369.345ZM318.781 379.473C314.909 377.238 313.314 373.581 314.868 369.87L317.761 371.16C316.725 373.853 317.981 375.998 320.189 377.273C323.073 378.938 325.682 378.019 327.287 375.239C328.847 372.537 328.401 369.89 325.387 368.15C323.647 367.145 322.159 367.082 320.482 367.466L318.016 365.557L325.927 356.475L336.995 362.865L335.555 365.36L326.539 360.155L322.201 365.028L322.223 365.11C323.805 364.95 325.322 365.202 327.115 366.237C331.584 368.817 332.119 373.11 330.019 376.747C327.874 380.463 323.665 382.293 318.781 379.473Z" fill="black"/>
</g>
<line x1="134.383" y1="197.074" x2="384.98" y2="52.3922" stroke="black" stroke-width="3"/>
<g clip-path="url(#clip1_1693_5058)">
<rect x="202.471" y="133.515" width="98" height="45" rx="15" transform="rotate(-30 202.471 133.515)" fill="#FAFAF1"/>
<path d="M237.803 151.798C235.838 148.394 236.04 145.264 238.354 141.053L240.388 137.315C241.805 134.73 242.132 133.017 240.992 131.042C239.627 128.678 237.347 128.089 234.645 129.649C231.969 131.194 231.276 133.534 232.776 136.132L232.971 136.47L230.373 137.97L230.223 137.71C227.943 133.761 229.045 129.73 233.332 127.255C237.333 124.945 241.321 125.552 243.586 129.475C245.056 132.021 245.046 134.764 242.687 138.897L241.435 141.11C239.6 144.351 239.116 145.913 239.785 147.432L250.775 141.087L252.17 143.503L237.803 151.798ZM265.298 126.882L268.24 124.837L269.47 126.968L266.213 128.467L269.213 133.663L266.745 135.088L263.745 129.892L253.907 135.953L252.812 134.056L253.666 116.035L257.693 113.71L265.298 126.882ZM262.83 128.307L256.23 116.876L256.152 116.921L255.446 132.258L262.83 128.307ZM280.878 126.929L272.718 112.795L267.599 115.75L266.504 113.853L266.764 113.703C268.375 112.773 269.431 111.783 269.898 110.612C270.296 109.621 270.243 108.508 269.745 107.167L269.617 106.825L272.034 105.43L283.554 125.384L280.878 126.929Z" fill="black"/>
</g>
<defs>
<clipPath id="clip0_1693_5058">
<rect x="282.93" y="319.573" width="83.7084" height="45" rx="15" transform="rotate(30 282.93 319.573)" fill="white"/>
</clipPath>
<clipPath id="clip1_1693_5058">
<rect x="202.471" y="133.515" width="98" height="45" rx="15" transform="rotate(-30 202.471 133.515)" fill="white"/>
</clipPath>
</defs>
</svg>
