<svg width="900" height="500" viewBox="0 0 900 500" fill="none" xmlns="http://www.w3.org/2000/svg">
<line x1="443.797" y1="85.6264" x2="670.542" y2="216.538" stroke="black" stroke-width="3"/>
<g clip-path="url(#clip0_1696_13089)">
<rect x="528.881" y="110.501" width="89.5785" height="45" rx="15" transform="rotate(30 528.881 110.501)" fill="#FAFAF1"/>
<path d="M526.471 147.792C528.436 144.388 531.247 142.998 536.052 142.897L540.305 142.789C543.253 142.724 544.9 142.151 546.04 140.176C547.405 137.812 546.775 135.543 544.073 133.983C541.397 132.438 539.024 133.008 537.524 135.606L537.329 135.944L534.731 134.444L534.881 134.184C537.161 130.235 541.203 129.174 545.49 131.649C549.491 133.959 550.959 137.716 548.694 141.639C547.224 144.186 544.844 145.548 540.085 145.571L537.543 145.594C533.818 145.625 532.224 145.987 531.243 147.326L542.233 153.671L540.838 156.087L526.471 147.792ZM547.256 159.792C552.297 153.281 558.43 148.958 564.778 146.664L553.788 140.319L555.243 137.799L569.688 146.139L568.563 148.088C560.9 150.141 554.807 154.695 549.984 161.367L547.256 159.792ZM561.002 167.728C562.967 164.325 565.778 162.935 570.583 162.833L574.837 162.726C577.784 162.661 579.431 162.087 580.571 160.113C581.936 157.749 581.306 155.48 578.604 153.92C575.928 152.375 573.555 152.945 572.055 155.543L571.86 155.88L569.262 154.38L569.412 154.121C571.692 150.172 575.734 149.11 580.021 151.585C584.022 153.895 585.49 157.653 583.225 161.576C581.755 164.122 579.375 165.485 574.616 165.508L572.074 165.53C568.349 165.562 566.755 165.923 565.774 167.262L576.764 173.607L575.369 176.023L561.002 167.728Z" fill="black"/>
</g>
<path d="M426.774 120.083C429.444 122.753 429.874 124.243 430.544 128.113C433.284 142.243 432.624 159.493 430.544 178.063L426.574 180.893L342.704 229.623C341.474 230.333 340.674 230.693 339.864 230.683C339.044 230.683 338.244 230.323 337.024 229.623L317.104 218.113L313.134 215.283C312.034 199.503 311.654 183.883 313.134 168.693C313.134 160.233 314.544 159.593 318.794 156.903L400.074 109.303C402.394 107.953 404.704 108.293 407.574 108.663C413.894 110.383 420.984 114.703 426.784 120.083H426.774Z" fill="#B8AB8A" stroke="#1F1F1F" stroke-width="1.5" stroke-miterlimit="10"/>
<path d="M339.984 176.372C341.314 184.842 339.864 218.202 339.804 227.712L339.984 176.372Z" fill="#B8AB8A"/>
<path d="M339.984 176.372C341.314 184.842 339.864 218.202 339.804 227.712" stroke="#1F1F1F" stroke-width="1.5" stroke-miterlimit="10"/>
<path d="M316.593 160.382C321.813 161.072 333.543 168.092 339.653 172.962L316.593 160.382Z" fill="#B8AB8A"/>
<path d="M316.593 160.382C321.813 161.072 333.543 168.092 339.653 172.962" stroke="#1F1F1F" stroke-width="1.5" stroke-miterlimit="10"/>
<path d="M326.092 168.932C326.092 168.932 323.942 174.822 323.942 197.732C323.942 202.012 323.942 220.162 323.942 220.162" fill="#B8AB8A"/>
<path d="M326.092 168.932C326.092 168.932 323.942 174.822 323.942 197.732C323.942 202.012 323.942 220.162 323.942 220.162" stroke="#1F1F1F" stroke-width="1.5" stroke-miterlimit="10"/>
<path d="M408.804 135.023C406.134 137.693 405.704 139.183 405.034 143.053C402.294 157.183 402.954 174.433 405.034 193.003L409.004 195.833L492.874 244.563C494.104 245.273 494.904 245.633 495.714 245.623C496.534 245.623 497.334 245.263 498.554 244.563L518.474 233.053L522.444 230.223C523.544 214.443 523.924 198.823 522.444 183.633C522.444 175.173 521.034 174.533 516.784 171.843L435.504 124.243C433.184 122.893 430.874 123.233 428.004 123.603C421.684 125.323 414.594 129.643 408.794 135.023H408.804Z" fill="#B8AB8A" stroke="#1F1F1F" stroke-width="1.5" stroke-miterlimit="10"/>
<path d="M495.594 191.313C494.264 199.783 495.714 233.143 495.774 242.653L495.594 191.313Z" fill="#B8AB8A"/>
<path d="M495.594 191.313C494.264 199.783 495.714 233.143 495.774 242.653" stroke="#1F1F1F" stroke-width="1.5" stroke-miterlimit="10"/>
<path d="M518.985 175.323C513.765 176.013 502.035 183.033 495.925 187.903L518.985 175.323Z" fill="#B8AB8A"/>
<path d="M518.985 175.323C513.765 176.013 502.035 183.033 495.925 187.903" stroke="#1F1F1F" stroke-width="1.5" stroke-miterlimit="10"/>
<path d="M509.493 183.872C509.493 183.872 511.643 189.762 511.643 212.672V235.102" fill="#B8AB8A"/>
<path d="M509.493 183.872C509.493 183.872 511.643 189.762 511.643 212.672V235.102" stroke="#1F1F1F" stroke-width="1.5" stroke-miterlimit="10"/>
<path d="M501.905 188.472C499.235 191.142 498.805 192.632 498.135 196.502C495.395 210.632 496.055 227.882 498.135 246.452L502.105 249.282L585.975 298.012C587.205 298.722 588.005 299.082 588.815 299.072C589.635 299.072 590.435 298.712 591.655 298.012L611.575 286.502L615.545 283.672C616.645 267.892 617.025 252.272 615.545 237.082C615.545 228.622 614.135 227.982 609.885 225.292L528.605 177.692C526.285 176.342 523.975 176.682 521.105 177.052C514.785 178.772 507.695 183.092 501.895 188.472H501.905Z" fill="#B8AB8A" stroke="#1F1F1F" stroke-width="1.5" stroke-miterlimit="10"/>
<path d="M588.695 244.762C587.365 253.232 588.815 286.592 588.875 296.102L588.695 244.762Z" fill="#B8AB8A"/>
<path d="M588.695 244.762C587.365 253.232 588.815 286.592 588.875 296.102" stroke="#1F1F1F" stroke-width="1.5" stroke-miterlimit="10"/>
<path d="M612.086 228.762C606.866 229.452 595.136 236.472 589.026 241.342L612.086 228.762Z" fill="#B8AB8A"/>
<path d="M612.086 228.762C606.866 229.452 595.136 236.472 589.026 241.342" stroke="#1F1F1F" stroke-width="1.5" stroke-miterlimit="10"/>
<path d="M602.585 237.322C602.585 237.322 604.735 243.212 604.735 266.122V288.552" fill="#B8AB8A"/>
<path d="M602.585 237.322C602.585 237.322 604.735 243.212 604.735 266.122V288.552" stroke="#1F1F1F" stroke-width="1.5" stroke-miterlimit="10"/>
<path d="M315.394 216.223L314.194 216.923C312.484 217.913 311.434 219.733 311.434 221.713C310.134 230.403 310.184 239.003 311.434 247.523L315.404 250.353L399.274 299.083C400.504 299.793 401.304 300.153 402.114 300.143C402.934 300.143 403.734 299.783 404.954 299.083L488.814 250.623L492.784 247.793V221.983C492.784 220.003 491.734 218.183 490.024 217.193C490.024 217.193 471.074 206.143 449.924 193.753C447.314 192.223 444.664 190.673 442.024 189.123C417.934 175.003 405.854 167.883 405.854 167.883C403.534 166.533 400.674 166.533 398.354 167.883C398.354 167.883 384.824 174.093 359.794 187.793C334.774 201.493 315.394 216.223 315.394 216.223Z" fill="#B8AB8A" stroke="#1F1F1F" stroke-width="1.5" stroke-miterlimit="10"/>
<path d="M490.453 226.802C467.543 242.062 428.893 263.142 403.663 275.902L490.453 226.802Z" fill="#B8AB8A"/>
<path d="M490.453 226.802C467.543 242.062 428.893 263.142 403.663 275.902" stroke="#1F1F1F" stroke-width="1.5" stroke-miterlimit="10"/>
<path d="M402.444 297.612C400.934 288.792 401.794 280.572 401.794 272.262L402.444 297.612Z" fill="#B8AB8A"/>
<path d="M402.444 297.612C400.934 288.792 401.794 280.572 401.794 272.262" stroke="#1F1F1F" stroke-width="1.5" stroke-miterlimit="10"/>
<path d="M408.415 268.873L407.215 269.573C405.505 270.563 404.455 272.383 404.455 274.363C403.155 283.053 403.205 291.652 404.455 300.173L408.425 303.003L492.295 351.732C493.525 352.443 494.325 352.803 495.135 352.793C495.955 352.793 496.755 352.432 497.975 351.732L581.835 303.273L585.805 300.443V274.633C585.805 272.653 584.755 270.833 583.045 269.843C583.045 269.843 564.095 258.793 542.945 246.403C540.335 244.873 537.685 243.323 535.045 241.773C510.955 227.653 498.875 220.533 498.875 220.533C496.555 219.183 493.695 219.183 491.375 220.533C491.375 220.533 477.845 226.743 452.815 240.443C427.795 254.143 408.415 268.873 408.415 268.873Z" fill="#B8AB8A" stroke="#1F1F1F" stroke-width="1.5" stroke-miterlimit="10"/>
<path d="M583.475 279.453C560.565 294.713 521.915 315.793 496.685 328.553L583.475 279.453Z" fill="#B8AB8A"/>
<path d="M583.475 279.453C560.565 294.713 521.915 315.793 496.685 328.553" stroke="#1F1F1F" stroke-width="1.5" stroke-miterlimit="10"/>
<path d="M495.465 350.262C493.955 341.442 494.815 333.222 494.815 324.912L495.465 350.262Z" fill="#B8AB8A"/>
<path d="M495.465 350.262C493.955 341.442 494.815 333.222 494.815 324.912" stroke="#1F1F1F" stroke-width="1.5" stroke-miterlimit="10"/>
<path d="M509.565 237.343C509.825 235.993 510.565 234.753 510.885 233.443C514.815 217.633 522.065 201.283 524.295 197.323C525.145 195.823 526.375 193.313 527.175 191.743C527.695 190.723 527.885 188.423 528.435 187.423C529.105 185.493 530.525 182.773 532.095 184.123C545.865 193.673 561.185 201.283 576.855 208.833C578.205 209.613 578.815 211.243 578.305 212.713C577.865 213.673 576.885 215.453 576.485 216.443C574.345 221.753 572.045 227.043 569.735 233.263C566.445 242.143 563.995 250.403 560.995 259.553C560.455 261.213 560.605 263.423 559.965 265.013C559.295 266.943 557.035 267.783 555.265 266.763C553.185 266.203 551.525 264.473 549.635 263.643C533.895 256.803 523.215 249.873 513.295 241.213C511.945 240.433 509.055 238.803 509.565 237.333V237.343Z" fill="#B8AB8A" stroke="#1F1F1F" stroke-width="1.5" stroke-miterlimit="10"/>
<path d="M576.715 213.923C570.925 222.833 558.465 260.793 559.245 264.783" stroke="#1F1F1F" stroke-width="1.5" stroke-miterlimit="10"/>
<path d="M546.285 248.114C535.625 241.204 524.765 234.974 513.655 229.664L513.545 229.644C511.605 228.844 508.215 230.334 506.565 234.334C504.915 238.334 505.635 243.314 507.575 244.114C517.005 251.204 528.085 257.254 540.325 262.584C542.265 263.384 545.965 260.794 547.605 256.794C549.255 252.794 548.225 248.914 546.295 248.114H546.285Z" fill="#B8AB8A" stroke="#1F1F1F" stroke-width="1.5" stroke-miterlimit="10"/>
<path d="M539.975 261.814C538.715 260.924 538.145 257.904 539.795 253.904C541.445 249.904 543.375 248.594 545.075 248.444" stroke="#1F1F1F" stroke-width="1.5" stroke-miterlimit="10"/>
<path d="M507.056 237.564C516.286 243.844 526.846 249.764 538.526 255.374" stroke="#1F1F1F" stroke-width="1.5" stroke-miterlimit="10"/>
<path d="M532.265 249.263C532.085 249.443 531.245 251.913 531.245 251.913L533.645 253.023L534.685 250.403L532.265 249.263Z" fill="#B8AB8A" stroke="#1F1F1F" stroke-width="1.5" stroke-miterlimit="10"/>
<path d="M636.745 241.313C639.415 243.983 639.845 245.473 640.515 249.343C643.255 263.473 642.595 280.723 640.515 299.293L636.545 302.123L552.675 350.853C551.445 351.563 550.645 351.923 549.835 351.913C549.015 351.913 548.215 351.553 546.995 350.853L527.075 339.343L523.105 336.513C522.005 320.733 521.625 305.113 523.105 289.923C523.105 281.463 524.515 280.823 528.765 278.133L610.045 230.533C612.365 229.183 614.675 229.523 617.545 229.893C623.865 231.613 630.955 235.933 636.755 241.313H636.745Z" fill="#B8AB8A" stroke="#1F1F1F" stroke-width="1.5" stroke-miterlimit="10"/>
<path d="M549.945 297.593C551.275 306.063 549.825 339.423 549.765 348.933L549.945 297.593Z" fill="#B8AB8A"/>
<path d="M549.945 297.593C551.275 306.063 549.825 339.423 549.765 348.933" stroke="#1F1F1F" stroke-width="1.5" stroke-miterlimit="10"/>
<path d="M526.565 281.603C531.785 282.293 543.515 289.313 549.625 294.183L526.565 281.603Z" fill="#B8AB8A"/>
<path d="M526.565 281.603C531.785 282.293 543.515 289.313 549.625 294.183" stroke="#1F1F1F" stroke-width="1.5" stroke-miterlimit="10"/>
<path d="M536.055 290.153C536.055 290.153 533.905 296.043 533.905 318.953C533.905 323.233 533.905 341.383 533.905 341.383" stroke="#1F1F1F" stroke-width="1.5" stroke-miterlimit="10"/>
<path d="M470.383 203.313C461.534 183.633 467.514 140.543 461.114 116.833C460.644 115.073 461.993 112.673 461.943 110.853C462.373 107.633 459.753 104.813 456.503 105.003C431.113 116.393 388.324 121.203 359.543 112.483C357.063 112.633 355.043 114.513 354.713 116.973C354.183 133.763 353.904 150.853 355.674 169.173C356.774 180.583 348.564 193.543 346.124 205.173C345.694 208.393 348.314 211.213 351.564 211.023C381.334 212.143 439.124 214.203 462.624 209.053C465.104 208.903 471.263 205.283 470.383 203.313Z" fill="#B8AB8A" stroke="#1F1F1F" stroke-width="1.5" stroke-miterlimit="10"/>
<path d="M261.216 311.786C259.506 312.776 258.456 314.596 258.456 316.576C257.336 324.726 257.486 333.386 258.456 342.386L262.426 345.216L346.296 393.946C347.526 394.656 348.326 395.016 349.136 395.006C349.956 395.006 350.756 394.646 351.976 393.946L417.666 356.016L421.636 353.186V327.376C421.636 325.396 420.586 323.576 418.876 322.586L417.676 321.886C417.676 321.886 392.096 304.446 373.836 294.656C355.576 284.866 334.716 273.276 334.716 273.276C332.396 271.926 329.536 271.926 327.216 273.276C327.216 273.276 307.546 283.146 297.306 289.126C287.076 295.096 261.216 311.786 261.216 311.786Z" fill="#B8AB8A" stroke="#1F1F1F" stroke-width="1.5" stroke-miterlimit="10"/>
<path d="M349.994 393.066C348.484 384.246 349.344 375.216 349.344 366.906L349.994 393.066Z" fill="#B8AB8A"/>
<path d="M349.994 393.066C348.484 384.246 349.344 375.216 349.344 366.906" stroke="#1F1F1F" stroke-width="1.5" stroke-miterlimit="10"/>
<path d="M420.515 332.436C397.605 347.696 375.915 358.836 350.685 371.596L420.515 332.436Z" fill="#B8AB8A"/>
<path d="M420.515 332.436C397.605 347.696 375.915 358.836 350.685 371.596" stroke="#1F1F1F" stroke-width="1.5" stroke-miterlimit="10"/>
<line x1="194.891" y1="183.536" x2="362.841" y2="86.5695" stroke="black" stroke-width="3"/>
<g clip-path="url(#clip1_1696_13089)">
<rect x="226.49" y="142.348" width="98" height="45" rx="15" transform="rotate(-30 226.49 142.348)" fill="#FAFAF1"/>
<path d="M265.876 158.291L257.716 144.157L252.598 147.112L251.503 145.216L251.763 145.066C253.374 144.136 254.43 143.145 254.897 141.974C255.295 140.983 255.241 139.87 254.744 138.529L254.616 138.188L257.032 136.793L268.552 156.746L265.876 158.291ZM283.032 148.871C278.823 151.301 274.965 150.619 272.25 146.817L274.791 145.038C276.697 147.679 279.025 148.171 281.83 146.551C284.922 144.766 285.369 142.36 284.109 140.178C282.714 137.761 280.334 137.299 277.502 138.934L275.632 140.014L274.357 137.806L276.201 136.741C278.592 135.361 279.208 133.308 278.068 131.333C276.823 129.177 274.582 129.016 272.218 130.381C269.49 131.956 268.979 134.191 269.991 136.724L267.295 137.934C265.636 134.042 266.771 130.547 270.928 128.147C275.085 125.747 278.716 126.456 280.531 129.6C281.746 131.704 281.635 133.673 279.829 135.824L279.859 135.876C282.999 134.895 285.274 136.076 286.744 138.622C288.934 142.415 287.344 146.381 283.032 148.871ZM295.672 123.906C299.543 121.671 303.648 122.661 305.988 126.714C308.298 130.715 307.275 134.943 302.884 137.478C300.572 138.813 298.236 139.088 295.735 138.176C293.454 137.346 291.799 135.738 289.819 132.309C286.264 126.151 284.95 120.155 291.133 116.585C294.563 114.605 297.853 114.784 300.17 117.118L297.771 119.022C296.556 117.818 294.742 117.376 292.326 118.771C289.131 120.616 288.486 123.76 291.772 129.691C291.884 127.306 293.334 125.256 295.672 123.906ZM301.62 135.229C304.27 133.699 305.055 131.098 303.465 128.344C301.845 125.538 299.151 124.773 296.501 126.303C294.189 127.638 292.953 130.118 293.931 133.191C295.118 134.826 296.028 135.444 297.124 135.781C298.823 136.324 300.347 135.964 301.62 135.229Z" fill="black"/>
</g>
<line x1="197.208" y1="307.564" x2="294.428" y2="251.434" stroke="black" stroke-width="3"/>
<g clip-path="url(#clip2_1696_13089)">
<rect x="199.836" y="281.857" width="82" height="45" rx="15" transform="rotate(-30 199.836 281.857)" fill="#FAFAF1"/>
<path d="M242.565 296.424C238.486 298.779 233.924 298.676 231.554 294.571C230.159 292.155 230.481 289.233 232.552 287.24L232.522 287.188C230.008 287.635 227.913 286.766 226.743 284.739C224.823 281.414 226.482 277.927 230.535 275.587C234.588 273.247 238.463 273.539 240.383 276.864C241.523 278.839 241.243 281.114 239.641 283.078L239.671 283.13C242.537 282.514 245.045 283.318 246.545 285.916C248.915 290.021 246.618 294.084 242.565 296.424ZM235.5 284.187C238.098 282.687 239.056 280.506 237.886 278.479C236.716 276.453 234.408 276.296 231.81 277.796C229.212 279.296 228.246 281.343 229.416 283.369C230.586 285.396 232.902 285.687 235.5 284.187ZM241.275 294.189C244.341 292.419 245.327 289.807 243.917 287.364C242.567 285.026 239.811 284.573 236.745 286.343C233.68 288.113 232.753 290.588 234.148 293.004C235.558 295.447 238.21 295.959 241.275 294.189ZM262.65 275.232L265.591 273.188L266.821 275.318L263.565 276.817L266.565 282.013L264.097 283.438L261.097 278.242L251.259 284.303L250.164 282.406L251.018 264.385L255.045 262.06L262.65 275.232ZM260.182 276.657L253.582 265.226L253.504 265.271L252.798 280.609L260.182 276.657Z" fill="black"/>
</g>
<line x1="217.324" y1="359.526" x2="314.544" y2="415.656" stroke="black" stroke-width="3"/>
<g clip-path="url(#clip3_1696_13089)">
<rect x="233.974" y="344.948" width="98" height="45" rx="15" transform="rotate(30 233.974 344.948)" fill="#FAFAF1"/>
<path d="M239.86 387.029L248.02 372.895L242.901 369.94L243.996 368.043L244.256 368.193C245.867 369.123 247.253 369.543 248.5 369.362C249.558 369.211 250.495 368.608 251.407 367.507L251.639 367.225L254.056 368.62L242.536 388.574L239.86 387.029ZM256.591 397.243C251.603 394.363 250.978 389.325 254.953 382.44C258.928 375.555 263.588 373.604 268.576 376.484C273.538 379.349 274.178 384.36 270.203 391.245C266.228 398.13 261.553 400.108 256.591 397.243ZM257.896 394.982C261.507 397.067 264.65 394.864 267.605 389.745C270.56 384.627 270.897 380.803 267.286 378.718C263.675 376.633 260.532 378.837 257.577 383.955C254.622 389.074 254.285 392.897 257.896 394.982ZM276.013 408.421C272.142 406.186 270.547 402.529 272.1 398.818L274.993 400.108C273.958 402.801 275.214 404.946 277.422 406.221C280.306 407.886 282.915 406.967 284.52 404.187C286.08 401.485 285.634 398.838 282.62 397.098C280.879 396.093 279.391 396.03 277.715 396.414L275.249 394.505L283.159 385.423L294.227 391.813L292.787 394.308L283.772 389.103L279.434 393.976L279.456 394.058C281.038 393.898 282.555 394.15 284.348 395.185C288.816 397.765 289.352 402.058 287.252 405.695C285.107 409.411 280.897 411.241 276.013 408.421Z" fill="black"/>
</g>
<defs>
<clipPath id="clip0_1696_13089">
<rect x="528.881" y="110.501" width="89.5785" height="45" rx="15" transform="rotate(30 528.881 110.501)" fill="white"/>
</clipPath>
<clipPath id="clip1_1696_13089">
<rect x="226.49" y="142.348" width="98" height="45" rx="15" transform="rotate(-30 226.49 142.348)" fill="white"/>
</clipPath>
<clipPath id="clip2_1696_13089">
<rect x="199.836" y="281.857" width="82" height="45" rx="15" transform="rotate(-30 199.836 281.857)" fill="white"/>
</clipPath>
<clipPath id="clip3_1696_13089">
<rect x="233.974" y="344.948" width="98" height="45" rx="15" transform="rotate(30 233.974 344.948)" fill="white"/>
</clipPath>
</defs>
</svg>
