<svg width="900" height="500" viewBox="0 0 900 500" fill="none" xmlns="http://www.w3.org/2000/svg">
<line x1="123.262" y1="283.467" x2="439.499" y2="466.046" stroke="black" stroke-width="3"/>
<g clip-path="url(#clip0_1693_4853)">
<rect x="252.311" y="333.725" width="91.383" height="45" rx="15" transform="rotate(30 252.311 333.725)" fill="#FAFAF1"/>
<path d="M255.397 374.674C251.188 372.244 249.85 368.562 251.785 364.31L254.596 365.621C253.262 368.592 254 370.854 256.806 372.474C259.897 374.259 262.204 373.443 263.464 371.261C264.859 368.844 264.07 366.552 261.238 364.917L259.367 363.837L260.642 361.629L262.487 362.694C264.877 364.074 266.963 363.581 268.103 361.606C269.348 359.45 268.367 357.429 266.003 356.064C263.275 354.489 261.084 355.164 259.396 357.307L257 355.577C259.542 352.195 263.136 351.43 267.293 353.83C271.45 356.23 272.651 359.729 270.836 362.873C269.621 364.977 267.861 365.866 265.094 365.377L265.064 365.429C267.484 367.658 267.599 370.219 266.129 372.765C263.939 376.558 259.71 377.164 255.397 374.674ZM283.761 381.524L287.003 383.049L285.773 385.18L282.846 383.109L279.846 388.305L277.378 386.88L280.378 381.684L270.21 376.195L271.305 374.298L287.339 366.027L291.366 368.352L283.761 381.524ZM281.293 380.099L287.893 368.668L287.815 368.623L274.179 375.68L281.293 380.099ZM302.848 384.403C306.719 386.638 307.914 390.688 305.574 394.741C303.264 398.742 299.091 399.97 294.7 397.435C292.388 396.1 290.983 394.215 290.522 391.593C290.101 389.202 290.665 386.965 292.645 383.535C296.2 377.378 300.736 373.242 306.919 376.812C310.349 378.792 311.839 381.731 310.976 384.905L308.127 383.779C308.563 382.125 308.039 380.333 305.622 378.938C302.427 377.093 299.382 378.107 295.888 383.918C298.01 382.823 300.51 383.053 302.848 384.403ZM296.016 395.216C298.666 396.746 301.311 396.125 302.901 393.371C304.521 390.565 303.837 387.85 301.187 386.32C298.875 384.985 296.11 385.155 293.937 387.538C293.114 389.383 293.035 390.481 293.29 391.598C293.669 393.341 294.743 394.481 296.016 395.216Z" fill="black"/>
</g>
<line x1="103.059" y1="185.089" x2="356.64" y2="38.6841" stroke="black" stroke-width="3"/>
<g clip-path="url(#clip1_1693_4853)">
<rect x="169.99" y="122.198" width="104" height="45" rx="15" transform="rotate(-30 169.99 122.198)" fill="#FAFAF1"/>
<path d="M205.079 140.621C203.114 137.218 203.316 134.088 205.63 129.876L207.664 126.139C209.081 123.554 209.408 121.84 208.268 119.866C206.903 117.502 204.623 116.913 201.921 118.473C199.245 120.018 198.552 122.358 200.052 124.956L200.247 125.293L197.649 126.793L197.499 126.534C195.219 122.585 196.321 118.553 200.608 116.078C204.609 113.768 208.597 114.376 210.862 118.299C212.332 120.845 212.322 123.588 209.963 127.721L208.711 129.933C206.876 133.175 206.392 134.736 207.061 136.255L218.051 129.91L219.446 132.326L205.079 140.621ZM224.59 129.357C222.625 125.953 222.826 122.823 225.141 118.612L227.175 114.874C228.592 112.289 228.919 110.576 227.779 108.601C226.414 106.237 224.134 105.648 221.432 107.208C218.756 108.753 218.063 111.093 219.563 113.691L219.758 114.029L217.16 115.529L217.01 115.269C214.73 111.32 215.832 107.289 220.119 104.814C224.12 102.504 228.108 103.111 230.373 107.034C231.843 109.58 231.833 112.323 229.474 116.456L228.222 118.669C226.387 121.91 225.903 123.472 226.572 124.991L237.562 118.646L238.957 121.062L224.59 129.357ZM251.537 114.353C246.549 117.233 241.874 115.255 237.899 108.371C233.924 101.486 234.564 96.4742 239.552 93.5942C244.515 90.7292 249.175 92.6806 253.15 99.5655C257.125 106.45 256.5 111.488 251.537 114.353ZM250.232 112.092C253.844 110.007 253.507 106.184 250.552 101.066C247.597 95.9473 244.454 93.7435 240.842 95.8285C237.231 97.9135 237.568 101.737 240.523 106.856C243.478 111.974 246.621 114.177 250.232 112.092Z" fill="black"/>
</g>
<path d="M406.49 83.0071C409.16 85.6771 409.59 87.1671 410.26 91.0371C413 105.167 412.34 122.417 410.26 140.987L406.29 143.817L322.42 192.547C321.19 193.257 320.39 193.617 319.58 193.607C318.76 193.607 317.96 193.247 316.74 192.547L296.82 181.037L292.85 178.207C291.75 162.427 291.37 146.807 292.85 131.617C292.85 123.157 294.26 122.517 298.51 119.827L379.79 72.2271C382.11 70.8771 384.42 71.2171 387.29 71.5871C393.61 73.3071 400.7 77.6271 406.5 83.0071H406.49Z" fill="#B8AB8A" stroke="#1F1F1F" stroke-width="1.5" stroke-miterlimit="10"/>
<path d="M319.688 139.297C321.018 147.767 319.568 181.127 319.508 190.637L319.688 139.297Z" fill="#B8AB8A"/>
<path d="M319.688 139.297C321.018 147.767 319.568 181.127 319.508 190.637" stroke="#1F1F1F" stroke-width="1.5" stroke-miterlimit="10"/>
<path d="M296.309 123.297C301.529 123.987 313.259 131.007 319.369 135.877L296.309 123.297Z" fill="#B8AB8A"/>
<path d="M296.309 123.297C301.529 123.987 313.259 131.007 319.369 135.877" stroke="#1F1F1F" stroke-width="1.5" stroke-miterlimit="10"/>
<path d="M305.798 131.858C305.798 131.858 303.648 137.748 303.648 160.658C303.648 164.938 303.648 183.088 303.648 183.088" fill="#B8AB8A"/>
<path d="M305.798 131.858C305.798 131.858 303.648 137.748 303.648 160.658C303.648 164.938 303.648 183.088 303.648 183.088" stroke="#1F1F1F" stroke-width="1.5" stroke-miterlimit="10"/>
<path d="M386.355 97.5712C383.685 100.241 383.255 101.731 382.585 105.601C379.845 119.731 380.505 136.981 382.585 155.551L386.555 158.381L470.425 207.111C471.655 207.821 472.455 208.181 473.265 208.171C474.085 208.171 474.885 207.811 476.105 207.111L496.025 195.601L499.995 192.771C501.095 176.991 501.475 161.371 499.995 146.181C499.995 137.721 498.585 137.081 494.335 134.391L413.055 86.7912C410.735 85.4412 408.425 85.7812 405.555 86.1512C399.235 87.8712 392.145 92.1912 386.345 97.5712H386.355Z" fill="#B8AB8A" stroke="#1F1F1F" stroke-width="1.5" stroke-miterlimit="10"/>
<path d="M473.155 153.861C471.825 162.331 473.275 195.691 473.335 205.201L473.155 153.861Z" fill="#B8AB8A"/>
<path d="M473.155 153.861C471.825 162.331 473.275 195.691 473.335 205.201" stroke="#1F1F1F" stroke-width="1.5" stroke-miterlimit="10"/>
<path d="M496.537 137.871C491.317 138.561 479.587 145.581 473.477 150.451L496.537 137.871Z" fill="#B8AB8A"/>
<path d="M496.537 137.871C491.317 138.561 479.587 145.581 473.477 150.451" stroke="#1F1F1F" stroke-width="1.5" stroke-miterlimit="10"/>
<path d="M487.047 146.421C487.047 146.421 489.197 152.311 489.197 175.221V197.651" fill="#B8AB8A"/>
<path d="M487.047 146.421C487.047 146.421 489.197 152.311 489.197 175.221V197.651" stroke="#1F1F1F" stroke-width="1.5" stroke-miterlimit="10"/>
<path d="M478.182 150.899C475.512 153.569 475.082 155.059 474.412 158.929C471.672 173.059 472.332 190.309 474.412 208.879L478.382 211.709L562.252 260.439C563.482 261.149 564.282 261.509 565.092 261.499C565.912 261.499 566.712 261.139 567.932 260.439L587.852 248.929L591.822 246.099C592.922 230.319 593.302 214.699 591.822 199.509C591.822 191.049 590.412 190.409 586.162 187.719L504.882 140.119C502.562 138.769 500.252 139.109 497.382 139.479C491.062 141.199 483.972 145.519 478.172 150.899H478.182Z" fill="#B8AB8A" stroke="#1F1F1F" stroke-width="1.5" stroke-miterlimit="10"/>
<path d="M564.98 207.19C563.65 215.66 565.1 249.02 565.16 258.53L564.98 207.19Z" fill="#B8AB8A"/>
<path d="M564.98 207.19C563.65 215.66 565.1 249.02 565.16 258.53" stroke="#1F1F1F" stroke-width="1.5" stroke-miterlimit="10"/>
<path d="M588.361 191.199C583.141 191.889 571.411 198.909 565.301 203.779L588.361 191.199Z" fill="#B8AB8A"/>
<path d="M588.361 191.199C583.141 191.889 571.411 198.909 565.301 203.779" stroke="#1F1F1F" stroke-width="1.5" stroke-miterlimit="10"/>
<path d="M578.871 199.749C578.871 199.749 581.021 205.639 581.021 228.549V250.979" fill="#B8AB8A"/>
<path d="M578.871 199.749C578.871 199.749 581.021 205.639 581.021 228.549V250.979" stroke="#1F1F1F" stroke-width="1.5" stroke-miterlimit="10"/>
<path d="M295.205 177.59L294.005 178.29C292.295 179.28 291.245 181.1 291.245 183.08C289.945 191.77 289.995 200.37 291.245 208.89L295.215 211.72L379.085 260.45C380.315 261.16 381.115 261.52 381.925 261.51C382.745 261.51 383.545 261.15 384.765 260.45L468.625 211.99L472.595 209.16V183.35C472.595 181.37 471.545 179.55 469.835 178.56C469.835 178.56 450.885 167.51 429.735 155.12C427.125 153.59 424.475 152.04 421.835 150.49C397.745 136.37 385.665 129.25 385.665 129.25C383.345 127.9 380.485 127.9 378.165 129.25C378.165 129.25 364.635 135.46 339.605 149.16C314.585 162.86 295.205 177.59 295.205 177.59Z" fill="#B8AB8A" stroke="#1F1F1F" stroke-width="1.5" stroke-miterlimit="10"/>
<path d="M470.255 188.161C447.345 203.421 408.695 224.501 383.465 237.261L470.255 188.161Z" fill="#B8AB8A"/>
<path d="M470.255 188.161C447.345 203.421 408.695 224.501 383.465 237.261" stroke="#1F1F1F" stroke-width="1.5" stroke-miterlimit="10"/>
<path d="M382.245 258.971C380.735 250.151 381.595 241.931 381.595 233.621L382.245 258.971Z" fill="#B8AB8A"/>
<path d="M382.245 258.971C380.735 250.151 381.595 241.931 381.595 233.621" stroke="#1F1F1F" stroke-width="1.5" stroke-miterlimit="10"/>
<path d="M219.435 221.031C217.725 222.021 216.675 223.841 216.675 225.821C215.555 233.971 215.705 242.631 216.675 251.631L220.645 254.461L304.515 303.191C305.745 303.901 306.545 304.261 307.355 304.251C308.175 304.251 308.975 303.891 310.195 303.191L375.885 265.261L379.855 262.431V236.621C379.855 234.641 378.805 232.821 377.095 231.831L375.895 231.131C375.895 231.131 350.315 213.691 332.055 203.901C313.795 194.111 292.935 182.521 292.935 182.521C290.615 181.171 287.755 181.171 285.435 182.521C285.435 182.521 265.765 192.391 255.525 198.371C245.295 204.341 219.435 221.031 219.435 221.031Z" fill="#B8AB8A" stroke="#1F1F1F" stroke-width="1.5" stroke-miterlimit="10"/>
<path d="M308.214 302.311C306.704 293.491 307.564 284.461 307.564 276.151L308.214 302.311Z" fill="#B8AB8A"/>
<path d="M308.214 302.311C306.704 293.491 307.564 284.461 307.564 276.151" stroke="#1F1F1F" stroke-width="1.5" stroke-miterlimit="10"/>
<path d="M378.725 241.67C355.815 256.93 334.125 268.07 308.895 280.83L378.725 241.67Z" fill="#B8AB8A"/>
<path d="M378.725 241.67C355.815 256.93 334.125 268.07 308.895 280.83" stroke="#1F1F1F" stroke-width="1.5" stroke-miterlimit="10"/>
<path d="M404 221.031C402.29 222.021 401.24 223.841 401.24 225.821C400.12 233.971 400.27 242.631 401.24 251.631L405.21 254.461L489.08 303.191C490.31 303.901 491.11 304.261 491.92 304.251C492.74 304.251 493.54 303.891 494.76 303.191L560.45 265.261L564.42 262.431V236.621C564.42 234.641 563.37 232.821 561.66 231.831L560.46 231.131C560.46 231.131 534.88 213.691 516.62 203.901C498.36 194.111 477.5 182.521 477.5 182.521C475.18 181.171 472.32 181.171 470 182.521C470 182.521 450.33 192.391 440.09 198.371C429.86 204.341 404 221.031 404 221.031Z" fill="#B8AB8A" stroke="#1F1F1F" stroke-width="1.5" stroke-miterlimit="10"/>
<path d="M492.781 302.311C491.271 293.491 492.131 284.461 492.131 276.151L492.781 302.311Z" fill="#B8AB8A"/>
<path d="M492.781 302.311C491.271 293.491 492.131 284.461 492.131 276.151" stroke="#1F1F1F" stroke-width="1.5" stroke-miterlimit="10"/>
<path d="M563.301 241.671C540.391 256.931 518.701 268.071 493.471 280.831L563.301 241.671Z" fill="#B8AB8A"/>
<path d="M563.301 241.671C540.391 256.931 518.701 268.071 493.471 280.831" stroke="#1F1F1F" stroke-width="1.5" stroke-miterlimit="10"/>
<path d="M680.152 267.03L681.352 267.73C683.062 268.72 684.112 270.54 684.112 272.52C685.412 281.21 685.362 289.81 684.112 298.33L680.142 301.16L596.272 349.89C595.042 350.6 594.242 350.96 593.432 350.95C592.612 350.95 591.812 350.59 590.592 349.89L506.732 301.43L502.762 298.6V272.79C502.762 270.81 503.812 268.99 505.522 268C505.522 268 524.472 256.95 545.622 244.56C548.232 243.03 550.882 241.48 553.522 239.93C577.612 225.81 589.692 218.69 589.692 218.69C592.012 217.34 594.872 217.34 597.192 218.69C597.192 218.69 610.722 224.9 635.752 238.6C660.772 252.3 680.152 267.03 680.152 267.03Z" fill="#B8AB8A" stroke="#1F1F1F" stroke-width="1.5" stroke-miterlimit="10"/>
<path d="M505.102 277.601C528.012 292.861 566.662 313.941 591.892 326.701L505.102 277.601Z" fill="#B8AB8A"/>
<path d="M505.102 277.601C528.012 292.861 566.662 313.941 591.892 326.701" stroke="#1F1F1F" stroke-width="1.5" stroke-miterlimit="10"/>
<path d="M593.109 348.41C594.619 339.59 593.759 331.37 593.759 323.06L593.109 348.41Z" fill="#B8AB8A"/>
<path d="M593.109 348.41C594.619 339.59 593.759 331.37 593.759 323.06" stroke="#1F1F1F" stroke-width="1.5" stroke-miterlimit="10"/>
<path d="M374.673 346.823L373.473 347.523C371.762 348.513 370.712 350.333 370.712 352.313C369.412 361.003 369.462 369.603 370.712 378.123L374.682 380.953L458.552 429.683C459.782 430.393 460.583 430.753 461.393 430.743C462.213 430.743 463.013 430.383 464.233 429.683L548.092 381.223L552.062 378.393V352.583C552.062 350.603 551.012 348.783 549.302 347.793C549.302 347.793 530.353 336.743 509.203 324.353C506.593 322.823 503.942 321.273 501.302 319.723C477.212 305.603 465.133 298.483 465.133 298.483C462.813 297.133 459.953 297.133 457.633 298.483C457.633 298.483 444.103 304.693 419.073 318.393C394.053 332.093 374.673 346.823 374.673 346.823Z" fill="#B8AB8A" stroke="#1F1F1F" stroke-width="1.5" stroke-miterlimit="10"/>
<path d="M549.723 357.394C526.813 372.654 488.163 393.734 462.933 406.494L549.723 357.394Z" fill="#B8AB8A"/>
<path d="M549.723 357.394C526.813 372.654 488.163 393.734 462.933 406.494" stroke="#1F1F1F" stroke-width="1.5" stroke-miterlimit="10"/>
<path d="M461.713 428.204C460.203 419.384 461.063 411.164 461.063 402.854L461.713 428.204Z" fill="#B8AB8A"/>
<path d="M461.713 428.204C460.203 419.384 461.063 411.164 461.063 402.854" stroke="#1F1F1F" stroke-width="1.5" stroke-miterlimit="10"/>
<path d="M487.507 193.757C487.767 192.407 488.597 191.437 489.057 188.077C489.507 184.827 492.047 176.747 493.097 173.237C493.427 172.147 494.507 169.337 494.927 167.307C495.597 165.377 496.147 164.347 497.917 165.367C498.647 165.867 499.707 167.667 500.447 168.167C512.037 176.087 524.477 183.717 537.677 189.877C539.477 190.717 542.537 189.537 544.317 190.397C545.667 191.177 544.467 194.617 543.957 196.087C542.667 198.697 538.387 210.487 538.597 218.907C538.187 221.667 535.627 224.987 533.857 223.967C529.057 221.167 528.637 219.887 525.157 218.007C512.077 210.937 499.237 204.387 489.647 196.617C488.297 195.837 486.997 195.217 487.507 193.747V193.757Z" fill="#B8AB8A" stroke="#1F1F1F" stroke-width="1.5" stroke-miterlimit="10"/>
<path d="M523.075 209.588C512.415 202.678 501.555 196.448 490.445 191.138L490.335 191.118C488.395 190.318 485.005 191.808 483.355 195.808C481.705 199.808 482.425 204.788 484.365 205.588C493.795 212.678 504.875 218.728 517.115 224.058C519.055 224.858 522.755 222.268 524.395 218.268C526.035 214.268 525.015 210.388 523.085 209.588H523.075Z" fill="#B8AB8A" stroke="#1F1F1F" stroke-width="1.5" stroke-miterlimit="10"/>
<path d="M516.765 223.277C515.505 222.387 514.935 219.367 516.585 215.367C518.235 211.367 520.165 210.057 521.865 209.907" stroke="#1F1F1F" stroke-width="1.5" stroke-miterlimit="10"/>
<path d="M483.844 199.027C493.074 205.307 503.634 211.227 515.314 216.837" stroke="#1F1F1F" stroke-width="1.5" stroke-miterlimit="10"/>
<path d="M509.064 210.728C508.884 210.908 508.044 213.378 508.044 213.378L510.444 214.488L511.484 211.868L509.064 210.728Z" fill="#B8AB8A" stroke="#1F1F1F" stroke-width="1.5" stroke-miterlimit="10"/>
<path d="M448.468 172.432C439.618 152.752 445.598 109.662 439.198 85.9523C438.728 84.1923 440.078 81.7924 440.028 79.9724C440.458 76.7524 437.838 73.9324 434.588 74.1224C409.198 85.5124 366.408 90.3224 337.628 81.6024C335.148 81.7524 333.128 83.6324 332.798 86.0924C332.268 102.882 331.988 119.972 333.758 138.292C334.858 149.702 326.648 162.662 324.208 174.292C323.778 177.512 326.398 180.332 329.648 180.142C359.418 181.262 417.208 183.322 440.708 178.172C443.188 178.022 449.348 174.402 448.468 172.432Z" fill="#B8AB8A" stroke="#1F1F1F" stroke-width="1.5" stroke-miterlimit="10"/>
<defs>
<clipPath id="clip0_1693_4853">
<rect x="252.311" y="333.725" width="91.383" height="45" rx="15" transform="rotate(30 252.311 333.725)" fill="white"/>
</clipPath>
<clipPath id="clip1_1693_4853">
<rect x="169.99" y="122.198" width="104" height="45" rx="15" transform="rotate(-30 169.99 122.198)" fill="white"/>
</clipPath>
</defs>
</svg>
