<svg width="900" height="500" viewBox="0 0 900 500" fill="none" xmlns="http://www.w3.org/2000/svg">
<line x1="191.996" y1="289.994" x2="289.216" y2="346.124" stroke="black" stroke-width="3"/>
<g clip-path="url(#clip0_1696_11742)">
<rect x="208.645" y="275.417" width="98" height="45" rx="15" transform="rotate(30 208.645 275.417)" fill="#FAFAF1"/>
<path d="M214.53 317.497L222.69 303.364L217.571 300.409L218.666 298.512L218.926 298.662C220.537 299.592 221.923 300.011 223.17 299.831C224.228 299.679 225.165 299.077 226.077 297.976L226.309 297.694L228.726 299.089L217.206 319.042L214.53 317.497ZM231.261 327.711C226.273 324.831 225.648 319.794 229.623 312.909C233.598 306.024 238.258 304.073 243.246 306.953C248.208 309.818 248.848 314.829 244.873 321.714C240.898 328.599 236.223 330.576 231.261 327.711ZM232.566 325.451C236.177 327.536 239.32 325.332 242.275 320.214C245.23 315.096 245.567 311.272 241.956 309.187C238.345 307.102 235.202 309.306 232.247 314.424C229.292 319.542 228.955 323.366 232.566 325.451ZM250.683 338.89C246.812 336.655 245.217 332.997 246.77 329.287L249.663 330.576C248.628 333.269 249.883 335.415 252.092 336.69C254.976 338.355 257.585 337.436 259.19 334.656C260.75 331.954 260.304 329.306 257.29 327.566C255.549 326.561 254.061 326.499 252.385 326.882L249.919 324.973L257.829 315.892L268.897 322.282L267.457 324.776L258.442 319.571L254.104 324.445L254.126 324.527C255.708 324.367 257.225 324.619 259.017 325.654C263.486 328.234 264.022 332.527 261.922 336.164C259.777 339.879 255.567 341.71 250.683 338.89Z" fill="black"/>
</g>
<line x1="162.418" y1="225.3" x2="413.015" y2="80.6178" stroke="black" stroke-width="3"/>
<g clip-path="url(#clip1_1696_11742)">
<rect x="230.506" y="161.74" width="98" height="45" rx="15" transform="rotate(-30 230.506 161.74)" fill="#FAFAF1"/>
<path d="M265.838 180.023C263.873 176.62 264.075 173.49 266.389 169.278L268.423 165.541C269.84 162.956 270.167 161.242 269.027 159.268C267.662 156.904 265.383 156.315 262.681 157.875C260.004 159.42 259.312 161.76 260.812 164.358L261.007 164.695L258.409 166.195L258.259 165.936C255.979 161.987 257.081 157.955 261.367 155.48C265.369 153.17 269.356 153.778 271.621 157.701C273.091 160.247 273.081 162.99 270.722 167.123L269.47 169.335C267.635 172.577 267.151 174.138 267.82 175.657L278.81 169.312L280.205 171.728L265.838 180.023ZM293.333 155.108L296.275 153.063L297.505 155.193L294.248 156.693L297.248 161.889L294.78 163.314L291.78 158.118L281.942 164.178L280.847 162.282L281.701 144.261L285.728 141.936L293.333 155.108ZM290.865 156.533L284.265 145.101L284.187 145.146L283.481 160.484L290.865 156.533ZM308.913 155.154L300.753 141.021L295.635 143.976L294.54 142.079L294.799 141.929C296.41 140.999 297.466 140.008 297.934 138.838C298.331 137.846 298.278 136.734 297.781 135.393L297.653 135.051L300.069 133.656L311.589 153.609L308.913 155.154Z" fill="black"/>
</g>
<path d="M561.654 187.913C558.984 190.583 558.554 192.073 557.884 195.943C555.144 210.073 555.804 227.323 557.884 245.893L561.854 248.723L645.724 297.453C646.954 298.163 647.754 298.523 648.564 298.513C649.384 298.513 650.184 298.153 651.404 297.453L671.324 285.943L675.294 283.113C676.394 267.333 676.774 251.713 675.294 236.523C675.294 228.063 673.884 227.423 669.634 224.733L588.354 177.133C586.034 175.783 583.724 176.123 580.854 176.493C574.534 178.213 567.444 182.533 561.644 187.913H561.654Z" fill="#B8AB8A" stroke="#1F1F1F" stroke-width="1.5" stroke-miterlimit="10"/>
<path d="M648.454 244.193C647.124 252.663 648.574 286.023 648.634 295.533L648.454 244.193Z" fill="#B8AB8A"/>
<path d="M648.454 244.193C647.124 252.663 648.574 286.023 648.634 295.533" stroke="#1F1F1F" stroke-width="1.5" stroke-miterlimit="10"/>
<path d="M671.835 228.204C666.615 228.894 654.885 235.914 648.775 240.784L671.835 228.204Z" fill="#B8AB8A"/>
<path d="M671.835 228.204C666.615 228.894 654.885 235.914 648.775 240.784" stroke="#1F1F1F" stroke-width="1.5" stroke-miterlimit="10"/>
<path d="M662.344 236.753C662.344 236.753 664.494 242.643 664.494 265.553V287.983" fill="#B8AB8A"/>
<path d="M662.344 236.753C662.344 236.753 664.494 242.643 664.494 265.553V287.983" stroke="#1F1F1F" stroke-width="1.5" stroke-miterlimit="10"/>
<path d="M468.174 268.312L466.974 269.012C465.264 270.002 464.214 271.822 464.214 273.802C462.914 282.492 462.964 291.092 464.214 299.612L468.184 302.442L552.054 351.172C553.284 351.882 554.084 352.242 554.894 352.232C555.714 352.232 556.514 351.872 557.734 351.172L641.594 302.712L645.564 299.882V274.072C645.564 272.092 644.514 270.272 642.804 269.282C642.804 269.282 623.854 258.232 602.704 245.842C600.094 244.312 597.444 242.762 594.804 241.212C570.714 227.092 558.634 219.972 558.634 219.972C556.314 218.622 553.454 218.622 551.134 219.972C551.134 219.972 537.604 226.182 512.574 239.882C487.554 253.582 468.174 268.312 468.174 268.312Z" fill="#B8AB8A" stroke="#1F1F1F" stroke-width="1.5" stroke-miterlimit="10"/>
<path d="M643.224 278.882C620.314 294.142 581.664 315.222 556.434 327.982L643.224 278.882Z" fill="#B8AB8A"/>
<path d="M643.224 278.882C620.314 294.142 581.664 315.222 556.434 327.982" stroke="#1F1F1F" stroke-width="1.5" stroke-miterlimit="10"/>
<path d="M555.214 349.692C553.704 340.872 554.564 332.652 554.564 324.342L555.214 349.692Z" fill="#B8AB8A"/>
<path d="M555.214 349.692C553.704 340.872 554.564 332.652 554.564 324.342" stroke="#1F1F1F" stroke-width="1.5" stroke-miterlimit="10"/>
<path d="M648.454 244.192C647.124 252.662 648.574 286.022 648.634 295.532L648.454 244.192Z" fill="#B8AB8A"/>
<path d="M648.454 244.192C647.124 252.662 648.574 286.022 648.634 295.532" stroke="#1F1F1F" stroke-width="1.5" stroke-miterlimit="10"/>
<path d="M671.835 228.203C666.615 228.893 654.885 235.913 648.775 240.783L671.835 228.203Z" fill="#B8AB8A"/>
<path d="M671.835 228.203C666.615 228.893 654.885 235.913 648.775 240.783" stroke="#1F1F1F" stroke-width="1.5" stroke-miterlimit="10"/>
<path d="M662.344 236.753C662.344 236.753 664.494 242.643 664.494 265.553V287.983" fill="#B8AB8A"/>
<path d="M662.344 236.753C662.344 236.753 664.494 242.643 664.494 265.553V287.983" stroke="#1F1F1F" stroke-width="1.5" stroke-miterlimit="10"/>
<path d="M375.475 322.413L374.275 323.113C372.565 324.103 371.515 325.923 371.515 327.903C370.215 336.593 370.265 345.193 371.515 353.713L375.485 356.543L459.355 405.273C460.585 405.983 461.385 406.343 462.195 406.333C463.015 406.333 463.815 405.973 465.035 405.273L548.895 356.813L552.865 353.983V328.173C552.865 326.193 551.815 324.373 550.105 323.383C550.105 323.383 531.155 312.333 510.005 299.943C507.395 298.413 504.745 296.863 502.105 295.313C478.015 281.193 465.935 274.073 465.935 274.073C463.615 272.723 460.755 272.723 458.435 274.073C458.435 274.073 444.905 280.283 419.875 293.983C394.855 307.683 375.475 322.413 375.475 322.413Z" fill="#B8AB8A" stroke="#1F1F1F" stroke-width="1.5" stroke-miterlimit="10"/>
<path d="M550.534 332.993C527.624 348.253 488.974 369.333 463.744 382.093L550.534 332.993Z" fill="#B8AB8A"/>
<path d="M550.534 332.993C527.624 348.253 488.974 369.333 463.744 382.093" stroke="#1F1F1F" stroke-width="1.5" stroke-miterlimit="10"/>
<path d="M462.525 403.803C461.015 394.983 461.875 386.763 461.875 378.453L462.525 403.803Z" fill="#B8AB8A"/>
<path d="M462.525 403.803C461.015 394.983 461.875 386.763 461.875 378.453" stroke="#1F1F1F" stroke-width="1.5" stroke-miterlimit="10"/>
<path d="M568.745 236.493C569.005 235.143 569.745 233.903 570.065 232.593C573.995 216.783 581.245 200.433 583.475 196.473C584.325 194.973 585.555 192.463 586.355 190.893C586.875 189.873 587.065 187.573 587.615 186.573C588.285 184.643 589.705 181.923 591.275 183.273C605.045 192.823 620.365 200.433 636.035 207.983C637.385 208.763 637.995 210.393 637.485 211.863C637.045 212.823 636.065 214.603 635.665 215.593C633.525 220.903 631.225 226.193 628.915 232.413C625.625 241.293 623.175 249.553 620.175 258.703C619.635 260.363 619.785 262.573 619.145 264.163C618.475 266.093 616.215 266.933 614.445 265.913C612.365 265.353 610.705 263.623 608.815 262.793C593.075 255.953 582.395 249.023 572.475 240.363C571.125 239.583 568.235 237.953 568.745 236.483V236.493Z" fill="#B8AB8A" stroke="#1F1F1F" stroke-width="1.5" stroke-miterlimit="10"/>
<path d="M635.905 213.073C630.115 221.983 617.655 259.943 618.435 263.933" stroke="#1F1F1F" stroke-width="1.5" stroke-miterlimit="10"/>
<path d="M605.466 247.263C594.806 240.353 583.946 234.123 572.836 228.813L572.726 228.793C570.786 227.993 567.396 229.483 565.746 233.483C564.096 237.483 564.816 242.463 566.756 243.263C576.186 250.353 587.266 256.403 599.506 261.733C601.446 262.533 605.146 259.943 606.786 255.943C608.436 251.943 607.406 248.063 605.476 247.263H605.466Z" fill="#B8AB8A" stroke="#1F1F1F" stroke-width="1.5" stroke-miterlimit="10"/>
<path d="M599.156 260.964C597.896 260.074 597.326 257.054 598.976 253.054C600.626 249.054 602.556 247.744 604.256 247.594" stroke="#1F1F1F" stroke-width="1.5" stroke-miterlimit="10"/>
<path d="M566.236 236.714C575.466 242.994 586.026 248.914 597.706 254.524" stroke="#1F1F1F" stroke-width="1.5" stroke-miterlimit="10"/>
<path d="M591.446 248.413C591.266 248.593 590.426 251.063 590.426 251.063L592.826 252.173L593.866 249.553L591.446 248.413Z" fill="#B8AB8A" stroke="#1F1F1F" stroke-width="1.5" stroke-miterlimit="10"/>
<path d="M414.828 105.418C412.158 108.088 411.728 109.578 411.058 113.448C408.318 127.578 408.978 144.828 411.058 163.398L415.028 166.228L498.898 214.958C500.128 215.668 500.928 216.028 501.738 216.018C502.558 216.018 503.358 215.658 504.578 214.958L524.498 203.448L528.468 200.618C529.568 184.838 529.948 169.218 528.468 154.028C528.468 145.568 527.058 144.928 522.808 142.238L441.528 94.6378C439.208 93.2878 436.898 93.6278 434.028 93.9978C427.708 95.7178 420.618 100.038 414.818 105.418H414.828Z" fill="#B8AB8A" stroke="#1F1F1F" stroke-width="1.5" stroke-miterlimit="10"/>
<path d="M501.628 161.698C500.298 170.168 501.748 203.528 501.808 213.038L501.628 161.698Z" fill="#B8AB8A"/>
<path d="M501.628 161.698C500.298 170.168 501.748 203.528 501.808 213.038" stroke="#1F1F1F" stroke-width="1.5" stroke-miterlimit="10"/>
<path d="M525.009 145.708C519.789 146.398 508.059 153.418 501.949 158.288L525.009 145.708Z" fill="#B8AB8A"/>
<path d="M525.009 145.708C519.789 146.398 508.059 153.418 501.949 158.288" stroke="#1F1F1F" stroke-width="1.5" stroke-miterlimit="10"/>
<path d="M515.518 154.258C515.518 154.258 517.668 160.148 517.668 183.058V205.488" fill="#B8AB8A"/>
<path d="M515.518 154.258C515.518 154.258 517.668 160.148 517.668 183.058V205.488" stroke="#1F1F1F" stroke-width="1.5" stroke-miterlimit="10"/>
<path d="M321.348 185.818L320.148 186.518C318.438 187.508 317.388 189.328 317.388 191.308C316.088 199.998 316.138 208.598 317.388 217.118L321.358 219.948L405.228 268.678C406.458 269.388 407.258 269.748 408.068 269.738C408.888 269.738 409.688 269.378 410.908 268.678L494.768 220.218L498.738 217.388V191.578C498.738 189.598 497.688 187.778 495.978 186.788C495.978 186.788 477.028 175.738 455.878 163.348C453.268 161.818 450.618 160.268 447.978 158.718C423.888 144.598 411.808 137.478 411.808 137.478C409.488 136.128 406.628 136.128 404.308 137.478C404.308 137.478 390.778 143.688 365.748 157.388C340.728 171.088 321.348 185.818 321.348 185.818Z" fill="#B8AB8A" stroke="#1F1F1F" stroke-width="1.5" stroke-miterlimit="10"/>
<path d="M496.397 196.388C473.487 211.648 434.837 232.728 409.607 245.488L496.397 196.388Z" fill="#B8AB8A"/>
<path d="M496.397 196.388C473.487 211.648 434.837 232.728 409.607 245.488" stroke="#1F1F1F" stroke-width="1.5" stroke-miterlimit="10"/>
<path d="M408.388 267.198C406.878 258.378 407.738 250.158 407.738 241.848L408.388 267.198Z" fill="#B8AB8A"/>
<path d="M408.388 267.198C406.878 258.378 407.738 250.158 407.738 241.848" stroke="#1F1F1F" stroke-width="1.5" stroke-miterlimit="10"/>
<path d="M501.628 161.698C500.298 170.168 501.748 203.528 501.808 213.038L501.628 161.698Z" fill="#B8AB8A"/>
<path d="M501.628 161.698C500.298 170.168 501.748 203.528 501.808 213.038" stroke="#1F1F1F" stroke-width="1.5" stroke-miterlimit="10"/>
<path d="M525.009 145.708C519.789 146.398 508.059 153.418 501.949 158.288L525.009 145.708Z" fill="#B8AB8A"/>
<path d="M525.009 145.708C519.789 146.398 508.059 153.418 501.949 158.288" stroke="#1F1F1F" stroke-width="1.5" stroke-miterlimit="10"/>
<path d="M515.518 154.258C515.518 154.258 517.668 160.148 517.668 183.058V205.488" fill="#B8AB8A"/>
<path d="M515.518 154.258C515.518 154.258 517.668 160.148 517.668 183.058V205.488" stroke="#1F1F1F" stroke-width="1.5" stroke-miterlimit="10"/>
<path d="M228.649 239.917L227.449 240.617C225.739 241.607 224.689 243.427 224.689 245.407C223.389 254.097 223.439 262.697 224.689 271.217L228.659 274.047L312.529 322.777C313.759 323.487 314.559 323.847 315.369 323.837C316.189 323.837 316.989 323.477 318.209 322.777L402.069 274.317L406.039 271.487V245.677C406.039 243.697 404.989 241.877 403.279 240.887C403.279 240.887 384.329 229.837 363.179 217.447C360.569 215.917 357.919 214.367 355.279 212.817C331.189 198.697 319.109 191.577 319.109 191.577C316.789 190.227 313.929 190.227 311.609 191.577C311.609 191.577 298.079 197.787 273.049 211.487C248.029 225.187 228.649 239.917 228.649 239.917Z" fill="#B8AB8A" stroke="#1F1F1F" stroke-width="1.5" stroke-miterlimit="10"/>
<path d="M403.708 250.498C380.798 265.758 342.148 286.838 316.918 299.598L403.708 250.498Z" fill="#B8AB8A"/>
<path d="M403.708 250.498C380.798 265.758 342.148 286.838 316.918 299.598" stroke="#1F1F1F" stroke-width="1.5" stroke-miterlimit="10"/>
<path d="M315.699 321.308C314.189 312.488 315.049 304.268 315.049 295.958L315.699 321.308Z" fill="#B8AB8A"/>
<path d="M315.699 321.308C314.189 312.488 315.049 304.268 315.049 295.958" stroke="#1F1F1F" stroke-width="1.5" stroke-miterlimit="10"/>
<path d="M466.469 183.188C464.529 187.838 463.879 191.778 462.019 196.498C460.589 199.478 456.739 200.748 454.019 199.148C427.489 186.958 402.379 174.728 384.809 159.878C382.739 158.658 382.029 156.128 383.119 153.858C383.779 151.778 385.269 149.878 385.969 147.838C390.189 135.518 413.989 103.138 413.989 103.138C414.659 101.358 417.579 102.308 419.189 103.188C441.799 120.278 463.459 129.848 485.579 139.478C488.599 141.138 490.219 144.348 489.699 147.788C489.469 149.278 488.779 153.088 489.059 154.448C491.179 164.888 489.279 169.658 492.059 180.188C492.599 183.238 489.979 186.278 486.609 186.498L466.479 183.178L466.469 183.188Z" fill="#B8AB8A" stroke="#1F1F1F" stroke-width="1.5" stroke-miterlimit="10"/>
<path d="M485.579 148.648C479.649 162.218 470.299 174.018 466.469 183.188L485.579 148.648Z" fill="#B8AB8A"/>
<path d="M485.579 148.648C479.649 162.218 470.299 174.018 466.469 183.188" stroke="#1F1F1F" stroke-width="1.5" stroke-miterlimit="10"/>
<defs>
<clipPath id="clip0_1696_11742">
<rect x="208.645" y="275.417" width="98" height="45" rx="15" transform="rotate(30 208.645 275.417)" fill="white"/>
</clipPath>
<clipPath id="clip1_1696_11742">
<rect x="230.506" y="161.74" width="98" height="45" rx="15" transform="rotate(-30 230.506 161.74)" fill="white"/>
</clipPath>
</defs>
</svg>
