<svg width="900" height="400" viewBox="0 0 900 400" fill="none" xmlns="http://www.w3.org/2000/svg">
<path d="M394.832 96.9898C392.162 99.6598 391.732 101.15 391.062 105.02C388.322 119.15 388.982 136.4 391.062 154.97L395.032 157.8L478.902 206.53C480.132 207.24 480.932 207.6 481.742 207.59C482.562 207.59 483.362 207.23 484.582 206.53L504.502 195.02L508.472 192.19C509.572 176.41 509.952 160.79 508.472 145.6C508.472 137.14 507.062 136.5 502.812 133.81L421.532 86.2098C419.212 84.8598 416.902 85.1998 414.032 85.5698C407.712 87.2898 400.622 91.6098 394.822 96.9898H394.832Z" fill="#B8AB8A" stroke="#1F1F1F" stroke-width="1.5" stroke-miterlimit="10"/>
<path d="M481.632 153.279C480.302 161.749 481.752 195.109 481.812 204.619L481.632 153.279Z" fill="#B8AB8A"/>
<path d="M481.632 153.279C480.302 161.749 481.752 195.109 481.812 204.619" stroke="#1F1F1F" stroke-width="1.5" stroke-miterlimit="10"/>
<path d="M505.011 137.279C499.791 137.969 488.061 144.989 481.951 149.859L505.011 137.279Z" fill="#B8AB8A"/>
<path d="M505.011 137.279C499.791 137.969 488.061 144.989 481.951 149.859" stroke="#1F1F1F" stroke-width="1.5" stroke-miterlimit="10"/>
<path d="M495.521 145.84C495.521 145.84 497.671 151.73 497.671 174.64V197.07" fill="#B8AB8A"/>
<path d="M495.521 145.84C495.521 145.84 497.671 151.73 497.671 174.64V197.07" stroke="#1F1F1F" stroke-width="1.5" stroke-miterlimit="10"/>
<path d="M487.932 150.43C485.262 153.1 484.832 154.59 484.162 158.46C481.422 172.59 482.082 189.84 484.162 208.41L488.132 211.24L572.002 259.97C573.232 260.68 574.032 261.04 574.842 261.03C575.662 261.03 576.462 260.67 577.682 259.97L597.602 248.46L601.572 245.63C602.672 229.85 603.052 214.23 601.572 199.04C601.572 190.58 600.162 189.94 595.912 187.25L514.632 139.65C512.312 138.3 510.002 138.64 507.132 139.01C500.812 140.73 493.722 145.05 487.922 150.43H487.932Z" fill="#B8AB8A" stroke="#1F1F1F" stroke-width="1.5" stroke-miterlimit="10"/>
<path d="M574.732 206.72C573.402 215.19 574.852 248.55 574.912 258.06L574.732 206.72Z" fill="#B8AB8A"/>
<path d="M574.732 206.72C573.402 215.19 574.852 248.55 574.912 258.06" stroke="#1F1F1F" stroke-width="1.5" stroke-miterlimit="10"/>
<path d="M598.111 190.729C592.891 191.419 581.161 198.439 575.051 203.309L598.111 190.729Z" fill="#B8AB8A"/>
<path d="M598.111 190.729C592.891 191.419 581.161 198.439 575.051 203.309" stroke="#1F1F1F" stroke-width="1.5" stroke-miterlimit="10"/>
<path d="M588.621 199.279C588.621 199.279 590.771 205.169 590.771 228.079V250.509" fill="#B8AB8A"/>
<path d="M588.621 199.279C588.621 199.279 590.771 205.169 590.771 228.079V250.509" stroke="#1F1F1F" stroke-width="1.5" stroke-miterlimit="10"/>
<path d="M302.371 177.56L301.171 178.26C299.461 179.25 298.411 181.07 298.411 183.05C297.111 191.74 297.161 200.34 298.411 208.86L302.381 211.69L386.251 260.42C387.481 261.13 388.281 261.49 389.091 261.48C389.911 261.48 390.711 261.12 391.931 260.42L475.791 211.96L479.761 209.13V183.32C479.761 181.34 478.711 179.52 477.001 178.53C477.001 178.53 458.051 167.48 436.901 155.09C434.291 153.56 431.641 152.01 429.001 150.46C404.911 136.34 392.831 129.22 392.831 129.22C390.511 127.87 387.651 127.87 385.331 129.22C385.331 129.22 371.801 135.43 346.771 149.13C321.751 162.83 302.371 177.56 302.371 177.56Z" fill="#B8AB8A" stroke="#1F1F1F" stroke-width="1.5" stroke-miterlimit="10"/>
<path d="M477.421 188.14C454.511 203.4 415.861 224.48 390.631 237.24L477.421 188.14Z" fill="#B8AB8A"/>
<path d="M477.421 188.14C454.511 203.4 415.861 224.48 390.631 237.24" stroke="#1F1F1F" stroke-width="1.5" stroke-miterlimit="10"/>
<path d="M389.411 258.95C387.901 250.13 388.761 241.91 388.761 233.6L389.411 258.95Z" fill="#B8AB8A"/>
<path d="M389.411 258.95C387.901 250.13 388.761 241.91 388.761 233.6" stroke="#1F1F1F" stroke-width="1.5" stroke-miterlimit="10"/>
<path d="M394.452 230.839L393.252 231.539C391.542 232.529 390.491 234.349 390.491 236.329C389.191 245.019 389.241 253.619 390.491 262.139L394.461 264.969L478.331 313.699C479.562 314.409 480.361 314.769 481.171 314.759C481.991 314.759 482.791 314.399 484.011 313.699L567.872 265.239L571.842 262.409V236.599C571.842 234.619 570.792 232.799 569.081 231.809C569.081 231.809 550.131 220.759 528.981 208.369C526.371 206.839 523.721 205.289 521.081 203.739C496.992 189.619 484.912 182.499 484.912 182.499C482.592 181.149 479.732 181.149 477.412 182.499C477.412 182.499 463.882 188.709 438.852 202.409C413.832 216.109 394.452 230.839 394.452 230.839Z" fill="#B8AB8A" stroke="#1F1F1F" stroke-width="1.5" stroke-miterlimit="10"/>
<path d="M569.501 241.409C546.591 256.669 507.941 277.749 482.711 290.509L569.501 241.409Z" fill="#B8AB8A"/>
<path d="M569.501 241.409C546.591 256.669 507.941 277.749 482.711 290.509" stroke="#1F1F1F" stroke-width="1.5" stroke-miterlimit="10"/>
<path d="M481.492 312.219C479.982 303.399 480.842 295.179 480.842 286.869L481.492 312.219Z" fill="#B8AB8A"/>
<path d="M481.492 312.219C479.982 303.399 480.842 295.179 480.842 286.869" stroke="#1F1F1F" stroke-width="1.5" stroke-miterlimit="10"/>
<path d="M401.962 145.54C402.222 144.19 402.962 142.95 403.282 141.64C407.212 125.83 414.462 109.48 416.692 105.52C417.542 104.02 418.772 101.51 419.572 99.9397C420.092 98.9197 420.282 96.6197 420.832 95.6197C421.502 93.6897 422.922 90.9697 424.492 92.3197C438.262 101.87 453.582 109.48 469.252 117.03C470.602 117.81 471.212 119.44 470.702 120.91C470.262 121.87 469.282 123.65 468.882 124.64C466.742 129.95 464.442 135.24 462.132 141.46C458.842 150.34 456.392 158.6 453.392 167.75C452.852 169.41 453.002 171.62 452.362 173.21C451.692 175.14 449.432 175.98 447.662 174.96C445.582 174.4 443.922 172.67 442.032 171.84C426.292 165 415.612 158.07 405.692 149.41C404.342 148.63 401.452 147 401.962 145.53V145.54Z" fill="#B8AB8A" stroke="#1F1F1F" stroke-width="1.5" stroke-miterlimit="10"/>
<path d="M469.111 122.119C463.321 131.029 450.861 168.989 451.641 172.979" stroke="#1F1F1F" stroke-width="1.5" stroke-miterlimit="10"/>
<path d="M438.681 156.32C428.021 149.41 417.161 143.18 406.051 137.87L405.941 137.85C404.001 137.05 400.611 138.54 398.961 142.54C397.311 146.54 398.031 151.52 399.971 152.32C409.401 159.41 420.481 165.46 432.721 170.79C434.661 171.59 438.361 169 440.001 165C441.651 161 440.621 157.12 438.691 156.32H438.681Z" fill="#B8AB8A" stroke="#1F1F1F" stroke-width="1.5" stroke-miterlimit="10"/>
<path d="M432.371 170.009C431.111 169.119 430.541 166.099 432.191 162.099C433.841 158.099 435.771 156.789 437.471 156.639" stroke="#1F1F1F" stroke-width="1.5" stroke-miterlimit="10"/>
<path d="M399.451 145.759C408.681 152.039 419.241 157.959 430.921 163.569" stroke="#1F1F1F" stroke-width="1.5" stroke-miterlimit="10"/>
<path d="M424.662 157.459C424.482 157.639 423.642 160.109 423.642 160.109L426.042 161.219L427.082 158.599L424.662 157.459Z" fill="#B8AB8A" stroke="#1F1F1F" stroke-width="1.5" stroke-miterlimit="10"/>
<path d="M538.561 228.21C536.621 232.86 535.971 236.8 534.111 241.52C532.681 244.5 528.831 245.77 526.111 244.17C499.581 231.98 474.471 219.75 456.901 204.9C454.831 203.68 454.121 201.15 455.211 198.88C455.871 196.8 457.361 194.9 458.061 192.86C462.281 180.54 486.081 148.16 486.081 148.16C486.751 146.38 489.671 147.33 491.281 148.21C513.891 165.3 535.551 174.87 557.671 184.5C560.691 186.16 562.311 189.37 561.791 192.81C561.561 194.3 560.871 198.11 561.151 199.47C563.271 209.91 561.371 214.68 564.151 225.21C564.691 228.26 562.071 231.3 558.701 231.52L538.571 228.2L538.561 228.21Z" fill="#B8AB8A" stroke="#1F1F1F" stroke-width="1.5" stroke-miterlimit="10"/>
<path d="M557.661 193.669C551.731 207.239 542.381 219.039 538.551 228.209L557.661 193.669Z" fill="#B8AB8A"/>
<path d="M557.661 193.669C551.731 207.239 542.381 219.039 538.551 228.209" stroke="#1F1F1F" stroke-width="1.5" stroke-miterlimit="10"/>
<line x1="258.962" y1="228.924" x2="461.378" y2="345.789" stroke="black" stroke-width="3"/>
<g clip-path="url(#clip0_1696_14054)">
<rect x="328.235" y="244.67" width="98" height="45" rx="15" transform="rotate(30 328.235 244.67)" fill="#FAFAF1"/>
<path d="M330.068 284.411C332.033 281.007 334.845 279.617 339.65 279.516L343.903 279.408C346.851 279.343 348.498 278.77 349.638 276.795C351.003 274.431 350.373 272.162 347.671 270.602C344.995 269.057 342.622 269.627 341.122 272.225L340.927 272.563L338.329 271.063L338.479 270.803C340.759 266.854 344.801 265.793 349.088 268.268C353.089 270.578 354.557 274.335 352.292 278.258C350.822 280.804 348.442 282.167 343.682 282.19L341.141 282.213C337.416 282.244 335.822 282.606 334.841 283.945L345.831 290.29L344.436 292.706L330.068 284.411ZM365.393 295.764L368.635 297.29L367.405 299.42L364.478 297.349L361.478 302.545L359.01 301.12L362.01 295.924L351.843 290.435L352.938 288.538L368.971 280.267L372.998 282.592L365.393 295.764ZM362.925 294.339L369.525 282.908L369.447 282.863L355.812 289.921L362.925 294.339ZM373.143 309.28L381.303 295.147L376.185 292.192L377.28 290.295L377.54 290.445C379.151 291.375 380.537 291.794 381.784 291.614C382.842 291.462 383.778 290.86 384.691 289.759L384.923 289.477L387.339 290.872L375.819 310.825L373.143 309.28Z" fill="black"/>
</g>
<line x1="214.427" y1="159.421" x2="382.377" y2="62.4553" stroke="black" stroke-width="3"/>
<g clip-path="url(#clip1_1696_14054)">
<rect x="246.027" y="118.233" width="98" height="45" rx="15" transform="rotate(-30 246.027 118.233)" fill="#FAFAF1"/>
<path d="M285.413 134.177L277.253 120.043L272.135 122.998L271.04 121.102L271.3 120.952C272.911 120.022 273.967 119.031 274.434 117.86C274.832 116.869 274.778 115.756 274.281 114.415L274.153 114.073L276.569 112.678L288.089 132.632L285.413 134.177ZM302.569 124.757C298.36 127.187 294.502 126.505 291.787 122.703L294.328 120.924C296.234 123.565 298.562 124.057 301.368 122.437C304.459 120.652 304.906 118.246 303.646 116.064C302.251 113.647 299.871 113.185 297.04 114.82L295.169 115.9L293.894 113.692L295.739 112.627C298.129 111.247 298.745 109.194 297.605 107.219C296.36 105.063 294.119 104.902 291.755 106.267C289.027 107.842 288.516 110.077 289.528 112.61L286.832 113.82C285.174 109.928 286.308 106.432 290.465 104.032C294.622 101.632 298.253 102.342 300.068 105.486C301.283 107.59 301.173 109.559 299.366 111.71L299.396 111.762C302.536 110.781 304.811 111.961 306.281 114.508C308.471 118.301 306.881 122.267 302.569 124.757ZM315.209 99.7922C319.08 97.5572 323.185 98.5473 325.525 102.6C327.835 106.601 326.812 110.829 322.421 113.364C320.109 114.699 317.773 114.974 315.273 114.062C312.992 113.231 311.336 111.624 309.356 108.194C305.801 102.037 304.487 96.0407 310.67 92.4707C314.1 90.4907 317.39 90.6696 319.707 93.0035L317.308 94.9082C316.094 93.7043 314.279 93.2621 311.863 94.6571C308.668 96.5021 308.023 99.6456 311.309 105.577C311.421 103.192 312.871 101.142 315.209 99.7922ZM321.157 111.115C323.807 109.585 324.592 106.984 323.002 104.23C321.382 101.424 318.688 100.659 316.038 102.189C313.726 103.524 312.491 106.004 313.468 109.077C314.655 110.712 315.566 111.33 316.661 111.667C318.36 112.21 319.884 111.85 321.157 111.115Z" fill="black"/>
</g>
<defs>
<clipPath id="clip0_1696_14054">
<rect x="328.235" y="244.67" width="98" height="45" rx="15" transform="rotate(30 328.235 244.67)" fill="white"/>
</clipPath>
<clipPath id="clip1_1696_14054">
<rect x="246.027" y="118.233" width="98" height="45" rx="15" transform="rotate(-30 246.027 118.233)" fill="white"/>
</clipPath>
</defs>
</svg>
