<svg width="900" height="400" viewBox="0 0 900 400" fill="none" xmlns="http://www.w3.org/2000/svg">
<path d="M428.163 90.3487C430.833 93.0187 431.263 94.5087 431.933 98.3787C434.673 112.509 434.013 129.759 431.933 148.329L427.963 151.159L344.093 199.889C342.863 200.599 342.063 200.959 341.253 200.949C340.433 200.949 339.633 200.589 338.413 199.889L318.493 188.379L314.523 185.549C313.423 169.769 313.043 154.149 314.523 138.959C314.523 130.499 315.933 129.859 320.183 127.169L401.463 79.5687C403.783 78.2187 406.093 78.5587 408.963 78.9287C415.283 80.6487 422.373 84.9687 428.173 90.3487H428.163Z" fill="#B8AB8A" stroke="#1F1F1F" stroke-width="1.5" stroke-miterlimit="10"/>
<path d="M341.364 146.628C342.694 155.098 341.244 188.458 341.184 197.968L341.364 146.628Z" fill="#B8AB8A"/>
<path d="M341.364 146.628C342.694 155.098 341.244 188.458 341.184 197.968" stroke="#1F1F1F" stroke-width="1.5" stroke-miterlimit="10"/>
<path d="M317.983 130.638C323.203 131.328 334.933 138.348 341.043 143.218L317.983 130.638Z" fill="#B8AB8A"/>
<path d="M317.983 130.638C323.203 131.328 334.933 138.348 341.043 143.218" stroke="#1F1F1F" stroke-width="1.5" stroke-miterlimit="10"/>
<path d="M327.474 139.188C327.474 139.188 325.324 145.078 325.324 167.988C325.324 172.268 325.324 190.418 325.324 190.418" fill="#B8AB8A"/>
<path d="M327.474 139.188C327.474 139.188 325.324 145.078 325.324 167.988C325.324 172.268 325.324 190.418 325.324 190.418" stroke="#1F1F1F" stroke-width="1.5" stroke-miterlimit="10"/>
<path d="M410.184 105.289C407.514 107.959 407.084 109.449 406.414 113.319C403.674 127.449 404.334 144.699 406.414 163.269L410.384 166.099L494.254 214.829C495.484 215.539 496.284 215.899 497.094 215.889C497.914 215.889 498.714 215.529 499.934 214.829L519.854 203.319L523.824 200.489C524.924 184.709 525.304 169.089 523.824 153.899C523.824 145.439 522.414 144.799 518.164 142.109L436.884 94.5091C434.564 93.1591 432.254 93.4991 429.384 93.8691C423.064 95.5891 415.974 99.9091 410.174 105.289H410.184Z" fill="#B8AB8A" stroke="#1F1F1F" stroke-width="1.5" stroke-miterlimit="10"/>
<path d="M496.984 161.579C495.654 170.049 497.104 203.409 497.164 212.919L496.984 161.579Z" fill="#B8AB8A"/>
<path d="M496.984 161.579C495.654 170.049 497.104 203.409 497.164 212.919" stroke="#1F1F1F" stroke-width="1.5" stroke-miterlimit="10"/>
<path d="M520.364 145.579C515.144 146.269 503.414 153.289 497.304 158.159L520.364 145.579Z" fill="#B8AB8A"/>
<path d="M520.364 145.579C515.144 146.269 503.414 153.289 497.304 158.159" stroke="#1F1F1F" stroke-width="1.5" stroke-miterlimit="10"/>
<path d="M510.874 154.139C510.874 154.139 513.024 160.029 513.024 182.939V205.369" fill="#B8AB8A"/>
<path d="M510.874 154.139C510.874 154.139 513.024 160.029 513.024 182.939V205.369" stroke="#1F1F1F" stroke-width="1.5" stroke-miterlimit="10"/>
<path d="M317.723 185.859L316.523 186.559C314.813 187.549 313.763 189.369 313.763 191.349C312.463 200.039 312.513 208.639 313.763 217.159L317.733 219.989L401.603 268.719C402.833 269.429 403.633 269.789 404.443 269.779C405.263 269.779 406.063 269.419 407.283 268.719L491.143 220.259L495.113 217.429V191.619C495.113 189.639 494.063 187.819 492.353 186.829C492.353 186.829 473.403 175.779 452.253 163.389C449.643 161.859 446.993 160.309 444.353 158.759C420.263 144.639 408.183 137.519 408.183 137.519C405.863 136.169 403.003 136.169 400.683 137.519C400.683 137.519 387.153 143.729 362.123 157.429C337.103 171.129 317.723 185.859 317.723 185.859Z" fill="#B8AB8A" stroke="#1F1F1F" stroke-width="1.5" stroke-miterlimit="10"/>
<path d="M492.772 196.439C469.862 211.699 431.212 232.779 405.982 245.539L492.772 196.439Z" fill="#B8AB8A"/>
<path d="M492.772 196.439C469.862 211.699 431.212 232.779 405.982 245.539" stroke="#1F1F1F" stroke-width="1.5" stroke-miterlimit="10"/>
<path d="M404.763 267.249C403.253 258.429 404.113 250.209 404.113 241.899L404.763 267.249Z" fill="#B8AB8A"/>
<path d="M404.763 267.249C403.253 258.429 404.113 250.209 404.113 241.899" stroke="#1F1F1F" stroke-width="1.5" stroke-miterlimit="10"/>
<path d="M409.803 239.139L408.603 239.839C406.893 240.829 405.843 242.649 405.843 244.629C404.543 253.319 404.593 261.919 405.843 270.439L409.813 273.269L493.683 321.999C494.913 322.709 495.713 323.069 496.523 323.059C497.343 323.059 498.143 322.699 499.363 321.999L583.223 273.539L587.193 270.709V244.899C587.193 242.919 586.143 241.099 584.433 240.109C584.433 240.109 565.483 229.059 544.333 216.669C541.723 215.139 539.073 213.589 536.433 212.039C512.343 197.919 500.263 190.799 500.263 190.799C497.943 189.449 495.083 189.449 492.763 190.799C492.763 190.799 479.233 197.009 454.203 210.709C429.183 224.409 409.803 239.139 409.803 239.139Z" fill="#B8AB8A" stroke="#1F1F1F" stroke-width="1.5" stroke-miterlimit="10"/>
<path d="M584.853 249.709C561.943 264.969 523.292 286.049 498.062 298.809L584.853 249.709Z" fill="#B8AB8A"/>
<path d="M584.853 249.709C561.943 264.969 523.292 286.049 498.062 298.809" stroke="#1F1F1F" stroke-width="1.5" stroke-miterlimit="10"/>
<path d="M496.843 320.519C495.333 311.699 496.193 303.479 496.193 295.169L496.843 320.519Z" fill="#B8AB8A"/>
<path d="M496.843 320.519C495.333 311.699 496.193 303.479 496.193 295.169" stroke="#1F1F1F" stroke-width="1.5" stroke-miterlimit="10"/>
<path d="M472.388 175.26C463.538 155.58 469.518 112.49 463.118 88.7805C462.648 87.0205 463.998 84.6205 463.948 82.8005C464.378 79.5805 461.758 76.7605 458.508 76.9505C433.118 88.3405 390.328 93.1505 361.548 84.4305C359.068 84.5805 357.048 86.4605 356.718 88.9205C356.188 105.71 355.908 122.8 357.678 141.12C358.778 152.53 350.568 165.49 348.128 177.12C347.698 180.34 350.318 183.16 353.568 182.97C383.338 184.09 441.128 186.15 464.628 181C467.108 180.85 473.268 177.23 472.388 175.26Z" fill="#B8AB8A" stroke="#1F1F1F" stroke-width="1.5" stroke-miterlimit="10"/>
<line x1="258.962" y1="228.924" x2="461.378" y2="345.789" stroke="black" stroke-width="3"/>
<g clip-path="url(#clip0_1696_14110)">
<rect x="328.235" y="244.67" width="98" height="45" rx="15" transform="rotate(30 328.235 244.67)" fill="#FAFAF1"/>
<path d="M330.068 284.411C332.033 281.008 334.845 279.617 339.65 279.516L343.903 279.408C346.851 279.343 348.498 278.77 349.638 276.796C351.003 274.431 350.373 272.162 347.671 270.602C344.995 269.057 342.622 269.627 341.122 272.225L340.927 272.563L338.329 271.063L338.479 270.803C340.759 266.854 344.801 265.793 349.088 268.268C353.089 270.578 354.557 274.335 352.292 278.259C350.822 280.805 348.442 282.167 343.682 282.191L341.141 282.213C337.416 282.245 335.822 282.606 334.841 283.945L345.831 290.29L344.436 292.706L330.068 284.411ZM365.393 295.765L368.635 297.29L367.405 299.42L364.478 297.35L361.478 302.546L359.01 301.121L362.01 295.925L351.843 290.435L352.938 288.539L368.971 280.267L372.998 282.592L365.393 295.765ZM362.925 294.34L369.525 282.908L369.447 282.863L355.812 289.921L362.925 294.34ZM373.143 309.28L381.303 295.147L376.185 292.192L377.28 290.295L377.54 290.445C379.151 291.375 380.537 291.794 381.784 291.614C382.842 291.462 383.778 290.86 384.691 289.759L384.923 289.477L387.339 290.872L375.819 310.825L373.143 309.28Z" fill="black"/>
</g>
<line x1="215.427" y1="146.422" x2="383.377" y2="49.4555" stroke="black" stroke-width="3"/>
<g clip-path="url(#clip1_1696_14110)">
<rect x="247.027" y="105.233" width="98" height="45" rx="15" transform="rotate(-30 247.027 105.233)" fill="#FAFAF1"/>
<path d="M286.413 121.177L278.253 107.043L273.135 109.998L272.04 108.102L272.3 107.952C273.911 107.022 274.967 106.031 275.434 104.86C275.832 103.869 275.778 102.756 275.281 101.415L275.153 101.073L277.569 99.6785L289.089 119.632L286.413 121.177ZM303.569 111.757C299.36 114.187 295.502 113.505 292.787 109.703L295.328 107.924C297.234 110.565 299.562 111.057 302.368 109.437C305.459 107.652 305.906 105.246 304.646 103.064C303.251 100.647 300.871 100.185 298.04 101.82L296.169 102.9L294.894 100.692L296.739 99.6269C299.129 98.2469 299.745 96.1939 298.605 94.2194C297.36 92.0629 295.119 91.9018 292.755 93.2668C290.027 94.8418 289.516 97.0767 290.528 99.6099L287.832 100.82C286.174 96.9278 287.308 93.4324 291.465 91.0324C295.622 88.6324 299.253 89.3419 301.068 92.4855C302.283 94.59 302.173 96.5589 300.366 98.7103L300.396 98.7623C303.536 97.7808 305.811 98.9614 307.281 101.508C309.471 105.301 307.881 109.267 303.569 111.757ZM316.209 86.7922C320.08 84.5572 324.185 85.5473 326.525 89.6003C328.835 93.6014 327.812 97.8293 323.421 100.364C321.109 101.699 318.773 101.974 316.273 101.062C313.992 100.231 312.336 98.6239 310.356 95.1944C306.801 89.037 305.487 83.0407 311.67 79.4707C315.1 77.4907 318.39 77.6696 320.707 80.0035L318.308 81.9082C317.094 80.7043 315.279 80.2621 312.863 81.6571C309.668 83.5021 309.023 86.6456 312.309 92.5772C312.421 90.1915 313.871 88.1422 316.209 86.7922ZM322.157 98.115C324.807 96.585 325.592 93.9842 324.002 91.2302C322.382 88.4243 319.688 87.6586 317.038 89.1886C314.726 90.5236 313.491 93.0036 314.468 96.0766C315.655 97.7123 316.566 98.3297 317.661 98.6671C319.36 99.2103 320.884 98.85 322.157 98.115Z" fill="black"/>
</g>
<defs>
<clipPath id="clip0_1696_14110">
<rect x="328.235" y="244.67" width="98" height="45" rx="15" transform="rotate(30 328.235 244.67)" fill="white"/>
</clipPath>
<clipPath id="clip1_1696_14110">
<rect x="247.027" y="105.233" width="98" height="45" rx="15" transform="rotate(-30 247.027 105.233)" fill="white"/>
</clipPath>
</defs>
</svg>
