<svg width="900" height="500" viewBox="0 0 900 500" fill="none" xmlns="http://www.w3.org/2000/svg">
<line x1="232.704" y1="279.096" x2="459.449" y2="410.007" stroke="black" stroke-width="3"/>
<g clip-path="url(#clip0_1696_13253)">
<rect x="317.788" y="303.971" width="89.5785" height="45" rx="15" transform="rotate(30 317.788 303.971)" fill="#FAFAF1"/>
<path d="M315.378 341.262C317.343 337.858 320.155 336.468 324.959 336.366L329.213 336.259C332.16 336.194 333.807 335.621 334.947 333.646C336.312 331.282 335.682 329.013 332.98 327.453C330.304 325.908 327.932 326.478 326.432 329.076L326.237 329.414L323.638 327.914L323.788 327.654C326.068 323.705 330.111 322.644 334.397 325.119C338.398 327.429 339.866 331.186 337.601 335.109C336.131 337.655 333.751 339.018 328.992 339.041L326.45 339.063C322.725 339.095 321.131 339.456 320.15 340.795L331.14 347.14L329.745 349.557L315.378 341.262ZM336.163 353.262C341.205 346.75 347.338 342.428 353.685 340.134L342.695 333.789L344.15 331.269L358.595 339.609L357.47 341.558C349.807 343.611 343.714 348.164 338.891 354.837L336.163 353.262ZM349.909 361.198C351.874 357.795 354.686 356.404 359.49 356.303L363.744 356.195C366.691 356.13 368.338 355.557 369.478 353.583C370.843 351.218 370.213 348.949 367.511 347.389C364.835 345.844 362.463 346.414 360.963 349.012L360.768 349.35L358.17 347.85L358.32 347.59C360.6 343.641 364.642 342.58 368.928 345.055C372.929 347.365 374.397 351.123 372.132 355.046C370.662 357.592 368.282 358.954 363.523 358.978L360.981 359C357.256 359.032 355.662 359.393 354.681 360.732L365.671 367.077L364.276 369.493L349.909 361.198Z" fill="black"/>
</g>
<line x1="176.02" y1="202.973" x2="343.97" y2="106.007" stroke="black" stroke-width="3"/>
<g clip-path="url(#clip1_1696_13253)">
<rect x="207.62" y="161.785" width="98" height="45" rx="15" transform="rotate(-30 207.62 161.785)" fill="#FAFAF1"/>
<path d="M247.006 177.729L238.846 163.595L233.728 166.55L232.633 164.654L232.893 164.504C234.504 163.574 235.56 162.583 236.027 161.412C236.424 160.421 236.371 159.308 235.874 157.967L235.746 157.625L238.162 156.23L249.682 176.184L247.006 177.729ZM264.161 168.309C259.953 170.739 256.094 170.057 253.38 166.255L255.921 164.476C257.827 167.117 260.154 167.609 262.96 165.989C266.052 164.204 266.499 161.798 265.239 159.616C263.844 157.199 261.464 156.737 258.632 158.372L256.762 159.452L255.487 157.244L257.331 156.179C259.722 154.799 260.338 152.746 259.198 150.771C257.953 148.615 255.712 148.454 253.348 149.819C250.62 151.394 250.109 153.629 251.121 156.162L248.425 157.372C246.766 153.48 247.901 149.984 252.058 147.584C256.214 145.184 259.846 145.894 261.661 149.038C262.876 151.142 262.765 153.111 260.959 155.262L260.989 155.314C264.129 154.333 266.404 155.513 267.874 158.06C270.064 161.853 268.474 165.819 264.161 168.309ZM276.802 143.344C280.673 141.109 284.778 142.099 287.118 146.152C289.428 150.153 288.405 154.381 284.014 156.916C281.702 158.251 279.366 158.526 276.865 157.614C274.584 156.783 272.929 155.176 270.949 151.746C267.394 145.589 266.08 139.593 272.263 136.023C275.692 134.043 278.983 134.222 281.3 136.556L278.901 138.46C277.686 137.256 275.872 136.814 273.456 138.209C270.26 140.054 269.616 143.198 272.902 149.129C273.014 146.744 274.464 144.694 276.802 143.344ZM282.75 154.667C285.4 153.137 286.185 150.536 284.595 147.782C282.975 144.976 280.281 144.211 277.631 145.741C275.319 147.076 274.083 149.556 275.061 152.629C276.248 154.264 277.158 154.882 278.254 155.219C279.953 155.762 281.477 155.402 282.75 154.667Z" fill="black"/>
</g>
<path d="M399.9 139.52C402.57 142.19 403 143.68 403.67 147.55C406.41 161.68 405.75 178.93 403.67 197.5L399.7 200.33L315.83 249.06C314.6 249.77 313.8 250.13 312.99 250.12C312.17 250.12 311.37 249.76 310.15 249.06L290.23 237.55L286.26 234.72C285.16 218.94 284.78 203.32 286.26 188.13C286.26 179.67 287.67 179.03 291.92 176.34L373.2 128.74C375.52 127.39 377.83 127.73 380.7 128.1C387.02 129.82 394.11 134.14 399.91 139.52H399.9Z" fill="#B8AB8A" stroke="#1F1F1F" stroke-width="1.5" stroke-miterlimit="10"/>
<path d="M313.098 195.801C314.428 204.271 312.978 237.631 312.918 247.141L313.098 195.801Z" fill="#B8AB8A"/>
<path d="M313.098 195.801C314.428 204.271 312.978 237.631 312.918 247.141" stroke="#1F1F1F" stroke-width="1.5" stroke-miterlimit="10"/>
<path d="M289.719 179.811C294.939 180.501 306.669 187.521 312.779 192.391L289.719 179.811Z" fill="#B8AB8A"/>
<path d="M289.719 179.811C294.939 180.501 306.669 187.521 312.779 192.391" stroke="#1F1F1F" stroke-width="1.5" stroke-miterlimit="10"/>
<path d="M299.209 188.361C299.209 188.361 297.059 194.251 297.059 217.161C297.059 221.441 297.059 239.591 297.059 239.591" fill="#B8AB8A"/>
<path d="M299.209 188.361C299.209 188.361 297.059 194.251 297.059 217.161C297.059 221.441 297.059 239.591 297.059 239.591" stroke="#1F1F1F" stroke-width="1.5" stroke-miterlimit="10"/>
<path d="M381.92 154.461C379.25 157.131 378.82 158.621 378.15 162.491C375.41 176.621 376.07 193.871 378.15 212.441L382.12 215.271L465.99 264.001C467.22 264.711 468.02 265.071 468.83 265.061C469.65 265.061 470.45 264.701 471.67 264.001L491.59 252.491L495.56 249.661C496.66 233.881 497.04 218.261 495.56 203.071C495.56 194.611 494.15 193.971 489.9 191.281L408.62 143.681C406.3 142.331 403.99 142.671 401.12 143.041C394.8 144.761 387.71 149.081 381.91 154.461H381.92Z" fill="#B8AB8A" stroke="#1F1F1F" stroke-width="1.5" stroke-miterlimit="10"/>
<path d="M468.72 210.751C467.39 219.221 468.84 252.581 468.9 262.091L468.72 210.751Z" fill="#B8AB8A"/>
<path d="M468.72 210.751C467.39 219.221 468.84 252.581 468.9 262.091" stroke="#1F1F1F" stroke-width="1.5" stroke-miterlimit="10"/>
<path d="M492.099 194.751C486.879 195.441 475.149 202.461 469.039 207.331L492.099 194.751Z" fill="#B8AB8A"/>
<path d="M492.099 194.751C486.879 195.441 475.149 202.461 469.039 207.331" stroke="#1F1F1F" stroke-width="1.5" stroke-miterlimit="10"/>
<path d="M482.609 203.312C482.609 203.312 484.759 209.202 484.759 232.112V254.542" fill="#B8AB8A"/>
<path d="M482.609 203.312C482.609 203.312 484.759 209.202 484.759 232.112V254.542" stroke="#1F1F1F" stroke-width="1.5" stroke-miterlimit="10"/>
<path d="M475.019 207.901C472.349 210.571 471.919 212.061 471.249 215.931C468.509 230.061 469.169 247.311 471.249 265.881L475.219 268.711L559.089 317.441C560.319 318.151 561.119 318.511 561.929 318.501C562.749 318.501 563.549 318.141 564.769 317.441L584.689 305.931L588.659 303.101C589.759 287.321 590.139 271.701 588.659 256.511C588.659 248.051 587.249 247.411 582.999 244.721L501.719 197.121C499.399 195.771 497.089 196.111 494.219 196.481C487.899 198.201 480.809 202.521 475.009 207.901H475.019Z" fill="#B8AB8A" stroke="#1F1F1F" stroke-width="1.5" stroke-miterlimit="10"/>
<path d="M561.819 264.191C560.489 272.661 561.939 306.021 561.999 315.531L561.819 264.191Z" fill="#B8AB8A"/>
<path d="M561.819 264.191C560.489 272.661 561.939 306.021 561.999 315.531" stroke="#1F1F1F" stroke-width="1.5" stroke-miterlimit="10"/>
<path d="M585.199 248.201C579.979 248.891 568.249 255.911 562.139 260.781L585.199 248.201Z" fill="#B8AB8A"/>
<path d="M585.199 248.201C579.979 248.891 568.249 255.911 562.139 260.781" stroke="#1F1F1F" stroke-width="1.5" stroke-miterlimit="10"/>
<path d="M575.709 256.751C575.709 256.751 577.859 262.641 577.859 285.551V307.981" fill="#B8AB8A"/>
<path d="M575.709 256.751C575.709 256.751 577.859 262.641 577.859 285.551V307.981" stroke="#1F1F1F" stroke-width="1.5" stroke-miterlimit="10"/>
<path d="M289.459 235.031L288.259 235.731C286.549 236.721 285.499 238.541 285.499 240.521C284.199 249.211 284.249 257.811 285.499 266.331L289.469 269.161L373.339 317.891C374.569 318.601 375.369 318.961 376.179 318.951C376.999 318.951 377.799 318.591 379.019 317.891L462.879 269.431L466.849 266.601V240.791C466.849 238.811 465.799 236.991 464.089 236.001C464.089 236.001 445.139 224.951 423.989 212.561C421.379 211.031 418.729 209.481 416.089 207.931C391.999 193.811 379.919 186.691 379.919 186.691C377.599 185.341 374.739 185.341 372.419 186.691C372.419 186.691 358.889 192.901 333.859 206.601C308.839 220.301 289.459 235.031 289.459 235.031Z" fill="#B8AB8A" stroke="#1F1F1F" stroke-width="1.5" stroke-miterlimit="10"/>
<path d="M464.509 245.612C441.599 260.872 402.949 281.952 377.719 294.712L464.509 245.612Z" fill="#B8AB8A"/>
<path d="M464.509 245.612C441.599 260.872 402.949 281.952 377.719 294.712" stroke="#1F1F1F" stroke-width="1.5" stroke-miterlimit="10"/>
<path d="M376.499 316.422C374.989 307.602 375.849 299.382 375.849 291.072L376.499 316.422Z" fill="#B8AB8A"/>
<path d="M376.499 316.422C374.989 307.602 375.849 299.382 375.849 291.072" stroke="#1F1F1F" stroke-width="1.5" stroke-miterlimit="10"/>
<path d="M381.539 288.31L380.339 289.01C378.629 290 377.579 291.82 377.579 293.8C376.279 302.49 376.329 311.09 377.579 319.61L381.549 322.44L465.419 371.17C466.649 371.88 467.449 372.24 468.259 372.23C469.079 372.23 469.879 371.87 471.099 371.17L554.959 322.71L558.929 319.88V294.07C558.929 292.09 557.879 290.27 556.169 289.28C556.169 289.28 537.219 278.23 516.069 265.84C513.459 264.31 510.809 262.76 508.169 261.21C484.079 247.09 471.999 239.97 471.999 239.97C469.679 238.62 466.819 238.62 464.499 239.97C464.499 239.97 450.969 246.18 425.939 259.88C400.919 273.58 381.539 288.31 381.539 288.31Z" fill="#B8AB8A" stroke="#1F1F1F" stroke-width="1.5" stroke-miterlimit="10"/>
<path d="M556.589 298.881C533.679 314.141 495.029 335.221 469.799 347.981L556.589 298.881Z" fill="#B8AB8A"/>
<path d="M556.589 298.881C533.679 314.141 495.029 335.221 469.799 347.981" stroke="#1F1F1F" stroke-width="1.5" stroke-miterlimit="10"/>
<path d="M468.579 369.691C467.069 360.871 467.929 352.651 467.929 344.341L468.579 369.691Z" fill="#B8AB8A"/>
<path d="M468.579 369.691C467.069 360.871 467.929 352.651 467.929 344.341" stroke="#1F1F1F" stroke-width="1.5" stroke-miterlimit="10"/>
<path d="M609.871 260.741C612.541 263.411 612.971 264.901 613.641 268.771C616.381 282.901 615.721 300.151 613.641 318.721L609.671 321.551L525.801 370.281C524.571 370.991 523.771 371.351 522.961 371.341C522.141 371.341 521.341 370.981 520.121 370.281L500.201 358.771L496.231 355.941C495.131 340.161 494.751 324.541 496.231 309.351C496.231 300.891 497.641 300.251 501.891 297.561L583.171 249.961C585.491 248.611 587.801 248.951 590.671 249.321C596.991 251.041 604.081 255.361 609.881 260.741H609.871Z" fill="#B8AB8A" stroke="#1F1F1F" stroke-width="1.5" stroke-miterlimit="10"/>
<path d="M523.069 317.031C524.399 325.501 522.949 358.861 522.889 368.371L523.069 317.031Z" fill="#B8AB8A"/>
<path d="M523.069 317.031C524.399 325.501 522.949 358.861 522.889 368.371" stroke="#1F1F1F" stroke-width="1.5" stroke-miterlimit="10"/>
<path d="M499.689 301.031C504.909 301.721 516.639 308.741 522.749 313.611L499.689 301.031Z" fill="#B8AB8A"/>
<path d="M499.689 301.031C504.909 301.721 516.639 308.741 522.749 313.611" stroke="#1F1F1F" stroke-width="1.5" stroke-miterlimit="10"/>
<path d="M509.179 309.591C509.179 309.591 507.029 315.481 507.029 338.391C507.029 342.671 507.029 360.821 507.029 360.821" stroke="#1F1F1F" stroke-width="1.5" stroke-miterlimit="10"/>
<path d="M486.94 253.181C488.62 251.811 490.66 251.011 492.34 249.691C512.61 233.771 532.6 220.841 553.46 210.691C555.03 209.931 556.85 208.211 558.42 207.481C561.1 205.771 564.08 206.661 564.61 209.341C565.8 220.491 579.24 232.271 581.4 243.231C583.65 254.621 573.96 260.521 577.17 271.711C577.57 273.761 578.96 284.061 576.91 285.371C565.13 286.721 541.25 278.061 524.8 287.381C517.1 291.741 510.16 292.221 499.89 298.631C489.4 305.171 491.65 316.191 480.01 321.791C477.33 323.501 476.19 323.461 475.66 320.781C476.23 316.991 475.66 315.401 475.66 311.911C475.66 288.041 477.59 271.951 484.11 258.951C483.71 256.901 484.89 254.481 486.94 253.171V253.181Z" fill="#B8AB8A" stroke="#1F1F1F" stroke-width="1.5" stroke-miterlimit="10"/>
<path d="M570.75 282.371C570.75 282.371 547.36 275.831 521.18 282.791C515.54 284.291 503.36 292.461 497.41 297.211C484.54 307.501 480.02 321.801 480.02 321.801" stroke="#1F1F1F" stroke-width="1.5" stroke-miterlimit="10"/>
<path d="M389.05 203.011C389.31 201.661 390.05 200.421 390.37 199.111C394.3 183.301 401.55 166.951 403.78 162.991C404.63 161.491 405.86 158.981 406.66 157.411C407.18 156.391 407.37 154.091 407.92 153.091C408.59 151.161 410.01 148.441 411.58 149.791C425.35 159.341 440.67 166.951 456.34 174.501C457.69 175.281 458.3 176.911 457.79 178.381C457.35 179.341 456.37 181.121 455.97 182.111C453.83 187.421 451.53 192.711 449.22 198.931C445.93 207.811 443.48 216.071 440.48 225.221C439.94 226.881 440.09 229.091 439.45 230.681C438.78 232.611 436.52 233.451 434.75 232.431C432.67 231.871 431.01 230.141 429.12 229.311C413.38 222.471 402.7 215.541 392.78 206.881C391.43 206.101 388.54 204.471 389.05 203.001V203.011Z" fill="#B8AB8A" stroke="#1F1F1F" stroke-width="1.5" stroke-miterlimit="10"/>
<path d="M456.2 179.591C450.41 188.501 437.95 226.461 438.73 230.451" stroke="#1F1F1F" stroke-width="1.5" stroke-miterlimit="10"/>
<path d="M425.77 213.791C415.11 206.881 404.25 200.651 393.14 195.341L393.03 195.321C391.09 194.521 387.7 196.011 386.05 200.011C384.4 204.011 385.12 208.991 387.06 209.791C396.49 216.881 407.57 222.931 419.81 228.261C421.75 229.061 425.45 226.471 427.09 222.471C428.74 218.471 427.71 214.591 425.78 213.791H425.77Z" fill="#B8AB8A" stroke="#1F1F1F" stroke-width="1.5" stroke-miterlimit="10"/>
<path d="M419.461 227.482C418.201 226.592 417.631 223.572 419.281 219.572C420.931 215.572 422.861 214.262 424.561 214.112" stroke="#1F1F1F" stroke-width="1.5" stroke-miterlimit="10"/>
<path d="M386.541 203.232C395.771 209.512 406.331 215.432 418.011 221.042" stroke="#1F1F1F" stroke-width="1.5" stroke-miterlimit="10"/>
<path d="M411.75 214.931C411.57 215.111 410.73 217.581 410.73 217.581L413.13 218.691L414.17 216.071L411.75 214.931Z" fill="#B8AB8A" stroke="#1F1F1F" stroke-width="1.5" stroke-miterlimit="10"/>
<defs>
<clipPath id="clip0_1696_13253">
<rect x="317.788" y="303.971" width="89.5785" height="45" rx="15" transform="rotate(30 317.788 303.971)" fill="white"/>
</clipPath>
<clipPath id="clip1_1696_13253">
<rect x="207.62" y="161.785" width="98" height="45" rx="15" transform="rotate(-30 207.62 161.785)" fill="white"/>
</clipPath>
</defs>
</svg>
