<svg preserveAspectRatio="none" width="100%" height="100%" overflow="visible" style="display: block;" viewBox="0 0 18 18" fill="none" xmlns="http://www.w3.org/2000/svg">
<g id="color-swatch-svgrepo-com (1)">
<path id="Vector" d="M2.25 5.25C2.25 3.83579 2.25 3.12868 2.68934 2.68934C3.12868 2.25 3.83579 2.25 5.25 2.25C6.66422 2.25 7.37132 2.25 7.81065 2.68934C8.25 3.12868 8.25 3.83579 8.25 5.25V9V12.75C8.25 14.1642 8.25 14.8713 7.81065 15.3107C7.37132 15.75 6.66422 15.75 5.25 15.75C3.83579 15.75 3.12868 15.75 2.68934 15.3107C2.25 14.8713 2.25 14.1642 2.25 12.75V9V5.25Z" stroke="var(--stroke-0, #323232)" stroke-linejoin="round"/>
<path id="Vector_2" d="M8.25 5.625L9.5037 4.37132C10.5037 3.37132 11.0037 2.87132 11.625 2.87132C12.2463 2.87132 12.7463 3.37132 13.7463 4.37132L14.3787 5.00368C15.3787 6.00368 15.8787 6.50368 15.8787 7.125C15.8787 7.7463 15.3787 8.24632 14.3787 9.2463L8.25 15.375" stroke="var(--stroke-0, #323232)" stroke-linejoin="round"/>
<path id="Vector_3" d="M5.25 15.75H12.75C14.1642 15.75 14.8713 15.75 15.3106 15.3106C15.75 14.8713 15.75 14.1642 15.75 12.75V11.625C15.75 11.2765 15.75 11.1023 15.7212 10.9574C15.6028 10.3623 15.1377 9.89715 14.5426 9.7788C14.3977 9.75 14.2235 9.75 13.875 9.75" stroke="var(--stroke-0, #323232)" stroke-linejoin="round"/>
<path id="Vector_4" d="M5.25 12.7575V12.75" stroke="var(--stroke-0, #323232)" stroke-linecap="round" stroke-linejoin="round"/>
</g>
</svg>
