<svg preserveAspectRatio="none" width="100%" height="100%" overflow="visible" style="display: block;" viewBox="0 0 18.5555 19.3768" fill="none" xmlns="http://www.w3.org/2000/svg">
<g id="Group">
<path id="Vector" d="M12.4566 19.3035C12.4222 19.2605 12.2717 18.925 12.1254 18.5594C11.8415 17.8325 11.6996 17.5702 11.5276 17.411C11.3856 17.2777 10.9555 17.0713 10.2889 16.8175C9.72972 16.6067 9.62649 16.5336 9.70391 16.4175C9.72542 16.3745 10.0867 16.2067 10.4996 16.0433C11.6566 15.5788 11.6738 15.5616 12.1899 14.2282C12.3018 13.9401 12.4308 13.6691 12.4738 13.6304C12.5426 13.5659 12.5555 13.5702 12.6243 13.6519C12.6674 13.6992 12.805 14.0003 12.9254 14.3186C13.4114 15.5788 13.4372 15.6089 14.805 16.1336C15.3684 16.3487 15.5061 16.4476 15.3856 16.5594C15.3555 16.5895 15.0674 16.7143 14.7491 16.839C13.4157 17.3551 13.4157 17.3551 12.9297 18.611C12.7061 19.1788 12.6114 19.3766 12.5598 19.3766C12.5426 19.3766 12.4953 19.3422 12.4566 19.3035Z" fill="var(--fill-0, black)"/>
<path id="Vector_2" d="M17.3254 18.3186C17.2738 18.2024 17.1964 18.0261 17.1534 17.9229C17.0846 17.7594 17.0415 17.7207 16.762 17.596C16.5899 17.5186 16.4136 17.4411 16.3749 17.4282C16.2372 17.3809 16.2932 17.3207 16.5813 17.2175C16.9598 17.0842 17.119 16.9293 17.2695 16.5508C17.3383 16.3788 17.4114 16.2368 17.4286 16.2368C17.4458 16.2368 17.4932 16.31 17.5276 16.4003C17.7598 16.9895 17.863 17.0971 18.3104 17.2304C18.6243 17.3207 18.6157 17.3723 18.2458 17.5272C18.0609 17.6003 17.8716 17.7035 17.82 17.7465C17.7684 17.7938 17.6738 17.9702 17.6093 18.1422C17.5448 18.3143 17.4716 18.4691 17.4544 18.4906C17.4329 18.5164 17.377 18.4433 17.3254 18.3186Z" fill="var(--fill-0, black)"/>
<path id="Vector_3" d="M1.962 17.0066C1.78136 16.9636 1.5663 16.8948 1.48888 16.8561C0.985657 16.598 0.452324 16.0561 0.232969 15.5787C-0.0121922 15.0411 -0.00789116 15.2862 0.00501207 8.3959L0.0179153 2.06471L0.134044 1.74643C0.306087 1.28622 0.443722 1.07116 0.787808 0.731379C1.00716 0.512024 1.18781 0.382991 1.41576 0.271164C2.02652 -0.0170086 1.53189 0.000195747 8.57706 0.000195747H14.9857L15.2867 0.0991205C15.6566 0.223852 16.1297 0.512024 16.3663 0.761486C16.6115 1.01525 16.8437 1.38944 16.9771 1.75503L17.0932 2.06471L17.1061 5.97009L17.119 9.87116H16.4953H15.8674L15.8588 6.03461L15.8459 2.19374L15.7426 1.98729C15.6093 1.72923 15.3642 1.48407 15.1018 1.35073L14.8996 1.24751H8.55555H2.21146L1.99641 1.36364C1.70394 1.51417 1.44587 1.80235 1.33404 2.10342L1.24372 2.34858L1.25232 8.61525L1.26523 14.8819L1.38136 15.1013C1.51039 15.3464 1.75555 15.583 2.02652 15.7292L2.21146 15.8282L5.19211 15.8411L8.16845 15.854V16.4733V17.097L5.23512 17.0927C2.49533 17.0927 2.27598 17.0841 1.962 17.0066Z" fill="var(--fill-0, black)"/>
<path id="Vector_4" d="M16.4093 15.1272C16.3964 15.11 16.3018 14.8648 16.1942 14.5852C16.0867 14.3057 15.9448 14.0046 15.8803 13.91C15.7512 13.725 15.4416 13.5573 14.805 13.3121C14.2932 13.1186 14.3104 13.0799 15.0459 12.7788C15.8416 12.4519 15.8975 12.396 16.2157 11.553C16.3921 11.0842 16.4695 10.9723 16.5598 11.0627C16.5813 11.0842 16.676 11.2949 16.7663 11.5315C17.1061 12.4304 17.1362 12.4605 18.005 12.8089C18.3663 12.9551 18.5555 13.0541 18.5555 13.0971C18.5555 13.1401 18.3663 13.239 18.005 13.3809C17.7039 13.5057 17.4114 13.6347 17.3512 13.6734C17.1534 13.8024 17.0071 14.0433 16.7921 14.5895C16.5899 15.1014 16.4867 15.2476 16.4093 15.1272Z" fill="var(--fill-0, black)"/>
<path id="Vector_5" d="M7.17058 12.3745C6.79639 12.3702 6.49101 12.3573 6.49101 12.353C6.49101 12.3487 6.38348 12.0347 6.25015 11.6562C6.11682 11.2777 5.89746 10.6411 5.75983 10.2368C5.42864 9.2777 4.78778 7.41963 4.29746 6.00028C4.07811 5.37232 3.89316 4.82608 3.88026 4.78737C3.85875 4.71426 3.91467 4.70995 4.66735 4.70995H5.48026L5.62649 5.21748C5.70391 5.49275 5.79424 5.78092 5.82434 5.84974L5.87596 5.97877H7.20069H8.52112L8.71897 5.34651L8.91682 4.70995H9.72112H10.5297L10.3835 5.13146C10.0781 6.02178 9.75122 6.96372 9.43725 7.87125C9.2566 8.39168 8.98563 9.17447 8.8351 9.61318C8.25015 11.3207 7.91467 12.2841 7.88026 12.3358C7.85445 12.3745 7.67381 12.3831 7.17058 12.3745ZM7.32972 9.92716C7.38993 9.71641 7.49746 9.36372 7.56628 9.14006C8.02649 7.63469 8.12542 7.3035 8.12542 7.25619C8.12542 7.21748 7.90606 7.20458 7.17488 7.20458C6.43079 7.20458 6.22864 7.21748 6.24585 7.26049C6.25445 7.2863 6.4609 7.96157 6.70176 8.75297C7.22219 10.4519 7.17058 10.3014 7.19639 10.3014C7.20929 10.3014 7.2652 10.1336 7.32972 9.92716Z" fill="var(--fill-0, black)"/>
<path id="Vector_6" d="M11.7383 8.53791V4.70995H12.5125H13.2867V8.53791V12.3659H12.5125H11.7383V8.53791Z" fill="var(--fill-0, black)"/>
</g>
</svg>
