<svg preserveAspectRatio="none" width="100%" height="100%" overflow="visible" style="display: block;" viewBox="0 0 21 21" fill="none" xmlns="http://www.w3.org/2000/svg">
<g id="menu-dots-svgrepo-com">
<path id="Vector" d="M6.125 10.5C6.125 11.4665 5.3415 12.25 4.375 12.25C3.4085 12.25 2.625 11.4665 2.625 10.5C2.625 9.53347 3.4085 8.75 4.375 8.75C5.3415 8.75 6.125 9.53347 6.125 10.5Z" fill="var(--fill-0, black)"/>
<path id="Vector_2" d="M18.375 10.5C18.375 11.4665 17.5915 12.25 16.625 12.25C15.6585 12.25 14.875 11.4665 14.875 10.5C14.875 9.53347 15.6585 8.75 16.625 8.75C17.5915 8.75 18.375 9.53347 18.375 10.5Z" fill="var(--fill-0, black)"/>
<path id="Vector_3" d="M12.25 10.5C12.25 11.4665 11.4665 12.25 10.5 12.25C9.53347 12.25 8.75 11.4665 8.75 10.5C8.75 9.53347 9.53347 8.75 10.5 8.75C11.4665 8.75 12.25 9.53347 12.25 10.5Z" fill="var(--fill-0, black)"/>
</g>
</svg>
