<svg preserveAspectRatio="none" width="100%" height="100%" overflow="visible" style="display: block;" viewBox="0 0 30 30" fill="none" xmlns="http://www.w3.org/2000/svg">
<g id="support-svgrepo-com 1">
<path id="Vector" d="M8.66719 6.57562C8.77213 5.52384 9.13996 4.51536 9.73682 3.64302C10.3337 2.77067 11.1404 2.06249 12.0827 1.58365C13.025 1.10482 14.0726 0.870728 15.1292 0.902924C16.1857 0.93512 17.2171 1.23257 18.1285 1.76789C19.0399 2.30322 19.802 3.05921 20.3447 3.96629C20.8873 4.87336 21.1931 5.90236 21.2338 6.95857C21.2744 8.01479 21.0488 9.06426 20.5776 10.0104C20.1152 10.9388 19.431 11.7383 18.586 12.3385" stroke="var(--stroke-0, black)" stroke-width="1.8" stroke-linecap="round" stroke-linejoin="round"/>
<path id="Vector_2" d="M9.52734 4.02322C10.5025 5.02993 11.6701 5.83025 12.9608 6.37655C14.2516 6.92285 15.639 7.20398 17.0406 7.20322C18.419 7.20458 19.7838 6.93314 21.0563 6.4049" stroke="var(--stroke-0, black)" stroke-width="1.8" stroke-linecap="round" stroke-linejoin="round"/>
<path id="Vector_3" d="M13.5878 11.7032C13.2319 11.7032 12.8839 11.8088 12.5879 12.0066C12.2918 12.2044 12.0611 12.4855 11.9249 12.8144C11.7887 13.1432 11.753 13.5052 11.8225 13.8544C11.8919 14.2036 12.0634 14.5243 12.3151 14.776C12.5668 15.0277 12.8875 15.1992 13.2367 15.2687C13.5859 15.338 13.9478 15.3024 14.2768 15.1662C14.6057 15.03 14.8867 14.7992 15.0845 14.5032C15.2824 14.2073 15.3878 13.8592 15.3878 13.5032C15.3878 13.0259 15.1982 12.568 14.8607 12.2304C14.5231 11.8929 14.0653 11.7032 13.5878 11.7032Z" stroke="var(--stroke-0, black)" stroke-width="1.8" stroke-linecap="round" stroke-linejoin="round"/>
<path id="Vector_4" d="M6.38789 8.60961V9.90322C6.38789 10.858 6.76717 11.7737 7.4423 12.4488C8.11744 13.1239 9.03311 13.5032 9.98789 13.5032H11.6958" stroke="var(--stroke-0, black)" stroke-width="1.8" stroke-linecap="round" stroke-linejoin="round"/>
<path id="Vector_5" d="M26.6406 27.9032C26.6407 25.7632 26.0532 23.6642 24.9422 21.8352C23.8358 20.0135 22.2526 18.5291 20.3636 17.5424" stroke="var(--stroke-0, black)" stroke-width="1.8" stroke-linecap="round" stroke-linejoin="round"/>
<path id="Vector_6" d="M3.24024 27.9032C3.24 25.7634 3.82711 23.6647 4.93758 21.8356C6.0425 20.0156 7.62341 18.5322 9.50944 17.5452" stroke="var(--stroke-0, black)" stroke-width="1.8" stroke-linecap="round" stroke-linejoin="round"/>
</g>
</svg>
