<svg preserveAspectRatio="none" width="100%" height="100%" overflow="visible" style="display: block;" viewBox="0 0 36.4717 17.666" fill="none" xmlns="http://www.w3.org/2000/svg">
<g id="Group">
<path id="Vector" d="M7.12087 0.0752206C6.8115 0.239795 6.57946 0.52406 6.50212 0.793363L6.42477 1.09259H5.0635C3.73317 1.09259 3.7177 1.09259 3.54755 1.27212C3.31551 1.49654 3.30004 1.87058 3.53208 2.06507C3.68677 2.19973 3.76411 2.19972 6.62587 2.19972H9.56497L9.71966 2.3643C9.93622 2.58872 9.92076 2.85802 9.67325 3.11236L9.45669 3.30686H5.43476H1.44377L1.25814 3.4864C1.13439 3.59113 1.07251 3.72578 1.07251 3.87539C1.07251 4.414 1.01064 4.414 4.98616 4.414C8.4048 4.414 8.49761 4.414 8.63683 4.54865C8.8534 4.75811 8.82246 5.11718 8.55949 5.3416L8.34292 5.52113H5.4657H2.573L2.40284 5.70067C2.15534 5.94005 2.15534 6.29912 2.40284 6.49362C2.58847 6.64323 2.66582 6.64323 6.11539 6.64323C8.46667 6.64323 9.68872 6.67315 9.78153 6.71804C9.98263 6.82277 10.06 7.07711 9.98263 7.33145C9.82794 7.75037 9.95169 7.75037 4.93975 7.75037C0.128908 7.75037 0.25266 7.75037 0.0825011 8.07952C-0.0412506 8.28897 -0.0257816 8.46851 0.128908 8.66301L0.268129 8.82758L4.50662 8.8575L8.72965 8.88742L8.86887 9.06696C9.06996 9.3213 8.99262 9.65045 8.68324 9.82999C8.48214 9.94968 8.31198 9.96464 7.04353 9.96464C6.27008 9.96464 5.63586 9.9796 5.63586 10.0095C5.63586 10.0394 5.54304 10.997 5.45023 12.134C5.18726 14.9916 5.12538 14.8869 7.21369 14.9168L8.54402 14.9467L8.66777 14.453C9.20918 12.134 11.8698 10.7725 13.9582 11.7301C14.5614 11.9994 15.1647 12.5829 15.4432 13.1664C15.6752 13.6302 15.8763 14.468 15.8144 14.7822C15.799 14.9019 16.0001 14.9019 21.5689 14.9019H27.3388L27.4316 14.453C27.5708 13.8247 27.8957 13.1963 28.3907 12.6876C29.1177 11.9395 29.984 11.5206 30.974 11.4308C32.9231 11.2663 34.5783 12.7325 34.5783 14.6176C34.5783 14.9168 34.5783 14.9318 34.8103 14.9318C35.3517 14.9318 35.8312 14.6625 36.0014 14.2436C36.1097 13.9743 36.5274 9.29138 36.4655 8.88742C36.3881 8.25905 36.1252 7.89998 34.3153 5.99989C32.8303 4.42896 32.5364 4.14469 32.1806 3.98012L31.7629 3.78562L29.6282 3.74074C27.973 3.72578 27.4316 3.69586 27.4316 3.63601C27.4316 3.59113 27.478 3.05252 27.5399 2.45407C27.6791 1.04771 27.6791 0.673673 27.5399 0.419331C27.3079 -0.029508 27.9885 0.000414136 17.1448 0.000414136C10.0754 0.000414136 7.21369 0.0153754 7.12087 0.0752206ZM15.01 4.65338C15.01 5.10222 15.01 5.10222 14.0046 5.10222H13.0919L13.061 5.32664C13.0455 5.44633 12.9991 5.70067 12.9836 5.8802L12.9372 6.20935H13.7261C14.6078 6.20935 14.5614 6.17943 14.4686 6.70308L14.4222 6.95742L13.6333 6.97238L12.8444 6.98734L12.7206 7.88502C12.6588 8.37874 12.5969 8.7827 12.5969 8.79766C12.5969 8.81262 12.4113 8.81262 12.1947 8.81262H11.777L11.8234 8.54332C11.8389 8.40866 11.9627 7.45114 12.0864 6.41881C12.2102 5.38648 12.3184 4.51873 12.3339 4.45888C12.3494 4.39904 12.6897 4.36911 13.6952 4.36911H15.01V4.65338ZM17.7326 4.50376C18.1038 4.63842 18.274 4.78803 18.3668 5.11718C18.4596 5.46129 18.3359 6.28416 18.1657 6.58339C18.0574 6.76292 17.7016 7.04719 17.5005 7.12199C17.4541 7.13695 17.5624 7.45114 17.779 7.9299C17.9801 8.36378 18.1502 8.73781 18.1502 8.76773C18.1502 8.79766 17.9491 8.82758 17.6862 8.82758H17.2376L16.8818 8.04959C16.6033 7.43618 16.4951 7.27161 16.3713 7.25664C16.2785 7.24168 16.2166 7.25664 16.2166 7.2716C16.2166 7.33145 16.0774 8.36378 16.031 8.60316C16.0001 8.82758 15.9846 8.82758 15.6133 8.82758C15.2885 8.82758 15.2266 8.81262 15.2266 8.70789C15.2266 8.54331 15.7216 4.77307 15.768 4.56361C15.799 4.414 15.8299 4.414 16.6497 4.414C17.1448 4.414 17.5779 4.45888 17.7326 4.50376ZM22.002 4.65338C22.002 5.10222 22.002 5.10222 21.0429 5.10222C20.5634 5.10222 20.1457 5.11718 20.1303 5.16206C20.1148 5.19198 20.0684 5.43137 20.0529 5.71563L19.991 6.20935H20.749C21.5843 6.20935 21.5689 6.19439 21.4606 6.67315L21.4142 6.88261L20.6562 6.89757C19.8054 6.91253 19.8518 6.86765 19.759 7.6606L19.7126 8.04959H20.6407H21.5689V8.21417C21.5689 8.30393 21.5534 8.48347 21.5225 8.5882L21.4761 8.79766H20.1303C19.3878 8.79766 18.7845 8.7827 18.7845 8.76773C18.7845 8.75277 18.9082 7.79525 19.0629 6.65819C19.2176 5.52113 19.3413 4.53369 19.3413 4.4888C19.3413 4.39904 19.5734 4.39904 20.6562 4.39904H21.9711L22.002 4.65338ZM25.4671 4.66834C25.4361 4.81795 25.4052 4.96757 25.3897 5.01245C25.3742 5.08726 25.1113 5.10222 24.4616 5.10222C23.4561 5.10222 23.5489 5.04237 23.4561 5.8054L23.4097 6.20935H24.1677H24.9256V6.38889C24.9256 6.88261 24.9102 6.88261 24.0903 6.91253L23.3323 6.9275L23.2859 7.16688C23.255 7.30153 23.2086 7.55587 23.1931 7.7354L23.1467 8.06455H24.0748H25.003V8.22913C25.003 8.3189 24.9875 8.49843 24.9566 8.60316L24.9102 8.81262H23.5489H22.1876L22.2186 8.5882C22.234 8.46851 22.3733 7.51099 22.5125 6.46369C22.6517 5.4164 22.7909 4.51873 22.8064 4.47384C22.8219 4.414 23.1622 4.38407 24.1522 4.38407H25.4825L25.4671 4.66834ZM31.5928 4.74315C31.9176 4.84787 32.0878 5.01245 33.3562 6.344C34.1297 7.15191 34.7639 7.8551 34.7639 7.87006C34.7639 7.9299 28.0658 7.9299 28.0194 7.87006C27.9885 7.82517 28.2515 4.83291 28.2979 4.69826C28.3597 4.56361 31.1442 4.59353 31.5928 4.74315Z" fill="var(--fill-0, black)"/>
<path id="Vector_2" d="M16.511 5.11694C16.511 5.1319 16.4646 5.44609 16.4182 5.82012C16.3099 6.59811 16.3254 6.59811 16.8359 6.53826C17.3309 6.46346 17.4701 6.31384 17.5011 5.7902C17.5165 5.44609 17.5011 5.3264 17.4237 5.25159C17.3154 5.17678 16.511 5.04213 16.511 5.11694Z" fill="var(--fill-0, black)"/>
<path id="Vector_3" d="M11.7624 12.164C10.5558 12.4632 9.62769 13.4208 9.36472 14.5878C9.11722 15.7248 9.70504 16.8918 10.7569 17.3855C12.1955 18.0737 14.0673 17.3855 14.8098 15.8894C15.0109 15.4854 15.0573 15.3358 15.0728 14.7673C15.1037 13.9145 14.949 13.4806 14.4076 12.9121C13.727 12.2239 12.706 11.9246 11.7624 12.164ZM12.8452 13.6003C13.1237 13.705 13.3712 13.9295 13.5104 14.2436C13.696 14.6177 13.6806 14.9319 13.4795 15.3508C12.969 16.3981 11.4376 16.5327 10.9426 15.5902C10.5713 14.9019 10.9271 13.9893 11.6851 13.6452C12.0099 13.5105 12.5359 13.4806 12.8452 13.6003Z" fill="var(--fill-0, black)"/>
<path id="Vector_4" d="M30.4936 12.1788C28.9312 12.6127 27.8639 14.1238 28.1268 15.5451C28.4517 17.2956 30.2925 18.1634 32.025 17.3704C33.9277 16.5027 34.4846 14.1537 33.1233 12.8371C32.4891 12.2088 31.3908 11.9395 30.4936 12.1788ZM31.6847 13.6151C32.9841 14.2734 32.3963 16.2034 30.8803 16.2184C30.4626 16.2184 30.1842 16.1137 29.8903 15.8144C29.055 14.9766 29.8284 13.5104 31.0969 13.5104C31.3289 13.5254 31.5764 13.5702 31.6847 13.6151Z" fill="var(--fill-0, black)"/>
</g>
</svg>
